<?xml version="1.0" encoding="utf-8"?>
<!-- Generator: Adobe Illustrator 19.0.0, SVG Export Plug-In . SVG Version: 6.00 Build 0)  -->
<svg version="1.1" id="Layer_1" xmlns="http://www.w3.org/2000/svg" xmlns:xlink="http://www.w3.org/1999/xlink" x="0px" y="0px"
	 viewBox="0 0 736.1 428.1" style="enable-background:new 0 0 736.1 428.1;" xml:space="preserve">
<style type="text/css">
	.st0{fill:#A9A9A9;}
	.st1{fill:#F55455;}
	.st2{fill:#59C0D6;}
</style>
<path id="XMLID_221_" class="st0" d="M44,104.2c0-2.7,0-5.3,0-8c2.6,0,5.2,0,8,0c0-8,0-15.6,0-23.2c0-0.1-0.1-0.3-0.2-0.4
	c-0.1-0.1-0.2-0.2-0.4-0.3c-2.5,0-5,0-7.5,0c0-8,0-16,0-24c2.6,0,5.2,0,8,0c0-5.5,0-10.8,0-16c2.7,0,5.3,0,8,0c0,24,0,48,0,72
	C54.7,104.2,49.4,104.2,44,104.2z"/>
<path d="M696,420.1c0,2.7,0,5.3,0,8c-18.7,0-37.3,0-56,0c0-2.7,0-5.3,0-8c2.7,0,5.3,0,8,0c13.3,0,26.7,0,40,0
	C690.7,420.1,693.4,420.1,696,420.1z"/>
<path d="M680,324.1c0-2.5,0-5,0-7.5c0.1-0.1,0.2-0.3,0.3-0.4c0.1-0.1,0.3-0.2,0.4-0.2c15.8,0,31.5,0,47.3,0c0,2.7,0,5.3,0,8
	c-5.3,0-10.7,0-16,0C701.4,324.1,690.7,324.1,680,324.1z"/>
<path id="XMLID_361_" d="M191,272.3c0-2.7,0-5.3,0-8c5.3,0,10.7,0,16,0c8,0,16,0,24,0c2.7,0,5.3,0,8,0c0,2.7,0,5.3,0,8
	C223,272.3,207,272.3,191,272.3z"/>
<path d="M312,428.1c0-2.7,0-5.3,0-8c5.3,0,10.7,0,16,0s10.7,0,16,0c2.7,0,5.3,0,8,0c0,2.7,0,5.3,0,8
	C338.7,428.1,325.4,428.1,312,428.1z"/>
<path d="M240,428.1c0-2.7,0-5.3,0-8c5.3,0,10.7,0,16,0s10.7,0,16,0c2.7,0,5.3,0,8,0c0,2.7,0,5.3,0,8
	C266.7,428.1,253.4,428.1,240,428.1z"/>
<path d="M120,428.1c0-2.7,0-5.3,0-8c5.3,0,10.7,0,16,0s10.7,0,16,0c2.7,0,5.3,0,8,0c0,2.7,0,5.3,0,8
	C146.7,428.1,133.4,428.1,120,428.1z"/>
<path d="M80,420.1c0,2.7,0,5.3,0,8c-13.3,0-26.7,0-40,0c0-2.7,0-5.3,0-8c5.3,0,10.7,0,16,0s10.7,0,16,0
	C74.7,420.1,77.4,420.1,80,420.1z"/>
<path id="XMLID_360_" d="M455,272.3c0-2.7,0-5.3,0-8c5.3,0,10.7,0,16,0s10.7,0,16,0c2.7,0,5.3,0,8,0c0,2.7,0,5.3,0,8
	C481.7,272.3,468.4,272.3,455,272.3z"/>
<path d="M536,428.1c0-2.7,0-5.3,0-8c5.3,0,10.7,0,16,0s10.7,0,16,0c2.7,0,5.3,0,8,0c0,2.7,0,5.3,0,8
	C562.7,428.1,549.4,428.1,536,428.1z"/>
<path d="M440,428.1c0-2.7,0-5.3,0-8c5.3,0,10.7,0,16,0s10.7,0,16,0c2.7,0,5.3,0,8,0c0,2.7,0,5.3,0,8
	C466.7,428.1,453.4,428.1,440,428.1z"/>
<path id="XMLID_220_" d="M476,112.2c0-2.7,0-5.3,0-8c5.3,0,10.7,0,16,0s10.7,0,16,0c2.7,0,5.3,0,8,0c0,2.7,0,5.3,0,8
	C502.7,112.2,489.4,112.2,476,112.2z"/>
<path id="XMLID_219_" d="M612,112.2c0-2.7,0-5.3,0-8c5.3,0,10.7,0,16,0s10.7,0,16,0c2.7,0,5.3,0,8,0c0,2.7,0,5.3,0,8
	C638.7,112.2,625.4,112.2,612,112.2z"/>
<path id="XMLID_218_" d="M204,104.2c0,2.7,0,5.3,0,8c-13.3,0-26.7,0-40,0c0-2.7,0-5.3,0-8c8,0,16,0,24,0
	C193.4,104.2,198.7,104.2,204,104.2z"/>
<path id="XMLID_359_" d="M407,264.3c0,2.7,0,5.3,0,8c-13.3,0-26.7,0-40,0c0-2.7,0-5.3,0-8c5.3,0,10.7,0,16,0s10.7,0,16,0
	C401.7,264.3,404.4,264.3,407,264.3z"/>
<path d="M208,420.1c0,2.7,0,5.3,0,8c-10.7,0-21.3,0-32,0c0-2.7,0-5.3,0-8c2.7,0,5.3,0,8,0c5.3,0,10.7,0,16,0
	C202.7,420.1,205.4,420.1,208,420.1z"/>
<path id="XMLID_358_" d="M535,264.3c0,2.7,0,5.3,0,8c-10.7,0-21.3,0-32,0c0-2.7,0-5.3,0-8c8,0,16,0,24,0
	C529.7,264.3,532.4,264.3,535,264.3z"/>
<path d="M728,340.1c-2.5,0-5,0-7.8,0c-0.4,2.5-0.1,5.2-0.1,7.8c0,2.6,0,5.3,0,8.2c-2.8,0-5.4,0-8,0c0-8,0-16,0-24c5.3,0,10.7,0,16,0
	C728,334.7,728,337.4,728,340.1z"/>
<path id="XMLID_217_" d="M44,72.2c2.5,0,5,0,7.5,0c0.1,0.1,0.3,0.2,0.4,0.3c0.1,0.1,0.2,0.3,0.2,0.4c0,7.6,0,15.3,0,23.2
	c-2.8,0-5.4,0-8,0C44,88.2,44,80.2,44,72.2z"/>
<path id="XMLID_216_" d="M556,104.2c0,2.7,0,5.3,0,8c-8,0-16,0-24,0c0-2.7,0-5.3,0-8c5.3,0,10.7,0,16,0
	C550.7,104.2,553.4,104.2,556,104.2z"/>
<path id="XMLID_215_" d="M404,112.2c0-2.7,0-5.3,0-8c5.3,0,10.7,0,16,0c2.7,0,5.3,0,8,0c0,2.7,0,5.3,0,8
	C420,112.2,412,112.2,404,112.2z"/>
<path id="XMLID_214_" d="M108,104.2c0,2.7,0,5.3,0,8c-8,0-16,0-24,0c0-2.7,0-5.3,0-8c5.3,0,10.7,0,16,0
	C102.7,104.2,105.4,104.2,108,104.2z"/>
<path id="XMLID_213_" d="M44,104.2c5.3,0,10.7,0,16,0c2.7,0,5.3,0,8,0c0,2.7,0,5.3,0,8c-8,0-16,0-24,0C44,109.6,44,106.9,44,104.2z"
	/>
<path d="M392,420.1c0,2.7,0,5.3,0,8c-8,0-16,0-24,0c0-2.7,0-5.3,0-8c5.3,0,10.7,0,16,0C386.7,420.1,389.4,420.1,392,420.1z"/>
<path id="XMLID_357_" d="M623,264.3c0,2.7,0,5.3,0,8c-8,0-16,0-24,0c0-2.7,0-5.3,0-8c5.3,0,10.7,0,16,0
	C617.7,264.3,620.4,264.3,623,264.3z"/>
<path id="XMLID_212_" d="M52,32.2c0,5.2,0,10.5,0,16c-2.8,0-5.4,0-8,0c0-5.3,0-10.7,0-16C46.7,32.2,49.4,32.2,52,32.2z"/>
<path class="st1" d="M728,332.1c-5.3,0-10.7,0-16,0c0-2.7,0-5.3,0-8c5.3,0,10.7,0,16,0C728,326.7,728,329.4,728,332.1z"/>
<path id="XMLID_211_" d="M292,112.2c0-2.7,0-5.3,0-8c5.3,0,10.7,0,16,0c0,2.7,0,5.3,0,8C302.7,112.2,297.4,112.2,292,112.2z"/>
<path id="XMLID_356_" d="M119,264.3c0,2.7,0,5.3,0,8c-5.3,0-10.7,0-16,0c0-2.7,0-5.3,0-8C108.4,264.3,113.7,264.3,119,264.3z"/>
<path id="XMLID_16_" d="M32.2,315.9c2.8,0,5.2,0,7.9,0"/>
<path id="XMLID_15_" d="M48,315.6c0.1,0.1,0.2,0.2,0.3,0.3c0.1,0.1,0.3,0.2,0.4,0.2c21,0,41.9,0,63.2,0c0,2.8,0,5.4,0,8
	c-2.7,0-5.3,0-8,0c-32,0-64,0-96,0c0-2.5,0-5,0-7.9c5.2-0.2,10.4,0,16-0.1"/>
<path d="M40,412.1c0-15.9,0-31.9,0-48c-5.4,0-10.5,0-16,0c0-2.8,0-5.4,0-8c2.7,0,5.3,0,8,0c2.6,0,5.2,0,8,0c-0.1-2.9,0.1-5.5-0.2-8
	c-2.9,0-5.4,0-7.9,0c0-5.3,0-10.7,0-16c5.3,0,10.7,0,16,0c0,26.4,0,52.8,0,79.2c0,0.1-0.1,0.3-0.2,0.4c-0.1,0.1-0.2,0.2-0.4,0.3
	C45,412.1,42.5,412.1,40,412.1z"/>
<path id="XMLID_210_" d="M300,8.2c5.3,0,10.7,0,16,0c0,2.7,0,5.3,0,8c0,18.7,0,37.3,0,56c-2.6,0-5.2,0-8,0c0,2.8,0,5.4,0,8
	c-2.6,0-5.2,0-8,0c0-5.5,0-10.8,0-16c2.6,0,5.2,0,8,0c0-10.6,0-20.9,0-31.2c0-0.1-0.1-0.3-0.2-0.4c-0.1-0.1-0.2-0.3-0.3-0.3
	c-2.5,0-5,0-7.5,0C300,24.2,300,16.2,300,8.2z"/>
<path id="XMLID_209_" d="M580,8.2c0-2.5,0-5,0-7.5c4.4-0.8,86.2-1,104-0.3c0,2.6,0,5.2,0,7.8c-2.7,0-5.3,0-8,0
	C644,8.2,612,8.2,580,8.2z"/>
<path id="XMLID_355_" d="M335,168.3c0-2.5,0-5,0-7.5c4.4-0.8,86.2-1,104-0.3c0,2.6,0,5.2,0,7.8c-2.7,0-5.3,0-8,0
	C399,168.3,367,168.3,335,168.3z"/>
<path id="XMLID_208_" d="M452,32.2c0,2.6,0,5.2,0,8c-2.7,0-5.2,0-7.9,0c0,5.3,0,10.6,0,16c-2.9,0-5.5,0-8.1,0c0-5.3,0-10.5,0-16.2
	c-2.9,0-5.5,0-8.2,0c0-2.8,0-5.2,0-7.8c-2.8,0-5.4,0-8.1,0c-2.6,0-5.2-0.2-7.7,0.1c0,2.9,0,5.4,0,7.8c-2.7,0-5.3,0-8,0
	c0-5.3,0-10.7,0-16c2.6,0,5.2,0,8,0c0-2.8,0-5.4,0-8c2.7,0,5.3,0,8,0c0,2.6,0,5.2,0,8c2.8,0,5.4,0,8,0c2.7,0,5.3,0,8,0
	c0,2.6,0,5.2,0,8c2.8,0,5.4,0,8,0C446.7,32.2,449.4,32.2,452,32.2z"/>
<path id="XMLID_207_" d="M612,96.2c0-23.9,0-47.8,0-72c-2.8,0-5.4,0-8,0c0-2.7,0-5.3,0-8c5.3,0,10.7,0,16,0c0,26.4,0,52.8,0,79.2
	c0,0.1-0.1,0.3-0.2,0.4c-0.1,0.1-0.2,0.2-0.4,0.3C617,96.2,614.5,96.2,612,96.2z"/>
<path id="XMLID_354_" d="M367,256.3c0-23.9,0-47.8,0-72c-2.8,0-5.4,0-8,0c0-2.7,0-5.3,0-8c5.3,0,10.7,0,16,0c0,26.4,0,52.8,0,79.2
	c0,0.1-0.1,0.3-0.2,0.4c-0.1,0.1-0.2,0.2-0.4,0.3C372,256.3,369.5,256.3,367,256.3z"/>
<path id="XMLID_353_" d="M647,192.3c0,2.6,0,5.2,0,8c-2.7,0-5.2,0-7.9,0c0,5.3,0,10.6,0,16c-2.9,0-5.5,0-8.1,0c0-5.3,0-10.5,0-16.2
	c-2.9,0-5.5,0-8.2,0c0-2.8,0-5.2,0-7.8c-2.8,0-5.4,0-8.1,0c-2.6,0-5.2-0.2-7.7,0.1c0,2.9,0,5.4,0,7.8c-2.7,0-5.3,0-8,0
	c0-5.3,0-10.7,0-16c2.6,0,5.2,0,8,0c0-2.8,0-5.4,0-8c2.7,0,5.3,0,8,0c0,2.6,0,5.2,0,8c2.8,0,5.4,0,8,0c2.7,0,5.3,0,8,0
	c0,2.6,0,5.2,0,8c2.8,0,5.4,0,8,0C641.7,192.3,644.4,192.3,647,192.3z"/>
<path id="XMLID_352_" d="M191,256.3c0-26.7,0-53.3,0-80c2.7,0,5.3,0,8,0c0,26.4,0,52.8,0,79.2c0,0.1-0.1,0.3-0.2,0.4
	c-0.1,0.1-0.2,0.2-0.4,0.3C196,256.3,193.5,256.3,191,256.3z"/>
<path id="XMLID_351_" d="M247,192.3c0,5.3,0,10.7,0,16c-2.6,0-5.2,0-8.1,0c0-2.9,0-5.4,0-7.9c-5.4,0-10.5,0-15.9,0
	c0,2.7,0,5.3,0,7.9c-2.7,0-5.3,0-8,0c0-5.3,0-10.7,0-16c2.6,0,5.2,0,8,0c0-5.5,0-10.8,0-16c5.3,0,10.7,0,16,0c0,5.2,0,10.5,0,16
	C241.8,192.3,244.4,192.3,247,192.3z"/>
<path id="XMLID_350_" d="M455,168.3c0-2.5,0-5,0-7.5c4.4-0.7,63-1,80-0.3c0,2.6,0,5.2,0,7.8c-2.7,0-5.3,0-8,0
	C503,168.3,479,168.3,455,168.3z"/>
<path id="XMLID_349_" d="M191,168.3c0-2.5,0-5,0-7.5c4.4-0.7,63-1,80-0.3c0,2.6,0,5.2,0,7.8c-2.7,0-5.3,0-8,0
	C239,168.3,215,168.3,191,168.3z"/>
<path id="XMLID_206_" d="M476,96.2c0-21.3,0-42.7,0-64c2.6,0,5.2,0,7.8,0c0.6,16.2,0.4,59.7-0.3,64C481,96.2,478.5,96.2,476,96.2z"
	/>
<path id="XMLID_348_" d="M599,168.3c0-2.5,0-5,0-7.5c4.2-0.7,33-0.9,48-0.3c0,2.6,0,5.2,0,7.8c-2.7,0-5.3,0-8,0
	C625.7,168.3,612.4,168.3,599,168.3z"/>
<path id="XMLID_205_" d="M148,80.2c0-16,0-32,0-48c2.6,0,5.2,0,7.8,0c0.6,15,0.4,43.8-0.3,48C153,80.2,150.5,80.2,148,80.2z"/>
<path id="XMLID_204_" d="M76,8.2c0-2.5,0-5,0-7.5c4.2-0.7,33-0.9,48-0.3c0,2.6,0,5.2,0,7.8c-8,0-16,0-24,0S84,8.2,76,8.2z"/>
<path id="XMLID_203_" d="M164,8.2c0-2.5,0-5,0-7.5c4.2-0.7,33-0.9,48-0.3c0,2.6,0,5.2,0,7.8c-5.3,0-10.7,0-16,0
	C185.4,8.2,174.7,8.2,164,8.2z"/>
<path id="XMLID_202_" d="M404,8.2c0-2.5,0-5,0-7.5c4.2-0.7,33-0.9,48-0.3c0,2.6,0,5.2,0,7.8c-2.7,0-5.3,0-8,0
	C430.7,8.2,417.4,8.2,404,8.2z"/>
<path id="XMLID_347_" d="M239,232.3c0,5.3,0,10.7,0,16c-8,0-16,0-24,0c0-8,0-16,0-24c2.7,0,5.3,0,8,0c0,5.3,0,10.6,0,16
	c2.9-0.1,5.5,0.1,8-0.2c0-2.9,0-5.4,0-7.9C233.7,232.3,236.4,232.3,239,232.3z"/>
<path id="XMLID_201_" d="M668,40.2c-2.5,0-5,0-7.8,0c0-2.5,0-5.1,0-7.8c-2.8,0-5.2,0-8,0c0,2.4,0,4.9,0,7.8c-2.9,0-5.6,0-8.2,0
	c0-8,0-16,0-24c2.7,0,5.3,0,8,0c0,2.6,0,5.2,0,8c2.8,0,5.4,0,8,0c2.7,0,5.3,0,8,0C668,29.6,668,34.9,668,40.2z"/>
<path id="XMLID_200_" d="M492,8.2c0-2.5,0-5,0-7.5c4.1-0.7,25.8-0.9,40-0.3c0,2.6,0,5.2,0,7.8c-2.7,0-5.3,0-8,0c-8,0-16,0-24,0
	C497.4,8.2,494.7,8.2,492,8.2z"/>
<path id="XMLID_346_" d="M455,176.3c-2.5,0-5,0-7.9,0c-0.3,7.9,0,15.8-0.2,24c-2.7,0-5.3,0-8,0c0-10.7,0-21.3,0-32
	c5.3,0,10.7,0,16,0C455,170.9,455,173.6,455,176.3z"/>
<path id="XMLID_199_" d="M228,40.2c2.5,0,5,0,7.5,0c0.1,0.1,0.2,0.2,0.3,0.3c0.1,0.1,0.2,0.3,0.2,0.4c0,10.3,0,20.6,0,31.2
	c-2.8,0-5.4,0-8,0C228,61.6,228,50.9,228,40.2z"/>
<path id="XMLID_198_" d="M116,72.2c0,10.6,0,21.1,0,32c-2.8,0-5.4,0-8,0c0-10.7,0-21.3,0-32C110.7,72.2,113.4,72.2,116,72.2z"/>
<path id="XMLID_197_" d="M684,8.2c2.5,0,5,0,7.5,0c0.1,0.1,0.2,0.2,0.3,0.3c0.1,0.1,0.2,0.3,0.2,0.4c0,10.3,0,20.6,0,31.2
	c-2.8,0-5.4,0-8,0C684,29.6,684,18.9,684,8.2z"/>
<path id="XMLID_345_" d="M103,168.3c0-2.5,0-5,0-7.5c0.1-0.1,0.2-0.2,0.3-0.3c0.1-0.1,0.3-0.2,0.4-0.2c10.3,0,20.6,0,31.2,0
	c0,2.8,0,5.4,0,8c-5.3,0-10.7,0-16,0S108.4,168.3,103,168.3z"/>
<path id="XMLID_196_" d="M316,8.2c0-2.5,0-5,0-7.5c0.1-0.1,0.2-0.2,0.3-0.3c0.1-0.1,0.3-0.2,0.4-0.2c10.3,0,20.6,0,31.2,0
	c0,2.8,0,5.4,0,8c-2.7,0-5.3,0-8,0C332,8.2,324,8.2,316,8.2z"/>
<path id="XMLID_195_" d="M268,8.2c0-2.5,0-5,0-7.5c0.1-0.1,0.2-0.2,0.3-0.3c0.1-0.1,0.3-0.2,0.4-0.2c10.3,0,20.6,0,31.2,0
	c0,2.8,0,5.4,0,8c-2.7,0-5.3,0-8,0C284,8.2,276,8.2,268,8.2z"/>
<path id="XMLID_194_" d="M452,8.2c2.5,0,5,0,7.5,0c0.1,0.1,0.3,0.2,0.4,0.3c0.1,0.1,0.2,0.3,0.2,0.4c0,7.6,0,15.3,0,23.2
	c-2.8,0-5.4,0-8,0C452,24.2,452,16.2,452,8.2z"/>
<path id="XMLID_193_" d="M220,16.2c2.6,0,5.2,0,8,0c0,8.2,0,16.1,0,24c-2.7,0-5.3,0-8,0c0-2.7,0-5.3,0-8C220,26.9,220,21.6,220,16.2
	z"/>
<path id="XMLID_344_" d="M647,168.3c2.5,0,5,0,7.5,0c0.1,0.1,0.3,0.2,0.4,0.3c0.1,0.1,0.2,0.3,0.2,0.4c0,7.6,0,15.3,0,23.2
	c-2.8,0-5.4,0-8,0C647,184.3,647,176.3,647,168.3z"/>
<path id="XMLID_343_" d="M159,200.3c2.5,0,5,0,7.5,0c0.1,0.1,0.3,0.2,0.4,0.3c0.1,0.1,0.2,0.3,0.2,0.4c0,7.6,0,15.3,0,23.2
	c-2.8,0-5.4,0-8,0C159,216.3,159,208.3,159,200.3z"/>
<path id="XMLID_192_" d="M604,24.2c0,5.2,0,10.5,0,16c-2.8,0-5.4,0-8,0c0-2.6,0-5.2,0-8c-2.8,0-5.4,0-8,0c0-2.7,0-5.3,0-8
	C593.4,24.2,598.7,24.2,604,24.2z"/>
<path id="XMLID_342_" d="M359,184.3c0,5.2,0,10.5,0,16c-2.8,0-5.4,0-8,0c0-2.6,0-5.2,0-8c-2.8,0-5.4,0-8,0c0-2.7,0-5.3,0-8
	C348.4,184.3,353.7,184.3,359,184.3z"/>
<path id="XMLID_341_" d="M535,232.3c0,5.3,0,10.7,0,16c-5.3,0-10.7,0-16,0c0-2.7,0-5.3,0-8c2.6,0,5.2,0,8,0c0-2.8,0-5.4,0-8
	C529.7,232.3,532.4,232.3,535,232.3z"/>
<path id="XMLID_191_" d="M556,80.2c0,5.3,0,10.7,0,16c-2.7,0-5.3,0-8,0c-2.6,0-5.2,0-8,0c0-2.8,0-5.4,0-8c2.6,0,5.2,0,8,0
	c0-2.8,0-5.4,0-8C550.7,80.2,553.4,80.2,556,80.2z"/>
<path d="M24,356.1c-2.6,0-5.2,0-8,0c0-5.5,0-10.8,0-16c2.6,0,5.2,0,8,0c0,2.8,0,5.4,0,8C24,350.7,24,353.4,24,356.1z"/>
<path id="XMLID_190_" d="M580,40.2c-2.5,0-5,0-7.8,0c-0.4-2.5-0.1-5.2-0.1-7.8c0-2.6,0-5.3,0-8.2c2.8,0,5.4,0,8,0c0,2.7,0,5.3,0,8
	S580,37.6,580,40.2z"/>
<path id="XMLID_340_" d="M151,184.3c2.6,0,5.2,0,8,0c0,5.5,0,10.8,0,16c-2.6,0-5.2,0-8,0C151,194.7,151,189.5,151,184.3z"/>
<path id="XMLID_339_" d="M335,200.3c-2.5,0-5,0-7.8,0c-0.4-2.5-0.1-5.2-0.1-7.8c0-2.6,0-5.3,0-8.2c2.8,0,5.4,0,8,0c0,2.7,0,5.3,0,8
	S335,197.6,335,200.3z"/>
<path id="XMLID_189_" d="M652,88.2c2.5,0,5,0,7.8,0c0.4,2.5,0.1,5.2,0.1,7.8c0,2.6,0,5.3,0,8.2c-2.8,0-5.4,0-8,0
	C652,98.9,652,93.6,652,88.2z"/>
<path id="XMLID_188_" d="M452,88.2c0,2.6,0,5.2,0,8c-5.5,0-10.8,0-16,0c0-2.7,0-5.3,0-8c2.7,0,5.3,0,8,0S449.4,88.2,452,88.2z"/>
<path id="XMLID_187_" d="M596,40.2c0,2.5,0,5,0,7.8c-2.5,0.4-5.2,0.1-7.8,0.1c-2.6,0-5.3,0-8.2,0c0-2.8,0-5.4,0-8c2.7,0,5.3,0,8,0
	S593.4,40.2,596,40.2z"/>
<path id="XMLID_186_" d="M684,40.2c0,2.5,0,5,0,7.8c-2.5,0.4-5.2,0.1-7.8,0.1c-2.6,0-5.3,0-8.2,0c0-2.8,0-5.4,0-8c2.7,0,5.3,0,8,0
	S681.4,40.2,684,40.2z"/>
<path id="XMLID_338_" d="M351,200.3c0,2.5,0,5,0,7.8c-2.5,0.4-5.2,0.1-7.8,0.1c-2.6,0-5.3,0-8.2,0c0-2.8,0-5.4,0-8c2.7,0,5.3,0,8,0
	S348.4,200.3,351,200.3z"/>
<path id="XMLID_337_" d="M527,200.3c2.6,0,5.2,0,8,0c0,5.5,0,10.8,0,16c-2.7,0-5.3,0-8,0C527,210.9,527,205.6,527,200.3z"/>
<path id="XMLID_336_" d="M647,248.3c0,2.6,0,5.2,0,8c-5.5,0-10.8,0-16,0c0-2.7,0-5.3,0-8c2.7,0,5.3,0,8,0S644.4,248.3,647,248.3z"/>
<path id="XMLID_335_" d="M535,248.3c2.5,0,5,0,7.8,0c0.4,2.5,0.1,5.2,0.1,7.8c0,2.6,0,5.3,0,8.2c-2.8,0-5.4,0-8,0
	C535,258.9,535,253.6,535,248.3z"/>
<path id="XMLID_185_" d="M260,48.2c0-5.2,0-10.5,0-16c2.8,0,5.4,0,8,0c0,5.2,0,10.5,0,16C265.2,48.2,262.6,48.2,260,48.2z"/>
<path id="XMLID_184_" d="M372,48.2c0-5.2,0-10.5,0-16c2.8,0,5.4,0,8,0c0,5.2,0,10.5,0,16C377.2,48.2,374.6,48.2,372,48.2z"/>
<path id="XMLID_183_" d="M556,32.2c2.6,0,5.2,0,8,0c0,5.5,0,10.8,0,16c-2.7,0-5.3,0-8,0C556,42.9,556,37.6,556,32.2z"/>
<path id="XMLID_334_" d="M71,208.3c0-5.2,0-10.5,0-16c2.8,0,5.4,0,8,0c0,5.2,0,10.5,0,16C76.2,208.3,73.6,208.3,71,208.3z"/>
<path id="XMLID_333_" d="M567,208.3c0-5.2,0-10.5,0-16c2.8,0,5.4,0,8,0c0,5.2,0,10.5,0,16C572.2,208.3,569.6,208.3,567,208.3z"/>
<path id="XMLID_332_" d="M239,248.3c2.5,0,5,0,7.8,0c0.4,2.5,0.1,5.2,0.1,7.8c0,2.6,0,5.3,0,8.2c-2.8,0-5.4,0-8,0
	C239,258.9,239,253.6,239,248.3z"/>
<path id="XMLID_331_" d="M535,176.3c0,2.6,0,5.2,0,8c-5.5,0-10.8,0-16,0c0-2.6,0-5.2,0-8c2.8,0,5.4,0,8,0
	C529.7,176.3,532.4,176.3,535,176.3z"/>
<path id="XMLID_182_" d="M532,8.2c5.2,0,10.5,0,16,0c0,2.8,0,5.4,0,8c-2.7,0-5.3,0-8,0s-5.3,0-8,0C532,13.6,532,10.9,532,8.2z"/>
<path id="XMLID_181_" d="M548,16.2c2.6,0,5.2,0,8,0c0,5.5,0,10.8,0,16c-2.6,0-5.2,0-8,0c0-2.8,0-5.4,0-8C548,21.6,548,18.9,548,16.2
	z"/>
<path id="XMLID_180_" d="M348,16.2c0,5.2,0,10.5,0,16c-2.8,0-5.4,0-8,0c0-5.3,0-10.7,0-16C342.7,16.2,345.4,16.2,348,16.2z"/>
<path id="XMLID_330_" d="M271,176.3c0,2.6,0,5.2,0,8c-5.5,0-10.8,0-16,0c0-2.7,0-5.3,0-8c2.7,0,5.3,0,8,0S268.4,176.3,271,176.3z"/>
<path id="XMLID_179_" d="M268,32.2c0-5.3,0-10.7,0-16c2.7,0,5.3,0,8,0c0,5.2,0,10.5,0,16C273.2,32.2,270.6,32.2,268,32.2z"/>
<path id="XMLID_178_" d="M124,24.2c0,5.2,0,10.5,0,16c-2.8,0-5.4,0-8,0c0-5.3,0-10.7,0-16C118.7,24.2,121.4,24.2,124,24.2z"/>
<path id="XMLID_177_" d="M124,8.2c2.5,0,5,0,7.8,0c0.4,2.5,0.1,5.2,0.1,7.8c0,2.6,0,5.3,0,8.2c-2.8,0-5.4,0-8,0
	C124,18.9,124,13.6,124,8.2z"/>
<path id="XMLID_329_" d="M79,240.3c-2.6,0-5.2,0-8,0c0-5.5,0-10.8,0-16c2.6,0,5.2,0,8,0C79,229.8,79,235,79,240.3z"/>
<path id="XMLID_328_" d="M159,224.3c0,5.2,0,10.5,0,16c-2.8,0-5.4,0-8,0c0-5.3,0-10.7,0-16C153.7,224.3,156.4,224.3,159,224.3z"/>
<path id="XMLID_327_" d="M575,240.3c-2.6,0-5.2,0-8,0c0-5.5,0-10.8,0-16c2.6,0,5.2,0,8,0C575,229.8,575,235,575,240.3z"/>
<path id="XMLID_326_" d="M631,224.3c5.2,0,10.5,0,16,0c0,2.8,0,5.4,0,8c-5.3,0-10.7,0-16,0C631,229.6,631,226.9,631,224.3z"/>
<path id="XMLID_325_" d="M567,224.3c-2.5,0-5,0-7.8,0c-0.4-2.5-0.1-5.2-0.1-7.8c0-2.6,0-5.3,0-8.2c2.8,0,5.4,0,8,0
	C567,213.6,567,218.9,567,224.3z"/>
<path id="XMLID_176_" d="M380,80.2c-2.6,0-5.2,0-8,0c0-5.5,0-10.8,0-16c2.6,0,5.2,0,8,0C380,69.8,380,75,380,80.2z"/>
<path id="XMLID_324_" d="M535,216.3c2.5,0,5,0,7.8,0c0.4,2.5,0.1,5.2,0.1,7.8c0,2.6,0,5.3,0,8.2c-2.8,0-5.4,0-8,0
	C535,226.9,535,221.6,535,216.3z"/>
<path id="XMLID_175_" d="M436,64.2c5.2,0,10.5,0,16,0c0,2.8,0,5.4,0,8c-5.3,0-10.7,0-16,0C436,69.6,436,66.9,436,64.2z"/>
<path id="XMLID_174_" d="M564,64.2c0,5.2,0,10.5,0,16c-2.8,0-5.4,0-8,0c0-5.3,0-10.7,0-16C558.7,64.2,561.4,64.2,564,64.2z"/>
<path id="XMLID_323_" d="M151,240.3c0,2.6,0,5.2,0,8c-5.5,0-10.8,0-16,0c0-2.7,0-5.3,0-8c2.7,0,5.3,0,8,0S148.4,240.3,151,240.3z"/>
<path id="XMLID_173_" d="M452,72.2c2.5,0,5,0,7.8,0c0.4,2.5,0.1,5.2,0.1,7.8c0,2.6,0,5.3,0,8.2c-2.8,0-5.4,0-8,0
	C452,82.9,452,77.6,452,72.2z"/>
<path id="XMLID_322_" d="M647,232.3c2.5,0,5,0,7.8,0c0.4,2.5,0.1,5.2,0.1,7.8c0,2.6,0,5.3,0,8.2c-2.8,0-5.4,0-8,0
	C647,242.9,647,237.6,647,232.3z"/>
<path id="XMLID_321_" d="M71,224.3c-2.5,0-5,0-7.8,0c-0.4-2.5-0.1-5.2-0.1-7.8c0-2.6,0-5.3,0-8.2c2.8,0,5.4,0,8,0
	C71,213.6,71,218.9,71,224.3z"/>
<path id="XMLID_172_" d="M332,72.2c0,5.2,0,10.5,0,16c-2.8,0-5.4,0-8,0c0-5.3,0-10.7,0-16C326.7,72.2,329.4,72.2,332,72.2z"/>
<path id="XMLID_171_" d="M276,88.2c-2.6,0-5.2,0-8,0c0-5.5,0-10.8,0-16c2.7,0,5.3,0,8,0c0,2.7,0,5.3,0,8S276,85.6,276,88.2z"/>
<path id="XMLID_170_" d="M228,72.2c0,5.2,0,10.5,0,16c-2.8,0-5.4,0-8,0c0-2.7,0-5.3,0-8s0-5.3,0-8C222.7,72.2,225.4,72.2,228,72.2z"
	/>
<path id="XMLID_169_" d="M564,48.2c2.5,0,5,0,7.8,0c0.4,2.5,0.1,5.2,0.1,7.8c0,2.6,0,5.3,0,8.2c-2.8,0-5.4,0-8,0
	C564,58.9,564,53.6,564,48.2z"/>
<path id="XMLID_168_" d="M260,64.2c-2.5,0-5,0-7.8,0c-0.4-2.5-0.1-5.2-0.1-7.8c0-2.6,0-5.3,0-8.2c2.8,0,5.4,0,8,0
	C260,53.6,260,58.9,260,64.2z"/>
<path id="XMLID_167_" d="M372,64.2c-2.5,0-5,0-7.8,0c-0.4-2.5-0.1-5.2-0.1-7.8c0-2.6,0-5.3,0-8.2c2.8,0,5.4,0,8,0
	C372,53.6,372,58.9,372,64.2z"/>
<path id="XMLID_320_" d="M247,208.3c2.5,0,5,0,7.8,0c0.4,2.5,0.1,5.2,0.1,7.8c0,2.6,0,5.3,0,8.2c-2.8,0-5.4,0-8,0
	C247,218.9,247,213.6,247,208.3z"/>
<path id="XMLID_166_" d="M148,88.2c-2.5,0-5,0-7.9,0c-0.3-2.5-0.1-5.1-0.2-8c2.8,0,5.4,0,8,0C148,82.9,148,85.6,148,88.2z"/>
<path id="XMLID_319_" d="M103,264.3c-2.6,0-5.2,0-8,0c0-2.8,0-5.4,0-8c2.7,0,5.3,0,8,0C103,258.9,103,261.6,103,264.3z"/>
<path id="XMLID_318_" d="M127,256.3c0,2.6,0,5.2,0,8c-2.8,0-5.4,0-8,0c0-2.7,0-5.3,0-8C121.7,256.3,124.4,256.3,127,256.3z"/>
<path id="XMLID_317_" d="M191,264.3c-2.5,0-5,0-7.9,0c-0.3-2.5-0.1-5.1-0.2-8c2.8,0,5.4,0,8,0C191,258.9,191,261.6,191,264.3z"/>
<path id="XMLID_316_" d="M367,264.3c-2.5,0-5,0-7.9,0c-0.3-2.5-0.1-5.1-0.2-8c2.8,0,5.4,0,8,0C367,258.9,367,261.6,367,264.3z"/>
<path id="XMLID_315_" d="M335,184.3c0-2.7,0-5.3,0-8c2.7,0,5.3,0,8,0c0,2.7,0,5.3,0,8C340.4,184.3,337.7,184.3,335,184.3z"/>
<path id="XMLID_165_" d="M388,88.2c-2.6,0-5.2,0-8,0c0-2.8,0-5.4,0-8c2.7,0,5.3,0,8,0C388,82.9,388,85.6,388,88.2z"/>
<path id="XMLID_164_" d="M268,72.2c-2.6,0-5.2,0-8,0c0-2.8,0-5.4,0-8c2.6,0,5.2,0,8,0C268,67.1,268,69.6,268,72.2z"/>
<path id="XMLID_163_" d="M340,64.2c0,2.6,0,5.2,0,8c-2.8,0-5.4,0-8,0c0-2.7,0-5.3,0-8C334.7,64.2,337.4,64.2,340,64.2z"/>
<path id="XMLID_162_" d="M476,104.2c-2.5,0-5,0-7.9,0c-0.3-2.5-0.1-5.1-0.2-8c2.8,0,5.4,0,8,0C476,98.9,476,101.6,476,104.2z"/>
<path id="XMLID_161_" d="M644,72.2c0,2.7,0,5.3,0,8c-2.7,0-5.3,0-8,0c0-2.7,0-5.3,0-8C638.7,72.2,641.4,72.2,644,72.2z"/>
<path id="XMLID_160_" d="M436,96.2c0,2.6,0,5.2,0,8c-2.8,0-5.4,0-8,0c0-2.7,0-5.3,0-8C430.7,96.2,433.4,96.2,436,96.2z"/>
<path id="XMLID_159_" d="M556,96.2c2.5,0,5,0,7.9,0c0.3,2.5,0.1,5.1,0.2,8c-2.8,0-5.4,0-8,0C556,101.6,556,98.9,556,96.2z"/>
<path id="XMLID_314_" d="M87,184.3c0-2.6,0-5.2,0-8c2.8,0,5.4,0,8,0c0,2.6,0,5.2,0,8C92.2,184.3,89.6,184.3,87,184.3z"/>
<path id="XMLID_313_" d="M143,176.3c2.6,0,5.2,0,8,0c0,2.8,0,5.4,0,8c-2.6,0-5.2,0-8,0C143,181.4,143,178.9,143,176.3z"/>
<path id="XMLID_158_" d="M116,64.2c2.5,0,5,0,7.9,0c0.3,2.5,0.1,5.1,0.2,8c-2.8,0-5.4,0-8,0C116,69.6,116,66.9,116,64.2z"/>
<path id="XMLID_157_" d="M612,104.2c-2.5,0-5,0-7.9,0c-0.3-2.5-0.1-5.1-0.2-8c2.8,0,5.4,0,8,0C612,98.9,612,101.6,612,104.2z"/>
<path d="M16,340.1c-2.6,0-5.2,0-8,0c0-2.8,0-5.4,0-8c2.7,0,5.3,0,8,0C16,334.7,16,337.4,16,340.1z"/>
<path id="XMLID_156_" d="M644,64.2c2.5,0,5,0,7.9,0c0.3,2.5,0.1,5.1,0.2,8c-2.8,0-5.4,0-8,0C644,69.6,644,66.9,644,64.2z"/>
<path id="XMLID_312_" d="M599,264.3c-2.6,0-5.2,0-8,0c0-2.8,0-5.4,0-8c2.6,0,5.2,0,8,0C599,259.1,599,261.7,599,264.3z"/>
<path id="XMLID_311_" d="M247,224.3c0,2.6,0,5.2,0,8c-2.8,0-5.4,0-8,0c0-2.7,0-5.3,0-8C241.7,224.3,244.4,224.3,247,224.3z"/>
<path id="XMLID_310_" d="M631,256.3c0,2.6,0,5.2,0,8c-2.8,0-5.4,0-8,0c0-2.7,0-5.3,0-8C625.7,256.3,628.4,256.3,631,256.3z"/>
<path d="M40,420.1c-2.5,0-5,0-7.9,0c-0.3-2.5-0.1-5.1-0.2-8c2.8,0,5.4,0,8,0C40,414.7,40,417.4,40,420.1z"/>
<path id="XMLID_309_" d="M583,184.3c0-2.6,0-5.2,0-8c2.8,0,5.4,0,8,0c0,2.7,0,5.3,0,8C588.4,184.3,585.7,184.3,583,184.3z"/>
<path id="XMLID_308_" d="M135,248.3c0,2.6,0,5.2,0,8c-2.8,0-5.4,0-8,0c0-2.7,0-5.3,0-8C129.7,248.3,132.4,248.3,135,248.3z"/>
<path id="XMLID_307_" d="M95,256.3c-2.6,0-5.2,0-8,0c0-2.8,0-5.4,0-8c2.7,0,5.3,0,8,0C95,250.9,95,253.6,95,256.3z"/>
<path id="XMLID_155_" d="M116,40.2c0,2.7,0,5.3,0,8c-2.7,0-5.3,0-8,0c0-2.7,0-5.3,0-8C110.7,40.2,113.4,40.2,116,40.2z"/>
<path id="XMLID_154_" d="M396,96.2c-2.6,0-5.2,0-8,0c0-2.8,0-5.4,0-8c2.7,0,5.3,0,8,0C396,90.9,396,93.6,396,96.2z"/>
<path id="XMLID_153_" d="M340,40.2c2.5,0,5,0,7.9,0c0.3,2.5,0.1,5.1,0.2,8c-2.8,0-5.4,0-8,0C340,45.6,340,42.9,340,40.2z"/>
<path id="XMLID_152_" d="M644,48.2c2.5,0,5,0,7.9,0c0.3,2.5,0.1,5.1,0.2,8c-2.8,0-5.4,0-8,0C644,53.6,644,50.9,644,48.2z"/>
<path id="XMLID_306_" d="M583,248.3c-2.6,0-5.2,0-8,0c0-2.8,0-5.4,0-8c2.7,0,5.3,0,8,0C583,242.9,583,245.6,583,248.3z"/>
<path id="XMLID_305_" d="M519,192.3c2.6,0,5.2,0,8,0c0,2.8,0,5.4,0,8c-2.6,0-5.2,0-8,0C519,197.4,519,194.9,519,192.3z"/>
<path id="XMLID_151_" d="M116,48.2c2.5,0,5,0,7.9,0c0.3,2.5,0.1,5.1,0.2,8c-2.8,0-5.4,0-8,0C116,53.6,116,50.9,116,48.2z"/>
<path id="XMLID_150_" d="M324,88.2c0,2.6,0,5.2,0,8c-2.8,0-5.4,0-8,0c0-2.7,0-5.3,0-8C318.7,88.2,321.4,88.2,324,88.2z"/>
<path id="XMLID_149_" d="M284,96.2c-2.6,0-5.2,0-8,0c0-2.8,0-5.4,0-8c2.7,0,5.3,0,8,0C284,90.9,284,93.6,284,96.2z"/>
<path id="XMLID_148_" d="M220,88.2c0,2.6,0,5.2,0,8c-2.8,0-5.4,0-8,0c0-2.7,0-5.3,0-8C214.7,88.2,217.4,88.2,220,88.2z"/>
<path id="XMLID_147_" d="M644,40.2c0,2.7,0,5.3,0,8c-2.7,0-5.3,0-8,0c0-2.7,0-5.3,0-8C638.7,40.2,641.4,40.2,644,40.2z"/>
<path id="XMLID_146_" d="M156,96.2c-2.6,0-5.2,0-8,0c0-2.8,0-5.4,0-8c2.6,0,5.2,0,8,0C156,91.1,156,93.6,156,96.2z"/>
<path id="XMLID_145_" d="M340,48.2c0,2.7,0,5.3,0,8c-2.7,0-5.3,0-8,0c0-2.7,0-5.3,0-8C334.7,48.2,337.4,48.2,340,48.2z"/>
<path id="XMLID_144_" d="M164,104.2c-2.6,0-5.2,0-8,0c0-2.8,0-5.4,0-8c2.7,0,5.3,0,8,0C164,98.9,164,101.6,164,104.2z"/>
<path id="XMLID_304_" d="M631,216.3c0,2.7,0,5.3,0,8c-2.7,0-5.3,0-8,0c0-2.7,0-5.3,0-8C625.7,216.3,628.4,216.3,631,216.3z"/>
<path id="XMLID_143_" d="M644,80.2c2.6,0,5.2,0,8,0c0,2.8,0,5.4,0,8c-2.6,0-5.2,0-8,0C644,85.4,644,82.8,644,80.2z"/>
<path id="XMLID_303_" d="M87,248.3c-2.6,0-5.2,0-8,0c0-2.8,0-5.4,0-8c2.7,0,5.3,0,8,0C87,242.9,87,245.6,87,248.3z"/>
<path id="XMLID_302_" d="M79,192.3c0-2.6,0-5.2,0-8c2.8,0,5.4,0,8,0c0,2.6,0,5.2,0,8C84.2,192.3,81.6,192.3,79,192.3z"/>
<path id="XMLID_301_" d="M255,184.3c0,2.6,0,5.2,0,8c-2.8,0-5.4,0-8,0c0-2.6,0-5.2,0-8C249.9,184.3,252.4,184.3,255,184.3z"/>
<path id="XMLID_142_" d="M644,56.2c0,2.7,0,5.3,0,8c-2.7,0-5.3,0-8,0c0-2.7,0-5.3,0-8C638.7,56.2,641.4,56.2,644,56.2z"/>
<path id="XMLID_141_" d="M60,32.2c-2.7,0-5.3,0-8,0c0-2.6,0-5.2,0-8c2.8,0,5.4,0,8,0C60,26.9,60,29.6,60,32.2z"/>
<path id="XMLID_140_" d="M404,104.2c-2.6,0-5.2,0-8,0c0-2.8,0-5.4,0-8c2.6,0,5.2,0,8,0C404,99.1,404,101.6,404,104.2z"/>
<path id="XMLID_139_" d="M316,96.2c0,2.6,0,5.2,0,8c-2.8,0-5.4,0-8,0c0-2.7,0-5.3,0-8C310.7,96.2,313.4,96.2,316,96.2z"/>
<path id="XMLID_138_" d="M148,32.2c-2.5,0-5,0-7.9,0c-0.3-2.5-0.1-5.1-0.2-8c2.8,0,5.4,0,8,0C148,26.9,148,29.6,148,32.2z"/>
<path id="XMLID_137_" d="M380,32.2c0-2.6,0-5.2,0-8c2.8,0,5.4,0,8,0c0,2.6,0,5.2,0,8C385.2,32.2,382.6,32.2,380,32.2z"/>
<path id="XMLID_136_" d="M292,104.2c-2.6,0-5.2,0-8,0c0-2.8,0-5.4,0-8c2.7,0,5.3,0,8,0C292,98.9,292,101.6,292,104.2z"/>
<path id="XMLID_135_" d="M212,96.2c0,2.6,0,5.2,0,8c-2.8,0-5.4,0-8,0c0-2.7,0-5.3,0-8C206.7,96.2,209.4,96.2,212,96.2z"/>
<path id="XMLID_134_" d="M476,32.2c-2.5,0-5,0-7.9,0c-0.3-2.5-0.1-5.1-0.2-8c2.8,0,5.4,0,8,0C476,26.9,476,29.6,476,32.2z"/>
<path id="XMLID_300_" d="M591,256.3c-2.6,0-5.2,0-8,0c0-2.8,0-5.4,0-8c2.7,0,5.3,0,8,0C591,250.9,591,253.6,591,256.3z"/>
<path id="XMLID_133_" d="M340,32.2c0,2.7,0,5.3,0,8c-2.7,0-5.3,0-8,0c0-2.7,0-5.3,0-8C334.7,32.2,337.4,32.2,340,32.2z"/>
<path id="XMLID_132_" d="M436,56.2c0,2.7,0,5.3,0,8c-2.7,0-5.3,0-8,0c0-2.7,0-5.3,0-8C430.7,56.2,433.4,56.2,436,56.2z"/>
<path id="XMLID_299_" d="M519,184.3c0,2.7,0,5.3,0,8c-2.6,0-5.2,0-8,0c0-2.8,0-5.4,0-8C513.7,184.3,516.4,184.3,519,184.3z"/>
<path id="XMLID_131_" d="M340,56.2c2.5,0,5,0,7.9,0c0.3,2.5,0.1,5.1,0.2,8c-2.8,0-5.4,0-8,0C340,61.6,340,58.9,340,56.2z"/>
<path id="XMLID_298_" d="M575,192.3c0-2.6,0-5.2,0-8c2.8,0,5.4,0,8,0c0,2.6,0,5.2,0,8C580.2,192.3,577.6,192.3,575,192.3z"/>
<path id="XMLID_130_" d="M116,56.2c0,2.7,0,5.3,0,8c-2.7,0-5.3,0-8,0c0-2.7,0-5.3,0-8C110.7,56.2,113.4,56.2,116,56.2z"/>
<path id="XMLID_129_" d="M68,16.2c0-2.6,0-5.2,0-8c2.8,0,5.4,0,8,0c0,2.7,0,5.3,0,8C73.4,16.2,70.7,16.2,68,16.2z"/>
<path id="XMLID_128_" d="M156,16.2c0-2.6,0-5.2,0-8c2.8,0,5.4,0,8,0c0,2.7,0,5.3,0,8C161.4,16.2,158.7,16.2,156,16.2z"/>
<path id="XMLID_127_" d="M60,24.2c0-2.6,0-5.2,0-8c2.8,0,5.4,0,8,0c0,2.6,0,5.2,0,8C65.2,24.2,62.6,24.2,60,24.2z"/>
<path id="XMLID_126_" d="M148,24.2c0-2.6,0-5.2,0-8c2.8,0,5.4,0,8,0c0,2.6,0,5.2,0,8C153.2,24.2,150.6,24.2,148,24.2z"/>
<path id="XMLID_125_" d="M388,24.2c0-2.6,0-5.2,0-8c2.8,0,5.4,0,8,0c0,2.7,0,5.3,0,8C393.4,24.2,390.7,24.2,388,24.2z"/>
<path id="XMLID_124_" d="M476,24.2c0-2.6,0-5.2,0-8c2.8,0,5.4,0,8,0c0,2.6,0,5.2,0,8C481.2,24.2,478.6,24.2,476,24.2z"/>
<path id="XMLID_123_" d="M580,24.2c0-2.7,0-5.3,0-8c2.7,0,5.3,0,8,0c0,2.7,0,5.3,0,8C585.4,24.2,582.7,24.2,580,24.2z"/>
<path id="XMLID_122_" d="M212,8.2c2.6,0,5.2,0,8,0c0,2.8,0,5.4,0,8c-2.6,0-5.2,0-8,0C212,13.4,212,10.8,212,8.2z"/>
<path id="XMLID_121_" d="M268,16.2c-2.5,0-5,0-7.9,0c-0.3-2.5-0.1-5.1-0.2-8c2.8,0,5.4,0,8,0C268,10.9,268,13.6,268,16.2z"/>
<path id="XMLID_120_" d="M348,8.2c2.5,0,5,0,7.9,0c0.3,2.5,0.1,5.1,0.2,8c-2.8,0-5.4,0-8,0C348,13.6,348,10.9,348,8.2z"/>
<path id="XMLID_119_" d="M396,16.2c0-2.6,0-5.2,0-8c2.8,0,5.4,0,8,0c0,2.7,0,5.3,0,8C401.4,16.2,398.7,16.2,396,16.2z"/>
<path id="XMLID_118_" d="M484,16.2c0-2.6,0-5.2,0-8c2.8,0,5.4,0,8,0c0,2.7,0,5.3,0,8C489.4,16.2,486.7,16.2,484,16.2z"/>
<path id="XMLID_117_" d="M580,16.2c-2.5,0-5,0-7.9,0c-0.3-2.5-0.1-5.1-0.2-8c2.8,0,5.4,0,8,0C580,10.9,580,13.6,580,16.2z"/>
<path id="XMLID_297_" d="M95,176.3c0-2.6,0-5.2,0-8c2.8,0,5.4,0,8,0c0,2.7,0,5.3,0,8C100.4,176.3,97.7,176.3,95,176.3z"/>
<path id="XMLID_296_" d="M135,168.3c2.6,0,5.2,0,8,0c0,2.8,0,5.4,0,8c-2.6,0-5.2,0-8,0C135,173.4,135,170.9,135,168.3z"/>
<path id="XMLID_295_" d="M191,176.3c-2.5,0-5,0-7.9,0c-0.3-2.5-0.1-5.1-0.2-8c2.8,0,5.4,0,8,0C191,170.9,191,173.6,191,176.3z"/>
<path d="M8,332.1c-2.5,0-5,0-7.9,0c-0.3-2.5-0.1-5.1-0.2-8c2.8,0,5.4,0,8,0C8,326.7,8,329.4,8,332.1z"/>
<path id="XMLID_294_" d="M591,176.3c0-2.6,0-5.2,0-8c2.8,0,5.4,0,8,0c0,2.7,0,5.3,0,8C596.4,176.3,593.7,176.3,591,176.3z"/>
<path id="XMLID_293_" d="M535,168.3c2.5,0,5,0,7.9,0c0.3,2.5,0.1,5.1,0.2,8c-2.8,0-5.4,0-8,0C535,173.6,535,170.9,535,168.3z"/>
<path id="XMLID_292_" d="M335,176.3c-2.5,0-5,0-7.9,0c-0.3-2.5-0.1-5.1-0.2-8c2.8,0,5.4,0,8,0C335,170.9,335,173.6,335,176.3z"/>
<path id="XMLID_291_" d="M271,168.3c2.5,0,5,0,7.9,0c0.3,2.5,0.1,5.1,0.2,8c-2.8,0-5.4,0-8,0C271,173.6,271,170.9,271,168.3z"/>
<path d="M536,412.1c0-15.9,0-31.9,0-48c-5.4,0-10.5,0-16,0c0-2.8,0-5.4,0-8c2.7,0,5.3,0,8,0c2.6,0,5.2,0,8,0c-0.1-2.9,0.1-5.5-0.2-8
	c-2.9,0-5.4,0-7.9,0c0-5.3,0-10.7,0-16c5.3,0,10.7,0,16,0c0,26.4,0,52.8,0,79.2c0,0.1-0.1,0.3-0.2,0.4c-0.1,0.1-0.2,0.2-0.4,0.3
	C541,412.1,538.5,412.1,536,412.1z"/>
<path d="M504,324.1c0-2.5,0-5,0-7.5c4.4-0.8,86.2-1,104-0.3c0,2.6,0,5.2,0,7.8c-2.7,0-5.3,0-8,0C568,324.1,536,324.1,504,324.1z"/>
<path d="M440,412.1c0-26.7,0-53.3,0-80c2.6,0,5.2,0,7.8,0c0.7,17,0.4,75.6-0.3,80C445,412.1,442.5,412.1,440,412.1z"/>
<path d="M240,412.1c0-26.7,0-53.3,0-80c2.6,0,5.2,0,7.8,0c0.7,17,0.4,75.6-0.3,80C245,412.1,242.5,412.1,240,412.1z"/>
<path d="M640,396.1c0-5.3,0-10.7,0-16c2.6,0,5.2,0,8.2,0c0,2.9,0,5.5,0,8.2c2.8,0,5.2,0,7.8,0c0,2.6,0,5.1,0,7.8c8.1,0,16,0,24,0
	c2.7,0,5.3,0,8,0c0,2.6,0,5.2,0,8.1c-2.8,0-5.4,0-8.1,0c0,2.8,0,5.2,0,7.9c-2.7,0-5.3,0-7.9,0c0-2.6,0-5.2,0-8c-5.5,0-10.8,0-16,0
	c-2.7,0-5.3,0-8,0c0-2.6,0-5.2,0-8C645.2,396.1,642.6,396.1,640,396.1z"/>
<path d="M312,412.1c0-21.3,0-42.7,0-64c2.6,0,5.2,0,7.8,0c0.6,16.2,0.4,59.7-0.3,64C317,412.1,314.5,412.1,312,412.1z"/>
<path d="M136,324.1c0-2.5,0-5,0-7.5c4.2-0.7,33-0.9,48-0.3c0,2.6,0,5.2,0,7.8c-5.3,0-10.7,0-16,0C157.4,324.1,146.7,324.1,136,324.1
	z"/>
<path d="M240,324.1c0-2.5,0-5,0-7.5c4.1-0.7,25.8-0.9,40-0.3c0,2.6,0,5.2,0,7.8c-2.7,0-5.3,0-8,0c-5.3,0-10.7,0-16,0
	S245.4,324.1,240,324.1z"/>
<path d="M328,324.1c0-2.5,0-5,0-7.5c4.1-0.7,25.8-0.9,40-0.3c0,2.6,0,5.2,0,7.8c-2.7,0-5.3,0-8,0c-8,0-16,0-24,0
	C333.4,324.1,330.7,324.1,328,324.1z"/>
<path d="M440,324.1c0-2.5,0-5,0-7.5c4.1-0.7,25.8-0.9,40-0.3c0,2.6,0,5.2,0,7.8c-2.7,0-5.3,0-8,0c-5.3,0-10.7,0-16,0
	S445.4,324.1,440,324.1z"/>
<path d="M480,332.1c0,7.9,0,15.8,0,24c-2.8,0-5.4,0-8,0c0-8,0-16,0-24C474.7,332.1,477.4,332.1,480,332.1z"/>
<path d="M608,332.1c0,2.6,0,5.2,0,7.9c-2.7,0-5.1,0-7.9,0c0,2.7,0,5.2,0,8.1c-2.9,0-5.5,0-8.1,0c0-2.7,0-5.3,0-8s0-5.3,0-8
	c2.7,0,5.3,0,8,0S605.4,332.1,608,332.1z"/>
<path d="M648,324.1c0-2.5,0-5,0-7.5c0.1-0.1,0.2-0.3,0.3-0.4c0.1-0.1,0.3-0.2,0.4-0.2c7.6,0,15.3,0,23.2,0c0,2.8,0,5.4,0,8
	c-2.7,0-5.3,0-8,0C658.7,324.1,653.4,324.1,648,324.1z"/>
<path d="M280,332.1c0,7.9,0,15.8,0,24c-2.8,0-5.4,0-8,0c0-8,0-16,0-24C274.7,332.1,277.4,332.1,280,332.1z"/>
<path d="M392,396.1c0,5.3,0,10.7,0,16c-2.7,0-5.3,0-8,0c-2.6,0-5.2,0-8,0c0-2.8,0-5.4,0-8c2.6,0,5.2,0,8,0c0-2.8,0-5.4,0-8
	C386.7,396.1,389.4,396.1,392,396.1z"/>
<path d="M640,420.1c-2.5,0-5,0-7.5,0c-0.1-0.1-0.3-0.2-0.4-0.3c-0.1-0.1-0.2-0.3-0.2-0.4c0-7.6,0-15.3,0-23.2c2.8,0,5.4,0,8,0
	c0,2.7,0,5.3,0,8C640,409.4,640,414.7,640,420.1z"/>
<path d="M200,340.1c2.5,0,5,0,7.8,0c0.4,2.5,0.1,5.2,0.1,7.8c0,2.6,0,5.3,0,8.2c-2.8,0-5.4,0-8,0C200,350.7,200,345.4,200,340.1z"/>
<path d="M520,356.1c-2.6,0-5.2,0-8,0c0-5.5,0-10.8,0-16c2.6,0,5.2,0,8,0c0,2.8,0,5.4,0,8C520,350.7,520,353.4,520,356.1z"/>
<path d="M576,404.1c2.5,0,5,0,7.8,0c0.4,2.5,0.1,5.2,0.1,7.8c0,2.6,0,5.3,0,8.2c-2.8,0-5.4,0-8,0C576,414.7,576,409.4,576,404.1z"/>
<path d="M480,404.1c2.5,0,5,0,7.8,0c0.4,2.5,0.1,5.2,0.1,7.8c0,2.6,0,5.3,0,8.2c-2.8,0-5.4,0-8,0C480,414.7,480,409.4,480,404.1z"/>
<path d="M280,404.1c2.5,0,5,0,7.8,0c0.4,2.5,0.1,5.2,0.1,7.8c0,2.6,0,5.3,0,8.2c-2.8,0-5.4,0-8,0C280,414.7,280,409.4,280,404.1z"/>
<path d="M208,404.1c2.5,0,5,0,7.8,0c0.4,2.5,0.1,5.2,0.1,7.8c0,2.6,0,5.3,0,8.2c-2.8,0-5.4,0-8,0C208,414.7,208,409.4,208,404.1z"/>
<path d="M392,348.1c2.6,0,5.2,0,8,0c0,5.5,0,10.8,0,16c-2.7,0-5.3,0-8,0C392,358.7,392,353.4,392,348.1z"/>
<path d="M368,324.1c5.2,0,10.5,0,16,0c0,2.8,0,5.4,0,8c-2.7,0-5.3,0-8,0s-5.3,0-8,0C368,329.4,368,326.7,368,324.1z"/>
<path d="M384,332.1c2.6,0,5.2,0,8,0c0,5.5,0,10.8,0,16c-2.6,0-5.2,0-8,0c0-2.8,0-5.4,0-8C384,337.4,384,334.7,384,332.1z"/>
<path d="M400,364.1c2.5,0,5,0,7.8,0c0.4,2.5,0.1,5.2,0.1,7.8c0,2.6,0,5.3,0,8.2c-2.8,0-5.4,0-8,0C400,374.7,400,369.4,400,364.1z"/>
<path d="M192,372.1c2.6,0,5.2,0,8,0c0,5.5,0,10.8,0,16c-2.6,0-5.2,0-8,0C192,382.5,192,377.3,192,372.1z"/>
<path d="M200,388.1c2.6,0,5.2,0,8,0c0,5.5,0,10.8,0,16c-2.6,0-5.2,0-8,0C200,398.5,200,393.3,200,388.1z"/>
<path d="M400,380.1c0,5.2,0,10.5,0,16c-2.8,0-5.4,0-8,0c0-5.3,0-10.7,0-16C394.7,380.1,397.4,380.1,400,380.1z"/>
<path d="M632,372.1c-2.5,0-5,0-7.8,0c-0.4-2.5-0.1-5.2-0.1-7.8c0-2.6,0-5.3,0-8.2c2.8,0,5.4,0,8,0C632,361.4,632,366.7,632,372.1z"
	/>
<path d="M568,388.1c0,2.7,0,5.3,0,8c-2.7,0-5.3,0-8,0c0-2.7,0-5.3,0-8C562.7,388.1,565.4,388.1,568,388.1z"/>
<path d="M312,420.1c-2.5,0-5,0-7.9,0c-0.3-2.5-0.1-5.1-0.2-8c2.8,0,5.4,0,8,0C312,414.7,312,417.4,312,420.1z"/>
<path d="M312,340.1c0-2.6,0-5.2,0-8c2.8,0,5.4,0,8,0c0,2.6,0,5.2,0,8C317.2,340.1,314.6,340.1,312,340.1z"/>
<path d="M392,412.1c2.5,0,5,0,7.9,0c0.3,2.5,0.1,5.1,0.2,8c-2.8,0-5.4,0-8,0C392,417.4,392,414.7,392,412.1z"/>
<path d="M440,420.1c-2.5,0-5,0-7.9,0c-0.3-2.5-0.1-5.1-0.2-8c2.8,0,5.4,0,8,0C440,414.7,440,417.4,440,420.1z"/>
<path d="M536,420.1c-2.5,0-5,0-7.9,0c-0.3-2.5-0.1-5.1-0.2-8c2.8,0,5.4,0,8,0C536,414.7,536,417.4,536,420.1z"/>
<path d="M192,332.1c2.6,0,5.2,0,8,0c0,2.8,0,5.4,0,8c-2.6,0-5.2,0-8,0C192,337.2,192,334.7,192,332.1z"/>
<path d="M472,388.1c0,2.7,0,5.3,0,8c-2.7,0-5.3,0-8,0c0-2.7,0-5.3,0-8C466.7,388.1,469.4,388.1,472,388.1z"/>
<path d="M120,332.1c2.7,0,5.3,0,8,0c0,2.6,0,5.2,0,8c-2.8,0-5.4,0-8,0C120,337.4,120,334.7,120,332.1z"/>
<path d="M272,380.1c2.5,0,5,0,7.9,0c0.3,2.5,0.1,5.1,0.2,8c-2.8,0-5.4,0-8,0C272,385.4,272,382.7,272,380.1z"/>
<path d="M648,340.1c0-2.7,0-5.3,0-8c2.6,0,5.2,0,8,0c-0.1,2.9,0.1,5.5-0.2,8C653,340.1,650.5,340.1,648,340.1z"/>
<path d="M272,388.1c0,2.7,0,5.3,0,8c-2.7,0-5.3,0-8,0c0-2.7,0-5.3,0-8C266.7,388.1,269.4,388.1,272,388.1z"/>
<path d="M512,340.1c-2.6,0-5.2,0-8,0c0-2.8,0-5.4,0-8c2.7,0,5.3,0,8,0C512,334.7,512,337.4,512,340.1z"/>
<path d="M568,380.1c2.5,0,5,0,7.9,0c0.3,2.5,0.1,5.1,0.2,8c-2.8,0-5.4,0-8,0C568,385.4,568,382.7,568,380.1z"/>
<path d="M240,420.1c-2.5,0-5,0-7.9,0c-0.3-2.5-0.1-5.1-0.2-8c2.8,0,5.4,0,8,0C240,414.7,240,417.4,240,420.1z"/>
<path d="M472,380.1c2.5,0,5,0,7.9,0c0.3,2.5,0.1,5.1,0.2,8c-2.8,0-5.4,0-8,0C472,385.4,472,382.7,472,380.1z"/>
<path d="M632,356.1c0-2.6,0-5.2,0-8c2.8,0,5.4,0,8,0c0,2.7,0,5.3,0,8C637.4,356.1,634.7,356.1,632,356.1z"/>
<path d="M192,364.1c0,2.7,0,5.3,0,8c-2.7,0-5.3,0-8,0c0-2.7,0-5.3,0-8C186.7,364.1,189.4,364.1,192,364.1z"/>
<path d="M592,348.1c0,2.6,0,5.2,0,8c-2.8,0-5.4,0-8,0c0-2.7,0-5.3,0-8C586.7,348.1,589.4,348.1,592,348.1z"/>
<path d="M472,396.1c2.6,0,5.2,0,8,0c0,2.8,0,5.4,0,8c-2.6,0-5.2,0-8,0C472,401.2,472,398.7,472,396.1z"/>
<path d="M200,356.1c0,2.6,0,5.2,0,8c-2.8,0-5.4,0-8,0c0-2.7,0-5.3,0-8C194.7,356.1,197.4,356.1,200,356.1z"/>
<path d="M272,356.1c0,2.7,0,5.3,0,8c-2.7,0-5.3,0-8,0c0-2.7,0-5.3,0-8C266.7,356.1,269.4,356.1,272,356.1z"/>
<path d="M272,396.1c2.6,0,5.2,0,8,0c0,2.8,0,5.4,0,8c-2.6,0-5.2,0-8,0C272,401.2,272,398.7,272,396.1z"/>
<path d="M472,356.1c0,2.7,0,5.3,0,8c-2.7,0-5.3,0-8,0c0-2.7,0-5.3,0-8C466.7,356.1,469.4,356.1,472,356.1z"/>
<path d="M584,356.1c0,2.6,0,5.2,0,8c-2.8,0-5.4,0-8,0c0-2.7,0-5.3,0-8C578.7,356.1,581.4,356.1,584,356.1z"/>
<path d="M568,396.1c2.6,0,5.2,0,8,0c0,2.8,0,5.4,0,8c-2.6,0-5.2,0-8,0C568,401.2,568,398.7,568,396.1z"/>
<path d="M640,380.1c-2.6,0-5.2,0-8,0c0-2.8,0-5.4,0-8c2.7,0,5.3,0,8,0C640,374.7,640,377.4,640,380.1z"/>
<path d="M568,372.1c0,2.7,0,5.3,0,8c-2.7,0-5.3,0-8,0c0-2.7,0-5.3,0-8C562.7,372.1,565.4,372.1,568,372.1z"/>
<path d="M472,372.1c0,2.7,0,5.3,0,8c-2.7,0-5.3,0-8,0c0-2.7,0-5.3,0-8C466.7,372.1,469.4,372.1,472,372.1z"/>
<path d="M272,372.1c0,2.7,0,5.3,0,8c-2.7,0-5.3,0-8,0c0-2.7,0-5.3,0-8C266.7,372.1,269.4,372.1,272,372.1z"/>
<path d="M472,364.1c2.5,0,5,0,7.9,0c0.3,2.5,0.1,5.1,0.2,8c-2.8,0-5.4,0-8,0C472,369.4,472,366.7,472,364.1z"/>
<path d="M272,364.1c2.5,0,5,0,7.9,0c0.3,2.5,0.1,5.1,0.2,8c-2.8,0-5.4,0-8,0C272,369.4,272,366.7,272,364.1z"/>
<path d="M312,348.1c-2.5,0-5,0-7.9,0c-0.3-2.5-0.1-5.1-0.2-8c2.8,0,5.4,0,8,0C312,342.7,312,345.4,312,348.1z"/>
<path d="M576,364.1c0,2.6,0,5.2,0,8c-2.8,0-5.4,0-8,0c0-2.7,0-5.3,0-8C570.7,364.1,573.4,364.1,576,364.1z"/>
<path d="M640,348.1c0-2.6,0-5.2,0-8c2.8,0,5.4,0,8,0c0,2.6,0,5.2,0,8C645.2,348.1,642.6,348.1,640,348.1z"/>
<path d="M280,324.1c2.5,0,5,0,7.9,0c0.3,2.5,0.1,5.1,0.2,8c-2.8,0-5.4,0-8,0C280,329.4,280,326.7,280,324.1z"/>
<path d="M320,332.1c0-2.6,0-5.2,0-8c2.8,0,5.4,0,8,0c0,2.7,0,5.3,0,8C325.4,332.1,322.7,332.1,320,332.1z"/>
<path d="M440,332.1c-2.5,0-5,0-7.9,0c-0.3-2.5-0.1-5.1-0.2-8c2.8,0,5.4,0,8,0C440,326.7,440,329.4,440,332.1z"/>
<path d="M480,324.1c2.5,0,5,0,7.9,0c0.3,2.5,0.1,5.1,0.2,8c-2.8,0-5.4,0-8,0C480,329.4,480,326.7,480,324.1z"/>
<path d="M504,332.1c-2.5,0-5,0-7.9,0c-0.3-2.5-0.1-5.1-0.2-8c2.8,0,5.4,0,8,0C504,326.7,504,329.4,504,332.1z"/>
<path d="M608,324.1c2.5,0,5,0,7.9,0c0.3,2.5,0.1,5.1,0.2,8c-2.8,0-5.4,0-8,0C608,329.4,608,326.7,608,324.1z"/>
<path d="M648,332.1c-2.5,0-5,0-7.9,0c-0.3-2.5-0.1-5.1-0.2-8c2.8,0,5.4,0,8,0C648,326.7,648,329.4,648,332.1z"/>
<path d="M672,324.1c2.7,0,5.3,0,8,0c0,2.7,0,5.3,0,8c-2.7,0-5.3,0-8,0C672,329.4,672,326.7,672,324.1z"/>
<path d="M240,332.1c-2.5,0-5,0-7.9,0c-0.3-2.5-0.1-5.1-0.2-8c2.8,0,5.4,0,8,0C240,326.7,240,329.4,240,332.1z"/>
<path d="M184,324.1c2.6,0,5.2,0,8,0c0,2.8,0,5.4,0,8c-2.6,0-5.2,0-8,0C184,329.2,184,326.7,184,324.1z"/>
<path d="M128,332.1c0-2.6,0-5.2,0-8c2.8,0,5.4,0,8,0c0,2.7,0,5.3,0,8C133.4,332.1,130.7,332.1,128,332.1z"/>
<path d="M112,324.1c2.6,0,5.2,0,8,0c0,2.8,0,5.4,0,8c-2.7,0-5.3,0-8,0C112,329.4,112,326.7,112,324.1z"/>
<path id="XMLID_290_" d="M455,256.3c0-26.7,0-53.3,0-80c2.7,0,5.3,0,8,0c0,26.4,0,52.8,0,79.2c0,0.1-0.1,0.3-0.2,0.4
	c-0.1,0.1-0.2,0.2-0.4,0.3C460,256.3,457.5,256.3,455,256.3z"/>
<path id="XMLID_289_" d="M423,200.3c-2.5,0-5,0-7.8,0c0-2.5,0-5.1,0-7.8c-2.8,0-5.2,0-8,0c0,2.4,0,4.9,0,7.8c-2.9,0-5.6,0-8.2,0
	c0-8,0-16,0-24c2.7,0,5.3,0,8,0c0,2.6,0,5.2,0,8c2.8,0,5.4,0,8,0c2.7,0,5.3,0,8,0C423,189.6,423,194.9,423,200.3z"/>
<path id="XMLID_288_" d="M439,200.3c0,2.5,0,5,0,7.8c-2.5,0.4-5.2,0.1-7.8,0.1c-2.6,0-5.3,0-8.2,0c0-2.8,0-5.4,0-8c2.7,0,5.3,0,8,0
	S436.4,200.3,439,200.3z"/>
<path id="XMLID_287_" d="M407,248.3c2.5,0,5,0,7.8,0c0.4,2.5,0.1,5.2,0.1,7.8c0,2.6,0,5.3,0,8.2c-2.8,0-5.4,0-8,0
	C407,258.9,407,253.6,407,248.3z"/>
<path id="XMLID_286_" d="M455,264.3c-2.5,0-5,0-7.9,0c-0.3-2.5-0.1-5.1-0.2-8c2.8,0,5.4,0,8,0C455,258.9,455,261.6,455,264.3z"/>
<path id="XMLID_285_" d="M399,232.3c0,2.7,0,5.3,0,8c-2.7,0-5.3,0-8,0c0-2.7,0-5.3,0-8C393.7,232.3,396.4,232.3,399,232.3z"/>
<path id="XMLID_284_" d="M399,224.3c2.5,0,5,0,7.9,0c0.3,2.5,0.1,5.1,0.2,8c-2.8,0-5.4,0-8,0C399,229.6,399,226.9,399,224.3z"/>
<path id="XMLID_283_" d="M399,208.3c2.5,0,5,0,7.9,0c0.3,2.5,0.1,5.1,0.2,8c-2.8,0-5.4,0-8,0C399,213.6,399,210.9,399,208.3z"/>
<path id="XMLID_282_" d="M399,200.3c0,2.7,0,5.3,0,8c-2.7,0-5.3,0-8,0c0-2.7,0-5.3,0-8C393.7,200.3,396.4,200.3,399,200.3z"/>
<path id="XMLID_281_" d="M399,216.3c0,2.7,0,5.3,0,8c-2.7,0-5.3,0-8,0c0-2.7,0-5.3,0-8C393.7,216.3,396.4,216.3,399,216.3z"/>
<path id="XMLID_280_" d="M399,240.3c2.6,0,5.2,0,8,0c0,2.8,0,5.4,0,8c-2.6,0-5.2,0-8,0C399,245.4,399,242.9,399,240.3z"/>
<path d="M120,412.1c0-21.3,0-42.7,0-64c2.6,0,5.2,0,7.8,0c0.6,16.2,0.4,59.7-0.3,64C125,412.1,122.5,412.1,120,412.1z"/>
<path d="M112,340.1c-2.5,0-5,0-7.8,0c0,2.5,0,5.1,0,8c-2.9,0-5.6,0-8.2,0c0-2.7,0-5.3,0-8s0-5.3,0-8c2.7,0,5.3,0,8,0s5.3,0,8,0
	C112,334.7,112,337.4,112,340.1z"/>
<path d="M80,404.1c2.5,0,5,0,7.8,0c0.4,2.5,0.1,5.2,0.1,7.8c0,2.6,0,5.3,0,8.2c-2.8,0-5.4,0-8,0C80,414.7,80,409.4,80,404.1z"/>
<path d="M72,388.1c0,2.7,0,5.3,0,8c-2.7,0-5.3,0-8,0c0-2.7,0-5.3,0-8C66.7,388.1,69.4,388.1,72,388.1z"/>
<path d="M72,380.1c2.5,0,5,0,7.9,0c0.3,2.5,0.1,5.1,0.2,8c-2.8,0-5.4,0-8,0C72,385.4,72,382.7,72,380.1z"/>
<path d="M120,420.1c-2.5,0-5,0-7.9,0c-0.3-2.5-0.1-5.1-0.2-8c2.8,0,5.4,0,8,0C120,414.7,120,417.4,120,420.1z"/>
<path d="M80,364.1c0,2.6,0,5.2,0,8c-2.8,0-5.4,0-8,0c0-2.7,0-5.3,0-8C74.7,364.1,77.4,364.1,80,364.1z"/>
<path d="M96,348.1c0,2.6,0,5.2,0,8c-2.8,0-5.4,0-8,0c0-2.7,0-5.3,0-8C90.7,348.1,93.4,348.1,96,348.1z"/>
<path d="M88,356.1c0,2.6,0,5.2,0,8c-2.8,0-5.4,0-8,0c0-2.7,0-5.3,0-8C82.7,356.1,85.4,356.1,88,356.1z"/>
<path d="M72,396.1c2.6,0,5.2,0,8,0c0,2.8,0,5.4,0,8c-2.6,0-5.2,0-8,0C72,401.2,72,398.7,72,396.1z"/>
<path d="M72,372.1c0,2.7,0,5.3,0,8c-2.7,0-5.3,0-8,0c0-2.7,0-5.3,0-8C66.7,372.1,69.4,372.1,72,372.1z"/>
<path d="M120,348.1c-2.6,0-5.2,0-8,0c0-2.8,0-5.4,0-8c2.7,0,5.3,0,8,0C120,342.7,120,345.4,120,348.1z"/>
<path d="M712,388.1c0,7.9,0,15.8,0,24c-2.8,0-5.4,0-8,0c0-2.7,0-5.3,0-8c0-5.3,0-10.7,0-16C706.7,388.1,709.4,388.1,712,388.1z"/>
<path d="M704,412.1c0,2.6,0,5.2,0,8c-2.8,0-5.4,0-8,0c0-2.7,0-5.3,0-8C698.7,412.1,701.4,412.1,704,412.1z"/>
<path d="M712,380.1c2.5,0,5,0,7.9,0c0.3,2.5,0.1,5.1,0.2,8c-2.8,0-5.4,0-8,0C712,385.4,712,382.7,712,380.1z"/>
<path d="M712,356.1c0,2.7,0,5.3,0,8c-2.7,0-5.3,0-8,0c0-2.7,0-5.3,0-8C706.7,356.1,709.4,356.1,712,356.1z"/>
<path d="M712,372.1c0,2.7,0,5.3,0,8c-2.7,0-5.3,0-8,0c0-2.7,0-5.3,0-8C706.7,372.1,709.4,372.1,712,372.1z"/>
<path d="M712,364.1c2.5,0,5,0,7.9,0c0.3,2.5,0.1,5.1,0.2,8c-2.8,0-5.4,0-8,0C712,369.4,712,366.7,712,364.1z"/>
<path class="st0" d="M648,404.1c0,5.3,0,10.7,0,16c-2.7,0-5.3,0-8,0c0-5.3,0-10.7,0-16C642.7,404.1,645.4,404.1,648,404.1z"/>
<path class="st1" d="M688,420.1c0-2.6,0-5.2,0-8c2.8,0,5.4,0,8,0c0,2.7,0,5.3,0,8C693.4,420.1,690.7,420.1,688,420.1z"/>
<path id="XMLID_279_" class="st0" d="M191,264.3c0-2.7,0-5.3,0-8c2.5,0,5,0,7.5,0c0.1-0.1,0.3-0.2,0.4-0.3c0.1-0.1,0.2-0.3,0.2-0.4
	c0-26.4,0-52.8,0-79.2c2.6,0,5.2,0,8,0c0,7,0,13.6,0,20.2c0,6.6-0.1,13.2,0.1,19.8c2.9,0,5.4,0,7.9,0c0,2.7,0,5.3,0,8
	c-2.6,0-5.2,0-8,0c0,13.5,0,26.8,0,40C201.7,264.3,196.4,264.3,191,264.3z"/>
<path id="XMLID_278_" class="st1" d="M231,264.3c0-2.5,0-5,0-7.8c-2.5-0.4-5.2-0.1-7.8-0.1c-2.6,0-5.3,0-8.2,0c0-2.8,0-5.4,0-8
	c8,0,16,0,24,0c0,5.3,0,10.7,0,16C236.4,264.3,233.7,264.3,231,264.3z"/>
<path class="st0" d="M320,332.1c2.7,0,5.3,0,8,0c0,29.3,0,58.7,0,88c-5.3,0-10.7,0-16,0c0-2.7,0-5.3,0-8c2.5,0,5,0,7.5,0
	c0.7-4.3,1-47.8,0.3-64c-2.6,0-5.2,0-7.8,0c0-2.7,0-5.3,0-8c2.6,0,5.2,0,8,0C320,337.2,320,334.7,320,332.1z"/>
<path class="st1" d="M344,420.1c0-2.7,0-5.3,0-8c2.7,0,5.3,0,8,0c0,2.7,0,5.3,0,8C349.4,420.1,346.7,420.1,344,420.1z"/>
<path class="st0" d="M256,324.1c0,32,0,64,0,96c-5.3,0-10.7,0-16,0c0-2.7,0-5.3,0-8c2.5,0,5,0,7.5,0c0.7-4.4,1-63,0.3-80
	c-2.6,0-5.2,0-7.8,0c0-2.7,0-5.3,0-8C245.4,324.1,250.7,324.1,256,324.1z"/>
<path class="st1" d="M272,420.1c0-2.5,0-5,0-7.8c-2.5,0-5.1,0-8,0c0-5.6,0-10.9,0-16.2c2.7,0,5.3,0,8,0c0,2.6,0,5.2,0,8
	c2.8,0,5.4,0,8,0c0,5.3,0,10.7,0,16C277.4,420.1,274.7,420.1,272,420.1z"/>
<path class="st0" d="M136,332.1c0,29.3,0,58.7,0,88c-5.3,0-10.7,0-16,0c0-2.7,0-5.3,0-8c2.5,0,5,0,7.5,0c0.7-4.3,1-47.8,0.3-64
	c-2.6,0-5.2,0-7.8,0c0-2.7,0-5.3,0-8c2.6,0,5.2,0,8,0c0-2.8,0-5.4,0-8C130.7,332.1,133.4,332.1,136,332.1z"/>
<path class="st1" d="M152,420.1c0-2.5,0-5,0-7.8c-2.5,0-5.1,0-8,0c0-5.6,0-10.9,0-16.2c2.7,0,5.3,0,8,0c0,2.6,0,5.2,0,8
	c2.8,0,5.4,0,8,0c0,5.3,0,10.7,0,16C157.4,420.1,154.7,420.1,152,420.1z"/>
<path class="st0" d="M48,332.1c2.5,0,5,0,7.5,0c0.1,0.1,0.3,0.2,0.4,0.3c0.1,0.1,0.2,0.3,0.2,0.4c0,29.1,0,58.2,0,87.2
	c-5.3,0-10.7,0-16,0c0-2.7,0-5.3,0-8c2.5,0,5,0,7.5,0c0.1-0.1,0.3-0.2,0.4-0.3c0.1-0.1,0.2-0.3,0.2-0.4C48,384.9,48,358.5,48,332.1z
	"/>
<path class="st1" d="M72,420.1c0-2.5,0-5,0-7.8c-2.5,0-5.1,0-8,0c0-5.6,0-10.9,0-16.2c2.7,0,5.3,0,8,0c0,2.6,0,5.2,0,8
	c2.8,0,5.4,0,8,0c0,5.3,0,10.7,0,16C77.4,420.1,74.7,420.1,72,420.1z"/>
<path id="XMLID_277_" class="st0" d="M455,264.3c0-2.7,0-5.3,0-8c2.5,0,5,0,7.5,0c0.1-0.1,0.3-0.2,0.4-0.3c0.1-0.1,0.2-0.3,0.2-0.4
	c0-26.4,0-52.8,0-79.2c2.6,0,5.2,0,8,0c0.1,8.2-0.1,16.1,0.2,24c2.9,0,5.4,0,7.9,0c2.7,0,5.3,0,8,0c2.6,0,5.2,0,8,0c0,2.8,0,5.4,0,8
	c-2.7,0-5.3,0-8,0s-5.3,0-8,0c-2.6,0-5.2,0-8,0c0,18.9,0,37.4,0,56C465.7,264.3,460.4,264.3,455,264.3z"/>
<path id="XMLID_276_" class="st1" d="M487,264.3c0-2.5,0-5,0-7.8c-2.5,0-5.1,0-8,0c0-2.9,0-5.6,0-8.2c5.3,0,10.7,0,16,0
	c0,2.7,0,5.3,0,8s0,5.3,0,8C492.4,264.3,489.7,264.3,487,264.3z"/>
<path class="st0" d="M544,332.1c2.5,0,5,0,7.5,0c0.1,0.1,0.3,0.2,0.4,0.3c0.1,0.1,0.2,0.3,0.2,0.4c0,29.1,0,58.2,0,87.2
	c-5.3,0-10.7,0-16,0c0-2.7,0-5.3,0-8c2.5,0,5,0,7.5,0c0.1-0.1,0.3-0.2,0.4-0.3c0.1-0.1,0.2-0.3,0.2-0.4
	C544,384.9,544,358.5,544,332.1z"/>
<path class="st1" d="M568,420.1c0-2.5,0-5,0-7.8c-2.5,0-5.1,0-8,0c0-5.6,0-10.9,0-16.2c2.7,0,5.3,0,8,0c0,2.6,0,5.2,0,8
	c2.8,0,5.4,0,8,0c0,5.3,0,10.7,0,16C573.4,420.1,570.7,420.1,568,420.1z"/>
<path class="st0" d="M456,324.1c0,32,0,64,0,96c-5.3,0-10.7,0-16,0c0-2.7,0-5.3,0-8c2.5,0,5,0,7.5,0c0.7-4.4,1-63,0.3-80
	c-2.6,0-5.2,0-7.8,0c0-2.7,0-5.3,0-8C445.4,324.1,450.7,324.1,456,324.1z"/>
<path class="st1" d="M472,420.1c0-2.5,0-5,0-7.8c-2.5,0-5.1,0-8,0c0-5.6,0-10.9,0-16.2c2.7,0,5.3,0,8,0c0,2.6,0,5.2,0,8
	c2.8,0,5.4,0,8,0c0,5.3,0,10.7,0,16C477.4,420.1,474.7,420.1,472,420.1z"/>
<path id="XMLID_116_" class="st0" d="M484,16.2c2.7,0,5.3,0,8,0c0,29.3,0,58.7,0,88c-5.3,0-10.7,0-16,0c0-2.7,0-5.3,0-8
	c2.5,0,5,0,7.5,0c0.7-4.3,1-47.8,0.3-64c-2.6,0-5.2,0-7.8,0c0-2.7,0-5.3,0-8c2.6,0,5.2,0,8,0C484,21.4,484,18.8,484,16.2z"/>
<path id="XMLID_115_" class="st1" d="M508,104.2c0-2.7,0-5.3,0-8c2.7,0,5.3,0,8,0c0,2.7,0,5.3,0,8
	C513.4,104.2,510.7,104.2,508,104.2z"/>
<path id="XMLID_114_" class="st0" d="M620,16.2c2.5,0,5,0,7.5,0c0.1,0.1,0.3,0.2,0.4,0.3c0.1,0.1,0.2,0.3,0.2,0.4
	c0,29.1,0,58.2,0,87.2c-5.3,0-10.7,0-16,0c0-2.7,0-5.3,0-8c2.5,0,5,0,7.5,0c0.1-0.1,0.3-0.2,0.4-0.3c0.1-0.1,0.2-0.3,0.2-0.4
	C620,69.1,620,42.6,620,16.2z"/>
<path id="XMLID_113_" class="st1" d="M644,104.2c0-2.5,0-5,0-7.8c-2.5,0-5.1,0-8,0c0-5.6,0-10.9,0-16.2c2.7,0,5.3,0,8,0
	c0,2.6,0,5.2,0,8c2.8,0,5.4,0,8,0c0,5.3,0,10.7,0,16C649.4,104.2,646.7,104.2,644,104.2z"/>
<path id="XMLID_112_" class="st1" d="M188,104.2c0-2.7,0-5.3,0-8c2.7,0,5.3,0,8,0s5.3,0,8,0c0,2.7,0,5.3,0,8
	C198.7,104.2,193.4,104.2,188,104.2z"/>
<path id="XMLID_275_" class="st0" d="M375,176.3c2.5,0,5,0,7.5,0c0.1,0.1,0.3,0.2,0.4,0.3c0.1,0.1,0.2,0.3,0.2,0.4
	c0,29.1,0,58.2,0,87.2c-5.3,0-10.7,0-16,0c0-2.7,0-5.3,0-8c2.5,0,5,0,7.5,0c0.1-0.1,0.3-0.2,0.4-0.3c0.1-0.1,0.2-0.3,0.2-0.4
	C375,229.1,375,202.7,375,176.3z"/>
<path id="XMLID_274_" class="st1" d="M399,264.3c0-2.5,0-5,0-7.8c-2.5,0-5.1,0-8,0c0-5.6,0-10.9,0-16.2c2.7,0,5.3,0,8,0
	c0,2.6,0,5.2,0,8c2.8,0,5.4,0,8,0c0,5.3,0,10.7,0,16C404.4,264.3,401.7,264.3,399,264.3z"/>
<path class="st1" d="M184,372.1c2.7,0,5.3,0,8,0c0,5.2,0,10.5,0,16c2.8,0,5.4,0,8,0c0,5.2,0,10.5,0,16c2.8,0,5.4,0,8,0
	c0,5.3,0,10.7,0,16c-2.7,0-5.3,0-8,0c0-2.6,0-5.2,0-8.1c-2.9,0-5.4,0-8.1,0c0-5.4,0-10.5,0-15.9c-2.7,0-5.3,0-7.9,0
	c0-5.4,0-10.5,0-15.9c-2.7,0-5.3,0-7.9,0c0-2.6,0-5.2,0-8C178.9,372.1,181.4,372.1,184,372.1z"/>
<path class="st0" d="M176,404.1c2.6,0,5.2,0,8,0c0,5.5,0,10.8,0,16c-2.7,0-5.3,0-8,0C176,414.7,176,409.4,176,404.1z"/>
<path id="XMLID_273_" class="st1" d="M527,264.3c0-2.6,0-5.2,0-8c-2.8,0-5.4,0-8,0c0-2.7,0-5.3,0-8c5.3,0,10.7,0,16,0
	c0,5.3,0,10.7,0,16C532.4,264.3,529.7,264.3,527,264.3z"/>
<path class="st1" d="M704,356.1c0-7.9,0-15.8,0-24c2.8,0,5.4,0,8,0c0,8,0,16,0,24C709.4,356.1,706.7,356.1,704,356.1z"/>
<path id="XMLID_111_" class="st1" d="M548,104.2c0-2.7,0-5.3,0-8c2.7,0,5.3,0,8,0c0,2.7,0,5.3,0,8
	C553.4,104.2,550.7,104.2,548,104.2z"/>
<path id="XMLID_110_" class="st0" d="M420,104.2c0-2.7,0-5.3,0-8c2.7,0,5.3,0,8,0c0,2.7,0,5.3,0,8
	C425.4,104.2,422.7,104.2,420,104.2z"/>
<path id="XMLID_109_" class="st0" d="M92,24.2c2.5,0,5,0,7.5,0c0.1,0.1,0.3,0.2,0.4,0.3c0.1,0.1,0.2,0.3,0.2,0.4
	c0,26.4,0,52.8,0,79.2c-5.3,0-10.7,0-16,0c0-2.7,0-5.3,0-8c2.6,0,5.2,0,8,0c0-10.9,0-21.4,0-32c0-2.7,0-5.3,0-8s0-5.3,0-8
	C92,40.2,92,32.2,92,24.2z"/>
<path class="st1" d="M384,420.1c0-2.7,0-5.3,0-8c2.7,0,5.3,0,8,0c0,2.7,0,5.3,0,8C389.4,420.1,386.7,420.1,384,420.1z"/>
<path id="XMLID_272_" class="st0" d="M615,264.3c0-2.7,0-5.3,0-8c2.7,0,5.3,0,8,0c0,2.7,0,5.3,0,8
	C620.4,264.3,617.7,264.3,615,264.3z"/>
<path id="XMLID_108_" d="M532,80.2c0,8,0,16,0,24c-5.3,0-10.7,0-16,0c0-2.7,0-5.3,0-8c2.6,0,5.2,0,7.9,0c0.3-8.2-0.2-16.1,0.3-24
	c2.8,0,5.3,0,7.8,0C532,74.9,532,77.6,532,80.2z"/>
<path id="XMLID_107_" class="st0" d="M292,104.2c0-2.7,0-5.3,0-8c5.3,0,10.7,0,16,0c0,2.7,0,5.3,0,8
	C302.7,104.2,297.4,104.2,292,104.2z"/>
<path id="XMLID_106_" d="M84,96.2c0,2.7,0,5.3,0,8c-5.3,0-10.7,0-16,0c0-5.3,0-10.7,0-16c2.7,0,5.3,0,8,0c0,2.6,0,5.2,0,8
	C78.9,96.2,81.4,96.2,84,96.2z"/>
<path d="M368,396.1c0,8,0,16,0,24c-5.3,0-10.7,0-16,0c0-2.7,0-5.3,0-8c2.6,0,5.2,0,8,0c0.1-8.2-0.1-16.1,0.1-24c2.9,0,5.4,0,7.9,0
	C368,390.7,368,393.4,368,396.1z"/>
<path d="M176,404.1c0,5.3,0,10.7,0,16c-5.3,0-10.7,0-16,0c0-5.3,0-10.7,0-16c2.6,0,5.2,0,8,0c0-2.8,0-5.4,0-8c2.7,0,5.3,0,8,0
	C176,398.7,176,401.4,176,404.1z"/>
<path id="XMLID_271_" class="st0" d="M119,256.3c0,2.7,0,5.3,0,8c-5.3,0-10.7,0-16,0c0-2.7,0-5.3,0-8
	C108.4,256.3,113.7,256.3,119,256.3z"/>
<path id="XMLID_270_" d="M503,256.3c0,2.7,0,5.3,0,8c-2.7,0-5.3,0-8,0c0-2.7,0-5.3,0-8C497.7,256.3,500.4,256.3,503,256.3z"/>
<path id="XMLID_14_" class="st2" d="M40,315.9c-2.7,0-5.1,0-7.9,0"/>
<path class="st1" d="M104,332.1c0-2.7,0-5.3,0-8c2.7,0,5.3,0,8,0c0,2.7,0,5.3,0,8C109.4,332.1,106.7,332.1,104,332.1z"/>
<path class="st0" d="M16,332.1c5.3,0,10.7,0,16,0c0,5.3,0,10.7,0,16c-2.7,0-5.3,0-8,0c0-2.6,0-5.2,0-8c-2.8,0-5.4,0-8,0
	C16,337.4,16,334.7,16,332.1z"/>
<path class="st1" d="M32,356.1c0-2.7,0-5.3,0-8c2.5,0,5,0,7.9,0c0.3,2.5,0.1,5.1,0.2,8C37.3,356.1,34.6,356.1,32,356.1z"/>
<path id="XMLID_105_" class="st0" d="M316,16.2c2.5,0,5,0,7.5,0c0.1,0.1,0.3,0.2,0.4,0.3c0.1,0.1,0.2,0.3,0.2,0.4
	c0,18.4,0,36.8,0,55.2c-2.7,0-5.3,0-8,0C316,53.6,316,34.9,316,16.2z"/>
<path id="XMLID_104_" class="st1" d="M300,64.2c0,5.2,0,10.5,0,16c2.8,0,5.4,0,8,0c0,2.7,0,5.3,0,8c-5.3,0-10.5,0-16.1,0
	c0-5.5,0-10.7,0-16.1c-2.8,0-5.2,0-7.9,0c0-8.1,0-16,0-23.9c2.7,0,5.3,0,8,0c0,5.2,0,10.5,0,16C294.8,64.2,297.4,64.2,300,64.2z"/>
<path id="XMLID_103_" class="st0" d="M308,88.2c0-2.7,0-5.3,0-8c0-2.6,0-5.2,0-8c2.8,0,5.4,0,8,0c0,5.3,0,10.7,0,16c0,2.7,0,5.3,0,8
	c-2.7,0-5.3,0-8,0C308,93.6,308,90.9,308,88.2z"/>
<path id="XMLID_102_" class="st1" d="M292,8.2c2.7,0,5.3,0,8,0c0,8,0,16,0,24c-2.7,0-5.3,0-8,0C292,24.2,292,16.2,292,8.2z"/>
<path id="XMLID_101_" class="st1" d="M668,24.2c0-2.5,0-5,0-7.8c2.5,0,5.1,0,8,0c0-2.9,0-5.6,0-8.2c2.7,0,5.3,0,8,0
	c0,10.7,0,21.3,0,32c-2.7,0-5.3,0-8,0c0-5.2,0-10.5,0-16C673.2,24.2,670.6,24.2,668,24.2z"/>
<path id="XMLID_269_" class="st1" d="M423,184.3c0-2.5,0-5,0-7.8c2.5,0,5.1,0,8,0c0-2.9,0-5.6,0-8.2c2.7,0,5.3,0,8,0
	c0,10.7,0,21.3,0,32c-2.7,0-5.3,0-8,0c0-5.2,0-10.5,0-16C428.2,184.3,425.6,184.3,423,184.3z"/>
<path id="XMLID_100_" class="st0" d="M396,56.2c-2.6,0-5.2,0-8,0c0,8.2,0,16.1,0,24c-2.7,0-5.3,0-8,0c0-5.2,0-10.5,0-16
	c-2.8,0-5.4,0-8,0c0-5.3,0-10.7,0-16c2.6,0,5.2,0,8,0c0-5.5,0-10.8,0-16c2.6,0,5.2,0,8,0c0-2.8,0-5.4,0-8c2.7,0,5.3,0,8,0s5.3,0,8,0
	c0,5.3,0,10.7,0,16c-2.7,0-5.3,0-8,0c-2.6,0-5.2,0-8,0c0.1,2.9-0.1,5.5,0.2,8c2.9,0,5.4,0,7.9,0C396,50.9,396,53.6,396,56.2z"/>
<path id="XMLID_99_" class="st1" d="M436,56.2c-2.7,0-5.3,0-8,0c0-2.6,0-5.2,0-8.1c-2.8,0-5.4,0-8.1,0c0-2.8,0-5.2,0-7.9
	c-2.7,0-5.3,0-7.9,0c0-2.5,0-5,0-7.8c2.5-0.4,5.2-0.1,7.7-0.1c2.6,0,5.3,0,8.1,0c0,2.6,0,5,0,7.8c2.7,0,5.3,0,8.2,0
	C436,45.7,436,51,436,56.2z"/>
<path id="XMLID_98_" class="st1" d="M436,24.2c0-2.5,0-5,0-7.8c2.5,0,5.1,0,8,0c0-2.9,0-5.6,0-8.2c2.7,0,5.3,0,8,0c0,8,0,16,0,24
	c-2.7,0-5.3,0-8,0c0-2.6,0-5.2,0-8C441.2,24.2,438.6,24.2,436,24.2z"/>
<path id="XMLID_97_" class="st1" d="M396,40.2c2.7,0,5.3,0,8,0s5.3,0,8,0c0,2.6,0,5.2,0,8c-5.5,0-10.8,0-16,0
	C396,45.6,396,42.9,396,40.2z"/>
<path id="XMLID_96_" class="st0" d="M404,16.2c2.7,0,5.3,0,8,0c0,2.6,0,5.2,0,8c-2.8,0-5.4,0-8,0C404,21.6,404,18.9,404,16.2z"/>
<path id="XMLID_95_" class="st0" d="M420,16.2c2.6,0,5.2,0,8,0c0,2.8,0,5.4,0,8c-2.6,0-5.2,0-8,0C420,21.4,420,18.8,420,16.2z"/>
<path id="XMLID_94_" class="st0" d="M588,16.2c5.3,0,10.7,0,16,0c0,2.7,0,5.3,0,8c-5.3,0-10.7,0-16,0C588,21.6,588,18.9,588,16.2z"
	/>
<path id="XMLID_268_" class="st0" d="M343,176.3c5.3,0,10.7,0,16,0c0,2.7,0,5.3,0,8c-5.3,0-10.7,0-16,0
	C343,181.6,343,178.9,343,176.3z"/>
<path id="XMLID_267_" class="st0" d="M591,216.3c-2.6,0-5.2,0-8,0c0,8.2,0,16.1,0,24c-2.7,0-5.3,0-8,0c0-5.2,0-10.5,0-16
	c-2.8,0-5.4,0-8,0c0-5.3,0-10.7,0-16c2.6,0,5.2,0,8,0c0-5.5,0-10.8,0-16c2.6,0,5.2,0,8,0c0-2.8,0-5.4,0-8c2.7,0,5.3,0,8,0s5.3,0,8,0
	c0,5.3,0,10.7,0,16c-2.7,0-5.3,0-8,0c-2.6,0-5.2,0-8,0c0.1,2.9-0.1,5.5,0.2,8c2.9,0,5.4,0,7.9,0C591,210.9,591,213.6,591,216.3z"/>
<path id="XMLID_266_" class="st1" d="M631,216.3c-2.7,0-5.3,0-8,0c0-2.6,0-5.2,0-8.1c-2.8,0-5.4,0-8.1,0c0-2.8,0-5.2,0-7.9
	c-2.7,0-5.3,0-7.9,0c0-2.5,0-5,0-7.8c2.5-0.4,5.2-0.1,7.7-0.1c2.6,0,5.3,0,8.1,0c0,2.6,0,5,0,7.8c2.7,0,5.3,0,8.2,0
	C631,205.7,631,211,631,216.3z"/>
<path id="XMLID_265_" class="st1" d="M631,184.3c0-2.5,0-5,0-7.8c2.5,0,5.1,0,8,0c0-2.9,0-5.6,0-8.2c2.7,0,5.3,0,8,0c0,8,0,16,0,24
	c-2.7,0-5.3,0-8,0c0-2.6,0-5.2,0-8C636.2,184.3,633.6,184.3,631,184.3z"/>
<path id="XMLID_264_" class="st1" d="M591,200.3c2.7,0,5.3,0,8,0s5.3,0,8,0c0,2.6,0,5.2,0,8c-5.5,0-10.8,0-16,0
	C591,205.6,591,202.9,591,200.3z"/>
<path id="XMLID_263_" class="st0" d="M599,176.3c2.7,0,5.3,0,8,0c0,2.6,0,5.2,0,8c-2.8,0-5.4,0-8,0C599,181.6,599,178.9,599,176.3z"
	/>
<path id="XMLID_262_" class="st0" d="M615,176.3c2.6,0,5.2,0,8,0c0,2.8,0,5.4,0,8c-2.6,0-5.2,0-8,0C615,181.4,615,178.9,615,176.3z"
	/>
<path id="XMLID_261_" class="st1" d="M247,224.3c-2.7,0-5.3,0-8,0c0-2.6,0-5.2,0-8.1c-2.8,0-5.4,0-8.1,0c0-2.8,0-5.2,0-7.9
	c-2.7,0-5.3,0-7.9,0c0-2.6,0-5.2,0-7.9c5.4,0,10.5,0,15.9,0c0,2.5,0,5,0,7.9c2.9,0,5.5,0,8.1,0C247,213.6,247,218.9,247,224.3z"/>
<path id="XMLID_260_" class="st0" d="M239,176.3c5.3,0,10.7,0,16,0c0,2.7,0,5.3,0,8c-2.6,0-5.2,0-8,0c0,2.8,0,5.4,0,8
	c-2.6,0-5.2,0-8,0C239,186.7,239,181.5,239,176.3z"/>
<path id="XMLID_259_" class="st1" d="M215,192.3c0-5.2,0-10.5,0-16c2.8,0,5.4,0,8,0c0,5.2,0,10.5,0,16
	C220.2,192.3,217.6,192.3,215,192.3z"/>
<path id="XMLID_258_" class="st1" d="M215,216.3c0-2.7,0-5.3,0-8c2.7,0,5.3,0,8,0c0,2.6,0,5.2,0,8
	C220.2,216.3,217.6,216.3,215,216.3z"/>
<path id="XMLID_257_" class="st1" d="M527,176.3c0-2.7,0-5.3,0-8c2.7,0,5.3,0,8,0c0,2.7,0,5.3,0,8
	C532.4,176.3,529.7,176.3,527,176.3z"/>
<path id="XMLID_256_" class="st1" d="M263,176.3c0-2.7,0-5.3,0-8c2.7,0,5.3,0,8,0c0,2.7,0,5.3,0,8
	C268.4,176.3,265.7,176.3,263,176.3z"/>
<path id="XMLID_93_" class="st0" d="M164,16.2c0,26.7,0,53.3,0,80c-2.7,0-5.3,0-8,0c0-2.6,0-5.2,0-8c-2.8,0-5.4,0-8,0
	c0-2.7,0-5.3,0-8c2.5,0,5,0,7.5,0c0.7-4.2,0.9-33,0.3-48c-2.6,0-5.2,0-7.8,0c0-2.7,0-5.3,0-8c2.6,0,5.2,0,8,0c0-2.8,0-5.4,0-8
	C158.7,16.2,161.4,16.2,164,16.2z"/>
<path id="XMLID_92_" class="st1" d="M116,24.2c0-2.5,0-5,0-7.8c-2.5-0.4-5.2-0.1-7.8-0.1c-2.6,0-5.3,0-8.2,0c0-2.8,0-5.4,0-8
	c8,0,16,0,24,0c0,5.3,0,10.7,0,16C121.4,24.2,118.7,24.2,116,24.2z"/>
<path id="XMLID_91_" class="st1" d="M196,16.2c0-2.7,0-5.3,0-8c5.3,0,10.7,0,16,0c0,2.6,0,5.2,0,8c2.8,0,5.4,0,8,0
	c0,5.3,0,10.7,0,16c-2.6,0-5.2,0-8.2,0c0-2.9,0-5.5,0-8.2c-2.8,0-5.2,0-8,0c0-2.7,0-5.3,0-7.8C201,16.2,198.5,16.2,196,16.2z"/>
<path id="XMLID_255_" class="st0" d="M223,224.3c2.6,0,5.2,0,8,0c0,2.8,0,5.4,0,8c0,2.5,0,5,0,7.9c-2.5,0.3-5.1,0.1-8,0.2
	C223,234.8,223,229.5,223,224.3z"/>
<path id="XMLID_90_" class="st1" d="M636,40.2c0-7.9,0-15.8,0-24c2.8,0,5.4,0,8,0c0,8,0,16,0,24C641.4,40.2,638.7,40.2,636,40.2z"/>
<path id="XMLID_89_" class="st0" d="M652,16.2c2.6,0,5.2,0,8,0c0,2.8,0,5.4,0,8c-2.6,0-5.2,0-8,0C652,21.4,652,18.8,652,16.2z"/>
<path id="XMLID_88_" class="st1" d="M500,8.2c0,2.7,0,5.3,0,8c-2.7,0-5.3,0-8,0c0-2.7,0-5.3,0-8C494.7,8.2,497.4,8.2,500,8.2z"/>
<path id="XMLID_87_" class="st1" d="M524,16.2c0-2.7,0-5.3,0-8c2.7,0,5.3,0,8,0c0,2.7,0,5.3,0,8C529.4,16.2,526.7,16.2,524,16.2z"/>
<path id="XMLID_86_" class="st1" d="M228,72.2c-2.7,0-5.3,0-8,0c0-10.7,0-21.3,0-32c2.7,0,5.3,0,8,0C228,50.9,228,61.6,228,72.2z"/>
<path id="XMLID_85_" class="st1" d="M108,72.2c0-2.7,0-5.3,0-8c2.7,0,5.3,0,8,0c0,2.7,0,5.3,0,8C113.4,72.2,110.7,72.2,108,72.2z"/>
<path id="XMLID_254_" class="st1" d="M151,224.3c0-5.3,0-10.5,0-16c-2.8,0-5.2,0-8,0c0-5.4,0-10.6,0-16c-2.8,0-5.2,0-7.8,0
	c0-2.6,0-5,0-7.8c-2.7,0-5.3,0-8,0c0-2.8,0-5.2,0-8c-2.7,0-5.3,0-8.2,0c0-2.9,0-5.6,0-8.2c5.3,0,10.7,0,16,0c0,2.6,0,5.2,0,8
	c2.8,0,5.4,0,8,0c0,2.6,0,5.2,0,8c2.8,0,5.4,0,8,0c0,5.2,0,10.5,0,16c2.8,0,5.4,0,8,0c0,8,0,16,0,24
	C156.4,224.3,153.7,224.3,151,224.3z"/>
<path id="XMLID_84_" class="st1" d="M340,16.2c0-2.7,0-5.3,0-8c2.7,0,5.3,0,8,0c0,2.7,0,5.3,0,8C345.4,16.2,342.7,16.2,340,16.2z"/>
<path id="XMLID_83_" class="st0" d="M580,24.2c2.7,0,5.3,0,8,0c0,2.7,0,5.3,0,8c-2.7,0-5.3,0-8,0C580,29.6,580,26.9,580,24.2z"/>
<path id="XMLID_82_" class="st1" d="M596,40.2c-2.7,0-5.3,0-8,0c0-2.7,0-5.3,0-8c2.6,0,5.2,0,8,0C596,35.1,596,37.6,596,40.2z"/>
<path id="XMLID_253_" class="st1" d="M351,200.3c-2.7,0-5.3,0-8,0c0-2.7,0-5.3,0-8c2.6,0,5.2,0,8,0C351,195.1,351,197.7,351,200.3z"
	/>
<path id="XMLID_252_" class="st0" d="M335,184.3c2.7,0,5.3,0,8,0c0,2.7,0,5.3,0,8c-2.7,0-5.3,0-8,0C335,189.6,335,186.9,335,184.3z"
	/>
<path id="XMLID_251_" class="st1" d="M535,216.3c0,5.3,0,10.7,0,16c-2.7,0-5.3,0-8,0c0-5.3,0-10.7,0-16
	C529.7,216.3,532.4,216.3,535,216.3z"/>
<path id="XMLID_250_" class="st1" d="M519,240.3c0-2.7,0-5.3,0-8c2.7,0,5.3,0,8,0c0,2.6,0,5.2,0,8
	C524.2,240.3,521.6,240.3,519,240.3z"/>
<path id="XMLID_81_" class="st1" d="M556,64.2c0,5.3,0,10.7,0,16c-2.7,0-5.3,0-8,0c0-5.3,0-10.7,0-16
	C550.7,64.2,553.4,64.2,556,64.2z"/>
<path id="XMLID_80_" class="st1" d="M540,88.2c0-2.7,0-5.3,0-8c2.7,0,5.3,0,8,0c0,2.6,0,5.2,0,8C545.2,88.2,542.6,88.2,540,88.2z"/>
<path id="XMLID_79_" class="st1" d="M452,72.2c0,5.3,0,10.7,0,16c-2.7,0-5.3,0-8,0c0-2.6,0-5.2,0-8c-2.8,0-5.4,0-8,0
	c0-2.7,0-5.3,0-8C441.4,72.2,446.7,72.2,452,72.2z"/>
<path id="XMLID_249_" class="st1" d="M479,200.3c0-7.9,0-15.8,0-24c2.8,0,5.4,0,8,0c0,2.6,0,5.2,0,8c8.2,0,16.1,0,24,0
	c0,2.6,0,5.2,0,8c2.8,0,5.4,0,8,0c0,2.6,0,5.2,0,8c2.8,0,5.4,0,8,0c0,5.3,0,10.7,0,16c-2.6,0-5.2,0-8,0c0-2.8,0-5.3,0-8.1
	c-2.7,0-5.3,0-8.1,0c0-2.8,0-5.3,0-8.1c-2.7,0-5.3,0-8.1,0c0-2.8,0-5.3,0-7.9c-2.8,0-5.4,0-8.1,0c-2.6,0-5.2-0.2-7.8,0.1
	c0,2.9,0,5.4,0,7.9C484.4,200.3,481.7,200.3,479,200.3z"/>
<path id="XMLID_248_" class="st1" d="M647,232.3c0,5.3,0,10.7,0,16c-2.7,0-5.3,0-8,0c0-2.6,0-5.2,0-8c-2.8,0-5.4,0-8,0
	c0-2.7,0-5.3,0-8C636.4,232.3,641.7,232.3,647,232.3z"/>
<path id="XMLID_78_" class="st0" d="M276,16.2c2.6,0,5.2,0,8,0c0,8.2,0,16.1,0,24c-2.6,0-5.2,0-8,0c0,10.9,0,21.4,0,32
	c-2.7,0-5.3,0-8,0c0-2.6,0-5.2,0-8c-2.8,0-5.4,0-8,0c0-5.3,0-10.7,0-16c2.6,0,5.2,0,8,0c0-5.5,0-10.8,0-16c2.6,0,5.2,0,8,0
	C276,26.7,276,21.5,276,16.2z"/>
<path id="XMLID_77_" class="st1" d="M556,64.2c0-5.3,0-10.7,0-16c2.7,0,5.3,0,8,0c0,5.3,0,10.7,0,16C561.4,64.2,558.7,64.2,556,64.2
	z"/>
<path id="XMLID_247_" class="st0" d="M103,176.3c2.6,0,5.2,0,8,0c0,2.8,0,5.4,0,8c-2.6,0-5.2,0-8,0c0,2.8,0,5.4,0,8
	c-2.6,0-5.2,0-8,0c0,2.8,0,5.4,0,8c-2.6,0-5.2,0-8,0c0,13.5,0,26.8,0,40c-2.7,0-5.3,0-8,0c0-5.2,0-10.5,0-16c-2.8,0-5.4,0-8,0
	c0-5.3,0-10.7,0-16c2.6,0,5.2,0,8,0c0-5.5,0-10.8,0-16c2.6,0,5.2,0,8,0c0-2.8,0-5.4,0-8c2.6,0,5.2,0,8,0c0-2.8,0-5.4,0-8
	C97.7,176.3,100.4,176.3,103,176.3z"/>
<path id="XMLID_76_" class="st1" d="M548,24.2c-2.6,0-5.2,0-8,0c0-2.8,0-5.4,0-8c2.7,0,5.3,0,8,0C548,18.9,548,21.6,548,24.2z"/>
<path id="XMLID_75_" class="st1" d="M332,32.2c0-5.2,0-10.5,0-16c2.8,0,5.4,0,8,0c0,5.3,0,10.7,0,16C337.4,32.2,334.7,32.2,332,32.2
	z"/>
<path id="XMLID_74_" class="st1" d="M108,40.2c0-5.2,0-10.5,0-16c2.8,0,5.4,0,8,0c0,5.3,0,10.7,0,16C113.4,40.2,110.7,40.2,108,40.2
	z"/>
<path id="XMLID_246_" class="st1" d="M143,224.3c2.7,0,5.3,0,8,0c0,5.3,0,10.7,0,16c-2.7,0-5.3,0-8,0C143,234.9,143,229.6,143,224.3
	z"/>
<path id="XMLID_73_" class="st0" d="M276,80.2c2.6,0,5.2,0,8,0c0,2.8,0,5.4,0,8c-2.7,0-5.3,0-8,0C276,85.6,276,82.9,276,80.2z"/>
<path id="XMLID_72_" class="st1" d="M212,88.2c0-2.6,0-5.2,0-8c2.8,0,5.4,0,8,0c0,2.7,0,5.3,0,8C217.4,88.2,214.7,88.2,212,88.2z"/>
<path id="XMLID_245_" class="st0" d="M119,256.3c0-2.7,0-5.3,0-8s0-5.3,0-8c0-2.6,0-5.2,0-8c2.8,0,5.2,0,8,0c0-10.8,0-21.4,0-32
	c2.6,0,5.2,0,7.9,0c0,5.4,0,10.5,0,15.9c2.7,0,5.2,0,8.1,0c0,2.9,0,5.5,0,8.1c-2.6,0-5.2,0-8,0c0,5.5,0,10.8,0,16c-2.6,0-5.2,0-8,0
	c0,2.8,0,5.4,0,8c0,2.7,0,5.3,0,8C124.4,256.3,121.7,256.3,119,256.3z"/>
<path id="XMLID_71_" class="st0" d="M388,80.2c2.6,0,5.2,0,8,0c0,2.8,0,5.4,0,8c-2.7,0-5.3,0-8,0C388,85.6,388,82.9,388,80.2z"/>
<path id="XMLID_70_" class="st1" d="M332,64.2c0-2.7,0-5.3,0-8c2.7,0,5.3,0,8,0c0,2.7,0,5.3,0,8C337.4,64.2,334.7,64.2,332,64.2z"/>
<path id="XMLID_69_" class="st1" d="M636,72.2c0-2.7,0-5.3,0-8c2.7,0,5.3,0,8,0c0,2.7,0,5.3,0,8C641.4,72.2,638.7,72.2,636,72.2z"/>
<path id="XMLID_244_" class="st0" d="M87,240.3c2.6,0,5.2,0,8,0c0,2.8,0,5.4,0,8c-2.7,0-5.3,0-8,0C87,245.6,87,242.9,87,240.3z"/>
<path id="XMLID_68_" class="st1" d="M108,56.2c0-2.7,0-5.3,0-8c2.7,0,5.3,0,8,0c0,2.7,0,5.3,0,8C113.4,56.2,110.7,56.2,108,56.2z"/>
<path id="XMLID_67_" class="st1" d="M332,48.2c0-2.7,0-5.3,0-8c2.7,0,5.3,0,8,0c0,2.7,0,5.3,0,8C337.4,48.2,334.7,48.2,332,48.2z"/>
<path id="XMLID_66_" class="st1" d="M636,56.2c0-2.7,0-5.3,0-8c2.7,0,5.3,0,8,0c0,2.7,0,5.3,0,8C641.4,56.2,638.7,56.2,636,56.2z"/>
<path id="XMLID_243_" class="st0" d="M583,240.3c2.6,0,5.2,0,8,0c0,2.8,0,5.4,0,8c-2.7,0-5.3,0-8,0C583,245.6,583,242.9,583,240.3z"
	/>
<path id="XMLID_65_" class="st1" d="M204,96.2c0-2.6,0-5.2,0-8c2.8,0,5.4,0,8,0c0,2.7,0,5.3,0,8C209.4,96.2,206.7,96.2,204,96.2z"/>
<path id="XMLID_64_" class="st0" d="M76,16.2c2.7,0,5.3,0,8,0c0,2.6,0,5.2,0,8.2c-2.9,0-5.5,0-8,0c0,2.8,0,5.3,0,7.8
	c-2.7,0-5.3,0-8,0s-5.3,0-8,0c0-2.7,0-5.3,0-8c2.6,0,5.2,0,8,0c0-2.8,0-5.4,0-8C70.7,16.2,73.4,16.2,76,16.2z"/>
<path class="st0" d="M512,332.1c5.3,0,10.7,0,16,0c0,5.3,0,10.7,0,16c-2.7,0-5.3,0-8,0c0-2.6,0-5.2,0-8c-2.8,0-5.4,0-8,0
	C512,337.4,512,334.7,512,332.1z"/>
<path class="st1" d="M528,356.1c0-2.7,0-5.3,0-8c2.5,0,5,0,7.9,0c0.3,2.5,0.1,5.1,0.2,8C533.3,356.1,530.6,356.1,528,356.1z"/>
<path class="st1" d="M600,332.1c0-2.7,0-5.3,0-8c2.7,0,5.3,0,8,0c0,2.7,0,5.3,0,8C605.4,332.1,602.7,332.1,600,332.1z"/>
<path class="st0" d="M680,396.1c0-2.7,0-5.3,0-8c2.6,0,5.2,0,8,0c0-18.9,0-37.4,0-56c2.5,0,5,0,7.5,0c0.7,4.3,1,47.8,0.3,64
	c-2.6,0-5.2,0-7.8,0C685.4,396.1,682.7,396.1,680,396.1z"/>
<path class="st1" d="M672,412.1c-5.2,0-10.5,0-16,0c0-2.8,0-5.4,0-8c5.2,0,10.5,0,16,0C672,406.9,672,409.5,672,412.1z"/>
<path class="st1" d="M192,356.1c0-2.5,0-5,0-7.8c-2.5,0-5.1,0-7.8,0c0-2.8,0-5.2,0-8c-2.7,0-5.3,0-8,0c0-2.8,0-5.2,0-8
	c-2.7,0-5.3,0-8.2,0c0-2.9,0-5.6,0-8.2c5.3,0,10.7,0,16,0c0,2.6,0,5.2,0,8c2.8,0,5.4,0,8,0c0,2.6,0,5.2,0,8c2.8,0,5.4,0,8,0
	c0,5.3,0,10.7,0,16C197.4,356.1,194.7,356.1,192,356.1z"/>
<path class="st1" d="M272,332.1c0-2.7,0-5.3,0-8c2.7,0,5.3,0,8,0c0,2.7,0,5.3,0,8C277.4,332.1,274.7,332.1,272,332.1z"/>
<path class="st1" d="M336,324.1c0,2.7,0,5.3,0,8c-2.7,0-5.3,0-8,0c0-2.7,0-5.3,0-8C330.7,324.1,333.4,324.1,336,324.1z"/>
<path class="st1" d="M360,332.1c0-2.7,0-5.3,0-8c2.7,0,5.3,0,8,0c0,2.7,0,5.3,0,8C365.4,332.1,362.7,332.1,360,332.1z"/>
<path class="st1" d="M472,332.1c0-2.7,0-5.3,0-8c2.7,0,5.3,0,8,0c0,2.7,0,5.3,0,8C477.4,332.1,474.7,332.1,472,332.1z"/>
<path class="st1" d="M464,356.1c0-7.9,0-15.8,0-24c2.8,0,5.4,0,8,0c0,8,0,16,0,24C469.4,356.1,466.7,356.1,464,356.1z"/>
<path class="st0" d="M576,332.1c5.3,0,10.7,0,16,0c0,2.7,0,5.3,0,8c-2.7,0-5.3,0-8,0s-5.3,0-8,0C576,337.4,576,334.7,576,332.1z"/>
<path class="st1" d="M584,340.1c2.7,0,5.3,0,8,0c0,2.7,0,5.3,0,8c-2.7,0-5.3,0-8,0C584,345.4,584,342.7,584,340.1z"/>
<path class="st1" d="M664,332.1c0-2.7,0-5.3,0-8c2.7,0,5.3,0,8,0c0,2.7,0,5.3,0,8C669.4,332.1,666.7,332.1,664,332.1z"/>
<path class="st1" d="M264,356.1c0-7.9,0-15.8,0-24c2.8,0,5.4,0,8,0c0,8,0,16,0,24C269.4,356.1,266.7,356.1,264,356.1z"/>
<path class="st1" d="M392,380.1c0,5.3,0,10.7,0,16c-2.7,0-5.3,0-8,0c0-5.3,0-10.7,0-16C386.7,380.1,389.4,380.1,392,380.1z"/>
<path class="st1" d="M376,404.1c0-2.7,0-5.3,0-8c2.7,0,5.3,0,8,0c0,2.6,0,5.2,0,8C381.2,404.1,378.6,404.1,376,404.1z"/>
<path class="st1" d="M392,380.1c0-5.3,0-10.7,0-16c2.7,0,5.3,0,8,0c0,5.3,0,10.7,0,16C397.4,380.1,394.7,380.1,392,380.1z"/>
<path class="st1" d="M384,340.1c-2.6,0-5.2,0-8,0c0-2.8,0-5.4,0-8c2.7,0,5.3,0,8,0C384,334.7,384,337.4,384,340.1z"/>
<path class="st0" d="M640,356.1c0,5.3,0,10.7,0,16c-2.7,0-5.3,0-8,0c0-5.3,0-10.7,0-16C634.7,356.1,637.4,356.1,640,356.1z"/>
<path class="st1" d="M560,388.1c0-2.7,0-5.3,0-8c2.7,0,5.3,0,8,0c0,2.7,0,5.3,0,8C565.4,388.1,562.7,388.1,560,388.1z"/>
<path class="st1" d="M464,388.1c0-2.7,0-5.3,0-8c2.7,0,5.3,0,8,0c0,2.7,0,5.3,0,8C469.4,388.1,466.7,388.1,464,388.1z"/>
<path class="st1" d="M264,388.1c0-2.7,0-5.3,0-8c2.7,0,5.3,0,8,0c0,2.7,0,5.3,0,8C269.4,388.1,266.7,388.1,264,388.1z"/>
<path class="st0" d="M184,372.1c-2.6,0-5.2,0-8,0c0,2.8,0,5.4,0,8c-2.7,0-5.3,0-8,0c0-2.7,0-5.3,0-8s0-5.3,0-8c0-5.3,0-10.7,0-16
	c2.6,0,5.2,0,7.9,0c0,2.7,0,5.1,0,7.9c2.7,0,5.2,0,8.1,0c0,2.9,0,5.5,0,8.1C184,366.7,184,369.4,184,372.1z"/>
<path class="st1" d="M264,372.1c0-2.7,0-5.3,0-8c2.7,0,5.3,0,8,0c0,2.7,0,5.3,0,8C269.4,372.1,266.7,372.1,264,372.1z"/>
<path class="st1" d="M464,372.1c0-2.7,0-5.3,0-8c2.7,0,5.3,0,8,0c0,2.7,0,5.3,0,8C469.4,372.1,466.7,372.1,464,372.1z"/>
<path class="st1" d="M560,372.1c0-2.7,0-5.3,0-8c2.7,0,5.3,0,8,0c0,2.7,0,5.3,0,8C565.4,372.1,562.7,372.1,560,372.1z"/>
<path id="XMLID_242_" class="st1" d="M391,200.3c0-7.9,0-15.8,0-24c2.8,0,5.4,0,8,0c0,8,0,16,0,24
	C396.4,200.3,393.7,200.3,391,200.3z"/>
<path id="XMLID_241_" class="st0" d="M407,176.3c2.6,0,5.2,0,8,0c0,2.8,0,5.4,0,8c-2.6,0-5.2,0-8,0C407,181.4,407,178.9,407,176.3z"
	/>
<path id="XMLID_240_" class="st1" d="M391,232.3c0-2.7,0-5.3,0-8c2.7,0,5.3,0,8,0c0,2.7,0,5.3,0,8
	C396.4,232.3,393.7,232.3,391,232.3z"/>
<path id="XMLID_239_" class="st1" d="M391,216.3c0-2.7,0-5.3,0-8c2.7,0,5.3,0,8,0c0,2.7,0,5.3,0,8
	C396.4,216.3,393.7,216.3,391,216.3z"/>
<path class="st0" d="M80,332.1c5.3,0,10.7,0,16,0c0,2.7,0,5.3,0,8c-2.7,0-5.3,0-8,0s-5.3,0-8,0C80,337.4,80,334.7,80,332.1z"/>
<path class="st1" d="M88,340.1c2.7,0,5.3,0,8,0c0,2.7,0,5.3,0,8c-2.7,0-5.3,0-8,0C88,345.4,88,342.7,88,340.1z"/>
<path class="st1" d="M64,388.1c0-2.7,0-5.3,0-8c2.7,0,5.3,0,8,0c0,2.7,0,5.3,0,8C69.4,388.1,66.7,388.1,64,388.1z"/>
<path class="st1" d="M64,372.1c0-2.7,0-5.3,0-8c2.7,0,5.3,0,8,0c0,2.7,0,5.3,0,8C69.4,372.1,66.7,372.1,64,372.1z"/>
<path class="st1" d="M704,388.1c0-2.7,0-5.3,0-8c2.7,0,5.3,0,8,0c0,2.7,0,5.3,0,8C709.4,388.1,706.7,388.1,704,388.1z"/>
<path class="st1" d="M696,412.1c0-2.6,0-5.2,0-8c2.8,0,5.4,0,8,0c0,2.7,0,5.3,0,8C701.4,412.1,698.7,412.1,696,412.1z"/>
<path class="st1" d="M704,372.1c0-2.7,0-5.3,0-8c2.7,0,5.3,0,8,0c0,2.7,0,5.3,0,8C709.4,372.1,706.7,372.1,704,372.1z"/>
<path id="XMLID_63_" d="M92,64.2c0,10.6,0,21.1,0,32c-2.8,0-5.4,0-8,0c0-2.6,0-5.2,0-8c-2.8,0-5.4,0-8,0c0-2.7,0-5.3,0-8
	c2.6,0,5.2,0,8,0c-0.1-2.9,0.1-5.5-0.2-8c-2.9,0-5.4,0-7.9,0c0-2.7,0-5.3,0-8C81.4,64.2,86.7,64.2,92,64.2z"/>
<path id="XMLID_62_" class="st1" d="M68,32.2c2.7,0,5.3,0,8,0c0,5.3,0,10.5,0,16c5.5,0,10.7,0,16,0c0,2.7,0,5.3,0,8
	c-7.9,0-15.8,0-24,0C68,48.1,68,40.2,68,32.2z"/>
<path id="XMLID_61_" class="st1" d="M76,80.2c0,2.7,0,5.3,0,8c-2.7,0-5.3,0-8,0c0-2.7,0-5.3,0-8C70.7,80.2,73.4,80.2,76,80.2z"/>
<path id="XMLID_60_" d="M76,80.2c-2.7,0-5.3,0-8,0c0-2.7,0-5.3,0-8c2.7,0,5.3,0,8,0C76,74.9,76,77.6,76,80.2z"/>
<path id="XMLID_59_" class="st1" d="M76,72.2c-2.7,0-5.3,0-8,0c0-2.6,0-5.2,0-8c2.8,0,5.4,0,8,0C76,66.9,76,69.6,76,72.2z"/>
<path d="M672,340.1c2.6,0,5.2,0,8,0c0-2.8,0-5.4,0-8c2.7,0,5.3,0,8,0c0,18.6,0,37.1,0,56c-2.8,0-5.4,0-8,0c-2.7,0-5.3,0-8,0
	c0-2.7,0-5.3,0-8c2.6,0,5.2,0,8,0c0-10.6,0-20.9,0-31.2c0-0.1-0.1-0.3-0.2-0.4c-0.1-0.1-0.2-0.3-0.3-0.3c-2.5,0-5,0-7.5,0
	C672,345.4,672,342.7,672,340.1z"/>
<path class="st1" d="M336,332.1c2.7,0,5.3,0,8,0c0,8,0,16,0,24c-2.7,0-5.3,0-8,0C336,348.1,336,340.1,336,332.1z"/>
<path class="st1" d="M344,412.1c-2.6,0-5.2,0-8,0c0-5.5,0-10.8,0-16c2.7,0,5.3,0,8,0C344,401.4,344,406.7,344,412.1z"/>
<path class="st1" d="M336,388.1c0-2.7,0-5.3,0-8c2.7,0,5.3,0,8,0c0,2.7,0,5.3,0,8C341.4,388.1,338.7,388.1,336,388.1z"/>
<path d="M336,388.1c2.7,0,5.3,0,8,0c0,2.7,0,5.3,0,8c-2.7,0-5.3,0-8,0C336,393.4,336,390.7,336,388.1z"/>
<path d="M336,356.1c2.7,0,5.3,0,8,0c0,2.7,0,5.3,0,8c-2.7,0-5.3,0-8,0C336,361.4,336,358.7,336,356.1z"/>
<path d="M344,380.1c-2.7,0-5.3,0-8,0c0-2.7,0-5.3,0-8c2.7,0,5.3,0,8,0C344,374.7,344,377.4,344,380.1z"/>
<path class="st1" d="M344,372.1c-2.7,0-5.3,0-8,0c0-2.7,0-5.3,0-8c2.7,0,5.3,0,8,0C344,366.7,344,369.4,344,372.1z"/>
<path d="M344,412.1c0-5.3,0-10.7,0-16c2.6,0,5.2,0,8,0c0,5.5,0,10.8,0,16C349.4,412.1,346.7,412.1,344,412.1z"/>
<path d="M168,348.1c0,5.3,0,10.7,0,16c-8,0-16,0-24,0c0-2.7,0-5.3,0-8c2.6,0,5.2,0,8,0c0-8.2,0-16.1,0-24c2.6,0,5.2,0,7.9,0
	c0,2.7,0,5.1,0,7.9c2.7,0,5.2,0,8.1,0C168,342.9,168,345.5,168,348.1z"/>
<path class="st1" d="M152,332.1c0,7.9,0,15.8,0,24c-2.8,0-5.4,0-8,0c0-7.9,0-15.8,0-24C146.8,332.1,149.4,332.1,152,332.1z"/>
<path class="st1" d="M144,364.1c8,0,16,0,24,0c0,2.7,0,5.3,0,8c-5.3,0-10.7,0-16,0c-2.7,0-5.3,0-8,0C144,369.4,144,366.7,144,364.1z
	"/>
<path d="M152,396.1c-2.7,0-5.3,0-8,0c0-2.7,0-5.3,0-8c2.7,0,5.3,0,8,0C152,390.7,152,393.4,152,396.1z"/>
<path class="st1" d="M152,388.1c-2.7,0-5.3,0-8,0c0-2.7,0-5.3,0-8c2.7,0,5.3,0,8,0C152,382.7,152,385.4,152,388.1z"/>
<path d="M152,380.1c-2.7,0-5.3,0-8,0c0-2.7,0-5.3,0-8c2.7,0,5.3,0,8,0C152,374.7,152,377.4,152,380.1z"/>
<path d="M160,404.1c-2.6,0-5.2,0-8,0c0-2.8,0-5.4,0-8c2.7,0,5.3,0,8,0C160,398.7,160,401.4,160,404.1z"/>
<path class="st1" d="M64,356.1c0-7.9,0-15.8,0-24c2.8,0,5.4,0,8,0c0,8,0,16,0,24C69.4,356.1,66.7,356.1,64,356.1z"/>
<path d="M72,356.1c0-8,0-16,0-24c2.7,0,5.3,0,8,0c0,2.7,0,5.3,0,8c0,5.3,0,10.7,0,16C77.4,356.1,74.7,356.1,72,356.1z"/>
<path d="M64,356.1c2.7,0,5.3,0,8,0c0,2.7,0,5.3,0,8c-2.7,0-5.3,0-8,0C64,361.4,64,358.7,64,356.1z"/>
<path id="XMLID_238_" d="M495,248.3c-5.3,0-10.7,0-16,0c0-2.7,0-5.3,0-8c2.6,0,5.2,0,8,0c0-2.8,0-5.4,0-8c2.6,0,5.2,0,8,0
	c-0.1-2.9,0.1-5.5-0.2-8c-2.9,0-5.4,0-7.9,0c0-5.3,0-10.7,0-16c2.7,0,5.3,0,8,0c0,2.6,0,5.2,0,8c2.8,0,5.4,0,8,0c0,10.7,0,21.3,0,32
	C500.4,248.3,497.7,248.3,495,248.3z"/>
<path id="XMLID_237_" class="st1" d="M487,208.3c0,5.3,0,10.7,0,16c-2.7,0-5.3,0-8,0c0-5.3,0-10.7,0-16
	C481.7,208.3,484.4,208.3,487,208.3z"/>
<path id="XMLID_236_" class="st1" d="M487,232.3c0,2.6,0,5.2,0,8c-2.8,0-5.4,0-8,0c0-2.7,0-5.3,0-8
	C481.7,232.3,484.4,232.3,487,232.3z"/>
<path id="XMLID_235_" d="M487,232.3c-2.7,0-5.3,0-8,0c0-2.7,0-5.3,0-8c2.7,0,5.3,0,8,0C487,226.9,487,229.6,487,232.3z"/>
<path id="XMLID_234_" class="st0" d="M495,248.3c2.7,0,5.3,0,8,0c0,2.7,0,5.3,0,8c-2.7,0-5.3,0-8,0C495,253.6,495,250.9,495,248.3z"
	/>
<path class="st1" d="M560,356.1c0-7.9,0-15.8,0-24c2.8,0,5.4,0,8,0c0,8,0,16,0,24C565.4,356.1,562.7,356.1,560,356.1z"/>
<path d="M568,356.1c0-8,0-16,0-24c2.7,0,5.3,0,8,0c0,2.7,0,5.3,0,8c0,5.3,0,10.7,0,16C573.4,356.1,570.7,356.1,568,356.1z"/>
<path d="M560,356.1c2.7,0,5.3,0,8,0c0,2.7,0,5.3,0,8c-2.7,0-5.3,0-8,0C560,361.4,560,358.7,560,356.1z"/>
<path id="XMLID_58_" class="st1" d="M500,16.2c2.7,0,5.3,0,8,0c0,8,0,16,0,24c-2.7,0-5.3,0-8,0C500,32.2,500,24.2,500,16.2z"/>
<path id="XMLID_57_" class="st1" d="M508,96.2c-2.6,0-5.2,0-8,0c0-5.5,0-10.8,0-16c2.7,0,5.3,0,8,0C508,85.6,508,90.9,508,96.2z"/>
<path id="XMLID_56_" class="st1" d="M500,72.2c0-2.7,0-5.3,0-8c2.7,0,5.3,0,8,0c0,2.7,0,5.3,0,8C505.4,72.2,502.7,72.2,500,72.2z"/>
<path id="XMLID_55_" d="M500,72.2c2.7,0,5.3,0,8,0c0,2.7,0,5.3,0,8c-2.7,0-5.3,0-8,0C500,77.6,500,74.9,500,72.2z"/>
<path id="XMLID_54_" d="M500,40.2c2.7,0,5.3,0,8,0c0,2.7,0,5.3,0,8c-2.7,0-5.3,0-8,0C500,45.6,500,42.9,500,40.2z"/>
<path id="XMLID_53_" class="st1" d="M500,48.2c2.7,0,5.3,0,8,0c0,2.7,0,5.3,0,8c-2.7,0-5.3,0-8,0C500,53.6,500,50.9,500,48.2z"/>
<path id="XMLID_52_" d="M500,56.2c2.7,0,5.3,0,8,0c0,2.7,0,5.3,0,8c-2.7,0-5.3,0-8,0C500,61.6,500,58.9,500,56.2z"/>
<path id="XMLID_51_" d="M508,96.2c0-5.3,0-10.7,0-16c2.6,0,5.2,0,8,0c0,5.5,0,10.8,0,16C513.4,96.2,510.7,96.2,508,96.2z"/>
<path id="XMLID_50_" d="M188,96.2c-5.3,0-10.5,0-16,0c0-5.5,0-10.7,0-16c2.6,0,5.2,0,8,0c0-2.8,0-5.4,0-8c5.3,0,10.7,0,16,0
	c0,2.7,0,5.3,0,8c-2.6,0-5.2,0-8,0C188,85.8,188,91,188,96.2z"/>
<path id="XMLID_49_" d="M196,24.2c0,2.7,0,5.3,0,8s0,5.3,0,8c-2.7,0-5.3,0-8,0c0-2.6,0-5.2,0-8c-2.8,0-5.4,0-8,0c0-5.3,0-10.7,0-16
	c2.7,0,5.3,0,8,0c0,2.6,0,5.2,0,8C190.9,24.2,193.4,24.2,196,24.2z"/>
<path id="XMLID_48_" class="st1" d="M180,16.2c0,5.3,0,10.7,0,16c-2.7,0-5.3,0-8,0c0-5.2,0-10.5,0-16
	C174.8,16.2,177.4,16.2,180,16.2z"/>
<path id="XMLID_47_" class="st1" d="M180,72.2c0,2.6,0,5.2,0,8c-2.8,0-5.4,0-8,0c0-2.7,0-5.3,0-8C174.7,72.2,177.4,72.2,180,72.2z"
	/>
<path id="XMLID_46_" d="M180,72.2c-2.7,0-5.3,0-8,0c0-2.7,0-5.3,0-8c2.7,0,5.3,0,8,0C180,66.9,180,69.6,180,72.2z"/>
<path id="XMLID_45_" class="st1" d="M172,48.2c0-2.7,0-5.3,0-8c2.7,0,5.3,0,8,0c0,2.7,0,5.3,0,8C177.4,48.2,174.7,48.2,172,48.2z"/>
<path id="XMLID_44_" d="M172,48.2c2.7,0,5.3,0,8,0c0,2.7,0,5.3,0,8c-2.7,0-5.3,0-8,0C172,53.6,172,50.9,172,48.2z"/>
<path id="XMLID_43_" d="M180,40.2c-2.7,0-5.3,0-8,0c0-2.7,0-5.3,0-8c2.7,0,5.3,0,8,0C180,34.9,180,37.6,180,40.2z"/>
<path id="XMLID_42_" class="st1" d="M172,56.2c2.7,0,5.3,0,8,0c0,2.7,0,5.3,0,8c-2.7,0-5.3,0-8,0C172,61.6,172,58.9,172,56.2z"/>
<path id="XMLID_41_" class="st0" d="M196,24.2c-2.6,0-5.2,0-8,0c0-2.8,0-5.4,0-8c2.7,0,5.3,0,8,0C196,18.9,196,21.6,196,24.2z"/>
<path id="XMLID_40_" class="st0" d="M188,96.2c0-5.2,0-10.5,0-16c2.8,0,5.4,0,8,0c0,5.3,0,10.7,0,16C193.4,96.2,190.7,96.2,188,96.2
	z"/>
<path d="M152,388.1c0-2.7,0-5.3,0-8c5.3,0,10.7,0,16,0c2.7,0,5.3,0,8,0c0,2.7,0,5.3,0,8c-2.6,0-5.2,0-8,0c0,2.8,0,5.4,0,8
	c-2.7,0-5.3,0-8,0c0-2.6,0-5.2,0-8C157.2,388.1,154.6,388.1,152,388.1z"/>
<path class="st0" d="M168,396.1c0-2.6,0-5.2,0-8c2.8,0,5.4,0,8,0c0,2.7,0,5.3,0,8C173.4,396.1,170.7,396.1,168,396.1z"/>
<path id="XMLID_233_" d="M503,256.3c0-2.7,0-5.3,0-8c2.7,0,5.3,0,8,0s5.3,0,8,0c0,2.7,0,5.3,0,8C513.7,256.3,508.4,256.3,503,256.3z
	"/>
<path id="XMLID_39_" class="st0" d="M532,80.2c0-2.7,0-5.3,0-8c2.7,0,5.3,0,8,0c0,2.7,0,5.3,0,8C537.4,80.2,534.7,80.2,532,80.2z"/>
<path id="XMLID_38_" class="st1" d="M436,80.2c0,2.7,0,5.3,0,8c-5.2,0-10.5,0-16,0c0,2.8,0,5.4,0,8c-2.6,0-5.2,0-8,0
	c0-2.7,0-5.2,0-7.9c-2.7,0-5.3,0-7.9,0c0-5.4,0-10.5,0-15.9c-2.7,0-5.2,0-8.1,0c0-2.9,0-5.5,0-8.1c5.3,0,10.7,0,16,0
	c0,2.7,0,5.3,0,8c0,2.6,0,5.2,0,8C420.2,80.2,428.1,80.2,436,80.2z"/>
<path id="XMLID_37_" d="M412,64.2c-5.3,0-10.7,0-16,0c0-2.7,0-5.3,0-8c5.3,0,10.7,0,16,0C412,58.9,412,61.6,412,64.2z"/>
<path id="XMLID_36_" d="M92,48.2c-5.3,0-10.5,0-16,0c0-5.5,0-10.7,0-16c0-2.5,0-5,0-7.8c2.5,0,5.1,0,8,0c0-2.9,0-5.6,0-8.2
	c2.6,0,5.2,0,8,0c0,2.8,0,5.4,0,8C92,32.2,92,40.2,92,48.2z"/>
<path class="st0" d="M368,396.1c0-2.7,0-5.3,0-8c2.7,0,5.3,0,8,0c0,2.7,0,5.3,0,8C373.4,396.1,370.7,396.1,368,396.1z"/>
<path id="XMLID_232_" class="st1" d="M631,240.3c0,2.7,0,5.3,0,8c-5.2,0-10.5,0-16,0c0,2.8,0,5.4,0,8c-2.6,0-5.2,0-8,0
	c0-2.7,0-5.2,0-7.9c-2.7,0-5.3,0-7.9,0c0-5.4,0-10.5,0-15.9c-2.7,0-5.2,0-8.1,0c0-2.9,0-5.5,0-8.1c5.3,0,10.7,0,16,0
	c0,2.7,0,5.3,0,8c0,2.6,0,5.2,0,8C615.2,240.3,623.1,240.3,631,240.3z"/>
<path id="XMLID_231_" d="M607,224.3c-5.3,0-10.7,0-16,0c0-2.7,0-5.3,0-8c5.3,0,10.7,0,16,0C607,218.9,607,221.6,607,224.3z"/>
<path id="XMLID_35_" d="M292,48.2c2.6,0,5.2,0,8,0c0,5.5,0,10.8,0,16c-2.6,0-5.2,0-8,0C292,58.7,292,53.5,292,48.2z"/>
<path id="XMLID_34_" d="M284,48.2c0-2.7,0-5.3,0-8c2.7,0,5.3,0,8,0c0,2.7,0,5.3,0,8C289.4,48.2,286.7,48.2,284,48.2z"/>
<path id="XMLID_33_" d="M292,40.2c0-2.7,0-5.3,0-8c2.7,0,5.3,0,8,0c0,2.6,0,5.2,0,8C297.2,40.2,294.6,40.2,292,40.2z"/>
<path id="XMLID_230_" d="M511,184.3c-7.9,0-15.8,0-24,0c0-2.8,0-5.4,0-8c7.9,0,15.8,0,24,0C511,179.1,511,181.7,511,184.3z"/>
<path id="XMLID_32_" d="M524,24.2c-2.5,0-5,0-7.8,0c-0.4,2.5-0.1,5.2-0.1,7.8c0,2.6,0,5.3,0,8.2c-2.8,0-5.4,0-8,0c0-8,0-16,0-24
	c5.3,0,10.7,0,16,0C524,18.9,524,21.6,524,24.2z"/>
<path id="XMLID_229_" d="M103,192.3c0-2.6,0-5.2,0-8c2.8,0,5.4,0,8,0s5.2,0,8,0c0,2.8,0,5.4,0,8c0,2.7,0,5.3,0,8c-2.6,0-5.2,0-8,0
	c0,8.2,0,16.1,0,24c-2.6,0-5.2,0-8,0c0-8.2,0-16.1,0-24C103,197.6,103,194.9,103,192.3z"/>
<path id="XMLID_228_" class="st0" d="M119,200.3c0-2.7,0-5.3,0-8c2.6,0,5.2,0,8,0c0,2.8,0,5.4,0,8
	C124.4,200.3,121.7,200.3,119,200.3z"/>
<path id="XMLID_31_" class="st0" d="M204,40.2c2.5,0,5,0,7.5,0c0.1,0.1,0.2,0.2,0.3,0.3c0.1,0.1,0.2,0.3,0.2,0.4
	c0,10.3,0,20.6,0,31.2c-2.8,0-5.4,0-8,0C204,61.6,204,50.9,204,40.2z"/>
<path id="XMLID_30_" class="st0" d="M196,80.2c0-2.7,0-5.3,0-8c2.7,0,5.3,0,8,0c0,2.6,0,5.2,0,8C201.2,80.2,198.6,80.2,196,80.2z"/>
<path id="XMLID_29_" class="st0" d="M196,40.2c0-2.7,0-5.3,0-8c2.6,0,5.2,0,8,0c0,2.8,0,5.4,0,8C201.4,40.2,198.7,40.2,196,40.2z"/>
<path id="XMLID_227_" class="st0" d="M511,248.3c-2.7,0-5.3,0-8,0c0-10.7,0-21.3,0-32c2.6,0,5.2,0,7.9,0c0,2.7,0,5.1,0,7.9
	c2.7,0,5.2,0,8.1,0c0,2.9,0,5.5,0,8.1c-2.6,0-5.2,0-8,0C511,237.8,511,243,511,248.3z"/>
<path id="XMLID_28_" d="M436,80.2c-7.9,0-15.8,0-24,0c0-2.8,0-5.4,0-8c2.6,0,5.2,0,8,0c0-2.8,0-5.4,0-8c2.7,0,5.3,0,8,0
	c0,2.6,0,5.2,0,8c2.8,0,5.4,0,8,0C436,74.9,436,77.6,436,80.2z"/>
<path id="XMLID_226_" d="M631,240.3c-7.9,0-15.8,0-24,0c0-2.8,0-5.4,0-8c2.6,0,5.2,0,8,0c0-2.8,0-5.4,0-8c2.7,0,5.3,0,8,0
	c0,2.6,0,5.2,0,8c2.8,0,5.4,0,8,0C631,234.9,631,237.6,631,240.3z"/>
<path id="XMLID_27_" class="st0" d="M548,64.2c-2.7,0-5.3,0-8,0c0-8,0-16,0-24c2.6,0,5.2,0,8,0C548,48.4,548,56.3,548,64.2z"/>
<path id="XMLID_26_" d="M532,40.2c-2.6,0-5.2,0-8,0c0-5.5,0-10.8,0-16c2.6,0,5.2,0,8,0c0,2.8,0,5.4,0,8C532,34.9,532,37.6,532,40.2z
	"/>
<path id="XMLID_25_" class="st0" d="M532,40.2c0-2.7,0-5.3,0-8c2.6,0,5.2,0,8,0c0,2.8,0,5.4,0,8C537.4,40.2,534.7,40.2,532,40.2z"/>
<path id="XMLID_225_" class="st1" d="M95,200.3c2.7,0,5.3,0,8,0c0,7.9,0,15.8,0,24c2.8,0,5.4,0,8,0c0,5.2,0,10.5,0,16
	c2.8,0,5.4,0,8,0c0,2.7,0,5.3,0,8c-5.3,0-10.5,0-15.9,0c0-5.4,0-10.5,0-15.9c-2.7,0-5.3,0-8.1,0C95,221.4,95,210.8,95,200.3z"/>
<path id="XMLID_224_" d="M119,240.3c-2.6,0-5.2,0-8,0c0-5.5,0-10.8,0-16c2.6,0,5.2,0,8,0c0-8.2,0-16.1,0-24c2.7,0,5.3,0,8,0
	c0,10.6,0,21.2,0,32c-2.8,0-5.2,0-8,0C119,235,119,237.6,119,240.3z"/>
<path id="XMLID_223_" class="st0" d="M615,224.3c0,2.6,0,5.2,0,8c-2.8,0-5.4,0-8,0c0-2.7,0-5.3,0-8s0-5.3,0-8c2.6,0,5.2,0,8,0
	C615,219.1,615,221.7,615,224.3z"/>
<path id="XMLID_24_" class="st0" d="M420,64.2c0,2.6,0,5.2,0,8c-2.8,0-5.4,0-8,0c0-2.7,0-5.3,0-8s0-5.3,0-8c2.6,0,5.2,0,8,0
	C420,59.1,420,61.6,420,64.2z"/>
<path class="st1" d="M656,372.1c-2.5,0-5,0-7.8,0c-0.4-2.5-0.1-5.2-0.1-7.8c0-2.6,0-5.3,0-8.2c2.8,0,5.4,0,8,0
	C656,361.4,656,366.7,656,372.1z"/>
<path d="M672,332.1c0,2.7,0,5.3,0,8c-2.7,0-5.3,0-8,0c0-2.7,0-5.3,0-8C666.7,332.1,669.4,332.1,672,332.1z"/>
<path class="st1" d="M672,380.1c0,2.7,0,5.3,0,8c-2.6,0-5.2,0-8,0c0-2.8,0-5.4,0-8C666.7,380.1,669.4,380.1,672,380.1z"/>
<path class="st1" d="M656,356.1c0-2.6,0-5.2,0-8c2.8,0,5.4,0,8,0c0,2.7,0,5.3,0,8C661.4,356.1,658.7,356.1,656,356.1z"/>
<path class="st1" d="M664,380.1c-2.6,0-5.2,0-8,0c0-2.8,0-5.4,0-8c2.7,0,5.3,0,8,0C664,374.7,664,377.4,664,380.1z"/>
<path class="st1" d="M664,340.1c2.7,0,5.3,0,8,0c0,2.7,0,5.3,0,8c-2.7,0-5.3,0-8,0C664,345.4,664,342.7,664,340.1z"/>
<path d="M360,340.1c-2.5,0-5,0-7.8,0c-0.4,2.5-0.1,5.2-0.1,7.8c0,2.6,0,5.3,0,8.2c-2.8,0-5.4,0-8,0c0-8,0-16,0-24c5.3,0,10.7,0,16,0
	C360,334.7,360,337.4,360,340.1z"/>
<path class="st0" d="M384,380.1c-2.7,0-5.3,0-8,0c0-8,0-16,0-24c2.6,0,5.2,0,8,0C384,364.3,384,372.2,384,380.1z"/>
<path d="M368,356.1c-2.6,0-5.2,0-8,0c0-5.5,0-10.8,0-16c2.6,0,5.2,0,8,0c0,2.8,0,5.4,0,8C368,350.7,368,353.4,368,356.1z"/>
<path class="st0" d="M368,356.1c0-2.7,0-5.3,0-8c2.6,0,5.2,0,8,0c0,2.8,0,5.4,0,8C373.4,356.1,370.7,356.1,368,356.1z"/>
<path d="M344,380.1c2.5,0,5,0,7.9,0c0.3,2.5,0.1,5.1,0.2,8c-2.8,0-5.4,0-8,0C344,385.4,344,382.7,344,380.1z"/>
<path d="M344,364.1c2.5,0,5,0,7.9,0c0.3,2.5,0.1,5.1,0.2,8c-2.8,0-5.4,0-8,0C344,369.4,344,366.7,344,364.1z"/>
<path id="XMLID_222_" class="st0" d="M495,208.3c2.6,0,5.2,0,8,0c0,2.8,0,5.4,0,8c-2.6,0-5.2,0-8,0C495,213.4,495,210.9,495,208.3z"
	/>
<path id="XMLID_23_" d="M508,64.2c2.5,0,5,0,7.9,0c0.3,2.5,0.1,5.1,0.2,8c-2.8,0-5.4,0-8,0C508,69.6,508,66.9,508,64.2z"/>
<path id="XMLID_22_" d="M508,48.2c2.5,0,5,0,7.9,0c0.3,2.5,0.1,5.1,0.2,8c-2.8,0-5.4,0-8,0C508,53.6,508,50.9,508,48.2z"/>
<path id="XMLID_21_" d="M180,40.2c2.7,0,5.3,0,8,0c0,2.6,0,5.2,0,8c-2.8,0-5.4,0-8,0C180,45.6,180,42.9,180,40.2z"/>
<path id="XMLID_20_" d="M180,56.2c2.5,0,5,0,7.9,0c0.3,2.5,0.1,5.1,0.2,8c-2.8,0-5.4,0-8,0C180,61.6,180,58.9,180,56.2z"/>
<path id="XMLID_19_" d="M532,40.2c2.7,0,5.3,0,8,0c0,8,0,16,0,24c0,2.7,0,5.3,0,8c-2.7,0-5.3,0-8,0C532,61.6,532,50.9,532,40.2z"/>
<path d="M368,356.1c2.7,0,5.3,0,8,0c0,8,0,16,0,24c0,2.7,0,5.3,0,8c-2.7,0-5.3,0-8,0C368,377.4,368,366.7,368,356.1z"/>
<path id="XMLID_18_" d="M196,72.2c0-10.7,0-21.3,0-32c2.7,0,5.3,0,8,0c0,10.7,0,21.3,0,32C201.4,72.2,198.7,72.2,196,72.2z"/>
<path d="M664,356.1c0,5.3,0,10.7,0,16c-2.7,0-5.3,0-8,0c0-5.3,0-10.7,0-16C658.7,356.1,661.4,356.1,664,356.1z"/>
<path d="M664,372.1c2.6,0,5.2,0,8,0c0,2.8,0,5.4,0,8c-2.7,0-5.3,0-8,0C664,377.4,664,374.7,664,372.1z"/>
<path d="M672,348.1c0,2.6,0,5.2,0,8c-2.8,0-5.4,0-8,0c0-2.7,0-5.3,0-8C666.7,348.1,669.4,348.1,672,348.1z"/>
<path id="XMLID_374_" d="M36,48.2c2.5,0,5,0,7.5,0c0.1,0.1,0.3,0.2,0.4,0.3c0.1,0.1,0.2,0.3,0.2,0.4c0,7.6,0,15.3,0,23.2
	c-2.8,0-5.4,0-8,0C36,64.2,36,56.2,36,48.2z"/>
<path id="XMLID_375_" d="M36,104.2c0-2.6,0-5.2,0-8c2.8,0,5.4,0,8,0c0,2.6,0,5.2,0,8C41.2,104.2,38.6,104.2,36,104.2z"/>
<path id="XMLID_377_" d="M736.1,332.1c-2.5,0-5,0-7.9,0c-0.3-2.5-0.1-5.1-0.2-8c2.8,0,5.4,0,8,0
	C736.1,326.7,736.1,329.4,736.1,332.1z"/>
</svg>
