<?xml version="1.0" standalone="no"?>
<!DOCTYPE svg PUBLIC "-//W3C//DTD SVG 1.1//EN" "http://www.w3.org/Graphics/SVG/1.1/DTD/svg11.dtd" >
<svg xmlns="http://www.w3.org/2000/svg" xmlns:xlink="http://www.w3.org/1999/xlink" version="1.1">
<metadata></metadata>
<defs>
<font id="ultimapixelmedium" horiz-adv-x="1408" >
<font-face units-per-em="2048" ascent="1536" descent="-512" />
<missing-glyph horiz-adv-x="640" />
<glyph horiz-adv-x="0" />
<glyph unicode="&#xd;" horiz-adv-x="682" />
<glyph unicode=" "  horiz-adv-x="640" />
<glyph unicode="&#x09;" horiz-adv-x="640" />
<glyph unicode="&#xa0;" horiz-adv-x="640" />
<glyph unicode="!" horiz-adv-x="896" d="M128 1408v128h128h128h128h128v-128h-128v-128v-128v-128v-128v-128v-128v-128v-128h-128h-128v128v128v128v128v128v128v128v128h-128zM256 0v128v128h128h128v-128v-128h-128h-128z" />
<glyph unicode="-" horiz-adv-x="896" d="M128 512v128h128h128h128h128v-128h-128h-128h-128h-128z" />
<glyph unicode="0" horiz-adv-x="1664" d="M-128 640v128h128v128h128v128v128h128v128h128v128h128v128h128h128v-128h128v-128h128v-128h128v-128v-128h128v-128h128v-128h-128h-128v-128v-128h-128v-128h-128v-128h-128v-128h-128h-128v128h-128v128h-128v128h-128v128v128h-128h-128zM384 512h128v-128v-128 h128h128v128v128h128v128h-128h-128h-128h-128v-128zM384 768h128h128h128h128v128v128h-128v128v128h-128h-128v-128v-128h-128v-128v-128z" />
<glyph unicode="1" horiz-adv-x="1152" d="M-128 1408v128h128h128h128h128h128h128h128h128v-128h-128h-128v-128v-128v-128v-128v-128v-128v-128v-128v-128v-128h128h128v-128h-128h-128h-128h-128h-128h-128v128h128h128v128v128v128v128v128v128v128v128v128v128h-128v-128h-128v-128v-128h-128v128v128v128 h-128z" />
<glyph unicode="2" horiz-adv-x="1280" d="M-128 1152v128h128v128h128v128h128h128h128h128v-128h128v-128h128v-128h128v-128v-128v-128v-128h-128v-128v-128h-128h-128v-128h-128v-128h128h128h128v128h128v-128v-128h-128h-128h-128h-128h-128h-128h-128h-128v128h128v128h128v128h128h128v128h128v128h128v128 v128v128v128h-128v128h-128v128h-128h-128v-128h-128v-128v-128h-128v128h-128z" />
<glyph unicode="3" d="M0 256v128h128v128h128v-128v-128h128v-128h128h128v128h128v128v128v128h-128v128h-128v-128h-128v128v128v128h128v-128h128v128h128v128v128h-128v128h-128h-128v-128h-128v-128v-128h-128v128h-128v128h128v128h128v128h128h128h128h128v-128h128v-128h128v-128v-128 h-128v-128h-128v-128h128v-128h128v-128h128v-128h-128v-128h-128v-128h-128v-128h-128h-128h-128h-128v128h-128v128h-128z" />
<glyph unicode="4" d="M0 384v128v128h128v128h128v128h128v128v128h128v128h128v128v128h128h128h128v-128h-128v-128v-128v-128v-128v-128v-128v-128h128v128h128v-128v-128v-128h-128v128h-128v-128v-128h128v-128h-128h-128h-128h-128v128h128v128v128h-128h-128h-128h-128h-128zM256 512 h128h128h128v128v128v128h-128v-128h-128v-128h-128v-128z" />
<glyph unicode="5" d="M0 256v128h128v128h128v-128v-128h128v-128h128h128v128h128v128v128v128h-128v128h-128h-128h-128h-128h-128v128v128v128v128v128v128h128h128h128h128h128h128h128v-128v-128h-128v-128h-128v128v128h-128h-128h-128v-128v-128v-128v-128h128h128h128h128v-128h128 v-128h128v-128h128v-128h-128v-128h-128v-128h-128v-128h-128h-128h-128h-128v128h-128v128h-128z" />
<glyph unicode="6" horiz-adv-x="1280" d="M-128 768v128h128v128v128v128h128v128h128v128h128h128h128h128h128v-128h128v-128h-128v-128h-128v128h-128v128h-128h-128v-128h-128v-128v-128v-128h128h128h128h128v-128h128v-128h128v-128v-128v-128h-128v-128h-128v-128h-128h-128h-128h-128v128h-128v128h-128 v128v128v128v128h-128zM256 256h128v-128h128h128v128h128v128v128v128h-128v128h-128h-128h-128v-128v-128v-128v-128z" />
<glyph unicode="7" horiz-adv-x="1280" d="M0 1408v128h128h128h128h128h128h128h128h128v-128v-128h-128v-128h-128v-128v-128h-128v-128h-128v-128v-128v-128v-128v-128v-128h-128h-128v128v128v128v128v128v128h128v128h128v128v128h128v128h128v128h-128h-128h-128v-128h-128v-128h-128v128v128h-128z" />
<glyph unicode="8" d="M0 256v128v128v128h128v128h128v128h-128v128h-128v128v128h128v128h128v128h128h128h128h128v-128h128v-128h128v-128v-128h-128v-128h-128v-128h128v-128h128v-128h128v-128h-128v-128h-128v-128h-128v-128h-128h-128h-128h-128v128h-128v128h-128zM256 256h128v-128 h128h128v128h128v128v128v128h-128v128h-128h-128v-128h-128v-128v-128v-128zM256 1024h128v-128h128h128v128h128v128v128h-128v128h-128h-128v-128h-128v-128v-128z" />
<glyph unicode="9" d="M0 256v128h128v128h128v-128v-128h128v-128h128h128v128h128v128v128v128v128h-128h-128h-128h-128v128h-128v128h-128v128v128h128v128h128v128h128h128h128h128v-128h128v-128h128v-128v-128v-128h128v-128h-128v-128v-128v-128v-128h-128v-128h-128v-128h-128h-128 h-128h-128v128h-128v128h-128zM256 1024h128v-128h128h128v128h128v128v128h-128v128h-128h-128v-128h-128v-128v-128z" />
<glyph unicode="?" horiz-adv-x="1280" d="M-128 1280v128h128h128h128v128h128h128h128h128v-128h128v-128h128v-128v-128h-128v-128h-128v-128h-128v-128v-128h128v-128h-128h-128h-128v128v128v128h128v128h128v128h128v128v128h-128v128h-128h-128v-128h-128v-128h-128v-128h-128v128v128h-128zM384 0v128v128 h128h128v-128v-128h-128h-128z" />
<glyph unicode="A" d="M0 0v128h128v128v128v128h-128v128v128v128h128v128v128h128v128h128v128h128v128h128h128h128v-128h128h128v-128h-128v-128v-128v-128v-128v-128v-128v-128v-128v-128v-128h-128h-128h-128v128h128v128v128v128v128h-128h-128h-128v-128v-128v-128v-128v-128h-128h-128 h-128zM384 768h128h128h128v128v128v128v128v128h-128v-128h-128v-128h-128v-128v-128v-128z" />
<glyph unicode="B" d="M0 256v128h128v128v128v128v128v128v128h-128v128h128v128h128v128h128h128h128h128v-128h128v-128h128v-128v-128h-128v-128h-128v-128h128v-128h128v-128h128v-128h-128v-128h-128v-128h-128v-128h-128h-128h-128h-128v128h-128v128h-128zM384 128h128h128v128h128v128 v128v128h-128v128h-128h-128v-128v-128v-128v-128v-128zM384 896h128h128v128h128v128v128h-128v128h-128h-128v-128v-128v-128v-128z" />
<glyph unicode="C" d="M0 640v128v128h128v128v128h128v128h128v128h128v128h128h128h128h128h128v-128h-128v-128v-128v-128v-128h-128v128v128h-128v128v128h-128v-128h-128v-128v-128h-128v-128v-128v-128v-128h128v-128v-128h128v-128h128v128h128v128v128h128v-128v-128v-128h-128v-128 h-128h-128h-128v128h-128v128h-128v128h-128v128v128h-128z" />
<glyph unicode="D" d="M-128 256v128h128v128v128v128v128v128v128h-128v128h128v128h128v128h128h128h128h128v-128h128v-128h128v-128h128v-128v-128h128v-128v-128h-128v-128v-128h-128v-128h-128v-128h-128v-128h-128h-128h-128h-128v128h-128v128h-128zM256 128h128h128v128h128v128h128 v128v128v128v128v128v128h-128v128h-128v128h-128h-128v-128v-128v-128v-128v-128v-128v-128v-128v-128v-128z" />
<glyph unicode="E" d="M0 640v128v128h128v128v128h128v128h128v128h128v128h128h128h128h128h128v-128h-128v-128v-128h-128v128h-128v128h-128v-128h-128v-128v-128h-128v-128h128h128h128v128h128v-128v-128v-128v-128h-128v128h-128v128h-128h-128v-128v-128h128v-128v-128h128v-128h128 v128h128v128h128v-128v-128h-128v-128h-128h-128h-128v128h-128v128h-128v128h-128v128v128h-128z" />
<glyph unicode="F" d="M0 0v128h128v128v128v128v128v128v128v128v128v128v128h-128v128h128h128h128h128h128h128h128h128h128v-128h-128v-128v-128h-128v128h-128v128h-128h-128h-128v-128v-128v-128v-128v-128h128h128v128h128v-128v-128v-128v-128h-128v128h-128v128h-128v-128v-128v-128 v-128h128h128v-128h-128h-128h-128h-128h-128z" />
<glyph unicode="G" d="M-128 640v128v128h128v128v128h128v128h128v128h128v128h128h128h128h128h128v-128h-128v-128v-128v-128h-128v128h-128v128v128h-128v-128h-128v-128v-128h-128v-128v-128v-128v-128h128v-128v-128h128v-128h128v128h128v128v128v128h-128h-128v128h128h128h128v-128 h128v-128h128v-128h-128v-128h-128v-128h-128v-128h-128h-128h-128v128h-128v128h-128v128h-128v128v128h-128z" />
<glyph unicode="H" horiz-adv-x="1280" d="M-128 0v128h128v128v128v128v128v128v128v128v128v128v128h-128v128h128h128h128h128h128h128h128h128h128v-128v-128h-128v128h-128h-128h-128h-128h-128v-128v-128v-128h128v128h128h128v-128h128v-128h128v-128h128v-128v-128h-128v-128v-128h-128v-128h128h128v-128 h-128h-128h-128v128v128v128v128v128v128h-128v128h-128h-128v-128v-128v-128v-128v-128v-128h128v-128h-128h-128h-128h-128z" />
<glyph unicode="I" horiz-adv-x="1152" d="M128 0v128h128h128v128v128v128v128v128v128v128v128v128v128h-128h-128v128h128h128h128h128h128h128v-128h-128h-128v-128v-128v-128v-128v-128v-128v-128v-128v-128v-128h128h128v-128h-128h-128h-128h-128h-128h-128z" />
<glyph unicode="J" d="M-128 384v128h128h128h128v-128v-128h128v-128h128h128v128h128v128v128v128v128v128v128v128v128v128h-128h-128h-128v-128h-128v-128v-128h-128v128v128v128h-128v128h128h128h128h128h128h128h128h128h128v-128h-128v-128v-128v-128v-128v-128v-128v-128v-128h128 v-128h-128h-128v-128h-128v-128h-128h-128h-128h-128v128h-128v128h-128v128h-128z" />
<glyph unicode="K" d="M-128 0v128h128v128v128v128v128v128v128v128v128v128v128h-128v128h128h128h128v-128v-128v-128v-128v-128h128h128v128h128v128h128v128v128h-128v128h128h128h128h128v-128h-128v-128v-128h-128v-128h-128v-128h-128v-128h128v-128h128v-128h128v-128v-128v-128h128 v-128h-128h-128h-128v128v128v128v128h-128v128h-128h-128h-128v-128v-128v-128v-128v-128h-128h-128h-128z" />
<glyph unicode="L" horiz-adv-x="1280" d="M0 0v128h128v128v128v128v128v128v128v128v128v128v128h-128v128h128h128h128h128h128h128h128v-128h-128h-128h-128h-128v-128v-128v-128v-128v-128v-128v-128v-128v-128v-128h128h128v128h128v128h128v128v128v128v128h128v-128v-128v-128v-128v-128v-128v-128h-128 h-128h-128h-128h-128h-128h-128h-128z" />
<glyph unicode="M" horiz-adv-x="1792" d="M-256 640v128v128h128v128v128h128v128h128v128h128v128h128h128h128h128h128h128v-128h128v-128h128v-128h128v-128v-128h128v-128v-128h-128v-128v-128h-128v-128h-128v-128h128h128v-128h-128h-128h-128v128v128v128v128h128v128v128v128v128h-128v128v128h-128v128 h-128v-128v-128v-128v-128v-128v-128v-128v-128v-128v-128v-128h-128h-128v128v128v128v128v128v128v128v128v128v128v128h-128v-128h-128v-128v-128h-128v-128v-128v-128v-128h128v-128v-128v-128v-128h-128h-128h-128v128h128h128v128h-128v128h-128v128v128h-128z" />
<glyph unicode="N" horiz-adv-x="1536" d="M0 0v128h128v128v128v128v128v128v128v128v128h-128v128h128v128h128v128h128h128h128h128v-128h128v-128h128v-128h128v-128v-128h128v-128v-128h-128v-128v-128h-128v-128h-128v-128h128h128v-128h-128h-128h-128v128v128v128v128h128v128v128v128v128h-128v128v128 h-128v128h-128h-128v-128v-128v-128v-128v-128v-128v-128v-128v-128v-128h128v-128h-128h-128h-128h-128z" />
<glyph unicode="O" horiz-adv-x="1536" d="M0 640v128v128h128v128v128h128v128h128v128h128v128h128h128v-128h128v-128h128v-128h128v-128v-128h128v-128v-128h-128v-128v-128h-128v-128h-128v-128h-128v-128h-128h-128v128h-128v128h-128v128h-128v128v128h-128zM384 512h128v-128v-128h128h128v128v128h128v128 v128v128v128h-128v128v128h-128h-128v-128v-128h-128v-128v-128v-128v-128z" />
<glyph unicode="P" horiz-adv-x="1536" d="M128 0v128h128v128v128v128v128v128v128v128v128h-128v128h128v128h128v128h128h128h128h128v-128h128v-128h128v-128h128v-128v-128h-128v-128h-128v-128h-128v-128h-128h-128v128h128v128h128v128v128v128v128h-128v128h-128h-128v-128v-128v-128v-128v-128v-128v-128 v-128v-128v-128h128h128h128v-128h-128h-128h-128h-128h-128h-128z" />
<glyph unicode="Q" horiz-adv-x="1536" d="M0 640v128v128h128v128v128h128v128h128v128h128v128h128h128v-128h128v-128h128v-128h128v-128v-128h128v-128v-128h-128v-128h-128h-128v128v128v128v128h-128v128v128h-128h-128v-128v-128h-128v-128v-128v-128v-128h128v-128v-128h128h128v128h-128v128h128h128v-128 h128v-128h128v-128h128v-128h-128h-128h-128v128v128h-128v-128v-128h-128h-128v128h-128v128h-128v128h-128v128v128h-128z" />
<glyph unicode="R" horiz-adv-x="1536" d="M0 0v128h128v128v128v128v128v128v128v128v128h-128v128h128v128h128v128h128h128h128h128v-128h128v-128h128v-128h128v-128v-128h-128v-128h-128v-128v-128h128v-128h128v-128v-128h128v-128h-128h-128h-128v128v128v128h-128v128v128h-128h-128v128h128h128v128v128 v128h-128v128v128h-128h-128v-128v-128v-128v-128v-128v-128v-128v-128v-128v-128h128v-128h-128h-128h-128h-128z" />
<glyph unicode="S" d="M128 0v128v128v128h128v-128h128v-128h128v128h128v128v128h-128v128h-128v128h-128v128h-128v128v128h128v128h128v128h128v128h128h128h128h128h128v-128h-128v-128v-128h-128v128h-128v128h-128v-128h-128v-128h128v-128v-128h128v-128h128v-128h128v-128h128v-128 v-128h-128h-128v-128h-128v-128h-128h-128h-128h-128h-128z" />
<glyph unicode="T" horiz-adv-x="1664" d="M-128 1408v128h128h128h128h128h128h128h128h128h128h128h128h128v-128h-128v-128v-128v-128h-128v128v128h-128v128h-128h-128v-128v-128v-128v-128v-128v-128v-128v-128v-128v-128h128v-128h-128h-128h-128h-128v128h128v128v128v128v128v128v128v128v128v128v128h-128 h-128v-128h-128v-128v-128h-128v128v128v128h-128z" />
<glyph unicode="U" horiz-adv-x="1536" d="M0 640v128v128h128v128v128h128v128h128v128h-128h-128v128h128h128h128v-128v-128v-128v-128h-128v-128v-128v-128v-128h128v-128v-128v-128h128h128v128h128v128v128v128v128v128v128v128v128v128v128h128h128h128v-128h-128v-128v-128v-128v-128v-128v-128v-128v-128 h128v-128h-128h-128v-128h-128v-128h-128h-128h-128h-128v128h-128v128v128h-128v128v128h-128z" />
<glyph unicode="V" horiz-adv-x="1536" d="M0 640v128v128h128v128v128h128v128h128v128h-128h-128v128h128h128h128v-128v-128v-128v-128h-128v-128v-128v-128v-128h128v-128v-128h128h128v128v128h128v128v128v128v128v128v128v128v128h128h128h128v-128h-128v-128v-128v-128v-128v-128v-128v-128h-128v-128v-128 h-128v-128h-128v-128h-128h-128v128h-128v128h-128v128v128h-128v128h-128z" />
<glyph unicode="W" horiz-adv-x="1792" d="M-256 640v128v128h128v128v128h128v128h128v128h-128h-128v128h128h128h128v-128v-128v-128v-128h-128v-128v-128v-128v-128h128v-128v-128h128v-128h128v128v128v128v128v128v128v128v128v128v128v128h128h128v-128v-128v-128v-128v-128v-128v-128v-128v-128v-128v-128 h128v128h128v128v128h128v128v128v128v128h-128v128v128v128v128h128h128h128v-128h-128h-128v-128h128v-128h128v-128v-128h128v-128v-128h-128v-128v-128h-128v-128h-128v-128h-128v-128h-128h-128h-128h-128h-128h-128v128h-128v128h-128v128h-128v128v128h-128z" />
<glyph unicode="X" horiz-adv-x="1536" d="M0 0v128h128v128v128v128h128v128h128v128h128v128h-128v128h-128v128h-128v128v128h-128v128h128h128h128h128v-128h-128v-128v-128h128v-128h128h128v128h128v128h-128v128v128h128h128h128h128v-128h-128v-128v-128h-128v-128h-128v-128h-128v-128h128v-128h128v-128 h128v-128v-128v-128h128v-128h-128h-128h-128h-128v128h128v128v128v128h-128v128h-128h-128v-128h-128v-128v-128v-128h128v-128h-128h-128h-128h-128z" />
<glyph unicode="Y" horiz-adv-x="1536" d="M0 768v128v128h128v128h128v128h128v128h-128v128h128h128v-128v-128v-128v-128h-128v-128v-128h128v-128v-128h128h128h128v128v128v128v128v128v128v128h-128v128h128h128h128h128v-128h-128v-128v-128v-128v-128v-128v-128v-128v-128v-128h-128v-128h-128v-128h-128 h-128h-128h-128h-128h-128v128v128v128h128v-128h128v-128h128h128h128v128h128v128h-128h-128h-128h-128v128h-128v128h-128v128h-128z" />
<glyph unicode="Z" horiz-adv-x="1536" d="M0 128v128h128v128h128v128h128v128h-128v128h128h128v128h128v128h128v128h128v128v128h-128h-128h-128h-128v-128h-128v-128v-128h-128v128v128v128v128h128h128h128h128h128h128h128h128v-128h128v-128h-128v-128h-128v-128h-128v-128h128v-128h-128h-128v-128h-128 v-128h-128v-128h-128v-128v-128h128h128h128h128v128h128v128h128v-128v-128v-128h-128h-128h-128h-128h-128h-128h-128h-128v128h-128z" />
<glyph unicode="a" d="M0 0v128h128v128v128v128h-128v128v128v128h128v128v128h128v128h128v128h128v128h128h128h128v-128h128h128v-128h-128v-128v-128v-128v-128v-128v-128v-128v-128v-128v-128h-128h-128h-128v128h128v128v128v128v128h-128h-128h-128v-128v-128v-128v-128v-128h-128h-128 h-128zM384 768h128h128h128v128v128v128v128v128h-128v-128h-128v-128h-128v-128v-128v-128z" />
<glyph unicode="b" d="M0 256v128h128v128v128v128v128v128v128h-128v128h128v128h128v128h128h128h128h128v-128h128v-128h128v-128v-128h-128v-128h-128v-128h128v-128h128v-128h128v-128h-128v-128h-128v-128h-128v-128h-128h-128h-128h-128v128h-128v128h-128zM384 128h128h128v128h128v128 v128v128h-128v128h-128h-128v-128v-128v-128v-128v-128zM384 896h128h128v128h128v128v128h-128v128h-128h-128v-128v-128v-128v-128z" />
<glyph unicode="c" d="M0 640v128v128h128v128v128h128v128h128v128h128v128h128h128h128h128h128v-128h-128v-128v-128v-128v-128h-128v128v128h-128v128v128h-128v-128h-128v-128v-128h-128v-128v-128v-128v-128h128v-128v-128h128v-128h128v128h128v128v128h128v-128v-128v-128h-128v-128 h-128h-128h-128v128h-128v128h-128v128h-128v128v128h-128z" />
<glyph unicode="d" d="M-128 256v128h128v128v128v128v128v128v128h-128v128h128v128h128v128h128h128h128h128v-128h128v-128h128v-128h128v-128v-128h128v-128v-128h-128v-128v-128h-128v-128h-128v-128h-128v-128h-128h-128h-128h-128v128h-128v128h-128zM256 128h128h128v128h128v128h128 v128v128v128v128v128v128h-128v128h-128v128h-128h-128v-128v-128v-128v-128v-128v-128v-128v-128v-128v-128z" />
<glyph unicode="e" d="M0 640v128v128h128v128v128h128v128h128v128h128v128h128h128h128h128h128v-128h-128v-128v-128h-128v128h-128v128h-128v-128h-128v-128v-128h-128v-128h128h128h128v128h128v-128v-128v-128v-128h-128v128h-128v128h-128h-128v-128v-128h128v-128v-128h128v-128h128 v128h128v128h128v-128v-128h-128v-128h-128h-128h-128v128h-128v128h-128v128h-128v128v128h-128z" />
<glyph unicode="f" d="M0 0v128h128v128v128v128v128v128v128v128v128v128v128h-128v128h128h128h128h128h128h128h128h128h128v-128h-128v-128v-128h-128v128h-128v128h-128h-128h-128v-128v-128v-128v-128v-128h128h128v128h128v-128v-128v-128v-128h-128v128h-128v128h-128v-128v-128v-128 v-128h128h128v-128h-128h-128h-128h-128h-128z" />
<glyph unicode="g" d="M-128 640v128v128h128v128v128h128v128h128v128h128v128h128h128h128h128h128v-128h-128v-128v-128v-128h-128v128h-128v128v128h-128v-128h-128v-128v-128h-128v-128v-128v-128v-128h128v-128v-128h128v-128h128v128h128v128v128v128h-128h-128v128h128h128h128v-128 h128v-128h128v-128h-128v-128h-128v-128h-128v-128h-128h-128h-128v128h-128v128h-128v128h-128v128v128h-128z" />
<glyph unicode="h" horiz-adv-x="1280" d="M-128 0v128h128v128v128v128v128v128v128v128v128v128v128h-128v128h128h128h128h128h128h128h128h128h128v-128v-128h-128v128h-128h-128h-128h-128h-128v-128v-128v-128h128v128h128h128v-128h128v-128h128v-128h128v-128v-128h-128v-128v-128h-128v-128h128h128v-128 h-128h-128h-128v128v128v128v128v128v128h-128v128h-128h-128v-128v-128v-128v-128v-128v-128h128v-128h-128h-128h-128h-128z" />
<glyph unicode="i" horiz-adv-x="1152" d="M128 0v128h128h128v128v128v128v128v128v128v128v128v128v128h-128h-128v128h128h128h128h128h128h128v-128h-128h-128v-128v-128v-128v-128v-128v-128v-128v-128v-128v-128h128h128v-128h-128h-128h-128h-128h-128h-128z" />
<glyph unicode="j" d="M-128 384v128h128h128h128v-128v-128h128v-128h128h128v128h128v128v128v128v128v128v128v128v128v128h-128h-128h-128v-128h-128v-128v-128h-128v128v128v128h-128v128h128h128h128h128h128h128h128h128h128v-128h-128v-128v-128v-128v-128v-128v-128v-128v-128h128 v-128h-128h-128v-128h-128v-128h-128h-128h-128h-128v128h-128v128h-128v128h-128z" />
<glyph unicode="k" d="M-128 0v128h128v128v128v128v128v128v128v128v128v128v128h-128v128h128h128h128v-128v-128v-128v-128v-128h128h128v128h128v128h128v128v128h-128v128h128h128h128h128v-128h-128v-128v-128h-128v-128h-128v-128h-128v-128h128v-128h128v-128h128v-128v-128v-128h128 v-128h-128h-128h-128v128v128v128v128h-128v128h-128h-128h-128v-128v-128v-128v-128v-128h-128h-128h-128z" />
<glyph unicode="l" horiz-adv-x="1280" d="M0 0v128h128v128v128v128v128v128v128v128v128v128v128h-128v128h128h128h128h128h128h128h128v-128h-128h-128h-128h-128v-128v-128v-128v-128v-128v-128v-128v-128v-128v-128h128h128v128h128v128h128v128v128v128v128h128v-128v-128v-128v-128v-128v-128v-128h-128 h-128h-128h-128h-128h-128h-128h-128z" />
<glyph unicode="m" horiz-adv-x="1792" d="M-256 640v128v128h128v128v128h128v128h128v128h128v128h128h128h128h128h128h128v-128h128v-128h128v-128h128v-128v-128h128v-128v-128h-128v-128v-128h-128v-128h-128v-128h128h128v-128h-128h-128h-128v128v128v128v128h128v128v128v128v128h-128v128v128h-128v128 h-128v-128v-128v-128v-128v-128v-128v-128v-128v-128v-128v-128h-128h-128v128v128v128v128v128v128v128v128v128v128v128h-128v-128h-128v-128v-128h-128v-128v-128v-128v-128h128v-128v-128v-128v-128h-128h-128h-128v128h128h128v128h-128v128h-128v128v128h-128z" />
<glyph unicode="n" horiz-adv-x="1536" d="M0 0v128h128v128v128v128v128v128v128v128v128h-128v128h128v128h128v128h128h128h128h128v-128h128v-128h128v-128h128v-128v-128h128v-128v-128h-128v-128v-128h-128v-128h-128v-128h128h128v-128h-128h-128h-128v128v128v128v128h128v128v128v128v128h-128v128v128 h-128v128h-128h-128v-128v-128v-128v-128v-128v-128v-128v-128v-128v-128h128v-128h-128h-128h-128h-128z" />
<glyph unicode="o" horiz-adv-x="1536" d="M0 640v128v128h128v128v128h128v128h128v128h128v128h128h128v-128h128v-128h128v-128h128v-128v-128h128v-128v-128h-128v-128v-128h-128v-128h-128v-128h-128v-128h-128h-128v128h-128v128h-128v128h-128v128v128h-128zM384 512h128v-128v-128h128h128v128v128h128v128 v128v128v128h-128v128v128h-128h-128v-128v-128h-128v-128v-128v-128v-128z" />
<glyph unicode="p" horiz-adv-x="1536" d="M128 0v128h128v128v128v128v128v128v128v128v128h-128v128h128v128h128v128h128h128h128h128v-128h128v-128h128v-128h128v-128v-128h-128v-128h-128v-128h-128v-128h-128h-128v128h128v128h128v128v128v128v128h-128v128h-128h-128v-128v-128v-128v-128v-128v-128v-128 v-128v-128v-128h128h128h128v-128h-128h-128h-128h-128h-128h-128z" />
<glyph unicode="q" horiz-adv-x="1536" d="M0 640v128v128h128v128v128h128v128h128v128h128v128h128h128v-128h128v-128h128v-128h128v-128v-128h128v-128v-128h-128v-128h-128h-128v128v128v128v128h-128v128v128h-128h-128v-128v-128h-128v-128v-128v-128v-128h128v-128v-128h128h128v128h-128v128h128h128v-128 h128v-128h128v-128h128v-128h-128h-128h-128v128v128h-128v-128v-128h-128h-128v128h-128v128h-128v128h-128v128v128h-128z" />
<glyph unicode="r" horiz-adv-x="1536" d="M0 0v128h128v128v128v128v128v128v128v128v128h-128v128h128v128h128v128h128h128h128h128v-128h128v-128h128v-128h128v-128v-128h-128v-128h-128v-128v-128h128v-128h128v-128v-128h128v-128h-128h-128h-128v128v128v128h-128v128v128h-128h-128v128h128h128v128v128 v128h-128v128v128h-128h-128v-128v-128v-128v-128v-128v-128v-128v-128v-128v-128h128v-128h-128h-128h-128h-128z" />
<glyph unicode="s" d="M128 0v128v128v128h128v-128h128v-128h128v128h128v128v128h-128v128h-128v128h-128v128h-128v128v128h128v128h128v128h128v128h128h128h128h128h128v-128h-128v-128v-128h-128v128h-128v128h-128v-128h-128v-128h128v-128v-128h128v-128h128v-128h128v-128h128v-128 v-128h-128h-128v-128h-128v-128h-128h-128h-128h-128h-128z" />
<glyph unicode="t" horiz-adv-x="1664" d="M-128 1408v128h128h128h128h128h128h128h128h128h128h128h128h128v-128h-128v-128h-128v-128v-128h-128v128v128v128h-128h-128v-128v-128v-128v-128v-128v-128v-128v-128v-128v-128h128v-128h-128h-128h-128h-128v128h128v128v128v128v128v128v128v128v128v128v128h-128 h-128v-128v-128v-128h-128v128v128h-128v128h-128z" />
<glyph unicode="u" horiz-adv-x="1536" d="M0 640v128v128h128v128v128h128v128h128v128h-128h-128v128h128h128h128v-128v-128v-128v-128h-128v-128v-128v-128v-128h128v-128v-128v-128h128h128v128h128v128v128v128v128v128v128v128v128v128v128h128h128h128v-128h-128v-128v-128v-128v-128v-128v-128v-128v-128 h128v-128h-128h-128v-128h-128v-128h-128h-128h-128h-128v128h-128v128v128h-128v128v128h-128z" />
<glyph unicode="v" horiz-adv-x="1536" d="M0 640v128v128h128v128v128h128v128h128v128h-128h-128v128h128h128h128v-128v-128v-128v-128h-128v-128v-128v-128v-128h128v-128v-128h128h128v128v128h128v128v128v128v128v128v128v128v128h128h128h128v-128h-128v-128v-128v-128v-128v-128v-128v-128h-128v-128v-128 h-128v-128h-128v-128h-128h-128v128h-128v128h-128v128v128h-128v128h-128z" />
<glyph unicode="w" horiz-adv-x="1792" d="M-256 640v128v128h128v128v128h128v128h128v128h-128h-128v128h128h128h128v-128v-128v-128v-128h-128v-128v-128v-128v-128h128v-128v-128h128v-128h128v128v128v128v128v128v128v128v128v128v128v128h128h128v-128v-128v-128v-128v-128v-128v-128v-128v-128v-128v-128 h128v128h128v128v128h128v128v128v128v128h-128v128v128v128v128h128h128h128v-128h-128h-128v-128h128v-128h128v-128v-128h128v-128v-128h-128v-128v-128h-128v-128h-128v-128h-128v-128h-128h-128h-128h-128h-128h-128v128h-128v128h-128v128h-128v128v128h-128z" />
<glyph unicode="x" horiz-adv-x="1536" d="M0 0v128h128v128v128v128h128v128h128v128h128v128h-128v128h-128v128h-128v128v128h-128v128h128h128h128h128v-128h-128v-128v-128h128v-128h128h128v128h128v128h-128v128v128h128h128h128h128v-128h-128v-128v-128h-128v-128h-128v-128h-128v-128h128v-128h128v-128 h128v-128v-128v-128h128v-128h-128h-128h-128h-128v128h128v128v128v128h-128v128h-128h-128v-128h-128v-128v-128v-128h128v-128h-128h-128h-128h-128z" />
<glyph unicode="y" horiz-adv-x="1536" d="M0 768v128v128h128v128h128v128h128v128h-128v128h128h128v-128v-128v-128v-128h-128v-128v-128h128v-128v-128h128h128h128v128v128v128v128v128v128v128h-128v128h128h128h128h128v-128h-128v-128v-128v-128v-128v-128v-128v-128v-128v-128h-128v-128h-128v-128h-128 h-128h-128h-128h-128h-128v128v128v128h128v-128h128v-128h128h128h128v128h128v128h-128h-128h-128h-128v128h-128v128h-128v128h-128z" />
<glyph unicode="z" horiz-adv-x="1536" d="M0 128v128h128v128h128v128h128v128h-128v128h128h128v128h128v128h128v128h128v128v128h-128h-128h-128h-128v-128h-128v-128v-128h-128v128v128v128v128h128h128h128h128h128h128h128h128v-128h128v-128h-128v-128h-128v-128h-128v-128h128v-128h-128h-128v-128h-128 v-128h-128v-128h-128v-128v-128h128h128h128h128v128h128v128h128v-128v-128v-128h-128h-128h-128h-128h-128h-128h-128h-128v128h-128z" />
<glyph unicode="&#xad;" horiz-adv-x="896" d="M128 512v128h128h128h128h128v-128h-128h-128h-128h-128z" />
<glyph unicode="&#x2000;" horiz-adv-x="770" />
<glyph unicode="&#x2001;" horiz-adv-x="1540" />
<glyph unicode="&#x2002;" horiz-adv-x="770" />
<glyph unicode="&#x2003;" horiz-adv-x="1540" />
<glyph unicode="&#x2004;" horiz-adv-x="513" />
<glyph unicode="&#x2005;" horiz-adv-x="385" />
<glyph unicode="&#x2006;" horiz-adv-x="256" />
<glyph unicode="&#x2007;" horiz-adv-x="256" />
<glyph unicode="&#x2008;" horiz-adv-x="192" />
<glyph unicode="&#x2009;" horiz-adv-x="308" />
<glyph unicode="&#x200a;" horiz-adv-x="85" />
<glyph unicode="&#x2010;" horiz-adv-x="896" d="M128 512v128h128h128h128h128v-128h-128h-128h-128h-128z" />
<glyph unicode="&#x2011;" horiz-adv-x="896" d="M128 512v128h128h128h128h128v-128h-128h-128h-128h-128z" />
<glyph unicode="&#x2012;" horiz-adv-x="896" d="M128 512v128h128h128h128h128v-128h-128h-128h-128h-128z" />
<glyph unicode="&#x2013;" d="M128 512v128h256h256h256h256v-128h-256h-256h-256h-256z" />
<glyph unicode="&#x2014;" horiz-adv-x="2432" d="M128 512v128h512h512h512h512v-128h-512h-512h-512h-512z" />
<glyph unicode="&#x202f;" horiz-adv-x="308" />
<glyph unicode="&#x205f;" horiz-adv-x="385" />
<glyph unicode="&#x25fc;" horiz-adv-x="1540" d="M0 0v1540h1540v-1540h-1540z" />
</font>
</defs>
</svg>
