<?xml version="1.0" encoding="utf-8"?>
<!-- Generator: Adobe Illustrator 19.0.0, SVG Export Plug-In . SVG Version: 6.00 Build 0)  -->
<svg version="1.1" id="Layer_1" xmlns="http://www.w3.org/2000/svg" xmlns:xlink="http://www.w3.org/1999/xlink" x="0px" y="0px"
	 viewBox="-352 287.3 136.5 21" style="enable-background:new -352 287.3 136.5 21;" xml:space="preserve">
<style type="text/css">
	.st0{fill:#FEFEFE;}
	.st1{fill:#FE5555;}
	.st2{fill:#FFFFFF;}
</style>
<g id="Layer_2">
	<g id="Layer_255">
	</g>
	<g id="Layer_254">
	</g>
	<g id="Layer_253">
	</g>
	<g id="Layer_252">
	</g>
	<g id="Layer_251">
	</g>
	<g id="Layer_250">
	</g>
	<g id="Layer_249">
	</g>
	<g id="Layer_248">
	</g>
	<g id="Layer_247">
		<path d="M-350.5,287.3c6.5,0,13,0,19.5,0c0,0.5,0,1,0,1.5c-0.5,0-1,0-1.5,0c-6,0-12,0-18,0C-350.5,288.3-350.5,287.8-350.5,287.3z
			"/>
	</g>
	<g id="Layer_246">
		<path d="M-257.5,288.8c0-0.5,0-1,0-1.5c6.5,0,13,0,19.5,0c0,0.5,0,1,0,1.5c-0.5,0-1,0-1.5,0C-245.5,288.8-251.5,288.8-257.5,288.8
			z"/>
	</g>
	<g id="Layer_245">
		<path d="M-221.5,306.8c0,0.5,0,1,0,1.5c-3.5,0-7,0-10.5,0c0-0.5,0-1,0-1.5c0.5,0,1,0,1.5,0c2.5,0,5,0,7.5,0
			C-222.5,306.8-222,306.8-221.5,306.8z"/>
	</g>
	<g id="Layer_244">
		<path d="M-317.5,287.3c0,0.5,0,1,0,1.5c-1,0-2,0-3,0c-2,0-4,0-6,0c0-0.5,0-1,0-1.5C-323.5,287.3-320.5,287.3-317.5,287.3z"/>
	</g>
	<g id="Layer_243">
		<path d="M-299.5,287.3c0,0.5,0,1,0,1.5c-0.5,0-1,0-1.5,0c-1,0-2,0-3,0s-2,0-3,0c0-0.5,0-1,0-1.5
			C-304.5,287.3-302,287.3-299.5,287.3z"/>
	</g>
	<g id="Layer_242">
		<path d="M-290.5,288.8c0-0.5,0-1,0-1.5c2.5,0,5,0,7.5,0c0,0.5,0,1,0,1.5c-0.5,0-1,0-1.5,0c-1.5,0-3,0-4.5,0
			C-289.5,288.8-290,288.8-290.5,288.8z"/>
	</g>
	<g id="Layer_241">
		<path d="M-337,306.8c0,0.5,0,1,0,1.5c-2.5,0-5,0-7.5,0c0-0.5,0-1,0-1.5c1,0,2,0,3,0s2,0,3,0C-338,306.8-337.5,306.8-337,306.8z"/>
	</g>
	<g id="Layer_240">
		<path d="M-329.5,308.3c0-0.5,0-1,0-1.5c1,0,2,0,3,0s2,0,3,0c0.5,0,1,0,1.5,0c0,0.5,0,1,0,1.5C-324.5,308.3-327,308.3-329.5,308.3z
			"/>
	</g>
	<g id="Layer_239">
		<path d="M-262,287.3c0,0.5,0,1,0,1.5c-0.5,0-1,0-1.5,0c-1,0-2,0-3,0s-2,0-3,0c0-0.5,0-1,0-1.5C-267,287.3-264.5,287.3-262,287.3z"
			/>
	</g>
	<g id="Layer_238">
		<path d="M-299.5,306.8c0,0.5,0,1,0,1.5c-2.5,0-5,0-7.5,0c0-0.5,0-1,0-1.5c1,0,2,0,3,0s2,0,3,0C-300.5,306.8-300,306.8-299.5,306.8
			z"/>
	</g>
	<g id="Layer_237">
		<path d="M-293.5,308.3c0-0.5,0-1,0-1.5c1,0,2,0,3,0s2,0,3,0c0.5,0,1,0,1.5,0c0,0.5,0,1,0,1.5C-288.5,308.3-291,308.3-293.5,308.3z
			"/>
	</g>
	<g id="Layer_236">
		<path d="M-224.5,287.3c2.5,0,5,0,7.5,0c0,0.5,0,1,0,1.5c-0.5,0-1,0-1.5,0c-2,0-4,0-6,0C-224.5,288.3-224.5,287.8-224.5,287.3z"/>
	</g>
	<g id="Layer_235">
		<path d="M-262,306.8c0,0.5,0,1,0,1.5c-2.5,0-5,0-7.5,0c0-0.5,0-1,0-1.5c1,0,2,0,3,0s2,0,3,0C-263,306.8-262.5,306.8-262,306.8z"/>
	</g>
	<g id="Layer_234">
		<path d="M-251.5,308.3c0-0.5,0-1,0-1.5c1,0,2,0,3,0s2,0,3,0c0.5,0,1,0,1.5,0c0,0.5,0,1,0,1.5C-246.5,308.3-249,308.3-251.5,308.3z
			"/>
	</g>
	<g id="Layer_233">
	</g>
	<g id="Layer_232">
		<path d="M-313,306.8c0,0.5,0,1,0,1.5c-2,0-4,0-6,0c0-0.5,0-1,0-1.5c0.5,0,1,0,1.5,0c1,0,2,0,3,0C-314,306.8-313.5,306.8-313,306.8
			z"/>
	</g>
	<g id="Layer_231">
		<path d="M-278.5,306.8c0,0.5,0,1,0,1.5c-1.5,0-3,0-4.5,0c0-0.5,0-1,0-1.5c1,0,2,0,3,0C-279.5,306.8-279,306.8-278.5,306.8z"/>
	</g>
	<g id="Layer_230">
		<path d="M-230.5,288.8c0-0.5,0-1,0-1.5c1.5,0,3,0,4.5,0c0,0.5,0,1,0,1.5c-0.5,0-1,0-1.5,0C-228.5,288.8-229.5,288.8-230.5,288.8z"
			/>
	</g>
	<g id="Layer_229">
	</g>
	<g id="Layer_228">
	</g>
	<g id="Layer_227">
	</g>
	<g id="Layer_226">
		<path d="M-352,288.8c0.5,0,1,0,1.5,0c0,0.5,0,1,0,1.5c-0.5,0-1,0-1.5,0C-352,289.8-352,289.3-352,288.8z"/>
	</g>
	<g id="Layer_225">
	</g>
	<g id="Layer_224">
	</g>
	<g id="Layer_223">
		<path d="M-217,288.8c0.5,0,1,0,1.5,0c0,0.5,0,1,0,1.5c-0.5,0-1,0-1.5,0C-217,289.8-217,289.3-217,288.8z"/>
	</g>
	<g id="Layer_222">
		<path d="M-232,302.3c0-1,0-2,0-3c0.5,0,1,0,1.5,0c0,0.3,0,0.5,0,0.8c0,0.2,0,0.5,0,0.7c0.5,0,1,0,1.5,0c0,0.5,0,1,0,1.5
			c1.5,0,3,0,4.5,0c0.5,0,1,0,1.5,0c0,0.5,0,1,0,1.5c-0.5,0-1,0-1.5,0c0,0.5,0,1,0,1.5c-0.5,0-1,0-1.5,0c0-0.5,0-1,0-1.5
			c-1,0-2,0-3,0c-0.5,0-1,0-1.5,0c0-0.5,0-1,0-1.5C-231,302.3-231.5,302.3-232,302.3z"/>
	</g>
	<g id="Layer_221">
		<path d="M-232,306.8c-0.5,0-0.9,0-1.4,0c0,0,0,0-0.1-0.1c0,0,0,0,0-0.1c0-1.4,0-2.9,0-4.4c0.5,0,1,0,1.5,0c0,0.5,0,1,0,1.5
			C-232,304.8-232,305.8-232,306.8z"/>
	</g>
	<g id="Layer_220">
		<path d="M-238,290.3c0,0.5,0,1,0,1.5c-0.5,0-1,0-1.5,0c0,0.5,0,1,0,1.5c-0.5,0-1,0-1.5,0c0-0.5,0-1,0-1.5s0-1,0-1.5
			c0.5,0,1,0,1.5,0S-238.5,290.3-238,290.3z"/>
	</g>
	<g id="Layer_219">
		<path d="M-233.5,297.8c-0.5,0-0.9,0-1.5,0c-0.1-1,0-2,0-3c0.5,0,1,0,1.5,0C-233.5,295.8-233.5,296.8-233.5,297.8z"/>
	</g>
	<g id="Layer_218">
		<path d="M-244,303.8c0.5,0,0.9,0,1.5,0c0.1,1,0,2,0,3c-0.5,0-1,0-1.5,0C-244,305.8-244,304.8-244,303.8z"/>
	</g>
	<g id="Layer_217">
		<path d="M-245.5,299.3c0.5,0,0.9,0,1.5,0c0,0.2,0,0.5,0,0.7s0,0.5,0,0.8c-0.5,0-1,0-1.5,0C-245.5,300.3-245.5,299.8-245.5,299.3z"
			/>
	</g>
	<g id="Layer_216">
		<path d="M-245.5,302.3c0.5,0,1,0,1.5,0c0,0.5,0,1,0,1.5c-0.5,0-1,0-1.5,0C-245.5,303.3-245.5,302.8-245.5,302.3z"/>
	</g>
	<g id="Layer_215">
		<path d="M-245.5,300.8c0,0.5,0,1,0,1.5c-0.5,0-1,0-1.5,0c0-0.5,0-1,0-1.5C-246.5,300.8-246,300.8-245.5,300.8z"/>
	</g>
	<g id="Layer_214">
		<path d="M-230.5,291.8c0-0.5,0-1,0-1.5c0.5,0,1,0,1.5,0c0,0.3,0,0.5,0,0.8c0,0.2,0,0.5,0,0.7C-229.6,291.8-230,291.8-230.5,291.8z
			"/>
	</g>
	<g id="Layer_213">
		<path d="M-232,293.3c0-0.5,0-1,0-1.5c0.5,0,1,0,1.5,0c0,0.5,0,1,0,1.5C-231,293.3-231.5,293.3-232,293.3z"/>
	</g>
	<g id="Layer_212">
		<path d="M-238,288.8c0.5,0,0.9,0,1.5,0c0,0.2,0,0.5,0,0.7s0,0.5,0,0.8c-0.5,0-1,0-1.5,0C-238,289.8-238,289.3-238,288.8z"/>
	</g>
	<g id="Layer_211">
		<path d="M-230.5,290.3c-0.5,0-0.9,0-1.5,0c0-0.2,0-0.5,0-0.7s0-0.5,0-0.8c0.5,0,1,0,1.5,0C-230.5,289.3-230.5,289.8-230.5,290.3z"
			/>
	</g>
	<g id="Layer_210">
		<path d="M-244,296.3c0,0.5,0,1,0,1.5c-0.5,0-1,0-1.5,0c0-0.5,0-1,0-1.5C-245,296.3-244.5,296.3-244,296.3z"/>
	</g>
	<g id="Layer_209">
		<path d="M-245.5,297.8c0,0.5,0,1,0,1.5c-0.5,0-1,0-1.5,0c0-0.5,0-1,0-1.5C-246.5,297.8-246,297.8-245.5,297.8z"/>
	</g>
	<g id="Layer_208">
		<path d="M-232,299.3c-0.5,0-1,0-1.5,0c0-0.5,0-1,0-1.5c0.5,0,1,0,1.5,0C-232,298.3-232,298.8-232,299.3z"/>
	</g>
	<g id="Layer_207">
		<path d="M-241,293.3c0,0.5,0,1,0,1.5c-0.5,0-1,0-1.5,0c0-0.5,0-1,0-1.5C-242,293.3-241.5,293.3-241,293.3z"/>
	</g>
	<g id="Layer_206">
		<path d="M-233.5,294.8c0-0.5,0-1,0-1.5c0.5,0,1,0,1.5,0c0,0.5,0,1,0,1.5C-232.5,294.8-233,294.8-233.5,294.8z"/>
	</g>
	<g id="Layer_205">
		<path d="M-242.5,294.8c0,0.5,0,1,0,1.5c-0.5,0-1,0-1.5,0c0-0.5,0-1,0-1.5C-243.5,294.8-243,294.8-242.5,294.8z"/>
	</g>
	<g id="Layer_204">
		<path d="M-269.5,305.3c0-5,0-10,0-15c0.5,0,1,0,1.5,0c0.1,2.6,0.1,14.3-0.1,15C-268.6,305.3-269,305.3-269.5,305.3z"/>
	</g>
	<g id="Layer_203">
		<path d="M-278.5,302.3c0,1,0,2,0,3c-0.5,0-1,0-1.5,0s-1,0-1.5,0c0-0.5,0-1,0-1.5c0.5,0,1,0,1.5,0c0-0.5,0-1,0-1.5
			C-279.5,302.3-279,302.3-278.5,302.3z"/>
	</g>
	<g id="Layer_202">
		<path d="M-278.5,293.3c0.5,0,1,0,1.5,0c0,1,0,2,0,3c-0.5,0-1,0-1.5,0C-278.5,295.3-278.5,294.3-278.5,293.3z"/>
	</g>
	<g id="Layer_201">
		<path d="M-277,296.3c0.5,0,0.9,0,1.5,0c0.1,1,0,2,0,3c-0.5,0-1,0-1.5,0C-277,298.3-277,297.3-277,296.3z"/>
	</g>
	<g id="Layer_200">
		<path d="M-283,288.8c1,0,2,0,3,0c0,0.5,0,1,0,1.5c-0.5,0-1,0-1.5,0s-1,0-1.5,0C-283,289.8-283,289.3-283,288.8z"/>
	</g>
	<g id="Layer_199">
		<path d="M-280,290.3c0.5,0,1,0,1.5,0c0,1,0,2,0,3c-0.5,0-1,0-1.5,0c0-0.5,0-1,0-1.5S-280,290.8-280,290.3z"/>
	</g>
	<g id="Layer_198">
		<path d="M-277,299.3c0,1,0,2,0,3c-0.5,0-1,0-1.5,0c0-1,0-2,0-3C-278,299.3-277.5,299.3-277,299.3z"/>
	</g>
	<g id="Layer_197">
		<path d="M-269.5,306.8c-0.5,0-0.9,0-1.5,0c0-0.2,0-0.5,0-0.7s0-0.5,0-0.8c0.5,0,1,0,1.5,0C-269.5,305.8-269.5,306.3-269.5,306.8z"
			/>
	</g>
	<g id="Layer_196">
		<path d="M-278.5,305.3c0.5,0,0.9,0,1.5,0c0,0.2,0,0.5,0,0.7s0,0.5,0,0.8c-0.5,0-1,0-1.5,0C-278.5,306.3-278.5,305.8-278.5,305.3z"
			/>
	</g>
	<g id="Layer_195">
		<path d="M-269.5,290.3c-0.5,0-0.9,0-1.5,0c0-0.2,0-0.5,0-0.7s0-0.5,0-0.8c0.5,0,1,0,1.5,0C-269.5,289.3-269.5,289.8-269.5,290.3z"
			/>
	</g>
	<g id="Layer_194">
		<path d="M-251.5,305.3c0-3,0-6,0-9c-1,0-2,0-3,0c0-0.5,0-1,0-1.5c0.5,0,1,0,1.5,0s1.5,0,1.5,0V294v-0.7c0,0-1,0-1.5,0c0-1,0-2,0-3
			c1,0,2,0,3,0c0,5,0,14.9,0,14.9v0.1h-0.1C-250.1,305.3-251,305.3-251.5,305.3z"/>
	</g>
	<g id="Layer_193">
		<path d="M-262,290.3c0,1.5,0,3,0,4.5c-0.5,0-1,0-1.5,0c0-1.5,0-3,0-4.5C-263,290.3-262.5,290.3-262,290.3z"/>
	</g>
	<g id="Layer_192">
		<path d="M-254.5,294.8c-0.5,0-1,0-1.5,0c0-1,0-2,0-3c0.5,0,1,0,1.5,0c0,0.5,0,1,0,1.5S-254.5,294.3-254.5,294.8z"/>
	</g>
	<g id="Layer_191">
		<path d="M-262,303.8c0.5,0,1.5,0,1.5,0v3c0,0-1,0-1.5,0C-262,305.8-262,304.8-262,303.8z"/>
	</g>
	<g id="Layer_190">
		<path d="M-263.5,299.3c0.5,0,0.9,0,1.5,0c0,0.2,0,0.5,0,0.7s0,0.5,0,0.8c-0.5,0-1,0-1.5,0C-263.5,300.3-263.5,299.8-263.5,299.3z"
			/>
	</g>
	<g id="Layer_189">
		<path d="M-251.5,306.8c-0.5,0-1.5,0-1.5,0s0-0.5,0-0.7s0-0.8,0-0.8s1,0,1.5,0C-251.5,305.8-251.5,306.3-251.5,306.8z"/>
	</g>
	<g id="Layer_188">
		<path d="M-263.5,302.3c0.5,0,1,0,1.5,0c0,0.5,0,1,0,1.5c-0.5,0-1,0-1.5,0C-263.5,303.3-263.5,302.8-263.5,302.3z"/>
	</g>
	<g id="Layer_187">
		<path d="M-263.5,300.8c0,0.5,0,1,0,1.5c-0.5,0-1,0-1.5,0c0-0.5,0-1,0-1.5C-264.5,300.8-264,300.8-263.5,300.8z"/>
	</g>
	<g id="Layer_186">
		<path d="M-256,291.8c-0.5,0-1,0-1.5,0c0-0.5,0-1,0-1.5c0.5,0,1,0,1.5,0C-256,290.8-256,291.3-256,291.8z"/>
	</g>
	<g id="Layer_185">
		<path d="M-262,288.8c0.5,0,0.9,0,1.5,0c0,0.2,0,0.5,0,0.7s0,0.5,0,0.8c-0.5,0-1,0-1.5,0C-262,289.8-262,289.3-262,288.8z"/>
	</g>
	<g id="Layer_184">
		<path d="M-257.5,290.3c-0.5,0-0.9,0-1.5,0c0-0.2,0-0.5,0-0.7s0-0.5,0-0.8c0.5,0,1,0,1.5,0C-257.5,289.3-257.5,289.8-257.5,290.3z"
			/>
	</g>
	<g id="Layer_183">
		<path d="M-263.5,296.3c0.5,0,0.9,0,1.5,0c0,0.2,0,0.5,0,0.7s0,0.5,0,0.8c-0.5,0-1,0-1.5,0C-263.5,297.3-263.5,296.8-263.5,296.3z"
			/>
	</g>
	<g id="Layer_182">
		<path d="M-263.5,297.8c0,0.5,0,1,0,1.5c-0.5,0-1,0-1.5,0c0-0.5,0-1,0-1.5C-264.5,297.8-264,297.8-263.5,297.8z"/>
	</g>
	<g id="Layer_181">
		<path d="M-263.5,294.8c0,0.5,0,1,0,1.5c-0.5,0-1,0-1.5,0c0-0.5,0-1,0-1.5C-264.5,294.8-264,294.8-263.5,294.8z"/>
	</g>
	<g id="Layer_180">
		<path d="M-307,305.3c0-5,0-10,0-15c0.5,0,1,0,1.5,0c0.1,2.6,0.1,14.3-0.1,15C-306.1,305.3-306.5,305.3-307,305.3z"/>
	</g>
	<g id="Layer_179">
		<path d="M-314.5,300.8c0.5,0,1,0,1.5,0c0,1,0,2,0,3c-0.5,0-1,0-1.5,0C-314.5,302.8-314.5,301.8-314.5,300.8z"/>
	</g>
	<g id="Layer_178">
		<path d="M-316,297.8c0.5,0,1,0,1.5,0c0,1,0,2,0,3c-0.5,0-1,0-1.5,0C-316,299.8-316,298.8-316,297.8z"/>
	</g>
	<g id="Layer_177">
		<path d="M-314.5,291.8c0.5,0,0.9,0,1.5,0c0.1,1,0,2,0,3c-0.5,0-1,0-1.5,0C-314.5,293.8-314.5,292.8-314.5,291.8z"/>
	</g>
	<g id="Layer_176">
		<path d="M-313,303.8c0.5,0,0.9,0,1.5,0c0.1,1,0,2,0,3c-0.5,0-1,0-1.5,0C-313,305.8-313,304.8-313,303.8z"/>
	</g>
	<g id="Layer_175">
		<path d="M-307,306.8c-0.5,0-0.9,0-1.5,0c0-0.2,0-0.5,0-0.7s0-0.5,0-0.8c0.5,0,1,0,1.5,0C-307,305.8-307,306.3-307,306.8z"/>
	</g>
	<g id="Layer_174">
		<path d="M-307,290.3c-0.5,0-0.9,0-1.5,0c0-0.2,0-0.5,0-0.7s0-0.5,0-0.8c0.5,0,1,0,1.5,0C-307,289.3-307,289.8-307,290.3z"/>
	</g>
	<g id="Layer_173">
		<path d="M-317.5,288.8c0.5,0,1,0,1.5,0c0,0.5,0,1,0,1.5c-0.5,0-1,0-1.5,0C-317.5,289.8-317.5,289.3-317.5,288.8z"/>
	</g>
	<g id="Layer_172">
		<path d="M-316,290.3c0.5,0,1,0,1.5,0c0,0.5,0,1,0,1.5c-0.5,0-1,0-1.5,0C-316,291.3-316,290.8-316,290.3z"/>
	</g>
	<g id="Layer_171">
		<path d="M-316,296.3c0,0.5,0,1,0,1.5c-0.5,0-1,0-1.5,0c0-0.5,0-1,0-1.5C-317,296.3-316.5,296.3-316,296.3z"/>
	</g>
	<g id="Layer_170">
		<path d="M-314.5,294.8c0,0.5,0,1,0,1.5c-0.5,0-1,0-1.5,0c0-0.5,0-1,0-1.5C-315.5,294.8-315,294.8-314.5,294.8z"/>
	</g>
	<g id="Layer_169">
		<path d="M-293.5,305.3c0-4,0-8,0-12c0.5,0,1,0,1.5,0c0.1,2.5,0.1,11.3-0.1,12C-292.6,305.3-293,305.3-293.5,305.3z"/>
	</g>
	<g id="Layer_168">
		<path d="M-299.5,290.3c0,1.5,0,3,0,4.5c-0.5,0-1,0-1.5,0c0-1.5,0-3,0-4.5C-300.5,290.3-300,290.3-299.5,290.3z"/>
	</g>
	<g id="Layer_167">
		<path d="M-299.5,303.8c0.5,0,0.9,0,1.5,0c0.1,1,0,2,0,3c-0.5,0-1,0-1.5,0C-299.5,305.8-299.5,304.8-299.5,303.8z"/>
	</g>
	<g id="Layer_166">
		<path d="M-301,299.3c0.5,0,0.9,0,1.5,0c0,0.2,0,0.5,0,0.7s0,0.5,0,0.8c-0.5,0-1,0-1.5,0C-301,300.3-301,299.8-301,299.3z"/>
	</g>
	<g id="Layer_165">
		<path d="M-293.5,306.8c-0.5,0-0.9,0-1.5,0c0-0.2,0-0.5,0-0.7s0-0.5,0-0.8c0.5,0,1,0,1.5,0C-293.5,305.8-293.5,306.3-293.5,306.8z"
			/>
	</g>
	<g id="Layer_164">
		<path d="M-301,302.3c0.5,0,1,0,1.5,0c0,0.5,0,1,0,1.5c-0.5,0-1,0-1.5,0C-301,303.3-301,302.8-301,302.3z"/>
	</g>
	<g id="Layer_163">
		<path d="M-301,300.8c0,0.5,0,1,0,1.5c-0.5,0-1,0-1.5,0c0-0.5,0-1,0-1.5C-302,300.8-301.5,300.8-301,300.8z"/>
	</g>
	<g id="Layer_162">
		<path d="M-293.5,293.3c-0.5,0-0.9,0-1.5,0c0-0.2,0-0.5,0-0.7s0-0.5,0-0.8c0.5,0,1,0,1.5,0C-293.5,292.3-293.5,292.8-293.5,293.3z"
			/>
	</g>
	<g id="Layer_161">
		<path d="M-292,290.3c0-0.5,0-1,0-1.5c0.5,0,1,0,1.5,0c0,0.5,0,1,0,1.5C-291,290.3-291.5,290.3-292,290.3z"/>
	</g>
	<g id="Layer_160">
		<path d="M-299.5,288.8c0.5,0,0.9,0,1.5,0c0,0.2,0,0.5,0,0.7s0,0.5,0,0.8c-0.5,0-1,0-1.5,0C-299.5,289.8-299.5,289.3-299.5,288.8z"
			/>
	</g>
	<g id="Layer_159">
		<path d="M-293.5,291.8c0-0.5,0-1,0-1.5c0.5,0,1,0,1.5,0c0,0.5,0,1,0,1.5C-292.5,291.8-293,291.8-293.5,291.8z"/>
	</g>
	<g id="Layer_158">
		<path d="M-301,296.3c0.5,0,0.9,0,1.5,0c0,0.2,0,0.5,0,0.7s0,0.5,0,0.8c-0.5,0-1,0-1.5,0C-301,297.3-301,296.8-301,296.3z"/>
	</g>
	<g id="Layer_157">
		<path d="M-301,297.8c0,0.5,0,1,0,1.5c-0.5,0-1,0-1.5,0c0-0.5,0-1,0-1.5C-302,297.8-301.5,297.8-301,297.8z"/>
	</g>
	<g id="Layer_156">
		<path d="M-301,294.8c0,0.5,0,1,0,1.5c-0.5,0-1,0-1.5,0c0-0.5,0-1,0-1.5C-302,294.8-301.5,294.8-301,294.8z"/>
	</g>
	<g id="Layer_155">
		<path d="M-344.5,305.3c0-3,0-6,0-9c-1,0-2,0-3,0c0-0.5,0-1,0-1.5c0.5,0,1,0,1.5,0s1,0,1.5,0c0-0.5,0-1,0-1.5c-0.6,0-1,0-1.5,0
			c0-1,0-2,0-3c1,0,2,0,3,0c0,5,0,9.9,0,14.9c0,0,0,0,0,0.1c0,0,0,0-0.1,0.1C-343.6,305.3-344,305.3-344.5,305.3z"/>
	</g>
	<g id="Layer_154">
		<path d="M-347.5,294.8c-0.5,0-1,0-1.5,0c0-1,0-2,0-3c0.5,0,1,0,1.5,0c0,0.5,0,1,0,1.5S-347.5,294.3-347.5,294.8z"/>
	</g>
	<g id="Layer_153">
		<path d="M-344.5,306.8c-0.5,0-0.9,0-1.5,0c0-0.2,0-0.5,0-0.7s0-0.5,0-0.8c0.5,0,1,0,1.5,0C-344.5,305.8-344.5,306.3-344.5,306.8z"
			/>
	</g>
	<g id="Layer_152">
		<path d="M-349,291.8c-0.5,0-1,0-1.5,0c0-0.5,0-1,0-1.5c0.5,0,1,0,1.5,0C-349,290.8-349,291.3-349,291.8z"/>
	</g>
	<g id="Layer_151">
		<path d="M-329.5,305.3c0-4,0-8,0-12c0.5,0,1,0,1.5,0c0.1,2.5,0.1,11.3-0.1,12C-328.6,305.3-329,305.3-329.5,305.3z"/>
	</g>
	<g id="Layer_150">
		<path d="M-331,291.8c-0.5,0-0.9,0-1.5,0c0,0.2,0,0.5,0,0.7s0,0.5,0,0.8c-0.5,0-1,0-1.5,0c0-0.5,0-1,0-1.5s0-1,0-1.5
			c0.5,0,1,0,1.5,0s1,0,1.5,0C-331,290.8-331,291.3-331,291.8z"/>
	</g>
	<g id="Layer_149">
		<path d="M-337,303.8c0.5,0,0.9,0,1.5,0c0.1,1,0,2,0,3c-0.5,0-1,0-1.5,0C-337,305.8-337,304.8-337,303.8z"/>
	</g>
	<g id="Layer_148">
		<path d="M-338.5,300.8c0,0.5,0,1,0,1.5c-0.5,0-1,0-1.5,0c0-0.5,0-1,0-1.5C-339.5,300.8-339,300.8-338.5,300.8z"/>
	</g>
	<g id="Layer_147">
		<path d="M-338.5,299.3c0.5,0,0.9,0,1.5,0c0,0.2,0,0.5,0,0.7s0,0.5,0,0.8c-0.5,0-1,0-1.5,0C-338.5,300.3-338.5,299.8-338.5,299.3z"
			/>
	</g>
	<g id="Layer_146">
		<path d="M-329.5,306.8c-0.5,0-0.9,0-1.5,0c0-0.2,0-0.5,0-0.7s0-0.5,0-0.8c0.5,0,1,0,1.5,0C-329.5,305.8-329.5,306.3-329.5,306.8z"
			/>
	</g>
	<g id="Layer_145">
		<path d="M-338.5,302.3c0.5,0,1,0,1.5,0c0,0.5,0,1,0,1.5c-0.5,0-1,0-1.5,0C-338.5,303.3-338.5,302.8-338.5,302.3z"/>
	</g>
	<g id="Layer_144">
		<path d="M-329.5,293.3c-0.5,0-1,0-1.5,0c0-0.5,0-1,0-1.5c0.5,0,1,0,1.5,0C-329.5,292.3-329.5,292.8-329.5,293.3z"/>
	</g>
	<g id="Layer_143">
		<path d="M-337,296.3c0,0.5,0,1,0,1.5c-0.5,0-1,0-1.5,0c0-0.5,0-1,0-1.5C-338,296.3-337.5,296.3-337,296.3z"/>
	</g>
	<g id="Layer_142">
		<path d="M-338.5,297.8c0,0.5,0,1,0,1.5c-0.5,0-1,0-1.5,0c0-0.5,0-1,0-1.5C-339.5,297.8-339,297.8-338.5,297.8z"/>
	</g>
	<g id="Layer_141">
		<path d="M-334,293.3c0,0.5,0,1,0,1.5c-0.5,0-1,0-1.5,0c0-0.5,0-1,0-1.5C-335,293.3-334.5,293.3-334,293.3z"/>
	</g>
	<g id="Layer_140">
		<path d="M-335.5,294.8c0,0.5,0,1,0,1.5c-0.5,0-1,0-1.5,0c0-0.5,0-1,0-1.5C-336.5,294.8-336,294.8-335.5,294.8z"/>
	</g>
	<g id="Layer_139">
		<path d="M-217,290.3c0,1.5,0,3,0,4.5c-0.5,0-1,0-1.5,0c0-1.5,0-3,0-4.5C-218,290.3-217.5,290.3-217,290.3z"/>
	</g>
	<g id="Layer_138">
		<path d="M-218.5,300.8c0,1.5,0,3,0,4.5c-0.5,0-1,0-1.5,0c0-0.5,0-1,0-1.5c0-1,0-2,0-3C-219.5,300.8-219,300.8-218.5,300.8z"/>
	</g>
	<g id="Layer_137">
		<path d="M-218.5,297.8c0,0.5,0,1,0,1.5c-0.5,0-1,0-1.5,0c0-0.5,0-1,0-1.5C-219.5,297.8-219,297.8-218.5,297.8z"/>
	</g>
	<g id="Layer_136">
		<path d="M-218.5,299.3c0.5,0,0.9,0,1.5,0c0,0.2,0,0.5,0,0.7s0,0.5,0,0.8c-0.5,0-1,0-1.5,0C-218.5,300.3-218.5,299.8-218.5,299.3z"
			/>
	</g>
	<g id="Layer_135">
		<path d="M-220,305.3c0,0.5,0,1,0,1.5c-0.5,0-1,0-1.5,0c0-0.5,0-1,0-1.5C-221,305.3-220.5,305.3-220,305.3z"/>
	</g>
	<g id="Layer_134">
		<path d="M-218.5,296.3c0.5,0,0.9,0,1.5,0c0,0.2,0,0.5,0,0.7s0,0.5,0,0.8c-0.5,0-1,0-1.5,0C-218.5,297.3-218.5,296.8-218.5,296.3z"
			/>
	</g>
	<g id="Layer_133">
		<path d="M-218.5,294.8c0,0.5,0,1,0,1.5c-0.5,0-1,0-1.5,0c0-0.5,0-1,0-1.5C-219.5,294.8-219,294.8-218.5,294.8z"/>
	</g>
	<g id="Layer_132">
		<path class="st0" d="M-340,297.8c0,0.5,0,1,0,1.5s0,1,0,1.5s0,1,0,1.5c0,1,0,2,0,3c0.5,0.1,1,0,1.5,0c0,0.5,0,1,0,1.5
			c-1,0-2,0-3,0c0-5.5,0-10.9,0-16.4c0,0,0,0,0-0.1c0,0,0,0-0.1-0.1c-0.5,0.1-0.9,0.1-1.4,0.1c-1,0-2,0-3,0s-2,0-3,0
			c-0.5,0-1,0-1.5,0c0-0.5,0-1,0-1.5c6,0,12,0,18,0c0,0.5,0,1,0,1.5c-0.5,0-1,0-1.5,0c-1,0-2,0-3,0c-0.5,0-1,0-1.5,0s-1,0-1.5,0
			c0,1.5,0,3,0,4.5c0,0.5,0,1,0,1.5S-340,297.3-340,297.8z"/>
	</g>
	<g id="Layer_131">
		<path class="st1" d="M-332.5,290.3c0-0.5,0-1,0-1.5c0.5,0,1,0,1.5,0c0,0.5,0,1,0,1.5C-331.5,290.3-332,290.3-332.5,290.3z"/>
	</g>
	<g id="Layer_130">
		<path class="st0" d="M-256,290.2c-0.5,0.1-1,0.1-1.5,0.1c0-0.5,0-1,0-1.5c6,0,12,0,18,0c0,0.5,0,1,0,1.5c-0.5,0-1,0-1.5,0
			c-1,0-2,0-3,0c-0.5,0-1,0-1.5,0s-1,0-1.5,0c0,1.5,0,3,0,4.5c0,0.5,0,1,0,1.5s0,1,0,1.5s0,1,0,1.5s0,1,0,1.5s0,1,0,1.5c0,1,0,2,0,3
			c0.5,0.1,1,0,1.5,0c0,0.5,0,1,0,1.5c-1,0-2,0-3,0c0-5.5,0-10.9,0-16.4c0,0,0,0,0-0.1c0,0,0,0-0.1-0.1c-0.5,0-0.9,0-1.4,0
			c-1,0-2,0-3,0"/>
	</g>
	<g id="Layer_129">
		<path class="st1" d="M-239.5,290.3c0-0.5,0-1,0-1.5c0.5,0,1,0,1.5,0c0,0.5,0,1,0,1.5C-238.5,290.3-239,290.3-239.5,290.3z"/>
	</g>
	<g id="Layer_128">
		<path class="st0" d="M-220,294.8c0,0.5,0,1,0,1.5s0,1,0,1.5s0,1,0,1.5s0,1,0,1.5c0,1,0,2,0,3c-0.5,0-1,0-1.5,0c0,0.5,0,1,0,1.5
			c-0.5,0-1,0-1.5,0c0,0.5,0,1,0,1.5c-2.5,0-5,0-7.5,0c0-1,0-2,0-3c0.5,0,1,0,1.5,0c0,0.5,0,1,0,1.5c1,0,2,0,3,0c0.5,0,1,0,1.5,0
			c0-0.5,0-1,0-1.5c0.5,0,1,0,1.5,0c0-0.5,0-1,0-1.5c0.5,0,1,0,1.5,0c0.1-2.5,0.1-11.3-0.1-12c-0.5,0-0.9,0-1.4,0s-1,0-1.5,0
			c0-0.5,0-1,0-1.5c2,0,4,0,6,0c0,0.5,0,1,0,1.5c-0.5,0-1,0-1.5,0C-220,291.8-220,293.3-220,294.8z"/>
	</g>
	<g id="Layer_127">
		<path class="st2" d="M-230.5,303.8c0,1,0,2,0,3c-0.5,0-1,0-1.5,0c0-1,0-2,0-3C-231.5,303.8-231,303.8-230.5,303.8z"/>
	</g>
	<g id="Layer_126">
		<path class="st1" d="M-223,306.8c0-0.5,0-1,0-1.5c0.5,0,1,0,1.5,0c0,0.5,0,1,0,1.5C-222,306.8-222.5,306.8-223,306.8z"/>
	</g>
	<g id="Layer_125">
		<path class="st0" d="M-316,294.8c0,0.5,0,1,0,1.5c-0.5,0-1,0-1.5,0c0-0.5,0-1,0-1.5c-0.5,0-1,0-1.5,0c0-0.5,0-1,0-1.5
			c-0.5,0-1,0-1.5,0c0-0.5,0-1,0-1.5c-0.5,0-1,0-1.5,0c0-0.5,0-1,0-1.5c-0.5,0-1,0-1.5,0s-1,0-1.5,0c0,1.5,0,3,0,4.5
			c0,0.5,0,1,0,1.5s0,1,0,1.5s0,1,0,1.5s0,1,0,1.5s0,1,0,1.5c0,1,0,2,0,3c0.5,0.1,1,0,1.5,0c0,0.5,0,1,0,1.5c-1,0-2,0-3,0
			c0-5.5,0-11,0-16.5c0-0.5,0-1,0-1.5c2,0,4,0,6,0c0,0.5,0,1,0,1.5c0.5,0,1,0,1.5,0c0,0.5,0,1,0,1.4c0.5,0.1,1,0,1.5,0.1
			c0,0.5,0,1,0,1.5c0.5,0,1,0,1.5,0C-316,293.9-316,294.3-316,294.8z"/>
	</g>
	<g id="Layer_124">
		<path class="st1" d="M-316,294.8c0-0.5,0-0.9,0-1.5c-0.5-0.1-1,0-1.5,0c0-0.5,0-0.9,0-1.5c-0.5-0.1-1,0-1.5-0.1c0-0.4,0-0.9,0-1.4
			c-0.5,0-1,0-1.5,0c0-0.5,0-1,0-1.5c1,0,2,0,3,0c0,0.5,0,1,0,1.5c0.5,0,1,0,1.5,0c0,0.5,0,1,0,1.5c0.5,0,1,0,1.5,0c0,1,0,2,0,3
			C-315,294.8-315.5,294.8-316,294.8z"/>
	</g>
	<g id="Layer_123">
		<path class="st0" d="M-302.5,294.8c0,0.5,0,1,0,1.5s0,1,0,1.5s0,1,0,1.5s0,1,0,1.5s0,1,0,1.5c0,1,0,2,0,3c0.5,0.1,1,0,1.5,0
			c0,0.5,0,1,0,1.5c-1,0-2,0-3,0c0-6,0-12,0-18c1,0,2,0,3,0c0,0.5,0,1,0,1.5c-0.5,0-1,0-1.5,0C-302.5,291.8-302.5,293.3-302.5,294.8
			z"/>
	</g>
	<g id="Layer_122">
		<path class="st2" d="M-304,288.8c0,6,0,12,0,18c-1,0-2,0-3,0c0-0.5,0-1,0-1.5c0.5,0,0.9,0,1.4,0c0.1-0.7,0.2-12.4,0.1-15
			c-0.5,0-1,0-1.5,0c0-0.5,0-1,0-1.5C-306,288.8-305,288.8-304,288.8z"/>
	</g>
	<g id="Layer_121">
		<path class="st1" d="M-301,290.3c0-0.5,0-1,0-1.5c0.5,0,1,0,1.5,0c0,0.5,0,1,0,1.5C-300,290.3-300.5,290.3-301,290.3z"/>
	</g>
	<g id="Layer_120">
		<path class="st0" d="M-289,288.8c1.5,0,3,0,4.5,0c0,0.5,0,1,0,1.5c-1,0-2,0-3,0c-0.5,0-1,0-1.5,0C-289,289.8-289,289.3-289,288.8z
			"/>
	</g>
	<g id="Layer_119">
		<path class="st1" d="M-284.5,290.3c0-0.5,0-1,0-1.5c0.5,0,1,0,1.5,0c0,0.5,0,1,0,1.5C-283.5,290.3-284,290.3-284.5,290.3z"/>
	</g>
	<g id="Layer_118">
		<path class="st1" d="M-289,288.8c0,0.5,0,1,0,1.5c-0.5,0-1,0-1.5,0c0-0.5,0-1,0-1.5C-290,288.8-289.5,288.8-289,288.8z"/>
	</g>
	<g id="Layer_117">
		<path class="st2" d="M-343,290.3c0.5,0,0.9,0,1.4,0c0,0,0,0,0.1,0.1c0,0,0,0,0,0.1c0,5.5,0,10.9,0,16.4c-1,0-2,0-3,0
			c0-0.5,0-1,0-1.5c0.5,0,0.9,0,1.4,0c0,0,0,0,0.1-0.1c0,0,0,0,0-0.1C-343,300.2-343,295.3-343,290.3z"/>
	</g>
	<g id="Layer_116">
		<path class="st1" d="M-338.5,306.8c0-0.5,0-0.9,0-1.5c-0.5-0.1-1,0-1.5,0c0-1,0-2,0-3c0.5,0,1,0,1.5,0c0,0.5,0,1,0,1.5
			c0.5,0,1,0,1.5,0c0,1,0,2,0,3C-337.5,306.8-338,306.8-338.5,306.8z"/>
	</g>
	<g id="Layer_115">
		<path class="st2" d="M-326.5,290.3c0,5.5,0,11,0,16.5c-1,0-2,0-3,0c0-0.5,0-1,0-1.5c0.5,0,0.9,0,1.4,0c0.1-0.7,0.2-9.5,0.1-12
			c-0.5,0-1,0-1.5,0c0-0.5,0-1,0-1.5c0.5,0,1,0,1.5,0c0-0.5,0-1,0-1.5C-327.5,290.3-327,290.3-326.5,290.3z"/>
	</g>
	<g id="Layer_114">
		<path class="st1" d="M-323.5,306.8c0-0.5,0-0.9,0-1.5c-0.5-0.1-1,0-1.5,0c0-1,0-2,0-3c0.5,0,1,0,1.5,0c0,0.5,0,1,0,1.5
			c0.5,0,1,0,1.5,0c0,1,0,2,0,3C-322.5,306.8-323,306.8-323.5,306.8z"/>
	</g>
	<g id="Layer_113">
		<path class="st0" d="M-265,294.8c0,0.5,0,1,0,1.5s0,1,0,1.5s0,1,0,1.5s0,1,0,1.5s0,1,0,1.5c0,1,0,2,0,3c0.5,0.1,1,0,1.5,0
			c0,0.5,0,1,0,1.5c-1,0-2,0-3,0c0-6,0-12,0-18c1,0,2,0,3,0c0,0.5,0,1,0,1.5c-0.5,0-1,0-1.5,0C-265,291.8-265,293.3-265,294.8z"/>
	</g>
	<g id="Layer_112">
		<path class="st2" d="M-266.5,288.8c0,6,0,12,0,18c-1,0-2,0-3,0c0-0.5,0-1,0-1.5c0.5,0,0.9,0,1.4,0c0.1-0.7,0.2-12.4,0.1-15
			c-0.5,0-1,0-1.5,0c0-0.5,0-1,0-1.5C-268.5,288.8-267.5,288.8-266.5,288.8z"/>
	</g>
	<g id="Layer_111">
		<path class="st1" d="M-263.5,290.3c0-0.5,0-1,0-1.5c0.5,0,1,0,1.5,0c0,0.5,0,1,0,1.5C-262.5,290.3-263,290.3-263.5,290.3z"/>
	</g>
	<g id="Layer_110">
		<path class="st1" d="M-301,306.8c0-0.5,0-0.9,0-1.5c-0.5-0.1-1,0-1.5,0c0-1,0-2,0-3c0.5,0,1,0,1.5,0c0,0.5,0,1,0,1.5
			c0.5,0,1,0,1.5,0c0,1,0,2,0,3C-300,306.8-300.5,306.8-301,306.8z"/>
	</g>
	<g id="Layer_109">
		<path class="st2" d="M-293.5,291.8c0.5,0,1,0,1.5,0c0-0.5,0-1,0-1.5c0.5,0,1,0,1.5,0c0,5.5,0,11,0,16.5c-1,0-2,0-3,0
			c0-0.5,0-1,0-1.5c0.5,0,0.9,0,1.4,0c0.1-0.7,0.2-9.5,0.1-12c-0.5,0-1,0-1.5,0C-293.5,292.8-293.5,292.3-293.5,291.8z"/>
	</g>
	<g id="Layer_108">
		<path class="st0" d="M-290.5,306.8c0-5.5,0-11,0-16.5c0.5,0,1,0,1.5,0c0,1.5,0,3,0,4.5c0,0.5,0,1,0,1.5s0,1,0,1.5s0,1,0,1.5
			s0,1,0,1.5s0,1,0,1.5c0,1,0,2,0,3c0.5,0,1,0,1.5,0c0,0.5,0,1,0,1.5C-288.5,306.8-289.5,306.8-290.5,306.8z"/>
	</g>
	<g id="Layer_107">
		<path class="st1" d="M-287.5,306.8c0-0.5,0-1,0-1.5c0.5,0,1,0,1.5,0c0,0.5,0,1,0,1.5C-286.5,306.8-287,306.8-287.5,306.8z"/>
	</g>
	<g id="Layer_106">
		<path class="st1" d="M-218.5,290.3c0-0.5,0-1,0-1.5c0.5,0,1,0,1.5,0c0,0.5,0,1,0,1.5C-217.5,290.3-218,290.3-218.5,290.3z"/>
	</g>
	<g id="Layer_105">
		<path class="st1" d="M-263.5,306.8c0-0.5,0-1.5,0-1.5h-1.5c0,0,0-2,0-3c0.5,0,1,0,1.5,0c0,0.5,0,1,0,1.5c0.5,0,1,0,1.5,0
			c0,1,0,2,0,3C-262.5,306.8-263,306.8-263.5,306.8z"/>
	</g>
	<g id="Layer_104">
		<path class="st2" d="M-250,290.3c0.5,0,0.9,0,1.4,0c0,0,0,0,0.1,0.1c0,0,0,0,0,0.1c0,5.5,0,10.9,0,16.4c-1,0-2,0-3,0
			c0-0.5,0-1,0-1.5c0.5,0,1.4,0,1.4,0h0.1v-0.1C-250,305.2-250,295.3-250,290.3z"/>
	</g>
	<g id="Layer_103">
		<path class="st1" d="M-245.5,306.8c0-0.5,0-0.9,0-1.5c-0.5-0.1-1,0-1.5,0c0-1,0-2,0-3c0.5,0,1,0,1.5,0c0,0.5,0,1,0,1.5
			c0.5,0,1,0,1.5,0c0,1,0,2,0,3C-244.5,306.8-245,306.8-245.5,306.8z"/>
	</g>
	<g id="Layer_102">
		<path d="M-326.5,290.3c-0.5,0-1,0-1.5,0c0-0.5,0-1,0-1.5c0.5,0,1,0,1.5,0C-326.5,289.3-326.5,289.8-326.5,290.3z"/>
	</g>
	<g id="Layer_101">
		<path d="M-331,290.3c0-0.5,0-1,0-1.5c0.5,0,1,0,1.5,0c0,0.5,0,1,0,1.5C-330,290.3-330.5,290.3-331,290.3z"/>
	</g>
	<g id="Layer_100">
		<path d="M-328,290.3c0,0.5,0,1,0,1.5c-0.5,0-1,0-1.5,0c0-0.5,0-1,0-1.5C-329,290.3-328.5,290.3-328,290.3z"/>
	</g>
	<g id="Layer_99">
		<path class="st1" d="M-317.5,297.8c0.5,0,1,0,1.5,0c0,1,0,2,0,3c0.5,0,1,0,1.5,0c0,1,0,2,0,3c0.5,0,1,0,1.5,0c0,1,0,2,0,3
			c-0.5,0-1,0-1.5,0c0-0.5,0-1,0-1.5c-0.5,0-1,0-1.5,0c0-1,0-2,0-3c-0.5,0-1,0-1.5,0c0-1,0-2,0-3c-0.5,0-1,0-1.5,0c0-0.5,0-1,0-1.5
			C-318.5,297.8-318,297.8-317.5,297.8z"/>
	</g>
	<g id="Layer_98">
		<path class="st0" d="M-319,299.3c0.5,0,1,0,1.5,0c0,1,0,2,0,3c0.5,0,1,0,1.5,0c0,1,0,2,0,3c0.5,0,1,0,1.5,0c0,0.5,0,1,0,1.5
			c-1,0-2,0-3,0c0-1,0-2,0-3c-0.5,0-1,0-1.5,0c0-0.5,0-1,0-1.5s0-1,0-1.5S-319,299.8-319,299.3z"/>
	</g>
	<g id="Layer_97">
		<path class="st2" d="M-319,303.8c0.5,0,1,0,1.5,0c0,1,0,2,0,3c-0.5,0-1,0-1.5,0C-319,305.8-319,304.8-319,303.8z"/>
	</g>
	<g id="Layer_96">
		<path class="st0" d="M-281.5,303.8c0,0.5,0,1,0,1.5c0.5,0,1,0,1.5,0c0,0.5,0,1,0,1.5c-1,0-2,0-3,0c0-1.5,0-3,0-4.5
			c0.5,0,1,0,1.5,0C-281.5,302.8-281.5,303.3-281.5,303.8z"/>
	</g>
	<g id="Layer_95">
		<path class="st1" d="M-280,306.8c0-0.5,0-1,0-1.5c0.5,0,1,0,1.5,0c0,0.5,0,1,0,1.5C-279,306.8-279.5,306.8-280,306.8z"/>
	</g>
	<g id="Layer_94">
		<path class="st0" d="M-232,294.8c0-0.5,0-1,0-1.5c0.5,0,1,0,1.5,0c0-0.5,0-1,0-1.5c0.5,0,0.9,0,1.5,0c0-0.2,0-0.5,0-0.7
			s0-0.5,0-0.8c-0.5,0-1,0-1.5,0c0-0.5,0-1,0-1.5c1,0,2,0,3,0c0,0.5,0,1,0,1.5s0,1,0,1.5s0,1,0,1.5c-0.5,0-1,0-1.5,0
			c0,0.5,0,1,0,1.5c-0.5,0-1,0-1.5,0c0,1,0,2,0,3c0.5,0,1,0,1.5,0c0,0.5,0,1,0,1.5c0.5,0,1,0,1.5,0c0,0.5,0,1,0,1.5c0.5,0,1,0,1.5,0
			s1,0,1.5,0c0,0.5,0,1,0,1.5c-1.5,0-3,0-4.5,0c0-0.5,0-1,0-1.5c-0.5,0-1,0-1.5,0c0-0.3,0-0.5,0-0.7s0-0.5,0-0.8c-0.5,0-1,0-1.5,0
			c0-0.5,0-1,0-1.5C-232,296.8-232,295.8-232,294.8z"/>
	</g>
	<g id="Layer_93">
		<path class="st1" d="M-227.5,290.3c0-0.5,0-1,0-1.5c0.5,0,1,0,1.5,0c0,0.5,0,1,0,1.5C-226.5,290.3-227,290.3-227.5,290.3z"/>
	</g>
	<g id="Layer_92">
		<path d="M-319,303.8c0,1,0,2,0,3c-1,0-2,0-3,0c0-1,0-2,0-3c0.5,0,1,0,1.5,0c0-0.5,0-1,0-1.5c0.5,0,1,0,1.5,0
			C-319,302.8-319,303.3-319,303.8z"/>
	</g>
	<g id="Layer_91">
		<path d="M-283,302.3c0,1.5,0,3,0,4.5c-1,0-2,0-3,0c0-0.5,0-1,0-1.5c0.5,0,1,0,1.5,0c0-1.5,0-2.9,0-4.4c0,0,0,0,0-0.1
			c0,0,0,0,0.1-0.1c0.5,0,0.9,0,1.4,0C-283,301.3-283,301.8-283,302.3z"/>
	</g>
	<g id="Layer_90">
		<path d="M-226,290.3c0-0.5,0-1,0-1.5c0.5,0,1,0,1.5,0c0,0.5,0,1,0,1.5C-225,290.3-225.5,290.3-226,290.3z"/>
	</g>
	<g id="Layer_89">
		<path class="st2" d="M-224.5,302.3c0-0.5,0-1,0-1.5c0.5,0,1,0,1.5,0c0-3.5,0-7,0-10.5c0.5,0,0.9,0,1.4,0c0.1,0.7,0.2,9.5,0.1,12
			c-0.5,0-1,0-1.5,0S-224,302.3-224.5,302.3z"/>
	</g>
	<g id="Layer_88">
		<path class="st1" d="M-226,305.3c-1,0-2,0-3,0c0-0.5,0-1,0-1.5c1,0,2,0,3,0C-226,304.3-226,304.8-226,305.3z"/>
	</g>
	<g id="Layer_87">
		<path class="st0" d="M-230.5,303.8c-0.5,0-1,0-1.5,0c0-0.5,0-1,0-1.5c0.5,0,1,0,1.5,0C-230.5,302.8-230.5,303.3-230.5,303.8z"/>
	</g>
	<g id="Layer_86">
		<path class="st2" d="M-244,290.3c1,0,2,0,3,0c0,0.5,0,1,0,1.5c-0.5,0-1,0-1.5,0s-1,0-1.5,0C-244,291.3-244,290.8-244,290.3z"/>
	</g>
	<g id="Layer_85">
		<path class="st1" d="M-242.5,291.8c0.5,0,1,0,1.5,0c0,0.5,0,1,0,1.5c-0.5,0-1,0-1.5,0C-242.5,292.8-242.5,292.3-242.5,291.8z"/>
	</g>
	<g id="Layer_84">
		<path class="st2" d="M-232,294.8c0,1,0,2,0,3c-0.5,0-1,0-1.5,0c0-1,0-2,0-3C-233,294.8-232.5,294.8-232,294.8z"/>
	</g>
	<g id="Layer_83">
		<path class="st1" d="M-247,300.8c0-0.5,0-1,0-1.5c0.5,0,1,0,1.5,0c0,0.5,0,1,0,1.5C-246,300.8-246.5,300.8-247,300.8z"/>
	</g>
	<g id="Layer_82">
		<path class="st1" d="M-247,297.8c0-0.5,0-1,0-1.5c0.5,0,1,0,1.5,0c0,0.5,0,1,0,1.5C-246,297.8-246.5,297.8-247,297.8z"/>
	</g>
	<g id="Layer_80">
		<path class="st0" d="M-242.5,291.8c0,0.5,0,1,0,1.5s0,1,0,1.5c-0.5,0-1,0-1.5,0c0-1,0-2,0-3C-243.5,291.8-243,291.8-242.5,291.8z"
			/>
	</g>
	<g id="Layer_79">
		<path class="st1" d="M-278.5,299.3c0,1,0,2,0,3c-0.5,0-1,0-1.5,0c0-1,0-2,0-3C-279.5,299.3-279,299.3-278.5,299.3z"/>
	</g>
	<g id="Layer_78">
		<path class="st1" d="M-281.5,303.8c0-0.5,0-1,0-1.5c0.5,0,1,0,1.5,0c0,0.5,0,1,0,1.5C-280.5,303.8-281,303.8-281.5,303.8z"/>
	</g>
	<g id="Layer_77">
		<path class="st0" d="M-278.5,299.3c-0.5,0-1,0-1.5,0c0-1.5,0-3,0-4.5c-0.5,0-1,0-1.5,0c0-0.5,0-1,0-1.5c-0.5,0-1,0-1.5,0
			c0-0.5,0-1,0-1.5c-0.5,0-1,0-1.5,0c0-0.5,0-1,0-1.5c0.5,0,1,0,1.5,0s1,0,1.5,0c0,0.5,0,1,0,1.5c0.5,0,1,0,1.5,0c0,0.5,0,1,0,1.5
			c0.5,0,1,0,1.5,0c0,1,0,2,0,3S-278.5,298.3-278.5,299.3z"/>
	</g>
	<g id="Layer_76">
		<path class="st1" d="M-278.5,299.3c0-1,0-2,0-3c0.5,0,1,0,1.5,0c0,1,0,2,0,3C-277.5,299.3-278,299.3-278.5,299.3z"/>
	</g>
	<g id="Layer_75">
		<path class="st1" d="M-280,291.8c-0.5,0-1,0-1.5,0c0-0.5,0-1,0-1.5c0.5,0,1,0,1.5,0C-280,290.8-280,291.3-280,291.8z"/>
	</g>
	<g id="Layer_74">
		<path class="st2" d="M-256,290.3c1,0,2,0,3,0c0,1,0,2,0,3c-0.5,0-1,0-1.5,0c0-0.5,0-1,0-1.5c-0.5,0-1,0-1.5,0
			C-256,291.3-256,290.8-256,290.3z"/>
	</g>
	<g id="Layer_73">
		<path class="st0" d="M-254.5,293.3c0.5,0,1,0,1.5,0c0,0.5,0,1,0,1.5c-0.5,0-1,0-1.5,0C-254.5,294.3-254.5,293.8-254.5,293.3z"/>
	</g>
	<g id="Layer_72">
		<path class="st1" d="M-253,294.8c0-0.5,0-1,0-1.5c0.5,0,0.9,0,1.5,0c0,0.2,0,0.5,0,0.7s0,0.5,0,0.8
			C-252,294.8-252.5,294.8-253,294.8z"/>
	</g>
	<g id="Layer_71">
		<path class="st1" d="M-265,294.8c0-1.5,0-3,0-4.5c0.5,0,1,0,1.5,0c0,1.5,0,3,0,4.5C-264,294.8-264.5,294.8-265,294.8z"/>
	</g>
	<g id="Layer_70">
		<path class="st1" d="M-265,300.8c0-0.5,0-1,0-1.5c0.5,0,1,0,1.5,0c0,0.5,0,1,0,1.5C-264,300.8-264.5,300.8-265,300.8z"/>
	</g>
	<g id="Layer_69">
		<path class="st1" d="M-265,297.8c0-0.5,0-1,0-1.5c0.5,0,1,0,1.5,0c0,0.5,0,1,0,1.5C-264,297.8-264.5,297.8-265,297.8z"/>
	</g>
	<g id="Layer_68">
		<path class="st2" d="M-317.5,297.8c-0.5,0-1,0-1.5,0c0,0.5,0,1,0,1.5c-0.5,0-1,0-1.5,0c0-0.5,0-1,0-1.5s0-1,0-1.5c0-1,0-2,0-3
			c0.5,0,1,0,1.5,0c0,0.5,0,1,0,1.5c0.5,0,1,0,1.5,0c0,0.5,0,1,0,1.5S-317.5,297.3-317.5,297.8z"/>
	</g>
	<g id="Layer_67">
		<path class="st1" d="M-302.5,294.8c0-1.5,0-3,0-4.5c0.5,0,1,0,1.5,0c0,1.5,0,3,0,4.5C-301.5,294.8-302,294.8-302.5,294.8z"/>
	</g>
	<g id="Layer_66">
		<path class="st1" d="M-302.5,300.8c0-0.5,0-1,0-1.5c0.5,0,1,0,1.5,0c0,0.5,0,1,0,1.5C-301.5,300.8-302,300.8-302.5,300.8z"/>
	</g>
	<g id="Layer_65">
		<path class="st1" d="M-302.5,297.8c0-0.5,0-1,0-1.5c0.5,0,1,0,1.5,0c0,0.5,0,1,0,1.5C-301.5,297.8-302,297.8-302.5,297.8z"/>
	</g>
	<g id="Layer_64">
		<path class="st2" d="M-349,290.3c1,0,2,0,3,0c0,1,0,2,0,3c-0.5,0-1,0-1.5,0c0-0.5,0-1,0-1.5c-0.5,0-1,0-1.5,0
			C-349,291.3-349,290.8-349,290.3z"/>
	</g>
	<g id="Layer_63">
		<path class="st0" d="M-347.5,293.3c0.5,0,1,0,1.5,0c0,0.5,0,1,0,1.5c-0.5,0-1,0-1.5,0C-347.5,294.3-347.5,293.8-347.5,293.3z"/>
	</g>
	<g id="Layer_62">
		<path class="st1" d="M-346,294.8c0-0.5,0-1,0-1.5c0.5,0,0.9,0,1.5,0c0,0.5,0,1,0,1.5C-345,294.8-345.5,294.8-346,294.8z"/>
	</g>
	<g id="Layer_61">
		<path class="st2" d="M-337,290.3c1,0,2,0,3,0c0,0.5,0,1,0,1.5c-0.5,0-1,0-1.5,0s-1,0-1.5,0C-337,291.3-337,290.8-337,290.3z"/>
	</g>
	<g id="Layer_60">
		<path class="st1" d="M-335.5,291.8c0.5,0,1,0,1.5,0c0,0.5,0,1,0,1.5c-0.5,0-1,0-1.5,0C-335.5,292.8-335.5,292.3-335.5,291.8z"/>
	</g>
	<g id="Layer_58">
		<path class="st1" d="M-340,300.8c0-0.5,0-1,0-1.5c0.5,0,1,0,1.5,0c0,0.5,0,1,0,1.5C-339,300.8-339.5,300.8-340,300.8z"/>
	</g>
	<g id="Layer_56">
		<path class="st1" d="M-340,297.8c0-0.5,0-1,0-1.5c0.5,0,1,0,1.5,0c0,0.5,0,1,0,1.5C-339,297.8-339.5,297.8-340,297.8z"/>
	</g>
	<g id="Layer_55">
		<path class="st0" d="M-335.5,291.8c0,0.5,0,1,0,1.5s0,1,0,1.5c-0.5,0-1,0-1.5,0c0-1,0-2,0-3C-336.5,291.8-336,291.8-335.5,291.8z"
			/>
	</g>
	<g id="Layer_54">
		<path class="st1" d="M-220,294.8c0-1.5,0-3,0-4.5c0.5,0,1,0,1.5,0c0,1.5,0,3,0,4.5C-219,294.8-219.5,294.8-220,294.8z"/>
	</g>
	<g id="Layer_53">
		<path class="st1" d="M-220,300.8c0-0.5,0-1,0-1.5c0.5,0,1,0,1.5,0c0,0.5,0,1,0,1.5C-219,300.8-219.5,300.8-220,300.8z"/>
	</g>
	<g id="Layer_52">
		<path class="st1" d="M-221.5,305.3c0-0.5,0-1,0-1.5c0.5,0,1,0,1.5,0c0,0.5,0,1,0,1.5C-220.5,305.3-221,305.3-221.5,305.3z"/>
	</g>
	<g id="Layer_51">
		<path class="st1" d="M-220,297.8c0-0.5,0-1,0-1.5c0.5,0,1,0,1.5,0c0,0.5,0,1,0,1.5C-219,297.8-219.5,297.8-220,297.8z"/>
	</g>
	<g id="Layer_50">
		<path d="M-337,291.8c0,1,0,2,0,3c-0.5,0-1,0-1.5,0c0-1.5,0-3,0-4.5c0.5,0,1,0,1.5,0C-337,290.8-337,291.3-337,291.8z"/>
	</g>
	<g id="Layer_49">
		<path class="st1" d="M-338.5,290.3c0,1.5,0,3,0,4.5c-0.5,0-1,0-1.5,0c0-1.5,0-3,0-4.5C-339.5,290.3-339,290.3-338.5,290.3z"/>
	</g>
	<g id="Layer_48">
		<path d="M-340,294.8c0.5,0,1,0,1.5,0c0,0.5,0,1,0,1.5c-0.5,0-1,0-1.5,0C-340,295.8-340,295.3-340,294.8z"/>
	</g>
	<g id="Layer_47">
		<path d="M-244,291.8c0,1,0,2,0,3c-0.5,0-1,0-1.5,0c0-1.5,0-3,0-4.5c0.5,0,1,0,1.5,0C-244,290.8-244,291.3-244,291.8z"/>
	</g>
	<g id="Layer_46">
		<path class="st1" d="M-245.5,290.3c0,1.5,0,3,0,4.5c-0.5,0-1,0-1.5,0c0-1.5,0-3,0-4.5C-246.5,290.3-246,290.3-245.5,290.3z"/>
	</g>
	<g id="Layer_45">
		<path d="M-247,294.8c0.5,0,1,0,1.5,0c0,0.5,0,1,0,1.5c-0.5,0-1,0-1.5,0C-247,295.8-247,295.3-247,294.8z"/>
	</g>
	<g id="Layer_44">
		<path d="M-223,290.3c0,3.5,0,7,0,10.5c-0.5,0-1,0-1.5,0s-1,0-1.5,0c0-0.5,0-1,0-1.5c0.5,0,1,0,1.5,0c0.1-2.1,0.1-5.4-0.1-6
			c-0.5,0-0.9,0-1.4,0c0-0.5,0-1,0-1.5c0.5,0,1,0,1.5,0c0-0.5,0-1,0-1.5C-224,290.3-223.5,290.3-223,290.3z"/>
	</g>
	<g id="Layer_43">
		<path d="M-320.5,293.3c0,1,0,2,0,3c-1.5,0-3,0-4.5,0c0-0.5,0-1,0-1.5c0.5,0,1,0,1.5,0c0-1.5,0-3,0-4.5c0.5,0,1,0,1.5,0
			c0,0.5,0,1,0,1.5c0.5,0,1,0,1.5,0C-320.5,292.3-320.5,292.8-320.5,293.3z"/>
	</g>
	<g id="Layer_42">
		<path class="st1" d="M-325,296.3c1.5,0,3,0,4.5,0c0,0.5,0,1,0,1.5c-1,0-2,0-3,0c-0.5,0-1,0-1.5,0C-325,297.3-325,296.8-325,296.3z
			"/>
	</g>
	<g id="Layer_41">
		<path class="st1" d="M-323.5,290.3c0,1.5,0,3,0,4.5c-0.5,0-1,0-1.5,0c0-1.5,0-3,0-4.5C-324.5,290.3-324,290.3-323.5,290.3z"/>
	</g>
	<g id="Layer_40">
		<path class="st1" d="M-325,300.8c0-0.5,0-1,0-1.5c0.5,0,1,0,1.5,0c0,0.5,0,1,0,1.5C-324,300.8-324.5,300.8-325,300.8z"/>
	</g>
	<g id="Layer_39">
		<path d="M-325,300.8c0.5,0,1,0,1.5,0c0,0.5,0,1,0,1.5c-0.5,0-1,0-1.5,0C-325,301.8-325,301.3-325,300.8z"/>
	</g>
	<g id="Layer_38">
		<path d="M-323.5,299.3c-0.5,0-1,0-1.5,0c0-0.5,0-1,0-1.5c0.5,0,1,0,1.5,0C-323.5,298.3-323.5,298.8-323.5,299.3z"/>
	</g>
	<g id="Layer_37">
		<path d="M-284.5,290.3c0,0.5,0,1,0,1.5c-0.5,0-1,0-1.5,0c0,1,0,1.9,0,2.9c0,0,0,0,0,0.1c0,0,0,0-0.1,0.1c-0.5,0-0.9,0-1.4,0
			c0-1.5,0-3,0-4.5C-286.5,290.3-285.5,290.3-284.5,290.3z"/>
	</g>
	<g id="Layer_36">
		<path class="st1" d="M-287.5,290.3c0,1.5,0,3,0,4.5c-0.5,0-1,0-1.5,0c0-1.5,0-3,0-4.5C-288.5,290.3-288,290.3-287.5,290.3z"/>
	</g>
	<g id="Layer_35">
		<path d="M-322,303.8c-0.5,0-1,0-1.5,0c0-0.5,0-1,0-1.5c0.5,0,1,0,1.5,0C-322,302.8-322,303.3-322,303.8z"/>
	</g>
	<g id="Layer_34">
		<path class="st1" d="M-287.5,305.3c-0.5,0-1,0-1.5,0c0-1,0-2,0-3c0.5,0,1,0,1.5,0C-287.5,303.3-287.5,304.3-287.5,305.3z"/>
	</g>
	<g id="Layer_33">
		<path class="st1" d="M-289,300.8c0-0.5,0-1,0-1.5c0.5,0,1,0,1.5,0c0,0.5,0,1,0,1.5C-288,300.8-288.5,300.8-289,300.8z"/>
	</g>
	<g id="Layer_32">
		<path d="M-289,300.8c0.5,0,1,0,1.5,0c0,0.5,0,1,0,1.5c-0.5,0-1,0-1.5,0C-289,301.8-289,301.3-289,300.8z"/>
	</g>
	<g id="Layer_31">
		<path class="st1" d="M-289,297.8c0-0.5,0-1,0-1.5c0.5,0,1,0,1.5,0c0,0.5,0,1,0,1.5C-288,297.8-288.5,297.8-289,297.8z"/>
	</g>
	<g id="Layer_30">
		<path d="M-289,297.8c0.5,0,1,0,1.5,0c0,0.5,0,1,0,1.5c-0.5,0-1,0-1.5,0C-289,298.8-289,298.3-289,297.8z"/>
	</g>
	<g id="Layer_29">
		<path d="M-287.5,296.3c-0.5,0-1,0-1.5,0c0-0.5,0-1,0-1.5c0.5,0,1,0,1.5,0C-287.5,295.3-287.5,295.8-287.5,296.3z"/>
	</g>
	<g id="Layer_28">
		<path d="M-287.5,305.3c0-1,0-2,0-3c0.5,0,1,0,1.5,0c0,1,0,2,0,3C-286.5,305.3-287,305.3-287.5,305.3z"/>
	</g>
	<g id="Layer_27">
		<path d="M-323.5,300.8c0-0.5,0-1,0-1.5c1,0,2,0,3,0c0.5,0,1,0,1.5,0c0,0.5,0,1,0,1.5c-0.5,0-1,0-1.5,0c0,0.5,0,1,0,1.5
			c-0.5,0-1,0-1.5,0c0-0.5,0-1,0-1.5C-322.5,300.8-323,300.8-323.5,300.8z"/>
	</g>
	<g id="Layer_26">
		<path class="st2" d="M-320.5,302.3c0-0.5,0-1,0-1.5c0.5,0,1,0,1.5,0c0,0.5,0,1,0,1.5C-319.5,302.3-320,302.3-320.5,302.3z"/>
	</g>
	<g id="Layer_25">
		<path class="st2" d="M-283,302.3c0-0.5,0-1,0-1.5c0.5,0,1,0,1.5,0c0,0.5,0,1,0,1.5C-282,302.3-282.5,302.3-283,302.3z"/>
	</g>
	<g id="Layer_24">
		<path class="st1" d="M-229,297.8c-0.5,0-0.9,0-1.5,0c-0.1-1,0-2,0-3c0.5,0,1,0,1.5,0C-229,295.8-229,296.8-229,297.8z"/>
	</g>
	<g id="Layer_23">
		<path class="st1" d="M-226,299.3c0,0.5,0,1,0,1.5c-0.5,0-1,0-1.5,0c0-0.5,0-1,0-1.5C-227,299.3-226.5,299.3-226,299.3z"/>
	</g>
	<g id="Layer_22">
		<path d="M-227.5,290.3c0.5,0,1,0,1.5,0c0,0.5,0,1,0,1.5c-0.5,0-1,0-1.5,0C-227.5,291.3-227.5,290.8-227.5,290.3z"/>
	</g>
	<g id="Layer_21">
		<path class="st1" d="M-227.5,291.8c0.5,0,1,0,1.5,0c0,0.5,0,1,0,1.5c-0.5,0-1,0-1.5,0C-227.5,292.8-227.5,292.3-227.5,291.8z"/>
	</g>
	<g id="Layer_20">
		<path class="st1" d="M-227.5,299.3c-0.5,0-1,0-1.5,0c0-0.5,0-1,0-1.5c0.5,0,1,0,1.5,0C-227.5,298.3-227.5,298.8-227.5,299.3z"/>
	</g>
	<g id="Layer_19">
		<path class="st1" d="M-229,294.8c0-0.5,0-1,0-1.5c0.5,0,1,0,1.5,0c0,0.5,0,1,0,1.5C-228,294.8-228.5,294.8-229,294.8z"/>
	</g>
	<g id="Layer_17">
	</g>
	<g id="Layer_15">
		<path class="st0" d="M-281.5,302.3c0-0.5,0-1,0-1.5s0-1,0-1.5c0.5,0,1,0,1.5,0c0,1,0,2,0,3C-280.5,302.3-281,302.3-281.5,302.3z"
			/>
	</g>
	<g id="Layer_14">
		<path class="st2" d="M-280,299.3c-0.5,0-1,0-1.5,0c0-1.5,0-3,0-4.5c0.5,0,1,0,1.5,0C-280,296.3-280,297.8-280,299.3z"/>
	</g>
	<g id="Layer_13">
		<path d="M-283,294.8c-0.5,0-1,0-1.5,0c0-1,0-2,0-3c0.5,0,1,0,1.5,0c0,0.5,0,1,0,1.5S-283,294.3-283,294.8z"/>
	</g>
	<g id="Layer_12">
		<path class="st2" d="M-283,294.8c0-0.5,0-1,0-1.5c0.5,0,1,0,1.5,0c0,0.5,0,1,0,1.5C-282,294.8-282.5,294.8-283,294.8z"/>
	</g>
	<g id="Layer_11">
		<path class="st0" d="M-320.5,299.3c-1,0-2,0-3,0c0-0.5,0-1,0-1.5c1,0,2,0,3,0C-320.5,298.3-320.5,298.8-320.5,299.3z"/>
	</g>
	<g id="Layer_10">
	</g>
	<g id="Layer_8">
		<path d="M-287.5,299.3c0.5,0,0.9,0,1.5,0c0,0.2,0,0.5,0,0.7s0,0.5,0,0.8c-0.5,0-1,0-1.5,0C-287.5,300.3-287.5,299.8-287.5,299.3z"
			/>
	</g>
	<g id="Layer_7">
		<path d="M-287.5,296.3c0.5,0,0.9,0,1.5,0c0,0.2,0,0.5,0,0.7s0,0.5,0,0.8c-0.5,0-1,0-1.5,0C-287.5,297.3-287.5,296.8-287.5,296.3z"
			/>
	</g>
	<g id="Layer_6">
		<path d="M-283,294.8c0.5,0,1,0,1.5,0c0,1.5,0,3,0,4.5c0,0.5,0,1,0,1.5c-0.5,0-1,0-1.5,0C-283,298.8-283,296.8-283,294.8z"/>
	</g>
	<g id="Layer_5">
		<path d="M-227.5,294.8c0,1,0,2,0,3c-0.5,0-1,0-1.5,0c0-1,0-2,0-3C-228.5,294.8-228,294.8-227.5,294.8z"/>
	</g>
	<g id="Layer_4">
		<path d="M-227.5,297.8c0.5,0,1,0,1.5,0c0,0.5,0,1,0,1.5c-0.5,0-1,0-1.5,0C-227.5,298.8-227.5,298.3-227.5,297.8z"/>
	</g>
	<g id="Layer_3">
		<path d="M-226,293.3c0,0.5,0,1,0,1.5c-0.5,0-1,0-1.5,0c0-0.5,0-1,0-1.5C-227,293.3-226.5,293.3-226,293.3z"/>
	</g>
</g>
</svg>
