<?xml version="1.0" encoding="utf-8"?>
<!-- Generator: Adobe Illustrator 19.0.0, SVG Export Plug-In . SVG Version: 6.00 Build 0)  -->
<svg version="1.1" id="Layer_1" xmlns="http://www.w3.org/2000/svg" xmlns:xlink="http://www.w3.org/1999/xlink" x="0px" y="0px"
	 viewBox="0 0 136.5 21" style="enable-background:new 0 0 136.5 21;" xml:space="preserve">
<style type="text/css">
	.st0{fill:#FEFEFE;}
	.st1{fill:#FE5555;}
	.st2{fill:#A9A9A9;}
</style>
<g id="Layer_2">
	<g id="Layer_255">
	</g>
	<g id="Layer_254">
	</g>
	<g id="Layer_253">
	</g>
	<g id="Layer_252">
	</g>
	<g id="Layer_251">
	</g>
	<g id="Layer_250">
	</g>
	<g id="Layer_249">
	</g>
	<g id="Layer_248">
	</g>
	<g id="Layer_247">
		<path d="M1.5,0C8,0,14.5,0,21,0c0,0.5,0,1,0,1.5c-0.5,0-1,0-1.5,0c-6,0-12,0-18,0C1.5,1,1.5,0.5,1.5,0z"/>
	</g>
	<g id="Layer_246">
		<path d="M94.5,1.5c0-0.5,0-1,0-1.5c6.5,0,13,0,19.5,0c0,0.5,0,1,0,1.5c-0.5,0-1,0-1.5,0C106.5,1.5,100.5,1.5,94.5,1.5z"/>
	</g>
	<g id="Layer_245">
		<path d="M130.5,19.5c0,0.5,0,1,0,1.5c-3.5,0-7,0-10.5,0c0-0.5,0-1,0-1.5c0.5,0,1,0,1.5,0c2.5,0,5,0,7.5,0
			C129.5,19.5,130,19.5,130.5,19.5z"/>
	</g>
	<g id="Layer_244">
		<path d="M34.5,0c0,0.5,0,1,0,1.5c-1,0-2,0-3,0c-2,0-4,0-6,0c0-0.5,0-1,0-1.5C28.5,0,31.5,0,34.5,0z"/>
	</g>
	<g id="Layer_243">
		<path d="M52.5,0c0,0.5,0,1,0,1.5c-0.5,0-1,0-1.5,0c-1,0-2,0-3,0s-2,0-3,0c0-0.5,0-1,0-1.5C47.5,0,50,0,52.5,0z"/>
	</g>
	<g id="Layer_242">
		<path d="M61.5,1.5c0-0.5,0-1,0-1.5c2.5,0,5,0,7.5,0c0,0.5,0,1,0,1.5c-0.5,0-1,0-1.5,0c-1.5,0-3,0-4.5,0C62.5,1.5,62,1.5,61.5,1.5z
			"/>
	</g>
	<g id="Layer_241">
		<path d="M15,19.5c0,0.5,0,1,0,1.5c-2.5,0-5,0-7.5,0c0-0.5,0-1,0-1.5c1,0,2,0,3,0s2,0,3,0C14,19.5,14.5,19.5,15,19.5z"/>
	</g>
	<g id="Layer_240">
		<path d="M22.5,21c0-0.5,0-1,0-1.5c1,0,2,0,3,0s2,0,3,0c0.5,0,1,0,1.5,0c0,0.5,0,1,0,1.5C27.5,21,25,21,22.5,21z"/>
	</g>
	<g id="Layer_239">
		<path d="M90,0c0,0.5,0,1,0,1.5c-0.5,0-1,0-1.5,0c-1,0-2,0-3,0s-2,0-3,0c0-0.5,0-1,0-1.5C85,0,87.5,0,90,0z"/>
	</g>
	<g id="Layer_238">
		<path d="M52.5,19.5c0,0.5,0,1,0,1.5c-2.5,0-5,0-7.5,0c0-0.5,0-1,0-1.5c1,0,2,0,3,0s2,0,3,0C51.5,19.5,52,19.5,52.5,19.5z"/>
	</g>
	<g id="Layer_237">
		<path d="M58.5,21c0-0.5,0-1,0-1.5c1,0,2,0,3,0s2,0,3,0c0.5,0,1,0,1.5,0c0,0.5,0,1,0,1.5C63.5,21,61,21,58.5,21z"/>
	</g>
	<g id="Layer_236">
		<path d="M127.5,0c2.5,0,5,0,7.5,0c0,0.5,0,1,0,1.5c-0.5,0-1,0-1.5,0c-2,0-4,0-6,0C127.5,1,127.5,0.5,127.5,0z"/>
	</g>
	<g id="Layer_235">
		<path d="M90,19.5c0,0.5,0,1,0,1.5c-2.5,0-5,0-7.5,0c0-0.5,0-1,0-1.5c1,0,2,0,3,0s2,0,3,0C89,19.5,89.5,19.5,90,19.5z"/>
	</g>
	<g id="Layer_234">
		<path d="M100.5,21c0-0.5,0-1,0-1.5c1,0,2,0,3,0s2,0,3,0c0.5,0,1,0,1.5,0c0,0.5,0,1,0,1.5C105.5,21,103,21,100.5,21z"/>
	</g>
	<g id="Layer_233">
	</g>
	<g id="Layer_232">
		<path d="M39,19.5c0,0.5,0,1,0,1.5c-2,0-4,0-6,0c0-0.5,0-1,0-1.5c0.5,0,1,0,1.5,0c1,0,2,0,3,0C38,19.5,38.5,19.5,39,19.5z"/>
	</g>
	<g id="Layer_231">
		<path d="M73.5,19.5c0,0.5,0,1,0,1.5c-1.5,0-3,0-4.5,0c0-0.5,0-1,0-1.5c1,0,2,0,3,0C72.5,19.5,73,19.5,73.5,19.5z"/>
	</g>
	<g id="Layer_230">
		<path d="M121.5,1.5c0-0.5,0-1,0-1.5c1.5,0,3,0,4.5,0c0,0.5,0,1,0,1.5c-0.5,0-1,0-1.5,0C123.5,1.5,122.5,1.5,121.5,1.5z"/>
	</g>
	<g id="Layer_229">
	</g>
	<g id="Layer_228">
	</g>
	<g id="Layer_227">
	</g>
	<g id="Layer_226">
		<path d="M0,1.5c0.5,0,1,0,1.5,0c0,0.5,0,1,0,1.5C1,3,0.5,3,0,3C0,2.5,0,2,0,1.5z"/>
	</g>
	<g id="Layer_225">
	</g>
	<g id="Layer_224">
	</g>
	<g id="Layer_223">
		<path d="M135,1.5c0.5,0,1,0,1.5,0c0,0.5,0,1,0,1.5c-0.5,0-1,0-1.5,0C135,2.5,135,2,135,1.5z"/>
	</g>
	<g id="Layer_222">
		<path d="M120,15c0-1,0-2,0-3c0.5,0,1,0,1.5,0c0,0.3,0,0.5,0,0.8c0,0.2,0,0.5,0,0.7c0.5,0,1,0,1.5,0c0,0.5,0,1,0,1.5
			c1.5,0,3,0,4.5,0c0.5,0,1,0,1.5,0c0,0.5,0,1,0,1.5c-0.5,0-1,0-1.5,0c0,0.5,0,1,0,1.5c-0.5,0-1,0-1.5,0c0-0.5,0-1,0-1.5
			c-1,0-2,0-3,0c-0.5,0-1,0-1.5,0c0-0.5,0-1,0-1.5C121,15,120.5,15,120,15z"/>
	</g>
	<g id="Layer_221">
		<path d="M120,19.5c-0.5,0-0.9,0-1.4,0c0,0,0,0-0.1-0.1c0,0,0,0,0-0.1c0-1.4,0-2.9,0-4.4c0.5,0,1,0,1.5,0c0,0.5,0,1,0,1.5
			C120,17.5,120,18.5,120,19.5z"/>
	</g>
	<g id="Layer_220">
		<path d="M114,3c0,0.5,0,1,0,1.5c-0.5,0-1,0-1.5,0c0,0.5,0,1,0,1.5c-0.5,0-1,0-1.5,0c0-0.5,0-1,0-1.5s0-1,0-1.5c0.5,0,1,0,1.5,0
			S113.5,3,114,3z"/>
	</g>
	<g id="Layer_219">
		<path d="M118.5,10.5c-0.5,0-0.9,0-1.5,0c-0.1-1,0-2,0-3c0.5,0,1,0,1.5,0C118.5,8.5,118.5,9.5,118.5,10.5z"/>
	</g>
	<g id="Layer_218">
		<path d="M108,16.5c0.5,0,0.9,0,1.5,0c0.1,1,0,2,0,3c-0.5,0-1,0-1.5,0C108,18.5,108,17.5,108,16.5z"/>
	</g>
	<g id="Layer_217">
		<path d="M106.5,12c0.5,0,0.9,0,1.5,0c0,0.2,0,0.5,0,0.7c0,0.2,0,0.5,0,0.8c-0.5,0-1,0-1.5,0C106.5,13,106.5,12.5,106.5,12z"/>
	</g>
	<g id="Layer_216">
		<path d="M106.5,15c0.5,0,1,0,1.5,0c0,0.5,0,1,0,1.5c-0.5,0-1,0-1.5,0C106.5,16,106.5,15.5,106.5,15z"/>
	</g>
	<g id="Layer_215">
		<path d="M106.5,13.5c0,0.5,0,1,0,1.5c-0.5,0-1,0-1.5,0c0-0.5,0-1,0-1.5C105.5,13.5,106,13.5,106.5,13.5z"/>
	</g>
	<g id="Layer_214">
		<path d="M121.5,4.5c0-0.5,0-1,0-1.5c0.5,0,1,0,1.5,0c0,0.3,0,0.5,0,0.8c0,0.2,0,0.5,0,0.7C122.4,4.5,122,4.5,121.5,4.5z"/>
	</g>
	<g id="Layer_213">
		<path d="M120,6c0-0.5,0-1,0-1.5c0.5,0,1,0,1.5,0c0,0.5,0,1,0,1.5C121,6,120.5,6,120,6z"/>
	</g>
	<g id="Layer_212">
		<path d="M114,1.5c0.5,0,0.9,0,1.5,0c0,0.2,0,0.5,0,0.7c0,0.2,0,0.5,0,0.8c-0.5,0-1,0-1.5,0C114,2.5,114,2,114,1.5z"/>
	</g>
	<g id="Layer_211">
		<path d="M121.5,3c-0.5,0-0.9,0-1.5,0c0-0.2,0-0.5,0-0.7c0-0.2,0-0.5,0-0.8c0.5,0,1,0,1.5,0C121.5,2,121.5,2.5,121.5,3z"/>
	</g>
	<g id="Layer_210">
		<path d="M108,9c0,0.5,0,1,0,1.5c-0.5,0-1,0-1.5,0c0-0.5,0-1,0-1.5C107,9,107.5,9,108,9z"/>
	</g>
	<g id="Layer_209">
		<path d="M106.5,10.5c0,0.5,0,1,0,1.5c-0.5,0-1,0-1.5,0c0-0.5,0-1,0-1.5C105.5,10.5,106,10.5,106.5,10.5z"/>
	</g>
	<g id="Layer_208">
		<path d="M120,12c-0.5,0-1,0-1.5,0c0-0.5,0-1,0-1.5c0.5,0,1,0,1.5,0C120,11,120,11.5,120,12z"/>
	</g>
	<g id="Layer_207">
		<path d="M111,6c0,0.5,0,1,0,1.5c-0.5,0-1,0-1.5,0c0-0.5,0-1,0-1.5C110,6,110.5,6,111,6z"/>
	</g>
	<g id="Layer_206">
		<path d="M118.5,7.5c0-0.5,0-1,0-1.5c0.5,0,1,0,1.5,0c0,0.5,0,1,0,1.5C119.5,7.5,119,7.5,118.5,7.5z"/>
	</g>
	<g id="Layer_205">
		<path d="M109.5,7.5c0,0.5,0,1,0,1.5c-0.5,0-1,0-1.5,0c0-0.5,0-1,0-1.5C108.5,7.5,109,7.5,109.5,7.5z"/>
	</g>
	<g id="Layer_204">
		<path d="M82.5,18c0-5,0-10,0-15c0.5,0,1,0,1.5,0c0.1,2.6,0.1,14.3-0.1,15C83.4,18,83,18,82.5,18z"/>
	</g>
	<g id="Layer_203">
		<path d="M73.5,15c0,1,0,2,0,3c-0.5,0-1,0-1.5,0c-0.5,0-1,0-1.5,0c0-0.5,0-1,0-1.5c0.5,0,1,0,1.5,0c0-0.5,0-1,0-1.5
			C72.5,15,73,15,73.5,15z"/>
	</g>
	<g id="Layer_202">
		<path d="M73.5,6c0.5,0,1,0,1.5,0c0,1,0,2,0,3c-0.5,0-1,0-1.5,0C73.5,8,73.5,7,73.5,6z"/>
	</g>
	<g id="Layer_201">
		<path d="M75,9c0.5,0,0.9,0,1.5,0c0.1,1,0,2,0,3c-0.5,0-1,0-1.5,0C75,11,75,10,75,9z"/>
	</g>
	<g id="Layer_200">
		<path d="M69,1.5c1,0,2,0,3,0c0,0.5,0,1,0,1.5c-0.5,0-1,0-1.5,0s-1,0-1.5,0C69,2.5,69,2,69,1.5z"/>
	</g>
	<g id="Layer_199">
		<path d="M72,3c0.5,0,1,0,1.5,0c0,1,0,2,0,3c-0.5,0-1,0-1.5,0c0-0.5,0-1,0-1.5C72,4,72,3.5,72,3z"/>
	</g>
	<g id="Layer_198">
		<path d="M75,12c0,1,0,2,0,3c-0.5,0-1,0-1.5,0c0-1,0-2,0-3C74,12,74.5,12,75,12z"/>
	</g>
	<g id="Layer_197">
		<path d="M82.5,19.5c-0.5,0-0.9,0-1.5,0c0-0.2,0-0.5,0-0.7c0-0.2,0-0.5,0-0.8c0.5,0,1,0,1.5,0C82.5,18.5,82.5,19,82.5,19.5z"/>
	</g>
	<g id="Layer_196">
		<path d="M73.5,18c0.5,0,0.9,0,1.5,0c0,0.2,0,0.5,0,0.7c0,0.2,0,0.5,0,0.8c-0.5,0-1,0-1.5,0C73.5,19,73.5,18.5,73.5,18z"/>
	</g>
	<g id="Layer_195">
		<path d="M82.5,3C82,3,81.6,3,81,3c0-0.2,0-0.5,0-0.7c0-0.2,0-0.5,0-0.8c0.5,0,1,0,1.5,0C82.5,2,82.5,2.5,82.5,3z"/>
	</g>
	<g id="Layer_194">
		<path d="M100.5,18c0-3,0-6,0-9c-1,0-2,0-3,0c0-0.5,0-1,0-1.5c0.5,0,1,0,1.5,0c0.5,0,1.5,0,1.5,0l0-0.8l0-0.7c0,0-1,0-1.5,0
			c0-1,0-2,0-3c1,0,2,0,3,0c0,5,0,14.9,0,14.9l0,0.1h-0.1C101.9,18,101,18,100.5,18z"/>
	</g>
	<g id="Layer_193">
		<path d="M90,3c0,1.5,0,3,0,4.5c-0.5,0-1,0-1.5,0c0-1.5,0-3,0-4.5C89,3,89.5,3,90,3z"/>
	</g>
	<g id="Layer_192">
		<path d="M97.5,7.5c-0.5,0-1,0-1.5,0c0-1,0-2,0-3c0.5,0,1,0,1.5,0c0,0.5,0,1,0,1.5C97.5,6.5,97.5,7,97.5,7.5z"/>
	</g>
	<g id="Layer_191">
		<path d="M90,16.5c0.5,0,1.5,0,1.5,0l0,3c0,0-1,0-1.5,0C90,18.5,90,17.5,90,16.5z"/>
	</g>
	<g id="Layer_190">
		<path d="M88.5,12c0.5,0,0.9,0,1.5,0c0,0.2,0,0.5,0,0.7c0,0.2,0,0.5,0,0.8c-0.5,0-1,0-1.5,0C88.5,13,88.5,12.5,88.5,12z"/>
	</g>
	<g id="Layer_189">
		<path d="M100.5,19.5c-0.5,0-1.5,0-1.5,0s0-0.5,0-0.7c0-0.2,0-0.8,0-0.8s1,0,1.5,0C100.5,18.5,100.5,19,100.5,19.5z"/>
	</g>
	<g id="Layer_188">
		<path d="M88.5,15c0.5,0,1,0,1.5,0c0,0.5,0,1,0,1.5c-0.5,0-1,0-1.5,0C88.5,16,88.5,15.5,88.5,15z"/>
	</g>
	<g id="Layer_187">
		<path d="M88.5,13.5c0,0.5,0,1,0,1.5c-0.5,0-1,0-1.5,0c0-0.5,0-1,0-1.5C87.5,13.5,88,13.5,88.5,13.5z"/>
	</g>
	<g id="Layer_186">
		<path d="M96,4.5c-0.5,0-1,0-1.5,0c0-0.5,0-1,0-1.5c0.5,0,1,0,1.5,0C96,3.5,96,4,96,4.5z"/>
	</g>
	<g id="Layer_185">
		<path d="M90,1.5c0.5,0,0.9,0,1.5,0c0,0.2,0,0.5,0,0.7c0,0.2,0,0.5,0,0.8c-0.5,0-1,0-1.5,0C90,2.5,90,2,90,1.5z"/>
	</g>
	<g id="Layer_184">
		<path d="M94.5,3C94,3,93.6,3,93,3c0-0.2,0-0.5,0-0.7c0-0.2,0-0.5,0-0.8c0.5,0,1,0,1.5,0C94.5,2,94.5,2.5,94.5,3z"/>
	</g>
	<g id="Layer_183">
		<path d="M88.5,9C89,9,89.4,9,90,9c0,0.2,0,0.5,0,0.7c0,0.2,0,0.5,0,0.8c-0.5,0-1,0-1.5,0C88.5,10,88.5,9.5,88.5,9z"/>
	</g>
	<g id="Layer_182">
		<path d="M88.5,10.5c0,0.5,0,1,0,1.5c-0.5,0-1,0-1.5,0c0-0.5,0-1,0-1.5C87.5,10.5,88,10.5,88.5,10.5z"/>
	</g>
	<g id="Layer_181">
		<path d="M88.5,7.5c0,0.5,0,1,0,1.5c-0.5,0-1,0-1.5,0c0-0.5,0-1,0-1.5C87.5,7.5,88,7.5,88.5,7.5z"/>
	</g>
	<g id="Layer_180">
		<path d="M45,18c0-5,0-10,0-15c0.5,0,1,0,1.5,0c0.1,2.6,0.1,14.3-0.1,15C45.9,18,45.5,18,45,18z"/>
	</g>
	<g id="Layer_179">
		<path d="M37.5,13.5c0.5,0,1,0,1.5,0c0,1,0,2,0,3c-0.5,0-1,0-1.5,0C37.5,15.5,37.5,14.5,37.5,13.5z"/>
	</g>
	<g id="Layer_178">
		<path d="M36,10.5c0.5,0,1,0,1.5,0c0,1,0,2,0,3c-0.5,0-1,0-1.5,0C36,12.5,36,11.5,36,10.5z"/>
	</g>
	<g id="Layer_177">
		<path d="M37.5,4.5c0.5,0,0.9,0,1.5,0c0.1,1,0,2,0,3c-0.5,0-1,0-1.5,0C37.5,6.5,37.5,5.5,37.5,4.5z"/>
	</g>
	<g id="Layer_176">
		<path d="M39,16.5c0.5,0,0.9,0,1.5,0c0.1,1,0,2,0,3c-0.5,0-1,0-1.5,0C39,18.5,39,17.5,39,16.5z"/>
	</g>
	<g id="Layer_175">
		<path d="M45,19.5c-0.5,0-0.9,0-1.5,0c0-0.2,0-0.5,0-0.7c0-0.2,0-0.5,0-0.8c0.5,0,1,0,1.5,0C45,18.5,45,19,45,19.5z"/>
	</g>
	<g id="Layer_174">
		<path d="M45,3c-0.5,0-0.9,0-1.5,0c0-0.2,0-0.5,0-0.7c0-0.2,0-0.5,0-0.8c0.5,0,1,0,1.5,0C45,2,45,2.5,45,3z"/>
	</g>
	<g id="Layer_173">
		<path d="M34.5,1.5c0.5,0,1,0,1.5,0c0,0.5,0,1,0,1.5c-0.5,0-1,0-1.5,0C34.5,2.5,34.5,2,34.5,1.5z"/>
	</g>
	<g id="Layer_172">
		<path d="M36,3c0.5,0,1,0,1.5,0c0,0.5,0,1,0,1.5c-0.5,0-1,0-1.5,0C36,4,36,3.5,36,3z"/>
	</g>
	<g id="Layer_171">
		<path d="M36,9c0,0.5,0,1,0,1.5c-0.5,0-1,0-1.5,0c0-0.5,0-1,0-1.5C35,9,35.5,9,36,9z"/>
	</g>
	<g id="Layer_170">
		<path d="M37.5,7.5c0,0.5,0,1,0,1.5c-0.5,0-1,0-1.5,0c0-0.5,0-1,0-1.5C36.5,7.5,37,7.5,37.5,7.5z"/>
	</g>
	<g id="Layer_169">
		<path d="M58.5,18c0-4,0-8,0-12c0.5,0,1,0,1.5,0c0.1,2.5,0.1,11.3-0.1,12C59.4,18,59,18,58.5,18z"/>
	</g>
	<g id="Layer_168">
		<path d="M52.5,3c0,1.5,0,3,0,4.5c-0.5,0-1,0-1.5,0c0-1.5,0-3,0-4.5C51.5,3,52,3,52.5,3z"/>
	</g>
	<g id="Layer_167">
		<path d="M52.5,16.5c0.5,0,0.9,0,1.5,0c0.1,1,0,2,0,3c-0.5,0-1,0-1.5,0C52.5,18.5,52.5,17.5,52.5,16.5z"/>
	</g>
	<g id="Layer_166">
		<path d="M51,12c0.5,0,0.9,0,1.5,0c0,0.2,0,0.5,0,0.7c0,0.2,0,0.5,0,0.8c-0.5,0-1,0-1.5,0C51,13,51,12.5,51,12z"/>
	</g>
	<g id="Layer_165">
		<path d="M58.5,19.5c-0.5,0-0.9,0-1.5,0c0-0.2,0-0.5,0-0.7c0-0.2,0-0.5,0-0.8c0.5,0,1,0,1.5,0C58.5,18.5,58.5,19,58.5,19.5z"/>
	</g>
	<g id="Layer_164">
		<path d="M51,15c0.5,0,1,0,1.5,0c0,0.5,0,1,0,1.5c-0.5,0-1,0-1.5,0C51,16,51,15.5,51,15z"/>
	</g>
	<g id="Layer_163">
		<path d="M51,13.5c0,0.5,0,1,0,1.5c-0.5,0-1,0-1.5,0c0-0.5,0-1,0-1.5C50,13.5,50.5,13.5,51,13.5z"/>
	</g>
	<g id="Layer_162">
		<path d="M58.5,6C58,6,57.6,6,57,6c0-0.2,0-0.5,0-0.7c0-0.2,0-0.5,0-0.8c0.5,0,1,0,1.5,0C58.5,5,58.5,5.5,58.5,6z"/>
	</g>
	<g id="Layer_161">
		<path d="M60,3c0-0.5,0-1,0-1.5c0.5,0,1,0,1.5,0c0,0.5,0,1,0,1.5C61,3,60.5,3,60,3z"/>
	</g>
	<g id="Layer_160">
		<path d="M52.5,1.5c0.5,0,0.9,0,1.5,0c0,0.2,0,0.5,0,0.7c0,0.2,0,0.5,0,0.8c-0.5,0-1,0-1.5,0C52.5,2.5,52.5,2,52.5,1.5z"/>
	</g>
	<g id="Layer_159">
		<path d="M58.5,4.5c0-0.5,0-1,0-1.5c0.5,0,1,0,1.5,0c0,0.5,0,1,0,1.5C59.5,4.5,59,4.5,58.5,4.5z"/>
	</g>
	<g id="Layer_158">
		<path d="M51,9c0.5,0,0.9,0,1.5,0c0,0.2,0,0.5,0,0.7c0,0.2,0,0.5,0,0.8c-0.5,0-1,0-1.5,0C51,10,51,9.5,51,9z"/>
	</g>
	<g id="Layer_157">
		<path d="M51,10.5c0,0.5,0,1,0,1.5c-0.5,0-1,0-1.5,0c0-0.5,0-1,0-1.5C50,10.5,50.5,10.5,51,10.5z"/>
	</g>
	<g id="Layer_156">
		<path d="M51,7.5c0,0.5,0,1,0,1.5c-0.5,0-1,0-1.5,0c0-0.5,0-1,0-1.5C50,7.5,50.5,7.5,51,7.5z"/>
	</g>
	<g id="Layer_155">
		<path d="M7.5,18c0-3,0-6,0-9c-1,0-2,0-3,0c0-0.5,0-1,0-1.5c0.5,0,1,0,1.5,0c0.5,0,1,0,1.5,0c0-0.5,0-1,0-1.5C6.9,6,6.5,6,6,6
			c0-1,0-2,0-3c1,0,2,0,3,0c0,5,0,9.9,0,14.9c0,0,0,0,0,0.1c0,0,0,0-0.1,0.1C8.4,18,8,18,7.5,18z"/>
	</g>
	<g id="Layer_154">
		<path d="M4.5,7.5c-0.5,0-1,0-1.5,0c0-1,0-2,0-3c0.5,0,1,0,1.5,0c0,0.5,0,1,0,1.5C4.5,6.5,4.5,7,4.5,7.5z"/>
	</g>
	<g id="Layer_153">
		<path d="M7.5,19.5c-0.5,0-0.9,0-1.5,0c0-0.2,0-0.5,0-0.7c0-0.2,0-0.5,0-0.8c0.5,0,1,0,1.5,0C7.5,18.5,7.5,19,7.5,19.5z"/>
	</g>
	<g id="Layer_152">
		<path d="M3,4.5c-0.5,0-1,0-1.5,0c0-0.5,0-1,0-1.5C2,3,2.5,3,3,3C3,3.5,3,4,3,4.5z"/>
	</g>
	<g id="Layer_151">
		<path d="M22.5,18c0-4,0-8,0-12c0.5,0,1,0,1.5,0c0.1,2.5,0.1,11.3-0.1,12C23.4,18,23,18,22.5,18z"/>
	</g>
	<g id="Layer_150">
		<path d="M21,4.5c-0.5,0-0.9,0-1.5,0c0,0.2,0,0.5,0,0.7c0,0.2,0,0.5,0,0.8c-0.5,0-1,0-1.5,0c0-0.5,0-1,0-1.5s0-1,0-1.5
			c0.5,0,1,0,1.5,0s1,0,1.5,0C21,3.5,21,4,21,4.5z"/>
	</g>
	<g id="Layer_149">
		<path d="M15,16.5c0.5,0,0.9,0,1.5,0c0.1,1,0,2,0,3c-0.5,0-1,0-1.5,0C15,18.5,15,17.5,15,16.5z"/>
	</g>
	<g id="Layer_148">
		<path d="M13.5,13.5c0,0.5,0,1,0,1.5c-0.5,0-1,0-1.5,0c0-0.5,0-1,0-1.5C12.5,13.5,13,13.5,13.5,13.5z"/>
	</g>
	<g id="Layer_147">
		<path d="M13.5,12c0.5,0,0.9,0,1.5,0c0,0.2,0,0.5,0,0.7c0,0.2,0,0.5,0,0.8c-0.5,0-1,0-1.5,0C13.5,13,13.5,12.5,13.5,12z"/>
	</g>
	<g id="Layer_146">
		<path d="M22.5,19.5c-0.5,0-0.9,0-1.5,0c0-0.2,0-0.5,0-0.7c0-0.2,0-0.5,0-0.8c0.5,0,1,0,1.5,0C22.5,18.5,22.5,19,22.5,19.5z"/>
	</g>
	<g id="Layer_145">
		<path d="M13.5,15c0.5,0,1,0,1.5,0c0,0.5,0,1,0,1.5c-0.5,0-1,0-1.5,0C13.5,16,13.5,15.5,13.5,15z"/>
	</g>
	<g id="Layer_144">
		<path d="M22.5,6c-0.5,0-1,0-1.5,0c0-0.5,0-1,0-1.5c0.5,0,1,0,1.5,0C22.5,5,22.5,5.5,22.5,6z"/>
	</g>
	<g id="Layer_143">
		<path d="M15,9c0,0.5,0,1,0,1.5c-0.5,0-1,0-1.5,0c0-0.5,0-1,0-1.5C14,9,14.5,9,15,9z"/>
	</g>
	<g id="Layer_142">
		<path d="M13.5,10.5c0,0.5,0,1,0,1.5c-0.5,0-1,0-1.5,0c0-0.5,0-1,0-1.5C12.5,10.5,13,10.5,13.5,10.5z"/>
	</g>
	<g id="Layer_141">
		<path d="M18,6c0,0.5,0,1,0,1.5c-0.5,0-1,0-1.5,0c0-0.5,0-1,0-1.5C17,6,17.5,6,18,6z"/>
	</g>
	<g id="Layer_140">
		<path d="M16.5,7.5c0,0.5,0,1,0,1.5c-0.5,0-1,0-1.5,0c0-0.5,0-1,0-1.5C15.5,7.5,16,7.5,16.5,7.5z"/>
	</g>
	<g id="Layer_139">
		<path d="M135,3c0,1.5,0,3,0,4.5c-0.5,0-1,0-1.5,0c0-1.5,0-3,0-4.5C134,3,134.5,3,135,3z"/>
	</g>
	<g id="Layer_138">
		<path d="M133.5,13.5c0,1.5,0,3,0,4.5c-0.5,0-1,0-1.5,0c0-0.5,0-1,0-1.5c0-1,0-2,0-3C132.5,13.5,133,13.5,133.5,13.5z"/>
	</g>
	<g id="Layer_137">
		<path d="M133.5,10.5c0,0.5,0,1,0,1.5c-0.5,0-1,0-1.5,0c0-0.5,0-1,0-1.5C132.5,10.5,133,10.5,133.5,10.5z"/>
	</g>
	<g id="Layer_136">
		<path d="M133.5,12c0.5,0,0.9,0,1.5,0c0,0.2,0,0.5,0,0.7c0,0.2,0,0.5,0,0.8c-0.5,0-1,0-1.5,0C133.5,13,133.5,12.5,133.5,12z"/>
	</g>
	<g id="Layer_135">
		<path d="M132,18c0,0.5,0,1,0,1.5c-0.5,0-1,0-1.5,0c0-0.5,0-1,0-1.5C131,18,131.5,18,132,18z"/>
	</g>
	<g id="Layer_134">
		<path d="M133.5,9c0.5,0,0.9,0,1.5,0c0,0.2,0,0.5,0,0.7c0,0.2,0,0.5,0,0.8c-0.5,0-1,0-1.5,0C133.5,10,133.5,9.5,133.5,9z"/>
	</g>
	<g id="Layer_133">
		<path d="M133.5,7.5c0,0.5,0,1,0,1.5c-0.5,0-1,0-1.5,0c0-0.5,0-1,0-1.5C132.5,7.5,133,7.5,133.5,7.5z"/>
	</g>
	<g id="Layer_132">
		<path class="st0" d="M12,10.5c0,0.5,0,1,0,1.5s0,1,0,1.5s0,1,0,1.5c0,1,0,2,0,3c0.5,0.1,1,0,1.5,0c0,0.5,0,1,0,1.5c-1,0-2,0-3,0
			c0-5.5,0-10.9,0-16.4c0,0,0,0,0-0.1c0,0,0,0-0.1-0.1C9.9,3,9.5,3,9,3C8,3,7,3,6,3S4,3,3,3C2.5,3,2,3,1.5,3c0-0.5,0-1,0-1.5
			c6,0,12,0,18,0c0,0.5,0,1,0,1.5c-0.5,0-1,0-1.5,0c-1,0-2,0-3,0c-0.5,0-1,0-1.5,0c-0.5,0-1,0-1.5,0c0,1.5,0,3,0,4.5
			c0,0.5,0,1,0,1.5S12,10,12,10.5z"/>
	</g>
	<g id="Layer_131">
		<path class="st1" d="M19.5,3c0-0.5,0-1,0-1.5c0.5,0,1,0,1.5,0c0,0.5,0,1,0,1.5C20.5,3,20,3,19.5,3z"/>
	</g>
	<g id="Layer_130">
		<path class="st0" d="M94.5,3c0-0.5,0-1,0-1.5c6,0,12,0,18,0c0,0.5,0,1,0,1.5c-0.5,0-1,0-1.5,0c-1,0-2,0-3,0c-0.5,0-1,0-1.5,0
			c-0.5,0-1,0-1.5,0c0,1.5,0,3,0,4.5c0,0.5,0,1,0,1.5s0,1,0,1.5s0,1,0,1.5s0,1,0,1.5s0,1,0,1.5c0,1,0,2,0,3c0.5,0.1,1,0,1.5,0
			c0,0.5,0,1,0,1.5c-1,0-2,0-3,0c0-5.5,0-10.9,0-16.4c0,0,0,0,0-0.1c0,0,0,0-0.1-0.1c-0.5,0-0.9,0-1.4,0c-1,0-2,0-3,0s-2,0-3,0
			C95.5,3,95,3,94.5,3z"/>
	</g>
	<g id="Layer_129">
		<path class="st1" d="M112.5,3c0-0.5,0-1,0-1.5c0.5,0,1,0,1.5,0c0,0.5,0,1,0,1.5C113.5,3,113,3,112.5,3z"/>
	</g>
	<g id="Layer_128">
		<path class="st0" d="M132,7.5c0,0.5,0,1,0,1.5s0,1,0,1.5s0,1,0,1.5s0,1,0,1.5c0,1,0,2,0,3c-0.5,0-1,0-1.5,0c0,0.5,0,1,0,1.5
			c-0.5,0-1,0-1.5,0c0,0.5,0,1,0,1.5c-2.5,0-5,0-7.5,0c0-1,0-2,0-3c0.5,0,1,0,1.5,0c0,0.5,0,1,0,1.5c1,0,2,0,3,0c0.5,0,1,0,1.5,0
			c0-0.5,0-1,0-1.5c0.5,0,1,0,1.5,0c0-0.5,0-1,0-1.5c0.5,0,1,0,1.5,0c0.1-2.5,0.1-11.3-0.1-12c-0.5,0-0.9,0-1.4,0c-0.5,0-1,0-1.5,0
			c0-0.5,0-1,0-1.5c2,0,4,0,6,0c0,0.5,0,1,0,1.5c-0.5,0-1,0-1.5,0C132,4.5,132,6,132,7.5z"/>
	</g>
	<g id="Layer_127">
		<path class="st2" d="M121.5,16.5c0,1,0,2,0,3c-0.5,0-1,0-1.5,0c0-1,0-2,0-3C120.5,16.5,121,16.5,121.5,16.5z"/>
	</g>
	<g id="Layer_126">
		<path class="st1" d="M129,19.5c0-0.5,0-1,0-1.5c0.5,0,1,0,1.5,0c0,0.5,0,1,0,1.5C130,19.5,129.5,19.5,129,19.5z"/>
	</g>
	<g id="Layer_125">
		<path class="st0" d="M36,7.5c0,0.5,0,1,0,1.5c-0.5,0-1,0-1.5,0c0-0.5,0-1,0-1.5c-0.5,0-1,0-1.5,0c0-0.5,0-1,0-1.5
			c-0.5,0-1,0-1.5,0c0-0.5,0-1,0-1.5c-0.5,0-1,0-1.5,0c0-0.5,0-1,0-1.5c-0.5,0-1,0-1.5,0c-0.5,0-1,0-1.5,0c0,1.5,0,3,0,4.5
			c0,0.5,0,1,0,1.5s0,1,0,1.5s0,1,0,1.5s0,1,0,1.5s0,1,0,1.5c0,1,0,2,0,3c0.5,0.1,1,0,1.5,0c0,0.5,0,1,0,1.5c-1,0-2,0-3,0
			c0-5.5,0-11,0-16.5c0-0.5,0-1,0-1.5c2,0,4,0,6,0c0,0.5,0,1,0,1.5C32,3,32.5,3,33,3c0,0.5,0,1,0,1.4c0.5,0.1,1,0,1.5,0.1
			c0,0.5,0,1,0,1.5c0.5,0,1,0,1.5,0C36,6.6,36,7,36,7.5z"/>
	</g>
	<g id="Layer_124">
		<path class="st1" d="M36,7.5C36,7,36,6.6,36,6c-0.5-0.1-1,0-1.5,0c0-0.5,0-0.9,0-1.5c-0.5-0.1-1,0-1.5-0.1C33,4,33,3.5,33,3
			C32.5,3,32,3,31.5,3c0-0.5,0-1,0-1.5c1,0,2,0,3,0c0,0.5,0,1,0,1.5c0.5,0,1,0,1.5,0c0,0.5,0,1,0,1.5c0.5,0,1,0,1.5,0c0,1,0,2,0,3
			C37,7.5,36.5,7.5,36,7.5z"/>
	</g>
	<g id="Layer_123">
		<path class="st0" d="M49.5,7.5c0,0.5,0,1,0,1.5s0,1,0,1.5s0,1,0,1.5s0,1,0,1.5s0,1,0,1.5c0,1,0,2,0,3c0.5,0.1,1,0,1.5,0
			c0,0.5,0,1,0,1.5c-1,0-2,0-3,0c0-6,0-12,0-18c1,0,2,0,3,0c0,0.5,0,1,0,1.5c-0.5,0-1,0-1.5,0C49.5,4.5,49.5,6,49.5,7.5z"/>
	</g>
	<g id="Layer_122">
		<path class="st2" d="M48,1.5c0,6,0,12,0,18c-1,0-2,0-3,0c0-0.5,0-1,0-1.5c0.5,0,0.9,0,1.4,0c0.1-0.7,0.2-12.4,0.1-15
			c-0.5,0-1,0-1.5,0c0-0.5,0-1,0-1.5C46,1.5,47,1.5,48,1.5z"/>
	</g>
	<g id="Layer_121">
		<path class="st1" d="M51,3c0-0.5,0-1,0-1.5c0.5,0,1,0,1.5,0c0,0.5,0,1,0,1.5C52,3,51.5,3,51,3z"/>
	</g>
	<g id="Layer_120">
		<path class="st0" d="M63,1.5c1.5,0,3,0,4.5,0c0,0.5,0,1,0,1.5c-1,0-2,0-3,0c-0.5,0-1,0-1.5,0C63,2.5,63,2,63,1.5z"/>
	</g>
	<g id="Layer_119">
		<path class="st1" d="M67.5,3c0-0.5,0-1,0-1.5c0.5,0,1,0,1.5,0c0,0.5,0,1,0,1.5C68.5,3,68,3,67.5,3z"/>
	</g>
	<g id="Layer_118">
		<path class="st1" d="M63,1.5c0,0.5,0,1,0,1.5c-0.5,0-1,0-1.5,0c0-0.5,0-1,0-1.5C62,1.5,62.5,1.5,63,1.5z"/>
	</g>
	<g id="Layer_117">
		<path class="st2" d="M9,3c0.5,0,0.9,0,1.4,0c0,0,0,0,0.1,0.1c0,0,0,0,0,0.1c0,5.5,0,10.9,0,16.4c-1,0-2,0-3,0c0-0.5,0-1,0-1.5
			c0.5,0,0.9,0,1.4,0c0,0,0,0,0.1-0.1c0,0,0,0,0-0.1C9,12.9,9,8,9,3z"/>
	</g>
	<g id="Layer_116">
		<path class="st1" d="M13.5,19.5c0-0.5,0-0.9,0-1.5c-0.5-0.1-1,0-1.5,0c0-1,0-2,0-3c0.5,0,1,0,1.5,0c0,0.5,0,1,0,1.5
			c0.5,0,1,0,1.5,0c0,1,0,2,0,3C14.5,19.5,14,19.5,13.5,19.5z"/>
	</g>
	<g id="Layer_115">
		<path class="st2" d="M25.5,3c0,5.5,0,11,0,16.5c-1,0-2,0-3,0c0-0.5,0-1,0-1.5c0.5,0,0.9,0,1.4,0C24,17.3,24.1,8.5,24,6
			c-0.5,0-1,0-1.5,0c0-0.5,0-1,0-1.5c0.5,0,1,0,1.5,0c0-0.5,0-1,0-1.5C24.5,3,25,3,25.5,3z"/>
	</g>
	<g id="Layer_114">
		<path class="st1" d="M28.5,19.5c0-0.5,0-0.9,0-1.5c-0.5-0.1-1,0-1.5,0c0-1,0-2,0-3c0.5,0,1,0,1.5,0c0,0.5,0,1,0,1.5
			c0.5,0,1,0,1.5,0c0,1,0,2,0,3C29.5,19.5,29,19.5,28.5,19.5z"/>
	</g>
	<g id="Layer_113">
		<path class="st0" d="M87,7.5c0,0.5,0,1,0,1.5s0,1,0,1.5s0,1,0,1.5s0,1,0,1.5s0,1,0,1.5c0,1,0,2,0,3c0.5,0.1,1,0,1.5,0
			c0,0.5,0,1,0,1.5c-1,0-2,0-3,0c0-6,0-12,0-18c1,0,2,0,3,0c0,0.5,0,1,0,1.5c-0.5,0-1,0-1.5,0C87,4.5,87,6,87,7.5z"/>
	</g>
	<g id="Layer_112">
		<path class="st2" d="M85.5,1.5c0,6,0,12,0,18c-1,0-2,0-3,0c0-0.5,0-1,0-1.5c0.5,0,0.9,0,1.4,0C84,17.3,84.1,5.6,84,3
			c-0.5,0-1,0-1.5,0c0-0.5,0-1,0-1.5C83.5,1.5,84.5,1.5,85.5,1.5z"/>
	</g>
	<g id="Layer_111">
		<path class="st1" d="M88.5,3c0-0.5,0-1,0-1.5c0.5,0,1,0,1.5,0c0,0.5,0,1,0,1.5C89.5,3,89,3,88.5,3z"/>
	</g>
	<g id="Layer_110">
		<path class="st1" d="M51,19.5c0-0.5,0-0.9,0-1.5c-0.5-0.1-1,0-1.5,0c0-1,0-2,0-3c0.5,0,1,0,1.5,0c0,0.5,0,1,0,1.5c0.5,0,1,0,1.5,0
			c0,1,0,2,0,3C52,19.5,51.5,19.5,51,19.5z"/>
	</g>
	<g id="Layer_109">
		<path class="st2" d="M58.5,4.5c0.5,0,1,0,1.5,0c0-0.5,0-1,0-1.5c0.5,0,1,0,1.5,0c0,5.5,0,11,0,16.5c-1,0-2,0-3,0c0-0.5,0-1,0-1.5
			c0.5,0,0.9,0,1.4,0C60,17.3,60.1,8.5,60,6c-0.5,0-1,0-1.5,0C58.5,5.5,58.5,5,58.5,4.5z"/>
	</g>
	<g id="Layer_108">
		<path class="st0" d="M61.5,19.5c0-5.5,0-11,0-16.5c0.5,0,1,0,1.5,0c0,1.5,0,3,0,4.5c0,0.5,0,1,0,1.5s0,1,0,1.5s0,1,0,1.5
			s0,1,0,1.5s0,1,0,1.5c0,1,0,2,0,3c0.5,0,1,0,1.5,0c0,0.5,0,1,0,1.5C63.5,19.5,62.5,19.5,61.5,19.5z"/>
	</g>
	<g id="Layer_107">
		<path class="st1" d="M64.5,19.5c0-0.5,0-1,0-1.5c0.5,0,1,0,1.5,0c0,0.5,0,1,0,1.5C65.5,19.5,65,19.5,64.5,19.5z"/>
	</g>
	<g id="Layer_106">
		<path class="st1" d="M133.5,3c0-0.5,0-1,0-1.5c0.5,0,1,0,1.5,0c0,0.5,0,1,0,1.5C134.5,3,134,3,133.5,3z"/>
	</g>
	<g id="Layer_105">
		<path class="st1" d="M88.5,19.5c0-0.5,0-1.5,0-1.5L87,18c0,0,0-2,0-3c0.5,0,1,0,1.5,0c0,0.5,0,1,0,1.5c0.5,0,1,0,1.5,0
			c0,1,0,2,0,3C89.5,19.5,89,19.5,88.5,19.5z"/>
	</g>
	<g id="Layer_104">
		<path class="st2" d="M102,3c0.5,0,0.9,0,1.4,0c0,0,0,0,0.1,0.1c0,0,0,0,0,0.1c0,5.5,0,10.9,0,16.4c-1,0-2,0-3,0c0-0.5,0-1,0-1.5
			c0.5,0,1.4,0,1.4,0h0.1l0-0.1C102,17.9,102,8,102,3z"/>
	</g>
	<g id="Layer_103">
		<path class="st1" d="M106.5,19.5c0-0.5,0-0.9,0-1.5c-0.5-0.1-1,0-1.5,0c0-1,0-2,0-3c0.5,0,1,0,1.5,0c0,0.5,0,1,0,1.5
			c0.5,0,1,0,1.5,0c0,1,0,2,0,3C107.5,19.5,107,19.5,106.5,19.5z"/>
	</g>
	<g id="Layer_102">
		<path d="M25.5,3c-0.5,0-1,0-1.5,0c0-0.5,0-1,0-1.5c0.5,0,1,0,1.5,0C25.5,2,25.5,2.5,25.5,3z"/>
	</g>
	<g id="Layer_101">
		<path d="M21,3c0-0.5,0-1,0-1.5c0.5,0,1,0,1.5,0c0,0.5,0,1,0,1.5C22,3,21.5,3,21,3z"/>
	</g>
	<g id="Layer_100">
		<path d="M24,3c0,0.5,0,1,0,1.5c-0.5,0-1,0-1.5,0c0-0.5,0-1,0-1.5C23,3,23.5,3,24,3z"/>
	</g>
	<g id="Layer_99">
		<path class="st1" d="M34.5,10.5c0.5,0,1,0,1.5,0c0,1,0,2,0,3c0.5,0,1,0,1.5,0c0,1,0,2,0,3c0.5,0,1,0,1.5,0c0,1,0,2,0,3
			c-0.5,0-1,0-1.5,0c0-0.5,0-1,0-1.5c-0.5,0-1,0-1.5,0c0-1,0-2,0-3c-0.5,0-1,0-1.5,0c0-1,0-2,0-3c-0.5,0-1,0-1.5,0c0-0.5,0-1,0-1.5
			C33.5,10.5,34,10.5,34.5,10.5z"/>
	</g>
	<g id="Layer_98">
		<path class="st0" d="M33,12c0.5,0,1,0,1.5,0c0,1,0,2,0,3c0.5,0,1,0,1.5,0c0,1,0,2,0,3c0.5,0,1,0,1.5,0c0,0.5,0,1,0,1.5
			c-1,0-2,0-3,0c0-1,0-2,0-3c-0.5,0-1,0-1.5,0c0-0.5,0-1,0-1.5s0-1,0-1.5S33,12.5,33,12z"/>
	</g>
	<g id="Layer_97">
		<path class="st2" d="M33,16.5c0.5,0,1,0,1.5,0c0,1,0,2,0,3c-0.5,0-1,0-1.5,0C33,18.5,33,17.5,33,16.5z"/>
	</g>
	<g id="Layer_96">
		<path class="st0" d="M70.5,16.5c0,0.5,0,1,0,1.5c0.5,0,1,0,1.5,0c0,0.5,0,1,0,1.5c-1,0-2,0-3,0c0-1.5,0-3,0-4.5c0.5,0,1,0,1.5,0
			C70.5,15.5,70.5,16,70.5,16.5z"/>
	</g>
	<g id="Layer_95">
		<path class="st1" d="M72,19.5c0-0.5,0-1,0-1.5c0.5,0,1,0,1.5,0c0,0.5,0,1,0,1.5C73,19.5,72.5,19.5,72,19.5z"/>
	</g>
	<g id="Layer_94">
		<path class="st0" d="M120,7.5c0-0.5,0-1,0-1.5c0.5,0,1,0,1.5,0c0-0.5,0-1,0-1.5c0.5,0,0.9,0,1.5,0c0-0.2,0-0.5,0-0.7
			c0-0.2,0-0.5,0-0.8c-0.5,0-1,0-1.5,0c0-0.5,0-1,0-1.5c1,0,2,0,3,0c0,0.5,0,1,0,1.5s0,1,0,1.5s0,1,0,1.5c-0.5,0-1,0-1.5,0
			c0,0.5,0,1,0,1.5c-0.5,0-1,0-1.5,0c0,1,0,2,0,3c0.5,0,1,0,1.5,0c0,0.5,0,1,0,1.5c0.5,0,1,0,1.5,0c0,0.5,0,1,0,1.5c0.5,0,1,0,1.5,0
			c0.5,0,1,0,1.5,0c0,0.5,0,1,0,1.5c-1.5,0-3,0-4.5,0c0-0.5,0-1,0-1.5c-0.5,0-1,0-1.5,0c0-0.3,0-0.5,0-0.7c0-0.2,0-0.5,0-0.8
			c-0.5,0-1,0-1.5,0c0-0.5,0-1,0-1.5C120,9.5,120,8.5,120,7.5z"/>
	</g>
	<g id="Layer_93">
		<path class="st1" d="M124.5,3c0-0.5,0-1,0-1.5c0.5,0,1,0,1.5,0c0,0.5,0,1,0,1.5C125.5,3,125,3,124.5,3z"/>
	</g>
	<g id="Layer_92">
		<path d="M33,16.5c0,1,0,2,0,3c-1,0-2,0-3,0c0-1,0-2,0-3c0.5,0,1,0,1.5,0c0-0.5,0-1,0-1.5c0.5,0,1,0,1.5,0C33,15.5,33,16,33,16.5z"
			/>
	</g>
	<g id="Layer_91">
		<path d="M69,15c0,1.5,0,3,0,4.5c-1,0-2,0-3,0c0-0.5,0-1,0-1.5c0.5,0,1,0,1.5,0c0-1.5,0-2.9,0-4.4c0,0,0,0,0-0.1c0,0,0,0,0.1-0.1
			c0.5,0,0.9,0,1.4,0C69,14,69,14.5,69,15z"/>
	</g>
	<g id="Layer_90">
		<path d="M126,3c0-0.5,0-1,0-1.5c0.5,0,1,0,1.5,0c0,0.5,0,1,0,1.5C127,3,126.5,3,126,3z"/>
	</g>
	<g id="Layer_89">
		<path class="st2" d="M127.5,15c0-0.5,0-1,0-1.5c0.5,0,1,0,1.5,0c0-3.5,0-7,0-10.5c0.5,0,0.9,0,1.4,0c0.1,0.7,0.2,9.5,0.1,12
			c-0.5,0-1,0-1.5,0C128.5,15,128,15,127.5,15z"/>
	</g>
	<g id="Layer_88">
		<path class="st1" d="M126,18c-1,0-2,0-3,0c0-0.5,0-1,0-1.5c1,0,2,0,3,0C126,17,126,17.5,126,18z"/>
	</g>
	<g id="Layer_87">
		<path class="st0" d="M121.5,16.5c-0.5,0-1,0-1.5,0c0-0.5,0-1,0-1.5c0.5,0,1,0,1.5,0C121.5,15.5,121.5,16,121.5,16.5z"/>
	</g>
	<g id="Layer_86">
		<path class="st2" d="M108,3c1,0,2,0,3,0c0,0.5,0,1,0,1.5c-0.5,0-1,0-1.5,0s-1,0-1.5,0C108,4,108,3.5,108,3z"/>
	</g>
	<g id="Layer_85">
		<path class="st1" d="M109.5,4.5c0.5,0,1,0,1.5,0c0,0.5,0,1,0,1.5c-0.5,0-1,0-1.5,0C109.5,5.5,109.5,5,109.5,4.5z"/>
	</g>
	<g id="Layer_84">
		<path class="st2" d="M120,7.5c0,1,0,2,0,3c-0.5,0-1,0-1.5,0c0-1,0-2,0-3C119,7.5,119.5,7.5,120,7.5z"/>
	</g>
	<g id="Layer_83">
		<path class="st1" d="M105,13.5c0-0.5,0-1,0-1.5c0.5,0,1,0,1.5,0c0,0.5,0,1,0,1.5C106,13.5,105.5,13.5,105,13.5z"/>
	</g>
	<g id="Layer_82">
		<path class="st1" d="M105,10.5c0-0.5,0-1,0-1.5c0.5,0,1,0,1.5,0c0,0.5,0,1,0,1.5C106,10.5,105.5,10.5,105,10.5z"/>
	</g>
	<g id="Layer_81">
		<path class="st0" d="M108,7.5c0,0.5,0,1,0,1.5c-0.5,0-1,0-1.5,0c0-0.5,0-1,0-1.5C107,7.5,107.5,7.5,108,7.5z"/>
	</g>
	<g id="Layer_80">
		<path class="st0" d="M109.5,4.5c0,0.5,0,1,0,1.5s0,1,0,1.5c-0.5,0-1,0-1.5,0c0-1,0-2,0-3C108.5,4.5,109,4.5,109.5,4.5z"/>
	</g>
	<g id="Layer_79">
		<path class="st1" d="M73.5,12c0,1,0,2,0,3c-0.5,0-1,0-1.5,0c0-1,0-2,0-3C72.5,12,73,12,73.5,12z"/>
	</g>
	<g id="Layer_78">
		<path class="st1" d="M70.5,16.5c0-0.5,0-1,0-1.5c0.5,0,1,0,1.5,0c0,0.5,0,1,0,1.5C71.5,16.5,71,16.5,70.5,16.5z"/>
	</g>
	<g id="Layer_77">
		<path class="st0" d="M73.5,12c-0.5,0-1,0-1.5,0c0-1.5,0-3,0-4.5c-0.5,0-1,0-1.5,0c0-0.5,0-1,0-1.5c-0.5,0-1,0-1.5,0
			c0-0.5,0-1,0-1.5c-0.5,0-1,0-1.5,0c0-0.5,0-1,0-1.5c0.5,0,1,0,1.5,0s1,0,1.5,0c0,0.5,0,1,0,1.5c0.5,0,1,0,1.5,0c0,0.5,0,1,0,1.5
			c0.5,0,1,0,1.5,0c0,1,0,2,0,3S73.5,11,73.5,12z"/>
	</g>
	<g id="Layer_76">
		<path class="st1" d="M73.5,12c0-1,0-2,0-3c0.5,0,1,0,1.5,0c0,1,0,2,0,3C74.5,12,74,12,73.5,12z"/>
	</g>
	<g id="Layer_75">
		<path class="st1" d="M72,4.5c-0.5,0-1,0-1.5,0c0-0.5,0-1,0-1.5c0.5,0,1,0,1.5,0C72,3.5,72,4,72,4.5z"/>
	</g>
	<g id="Layer_74">
		<path class="st2" d="M96,3c1,0,2,0,3,0c0,1,0,2,0,3c-0.5,0-1,0-1.5,0c0-0.5,0-1,0-1.5c-0.5,0-1,0-1.5,0C96,4,96,3.5,96,3z"/>
	</g>
	<g id="Layer_73">
		<path class="st0" d="M97.5,6c0.5,0,1,0,1.5,0c0,0.5,0,1,0,1.5c-0.5,0-1,0-1.5,0C97.5,7,97.5,6.5,97.5,6z"/>
	</g>
	<g id="Layer_72">
		<path class="st1" d="M99,7.5c0-0.5,0-1,0-1.5c0.5,0,0.9,0,1.5,0c0,0.2,0,0.5,0,0.7c0,0.2,0,0.5,0,0.8C100,7.5,99.5,7.5,99,7.5z"/>
	</g>
	<g id="Layer_71">
		<path class="st1" d="M87,7.5c0-1.5,0-3,0-4.5c0.5,0,1,0,1.5,0c0,1.5,0,3,0,4.5C88,7.5,87.5,7.5,87,7.5z"/>
	</g>
	<g id="Layer_70">
		<path class="st1" d="M87,13.5c0-0.5,0-1,0-1.5c0.5,0,1,0,1.5,0c0,0.5,0,1,0,1.5C88,13.5,87.5,13.5,87,13.5z"/>
	</g>
	<g id="Layer_69">
		<path class="st1" d="M87,10.5c0-0.5,0-1,0-1.5c0.5,0,1,0,1.5,0c0,0.5,0,1,0,1.5C88,10.5,87.5,10.5,87,10.5z"/>
	</g>
	<g id="Layer_68">
		<path class="st2" d="M34.5,10.5c-0.5,0-1,0-1.5,0c0,0.5,0,1,0,1.5c-0.5,0-1,0-1.5,0c0-0.5,0-1,0-1.5s0-1,0-1.5c0-1,0-2,0-3
			c0.5,0,1,0,1.5,0c0,0.5,0,1,0,1.5c0.5,0,1,0,1.5,0c0,0.5,0,1,0,1.5C34.5,9.5,34.5,10,34.5,10.5z"/>
	</g>
	<g id="Layer_67">
		<path class="st1" d="M49.5,7.5c0-1.5,0-3,0-4.5c0.5,0,1,0,1.5,0c0,1.5,0,3,0,4.5C50.5,7.5,50,7.5,49.5,7.5z"/>
	</g>
	<g id="Layer_66">
		<path class="st1" d="M49.5,13.5c0-0.5,0-1,0-1.5c0.5,0,1,0,1.5,0c0,0.5,0,1,0,1.5C50.5,13.5,50,13.5,49.5,13.5z"/>
	</g>
	<g id="Layer_65">
		<path class="st1" d="M49.5,10.5c0-0.5,0-1,0-1.5c0.5,0,1,0,1.5,0c0,0.5,0,1,0,1.5C50.5,10.5,50,10.5,49.5,10.5z"/>
	</g>
	<g id="Layer_64">
		<path class="st2" d="M3,3c1,0,2,0,3,0c0,1,0,2,0,3C5.5,6,5,6,4.5,6c0-0.5,0-1,0-1.5c-0.5,0-1,0-1.5,0C3,4,3,3.5,3,3z"/>
	</g>
	<g id="Layer_63">
		<path class="st0" d="M4.5,6C5,6,5.5,6,6,6c0,0.5,0,1,0,1.5c-0.5,0-1,0-1.5,0C4.5,7,4.5,6.5,4.5,6z"/>
	</g>
	<g id="Layer_62">
		<path class="st1" d="M6,7.5C6,7,6,6.5,6,6c0.5,0,0.9,0,1.5,0c0,0.5,0,1,0,1.5C7,7.5,6.5,7.5,6,7.5z"/>
	</g>
	<g id="Layer_61">
		<path class="st2" d="M15,3c1,0,2,0,3,0c0,0.5,0,1,0,1.5c-0.5,0-1,0-1.5,0s-1,0-1.5,0C15,4,15,3.5,15,3z"/>
	</g>
	<g id="Layer_60">
		<path class="st1" d="M16.5,4.5c0.5,0,1,0,1.5,0c0,0.5,0,1,0,1.5c-0.5,0-1,0-1.5,0C16.5,5.5,16.5,5,16.5,4.5z"/>
	</g>
	<g id="Layer_59">
		<path class="st0" d="M22.5,3c0,0.5,0,1,0,1.5c-0.5,0-1,0-1.5,0c0-0.5,0-1,0-1.5C21.5,3,22,3,22.5,3z"/>
	</g>
	<g id="Layer_58">
		<path class="st1" d="M12,13.5c0-0.5,0-1,0-1.5c0.5,0,1,0,1.5,0c0,0.5,0,1,0,1.5C13,13.5,12.5,13.5,12,13.5z"/>
	</g>
	<g id="Layer_57">
		<path class="st0" d="M15,7.5c0,0.5,0,1,0,1.5c-0.5,0-1,0-1.5,0c0-0.5,0-1,0-1.5C14,7.5,14.5,7.5,15,7.5z"/>
	</g>
	<g id="Layer_56">
		<path class="st1" d="M12,10.5c0-0.5,0-1,0-1.5c0.5,0,1,0,1.5,0c0,0.5,0,1,0,1.5C13,10.5,12.5,10.5,12,10.5z"/>
	</g>
	<g id="Layer_55">
		<path class="st0" d="M16.5,4.5c0,0.5,0,1,0,1.5s0,1,0,1.5c-0.5,0-1,0-1.5,0c0-1,0-2,0-3C15.5,4.5,16,4.5,16.5,4.5z"/>
	</g>
	<g id="Layer_54">
		<path class="st1" d="M132,7.5c0-1.5,0-3,0-4.5c0.5,0,1,0,1.5,0c0,1.5,0,3,0,4.5C133,7.5,132.5,7.5,132,7.5z"/>
	</g>
	<g id="Layer_53">
		<path class="st1" d="M132,13.5c0-0.5,0-1,0-1.5c0.5,0,1,0,1.5,0c0,0.5,0,1,0,1.5C133,13.5,132.5,13.5,132,13.5z"/>
	</g>
	<g id="Layer_52">
		<path class="st1" d="M130.5,18c0-0.5,0-1,0-1.5c0.5,0,1,0,1.5,0c0,0.5,0,1,0,1.5C131.5,18,131,18,130.5,18z"/>
	</g>
	<g id="Layer_51">
		<path class="st1" d="M132,10.5c0-0.5,0-1,0-1.5c0.5,0,1,0,1.5,0c0,0.5,0,1,0,1.5C133,10.5,132.5,10.5,132,10.5z"/>
	</g>
	<g id="Layer_50">
		<path d="M15,4.5c0,1,0,2,0,3c-0.5,0-1,0-1.5,0c0-1.5,0-3,0-4.5c0.5,0,1,0,1.5,0C15,3.5,15,4,15,4.5z"/>
	</g>
	<g id="Layer_49">
		<path class="st1" d="M13.5,3c0,1.5,0,3,0,4.5c-0.5,0-1,0-1.5,0c0-1.5,0-3,0-4.5C12.5,3,13,3,13.5,3z"/>
	</g>
	<g id="Layer_48">
		<path d="M12,7.5c0.5,0,1,0,1.5,0c0,0.5,0,1,0,1.5c-0.5,0-1,0-1.5,0C12,8.5,12,8,12,7.5z"/>
	</g>
	<g id="Layer_47">
		<path d="M108,4.5c0,1,0,2,0,3c-0.5,0-1,0-1.5,0c0-1.5,0-3,0-4.5c0.5,0,1,0,1.5,0C108,3.5,108,4,108,4.5z"/>
	</g>
	<g id="Layer_46">
		<path class="st1" d="M106.5,3c0,1.5,0,3,0,4.5c-0.5,0-1,0-1.5,0c0-1.5,0-3,0-4.5C105.5,3,106,3,106.5,3z"/>
	</g>
	<g id="Layer_45">
		<path d="M105,7.5c0.5,0,1,0,1.5,0c0,0.5,0,1,0,1.5c-0.5,0-1,0-1.5,0C105,8.5,105,8,105,7.5z"/>
	</g>
	<g id="Layer_44">
		<path d="M129,3c0,3.5,0,7,0,10.5c-0.5,0-1,0-1.5,0c-0.5,0-1,0-1.5,0c0-0.5,0-1,0-1.5c0.5,0,1,0,1.5,0c0.1-2.1,0.1-5.4-0.1-6
			c-0.5,0-0.9,0-1.4,0c0-0.5,0-1,0-1.5c0.5,0,1,0,1.5,0c0-0.5,0-1,0-1.5C128,3,128.5,3,129,3z"/>
	</g>
	<g id="Layer_43">
		<path d="M31.5,6c0,1,0,2,0,3c-1.5,0-3,0-4.5,0c0-0.5,0-1,0-1.5c0.5,0,1,0,1.5,0c0-1.5,0-3,0-4.5c0.5,0,1,0,1.5,0c0,0.5,0,1,0,1.5
			c0.5,0,1,0,1.5,0C31.5,5,31.5,5.5,31.5,6z"/>
	</g>
	<g id="Layer_42">
		<path class="st1" d="M27,9c1.5,0,3,0,4.5,0c0,0.5,0,1,0,1.5c-1,0-2,0-3,0c-0.5,0-1,0-1.5,0C27,10,27,9.5,27,9z"/>
	</g>
	<g id="Layer_41">
		<path class="st1" d="M28.5,3c0,1.5,0,3,0,4.5c-0.5,0-1,0-1.5,0c0-1.5,0-3,0-4.5C27.5,3,28,3,28.5,3z"/>
	</g>
	<g id="Layer_40">
		<path class="st1" d="M27,13.5c0-0.5,0-1,0-1.5c0.5,0,1,0,1.5,0c0,0.5,0,1,0,1.5C28,13.5,27.5,13.5,27,13.5z"/>
	</g>
	<g id="Layer_39">
		<path d="M27,13.5c0.5,0,1,0,1.5,0c0,0.5,0,1,0,1.5c-0.5,0-1,0-1.5,0C27,14.5,27,14,27,13.5z"/>
	</g>
	<g id="Layer_38">
		<path d="M28.5,12c-0.5,0-1,0-1.5,0c0-0.5,0-1,0-1.5c0.5,0,1,0,1.5,0C28.5,11,28.5,11.5,28.5,12z"/>
	</g>
	<g id="Layer_37">
		<path d="M67.5,3c0,0.5,0,1,0,1.5c-0.5,0-1,0-1.5,0c0,1,0,1.9,0,2.9c0,0,0,0,0,0.1c0,0,0,0-0.1,0.1c-0.5,0-0.9,0-1.4,0
			c0-1.5,0-3,0-4.5C65.5,3,66.5,3,67.5,3z"/>
	</g>
	<g id="Layer_36">
		<path class="st1" d="M64.5,3c0,1.5,0,3,0,4.5c-0.5,0-1,0-1.5,0c0-1.5,0-3,0-4.5C63.5,3,64,3,64.5,3z"/>
	</g>
	<g id="Layer_35">
		<path d="M30,16.5c-0.5,0-1,0-1.5,0c0-0.5,0-1,0-1.5c0.5,0,1,0,1.5,0C30,15.5,30,16,30,16.5z"/>
	</g>
	<g id="Layer_34">
		<path class="st1" d="M64.5,18c-0.5,0-1,0-1.5,0c0-1,0-2,0-3c0.5,0,1,0,1.5,0C64.5,16,64.5,17,64.5,18z"/>
	</g>
	<g id="Layer_33">
		<path class="st1" d="M63,13.5c0-0.5,0-1,0-1.5c0.5,0,1,0,1.5,0c0,0.5,0,1,0,1.5C64,13.5,63.5,13.5,63,13.5z"/>
	</g>
	<g id="Layer_32">
		<path d="M63,13.5c0.5,0,1,0,1.5,0c0,0.5,0,1,0,1.5c-0.5,0-1,0-1.5,0C63,14.5,63,14,63,13.5z"/>
	</g>
	<g id="Layer_31">
		<path class="st1" d="M63,10.5c0-0.5,0-1,0-1.5c0.5,0,1,0,1.5,0c0,0.5,0,1,0,1.5C64,10.5,63.5,10.5,63,10.5z"/>
	</g>
	<g id="Layer_30">
		<path d="M63,10.5c0.5,0,1,0,1.5,0c0,0.5,0,1,0,1.5c-0.5,0-1,0-1.5,0C63,11.5,63,11,63,10.5z"/>
	</g>
	<g id="Layer_29">
		<path d="M64.5,9c-0.5,0-1,0-1.5,0c0-0.5,0-1,0-1.5c0.5,0,1,0,1.5,0C64.5,8,64.5,8.5,64.5,9z"/>
	</g>
	<g id="Layer_28">
		<path d="M64.5,18c0-1,0-2,0-3c0.5,0,1,0,1.5,0c0,1,0,2,0,3C65.5,18,65,18,64.5,18z"/>
	</g>
	<g id="Layer_27">
		<path d="M28.5,13.5c0-0.5,0-1,0-1.5c1,0,2,0,3,0c0.5,0,1,0,1.5,0c0,0.5,0,1,0,1.5c-0.5,0-1,0-1.5,0c0,0.5,0,1,0,1.5
			c-0.5,0-1,0-1.5,0c0-0.5,0-1,0-1.5C29.5,13.5,29,13.5,28.5,13.5z"/>
	</g>
	<g id="Layer_26">
		<path class="st2" d="M31.5,15c0-0.5,0-1,0-1.5c0.5,0,1,0,1.5,0c0,0.5,0,1,0,1.5C32.5,15,32,15,31.5,15z"/>
	</g>
	<g id="Layer_25">
		<path class="st2" d="M69,15c0-0.5,0-1,0-1.5c0.5,0,1,0,1.5,0c0,0.5,0,1,0,1.5C70,15,69.5,15,69,15z"/>
	</g>
	<g id="Layer_24">
		<path class="st1" d="M123,10.5c-0.5,0-0.9,0-1.5,0c-0.1-1,0-2,0-3c0.5,0,1,0,1.5,0C123,8.5,123,9.5,123,10.5z"/>
	</g>
	<g id="Layer_23">
		<path class="st1" d="M126,12c0,0.5,0,1,0,1.5c-0.5,0-1,0-1.5,0c0-0.5,0-1,0-1.5C125,12,125.5,12,126,12z"/>
	</g>
	<g id="Layer_22">
		<path d="M124.5,3c0.5,0,1,0,1.5,0c0,0.5,0,1,0,1.5c-0.5,0-1,0-1.5,0C124.5,4,124.5,3.5,124.5,3z"/>
	</g>
	<g id="Layer_21">
		<path class="st1" d="M124.5,4.5c0.5,0,1,0,1.5,0c0,0.5,0,1,0,1.5c-0.5,0-1,0-1.5,0C124.5,5.5,124.5,5,124.5,4.5z"/>
	</g>
	<g id="Layer_20">
		<path class="st1" d="M124.5,12c-0.5,0-1,0-1.5,0c0-0.5,0-1,0-1.5c0.5,0,1,0,1.5,0C124.5,11,124.5,11.5,124.5,12z"/>
	</g>
	<g id="Layer_19">
		<path class="st1" d="M123,7.5c0-0.5,0-1,0-1.5c0.5,0,1,0,1.5,0c0,0.5,0,1,0,1.5C124,7.5,123.5,7.5,123,7.5z"/>
	</g>
	<g id="Layer_18">
		<path class="st0" d="M30,15c0.5,0,1,0,1.5,0c0,0.5,0,1,0,1.5c-0.5,0-1,0-1.5,0C30,16,30,15.5,30,15z"/>
	</g>
	<g id="Layer_17">
	</g>
	<g id="Layer_16">
		<path class="st0" d="M126,4.5c0-0.5,0-1,0-1.5c0.5,0,1,0,1.5,0c0,0.5,0,1,0,1.5C127,4.5,126.5,4.5,126,4.5z"/>
	</g>
	<g id="Layer_15">
		<path class="st0" d="M70.5,15c0-0.5,0-1,0-1.5s0-1,0-1.5c0.5,0,1,0,1.5,0c0,1,0,2,0,3C71.5,15,71,15,70.5,15z"/>
	</g>
	<g id="Layer_14">
		<path class="st2" d="M72,12c-0.5,0-1,0-1.5,0c0-1.5,0-3,0-4.5c0.5,0,1,0,1.5,0C72,9,72,10.5,72,12z"/>
	</g>
	<g id="Layer_13">
		<path d="M69,7.5c-0.5,0-1,0-1.5,0c0-1,0-2,0-3c0.5,0,1,0,1.5,0c0,0.5,0,1,0,1.5C69,6.5,69,7,69,7.5z"/>
	</g>
	<g id="Layer_12">
		<path class="st2" d="M69,7.5c0-0.5,0-1,0-1.5c0.5,0,1,0,1.5,0c0,0.5,0,1,0,1.5C70,7.5,69.5,7.5,69,7.5z"/>
	</g>
	<g id="Layer_11">
		<path class="st0" d="M31.5,12c-1,0-2,0-3,0c0-0.5,0-1,0-1.5c1,0,2,0,3,0C31.5,11,31.5,11.5,31.5,12z"/>
	</g>
	<g id="Layer_10">
	</g>
	<g id="Layer_9">
		<path class="st0" d="M28.5,13.5c0.5,0,1,0,1.5,0c0,0.5,0,1,0,1.5c-0.5,0-1,0-1.5,0C28.5,14.5,28.5,14,28.5,13.5z"/>
	</g>
	<g id="Layer_8">
		<path d="M64.5,12c0.5,0,0.9,0,1.5,0c0,0.2,0,0.5,0,0.7c0,0.2,0,0.5,0,0.8c-0.5,0-1,0-1.5,0C64.5,13,64.5,12.5,64.5,12z"/>
	</g>
	<g id="Layer_7">
		<path d="M64.5,9C65,9,65.4,9,66,9c0,0.2,0,0.5,0,0.7c0,0.2,0,0.5,0,0.8c-0.5,0-1,0-1.5,0C64.5,10,64.5,9.5,64.5,9z"/>
	</g>
	<g id="Layer_6">
		<path d="M69,7.5c0.5,0,1,0,1.5,0c0,1.5,0,3,0,4.5c0,0.5,0,1,0,1.5c-0.5,0-1,0-1.5,0C69,11.5,69,9.5,69,7.5z"/>
	</g>
	<g id="Layer_5">
		<path d="M124.5,7.5c0,1,0,2,0,3c-0.5,0-1,0-1.5,0c0-1,0-2,0-3C123.5,7.5,124,7.5,124.5,7.5z"/>
	</g>
	<g id="Layer_4">
		<path d="M124.5,10.5c0.5,0,1,0,1.5,0c0,0.5,0,1,0,1.5c-0.5,0-1,0-1.5,0C124.5,11.5,124.5,11,124.5,10.5z"/>
	</g>
	<g id="Layer_3">
		<path d="M126,6c0,0.5,0,1,0,1.5c-0.5,0-1,0-1.5,0c0-0.5,0-1,0-1.5C125,6,125.5,6,126,6z"/>
	</g>
</g>
</svg>
