<?xml version="1.0" encoding="utf-8"?>
<!-- Generator: Adobe Illustrator 19.0.0, SVG Export Plug-In . SVG Version: 6.00 Build 0)  -->
<svg version="1.1" id="Layer_1" xmlns="http://www.w3.org/2000/svg" xmlns:xlink="http://www.w3.org/1999/xlink" x="0px" y="0px"
	 viewBox="0 0 910 140" style="enable-background:new 0 0 910 140;" xml:space="preserve">
<style type="text/css">
	.st0{fill:#FEFEFE;}
	.st1{fill:#FE5555;}
	.st2{fill:#A9A9A9;}
</style>
<g id="Layer_2">
	<g id="Layer_255">
	</g>
	<g id="Layer_254">
	</g>
	<g id="Layer_253">
	</g>
	<g id="Layer_252">
	</g>
	<g id="Layer_251">
	</g>
	<g id="Layer_250">
	</g>
	<g id="Layer_249">
	</g>
	<g id="Layer_248">
	</g>
	<g id="Layer_247">
		<path d="M10,0c43.3,0,86.7,0,130,0c0,3.3,0,6.7,0,10c-3.3,0-6.7,0-10,0c-40,0-80,0-120,0C10,6.7,10,3.3,10,0z"/>
	</g>
	<g id="Layer_246">
		<path d="M630,10c0-3.3,0-6.7,0-10c43.3,0,86.7,0,130,0c0,3.3,0,6.7,0,10c-3.3,0-6.7,0-10,0C710,10,670,10,630,10z"/>
	</g>
	<g id="Layer_245">
		<path d="M870,130c0,3.3,0,6.7,0,10c-23.3,0-46.7,0-70,0c0-3.3,0-6.7,0-10c3.3,0,6.7,0,10,0c16.7,0,33.3,0,50,0
			C863.3,130,866.7,130,870,130z"/>
	</g>
	<g id="Layer_244">
		<path d="M230,0c0,3.3,0,6.7,0,10c-6.7,0-13.3,0-20,0c-13.3,0-26.7,0-40,0c0-3.3,0-6.7,0-10C190,0,210,0,230,0z"/>
	</g>
	<g id="Layer_243">
		<path d="M350,0c0,3.3,0,6.7,0,10c-3.3,0-6.7,0-10,0c-6.7,0-13.3,0-20,0s-13.3,0-20,0c0-3.3,0-6.7,0-10C316.7,0,333.3,0,350,0z"/>
	</g>
	<g id="Layer_242">
		<path d="M410,10c0-3.3,0-6.7,0-10c16.7,0,33.3,0,50,0c0,3.3,0,6.7,0,10c-3.3,0-6.7,0-10,0c-10,0-20,0-30,0
			C416.7,10,413.3,10,410,10z"/>
	</g>
	<g id="Layer_241">
		<path d="M100,130c0,3.3,0,6.7,0,10c-16.7,0-33.3,0-50,0c0-3.3,0-6.7,0-10c6.7,0,13.3,0,20,0s13.3,0,20,0
			C93.3,130,96.7,130,100,130z"/>
	</g>
	<g id="Layer_240">
		<path d="M150,140c0-3.3,0-6.7,0-10c6.7,0,13.3,0,20,0s13.3,0,20,0c3.3,0,6.7,0,10,0c0,3.3,0,6.7,0,10C183.3,140,166.7,140,150,140
			z"/>
	</g>
	<g id="Layer_239">
		<path d="M600,0c0,3.3,0,6.7,0,10c-3.3,0-6.7,0-10,0c-6.7,0-13.3,0-20,0s-13.3,0-20,0c0-3.3,0-6.7,0-10C566.7,0,583.3,0,600,0z"/>
	</g>
	<g id="Layer_238">
		<path d="M350,130c0,3.3,0,6.7,0,10c-16.7,0-33.3,0-50,0c0-3.3,0-6.7,0-10c6.7,0,13.3,0,20,0s13.3,0,20,0
			C343.3,130,346.7,130,350,130z"/>
	</g>
	<g id="Layer_237">
		<path d="M390,140c0-3.3,0-6.7,0-10c6.7,0,13.3,0,20,0s13.3,0,20,0c3.3,0,6.7,0,10,0c0,3.3,0,6.7,0,10C423.3,140,406.7,140,390,140
			z"/>
	</g>
	<g id="Layer_236">
		<path d="M850,0c16.7,0,33.3,0,50,0c0,3.3,0,6.7,0,10c-3.3,0-6.7,0-10,0c-13.3,0-26.7,0-40,0C850,6.7,850,3.3,850,0z"/>
	</g>
	<g id="Layer_235">
		<path d="M600,130c0,3.3,0,6.7,0,10c-16.7,0-33.3,0-50,0c0-3.3,0-6.7,0-10c6.7,0,13.3,0,20,0s13.3,0,20,0
			C593.3,130,596.7,130,600,130z"/>
	</g>
	<g id="Layer_234">
		<path d="M670,140c0-3.3,0-6.7,0-10c6.7,0,13.3,0,20,0s13.3,0,20,0c3.3,0,6.7,0,10,0c0,3.3,0,6.7,0,10C703.3,140,686.7,140,670,140
			z"/>
	</g>
	<g id="Layer_233">
	</g>
	<g id="Layer_232">
		<path d="M260,130c0,3.3,0,6.7,0,10c-13.3,0-26.7,0-40,0c0-3.3,0-6.7,0-10c3.3,0,6.7,0,10,0c6.7,0,13.3,0,20,0
			C253.3,130,256.7,130,260,130z"/>
	</g>
	<g id="Layer_231">
		<path d="M490,130c0,3.3,0,6.7,0,10c-10,0-20,0-30,0c0-3.3,0-6.7,0-10c6.7,0,13.3,0,20,0C483.3,130,486.7,130,490,130z"/>
	</g>
	<g id="Layer_230">
		<path d="M810,10c0-3.3,0-6.7,0-10c10,0,20,0,30,0c0,3.3,0,6.7,0,10c-3.3,0-6.7,0-10,0C823.3,10,816.7,10,810,10z"/>
	</g>
	<g id="Layer_229">
	</g>
	<g id="Layer_228">
	</g>
	<g id="Layer_227">
	</g>
	<g id="Layer_226">
		<path d="M0,10c3.3,0,6.7,0,10,0c0,3.3,0,6.7,0,10c-3.3,0-6.7,0-10,0C0,16.7,0,13.3,0,10z"/>
	</g>
	<g id="Layer_225">
	</g>
	<g id="Layer_224">
	</g>
	<g id="Layer_223">
		<path d="M900,10c3.3,0,6.7,0,10,0c0,3.3,0,6.7,0,10c-3.3,0-6.7,0-10,0C900,16.7,900,13.3,900,10z"/>
	</g>
	<g id="Layer_222">
		<path d="M800,100c0-6.7,0-13.3,0-20c3.3,0,6.6,0,10,0c0,2,0,3.6,0,5.3c0,1.6,0.1,3.2,0.2,4.9c3.5,0,6.6,0,9.9,0c0,3.3,0,6.4,0,9.8
			c10.1,0,20,0,30,0c3.3,0,6.7,0,10,0c0,3.3,0,6.5,0,10.1c-3.5,0-6.7,0-10.1,0c0,3.4,0,6.5,0,9.9c-3.4,0-6.7,0-9.9,0
			c0-3.3,0-6.5,0-10c-6.9,0-13.4,0-20,0c-3.3,0-6.7,0-10,0c0-3.3,0-6.5,0-10C806.5,100,803.3,100,800,100z"/>
	</g>
	<g id="Layer_221">
		<path d="M800,130c-3.2,0-6.3,0-9.5,0c-0.1-0.1-0.3-0.2-0.4-0.3c-0.1-0.1-0.2-0.3-0.2-0.4c0-9.6,0-19.3,0-29.2c3.4,0,6.7,0,10,0
			c0,3.3,0,6.7,0,10C800,116.7,800,123.3,800,130z"/>
	</g>
	<g id="Layer_220">
		<path d="M760,20c0,3.3,0,6.5,0,9.9c-3.4,0-6.5,0-9.9,0c0,3.3,0,6.6,0,10.1c-3.6,0-6.8,0-10.1,0c0-3.3,0-6.7,0-10s0-6.7,0-10
			c3.3,0,6.7,0,10,0S756.7,20,760,20z"/>
	</g>
	<g id="Layer_219">
		<path d="M790,70c-3.2,0-6.3,0-9.8,0c-0.4-6.5-0.1-13.1-0.2-20c3.5,0,6.8,0,10,0C790,56.7,790,63.3,790,70z"/>
	</g>
	<g id="Layer_218">
		<path d="M720,110c3.2,0,6.3,0,9.8,0c0.4,6.5,0.1,13.1,0.2,20c-3.5,0-6.8,0-10,0C720,123.3,720,116.7,720,110z"/>
	</g>
	<g id="Layer_217">
		<path d="M710,80c3.2,0,6.3,0,9.8,0c0.1,1.6,0.1,3.2,0.2,4.8c0,1.6,0,3.3,0,5.2c-3.4,0-6.7,0-10,0C710,86.7,710,83.3,710,80z"/>
	</g>
	<g id="Layer_216">
		<path d="M710,100c3.3,0,6.5,0,10,0c0,3.5,0,6.7,0,10c-3.3,0-6.5,0-10,0C710,106.5,710,103.3,710,100z"/>
	</g>
	<g id="Layer_215">
		<path d="M710,90c0,3.3,0,6.7,0,10c-3.3,0-6.7,0-10,0c0-3.3,0-6.7,0-10C703.3,90,706.7,90,710,90z"/>
	</g>
	<g id="Layer_214">
		<path d="M810,30c0-3.3,0-6.7,0-10c3.3,0,6.6,0,10,0c0,2,0,3.6,0,5.2c0,1.6-0.1,3.2-0.2,4.8C816.3,30,813.2,30,810,30z"/>
	</g>
	<g id="Layer_213">
		<path d="M800,40c0-3.3,0-6.5,0-10c3.5,0,6.7,0,10,0c0,3.3,0,6.5,0,10C806.5,40,803.3,40,800,40z"/>
	</g>
	<g id="Layer_212">
		<path d="M760,10c3.2,0,6.3,0,9.8,0c0.1,1.6,0.1,3.2,0.2,4.8c0,1.6,0,3.3,0,5.2c-3.4,0-6.7,0-10,0C760,16.7,760,13.3,760,10z"/>
	</g>
	<g id="Layer_211">
		<path d="M810,20c-3.2,0-6.3,0-9.8,0c-0.1-1.6-0.1-3.2-0.2-4.8c0-1.6,0-3.3,0-5.2c3.4,0,6.7,0,10,0C810,13.3,810,16.7,810,20z"/>
	</g>
	<g id="Layer_210">
		<path d="M720,60c0,3.3,0,6.5,0,10c-3.5,0-6.7,0-10,0c0-3.3,0-6.7,0-10C713.3,60,716.7,60,720,60z"/>
	</g>
	<g id="Layer_209">
		<path d="M710,70c0,3.3,0,6.7,0,10c-3.3,0-6.7,0-10,0c0-3.3,0-6.7,0-10C703.3,70,706.7,70,710,70z"/>
	</g>
	<g id="Layer_208">
		<path d="M800,80c-3.3,0-6.5,0-10,0c0-3.5,0-6.7,0-10c3.3,0,6.7,0,10,0C800,73.3,800,76.7,800,80z"/>
	</g>
	<g id="Layer_207">
		<path d="M740,40c0,3.3,0,6.5,0,10c-3.5,0-6.7,0-10,0c0-3.3,0-6.7,0-10C733.3,40,736.7,40,740,40z"/>
	</g>
	<g id="Layer_206">
		<path d="M790,50c0-3.3,0-6.5,0-10c3.5,0,6.7,0,10,0c0,3.3,0,6.7,0,10C796.7,50,793.3,50,790,50z"/>
	</g>
	<g id="Layer_205">
		<path d="M730,50c0,3.3,0,6.5,0,10c-3.5,0-6.7,0-10,0c0-3.3,0-6.7,0-10C723.3,50,726.7,50,730,50z"/>
	</g>
	<g id="Layer_204">
		<path d="M550,120c0-33.3,0-66.7,0-100c3.3,0,6.6,0,9.8,0c0.7,17.6,0.4,95.6-0.3,100C556.3,120,553.2,120,550,120z"/>
	</g>
	<g id="Layer_203">
		<path d="M490,100c0,6.7,0,13.3,0,20c-3.3,0-6.7,0-10,0c-3.3,0-6.5,0-10,0c0-3.5,0-6.7,0-10c3.3,0,6.5,0,10,0c0-3.5,0-6.7,0-10
			C483.3,100,486.7,100,490,100z"/>
	</g>
	<g id="Layer_202">
		<path d="M490,40c3.3,0,6.5,0,10,0c0,6.9,0,13.4,0,20c-3.3,0-6.7,0-10,0C490,53.3,490,46.7,490,40z"/>
	</g>
	<g id="Layer_201">
		<path d="M500,60c3.2,0,6.3,0,9.8,0c0.4,6.5,0.1,13.1,0.2,20c-3.5,0-6.8,0-10,0C500,73.3,500,66.7,500,60z"/>
	</g>
	<g id="Layer_200">
		<path d="M460,10c6.6,0,13.1,0,20,0c0,3.5,0,6.7,0,10c-3.3,0-6.7,0-10,0s-6.7,0-10,0C460,16.7,460,13.3,460,10z"/>
	</g>
	<g id="Layer_199">
		<path d="M480,20c3.3,0,6.5,0,10,0c0,6.9,0,13.4,0,20c-3.3,0-6.5,0-10,0c0-3.5,0-6.7,0-10C480,26.7,480,23.3,480,20z"/>
	</g>
	<g id="Layer_198">
		<path d="M500,80c0,6.6,0,13.1,0,20c-3.5,0-6.7,0-10,0c0-6.7,0-13.3,0-20C493.3,80,496.7,80,500,80z"/>
	</g>
	<g id="Layer_197">
		<path d="M550,130c-3.2,0-6.3,0-9.8,0c-0.1-1.6-0.1-3.2-0.2-4.8c0-1.6,0-3.3,0-5.2c3.4,0,6.7,0,10,0C550,123.3,550,126.7,550,130z"
			/>
	</g>
	<g id="Layer_196">
		<path d="M490,120c3.2,0,6.3,0,9.8,0c0.1,1.6,0.1,3.2,0.2,4.8c0,1.6,0,3.3,0,5.2c-3.4,0-6.7,0-10,0C490,126.7,490,123.3,490,120z"
			/>
	</g>
	<g id="Layer_195">
		<path d="M550,20c-3.2,0-6.3,0-9.8,0c-0.1-1.6-0.1-3.2-0.2-4.8c0-1.6,0-3.3,0-5.2c3.4,0,6.7,0,10,0C550,13.3,550,16.7,550,20z"/>
	</g>
	<g id="Layer_194">
		<path d="M670,120c0-19.9,0-39.9,0-60c-6.8,0-13.2,0-20,0c0-3.4,0-6.7,0-10c3.3,0,6.7,0,10,0c3.3,0,10,0,10,0l0-5.2l-0.2-4.8
			c0,0-6.7,0-9.8,0c0-6.7,0-13.3,0-20c6.7,0,13.3,0,20,0c0,33.1,0,99.2,0,99.2l0,0.8h-0.5C679.5,120,673.2,120,670,120z"/>
	</g>
	<g id="Layer_193">
		<path d="M600,20c0,9.9,0,19.8,0,30c-3.5,0-6.7,0-10,0c0-10,0-20,0-30C593.3,20,596.7,20,600,20z"/>
	</g>
	<g id="Layer_192">
		<path d="M650,50c-3.3,0-6.5,0-10,0c0-6.9,0-13.4,0-20c3.3,0,6.5,0,10,0c0,3.5,0,6.7,0,10C650,43.3,650,46.7,650,50z"/>
	</g>
	<g id="Layer_191">
		<path d="M600,110c3.2,0,9.8,0,9.8,0l0.2,20c0,0-6.8,0-10,0C600,123.3,600,116.7,600,110z"/>
	</g>
	<g id="Layer_190">
		<path d="M590,80c3.2,0,6.3,0,9.8,0c0.1,1.6,0.1,3.2,0.2,4.8c0,1.6,0,3.3,0,5.2c-3.4,0-6.7,0-10,0C590,86.7,590,83.3,590,80z"/>
	</g>
	<g id="Layer_189">
		<path d="M670,130c-3.2,0-9.8,0-9.8,0s-0.1-3.2-0.2-4.8c0-1.6,0-5.2,0-5.2s6.7,0,10,0C670,123.3,670,126.7,670,130z"/>
	</g>
	<g id="Layer_188">
		<path d="M590,100c3.3,0,6.5,0,10,0c0,3.5,0,6.7,0,10c-3.3,0-6.5,0-10,0C590,106.5,590,103.3,590,100z"/>
	</g>
	<g id="Layer_187">
		<path d="M590,90c0,3.3,0,6.7,0,10c-3.3,0-6.7,0-10,0c0-3.3,0-6.7,0-10C583.3,90,586.7,90,590,90z"/>
	</g>
	<g id="Layer_186">
		<path d="M640,30c-3.3,0-6.5,0-10,0c0-3.5,0-6.7,0-10c3.3,0,6.7,0,10,0C640,23.3,640,26.7,640,30z"/>
	</g>
	<g id="Layer_185">
		<path d="M600,10c3.2,0,6.3,0,9.8,0c0.1,1.6,0.1,3.2,0.2,4.8c0,1.6,0,3.3,0,5.2c-3.4,0-6.7,0-10,0C600,16.7,600,13.3,600,10z"/>
	</g>
	<g id="Layer_184">
		<path d="M630,20c-3.2,0-6.3,0-9.8,0c-0.1-1.6-0.1-3.2-0.2-4.8c0-1.6,0-3.3,0-5.2c3.4,0,6.7,0,10,0C630,13.3,630,16.7,630,20z"/>
	</g>
	<g id="Layer_183">
		<path d="M590,60c3.2,0,6.3,0,9.8,0c0.1,1.6,0.1,3.2,0.2,4.8c0,1.6,0,3.3,0,5.2c-3.4,0-6.7,0-10,0C590,66.7,590,63.3,590,60z"/>
	</g>
	<g id="Layer_182">
		<path d="M590,70c0,3.3,0,6.7,0,10c-3.3,0-6.7,0-10,0c0-3.3,0-6.7,0-10C583.3,70,586.7,70,590,70z"/>
	</g>
	<g id="Layer_181">
		<path d="M590,50c0,3.3,0,6.7,0,10c-3.3,0-6.7,0-10,0c0-3.3,0-6.7,0-10C583.3,50,586.7,50,590,50z"/>
	</g>
	<g id="Layer_180">
		<path d="M300,120c0-33.3,0-66.7,0-100c3.3,0,6.6,0,9.8,0c0.7,17.7,0.4,95.6-0.3,100C306.3,120,303.2,120,300,120z"/>
	</g>
	<g id="Layer_179">
		<path d="M250,90c3.3,0,6.5,0,10,0c0,6.9,0,13.4,0,20c-3.3,0-6.5,0-10,0C250,103.1,250,96.6,250,90z"/>
	</g>
	<g id="Layer_178">
		<path d="M240,70c3.3,0,6.5,0,10,0c0,6.9,0,13.4,0,20c-3.3,0-6.5,0-10,0C240,83.1,240,76.6,240,70z"/>
	</g>
	<g id="Layer_177">
		<path d="M250,30c3.2,0,6.3,0,9.8,0c0.4,6.5,0.1,13.1,0.2,20c-3.5,0-6.8,0-10,0C250,43.3,250,36.7,250,30z"/>
	</g>
	<g id="Layer_176">
		<path d="M260,110c3.2,0,6.3,0,9.8,0c0.4,6.5,0.1,13.1,0.2,20c-3.5,0-6.8,0-10,0C260,123.3,260,116.7,260,110z"/>
	</g>
	<g id="Layer_175">
		<path d="M300,130c-3.2,0-6.3,0-9.8,0c-0.1-1.6-0.1-3.2-0.2-4.8c0-1.6,0-3.3,0-5.2c3.4,0,6.7,0,10,0C300,123.3,300,126.7,300,130z"
			/>
	</g>
	<g id="Layer_174">
		<path d="M300,20c-3.2,0-6.3,0-9.8,0c-0.1-1.6-0.1-3.2-0.2-4.8c0-1.6,0-3.3,0-5.2c3.4,0,6.7,0,10,0C300,13.3,300,16.7,300,20z"/>
	</g>
	<g id="Layer_173">
		<path d="M230,10c3.3,0,6.5,0,10,0c0,3.5,0,6.7,0,10c-3.3,0-6.5,0-10,0C230,16.5,230,13.3,230,10z"/>
	</g>
	<g id="Layer_172">
		<path d="M240,20c3.3,0,6.5,0,10,0c0,3.5,0,6.7,0,10c-3.3,0-6.5,0-10,0C240,26.5,240,23.3,240,20z"/>
	</g>
	<g id="Layer_171">
		<path d="M240,60c0,3.3,0,6.7,0,10c-3.3,0-6.7,0-10,0c0-3.3,0-6.7,0-10C233.3,60,236.7,60,240,60z"/>
	</g>
	<g id="Layer_170">
		<path d="M250,50c0,3.3,0,6.5,0,10c-3.5,0-6.7,0-10,0c0-3.3,0-6.7,0-10C243.3,50,246.7,50,250,50z"/>
	</g>
	<g id="Layer_169">
		<path d="M390,120c0-26.7,0-53.3,0-80c3.3,0,6.6,0,9.8,0c0.7,16.9,0.4,75.6-0.3,80C396.3,120,393.2,120,390,120z"/>
	</g>
	<g id="Layer_168">
		<path d="M350,20c0,9.9,0,19.8,0,30c-3.5,0-6.7,0-10,0c0-10,0-20,0-30C343.3,20,346.7,20,350,20z"/>
	</g>
	<g id="Layer_167">
		<path d="M350,110c3.2,0,6.3,0,9.8,0c0.4,6.5,0.1,13.1,0.2,20c-3.5,0-6.8,0-10,0C350,123.3,350,116.7,350,110z"/>
	</g>
	<g id="Layer_166">
		<path d="M340,80c3.2,0,6.3,0,9.8,0c0.1,1.6,0.1,3.2,0.2,4.8c0,1.6,0,3.3,0,5.2c-3.4,0-6.7,0-10,0C340,86.7,340,83.3,340,80z"/>
	</g>
	<g id="Layer_165">
		<path d="M390,130c-3.2,0-6.3,0-9.8,0c-0.1-1.6-0.1-3.2-0.2-4.8c0-1.6,0-3.3,0-5.2c3.4,0,6.7,0,10,0C390,123.3,390,126.7,390,130z"
			/>
	</g>
	<g id="Layer_164">
		<path d="M340,100c3.3,0,6.5,0,10,0c0,3.5,0,6.7,0,10c-3.3,0-6.5,0-10,0C340,106.5,340,103.3,340,100z"/>
	</g>
	<g id="Layer_163">
		<path d="M340,90c0,3.3,0,6.7,0,10c-3.3,0-6.7,0-10,0c0-3.3,0-6.7,0-10C333.3,90,336.7,90,340,90z"/>
	</g>
	<g id="Layer_162">
		<path d="M390,40c-3.2,0-6.3,0-9.8,0c-0.1-1.6-0.1-3.2-0.2-4.8c0-1.6,0-3.3,0-5.2c3.4,0,6.7,0,10,0C390,33.3,390,36.7,390,40z"/>
	</g>
	<g id="Layer_161">
		<path d="M400,20c0-3.3,0-6.5,0-10c3.5,0,6.7,0,10,0c0,3.3,0,6.7,0,10C406.7,20,403.3,20,400,20z"/>
	</g>
	<g id="Layer_160">
		<path d="M350,10c3.2,0,6.3,0,9.8,0c0.1,1.6,0.1,3.2,0.2,4.8c0,1.6,0,3.3,0,5.2c-3.4,0-6.7,0-10,0C350,16.7,350,13.3,350,10z"/>
	</g>
	<g id="Layer_159">
		<path d="M390,30c0-3.3,0-6.5,0-10c3.5,0,6.7,0,10,0c0,3.3,0,6.5,0,10C396.5,30,393.3,30,390,30z"/>
	</g>
	<g id="Layer_158">
		<path d="M340,60c3.2,0,6.3,0,9.8,0c0.1,1.6,0.1,3.2,0.2,4.8c0,1.6,0,3.3,0,5.2c-3.4,0-6.7,0-10,0C340,66.7,340,63.3,340,60z"/>
	</g>
	<g id="Layer_157">
		<path d="M340,70c0,3.3,0,6.7,0,10c-3.3,0-6.7,0-10,0c0-3.3,0-6.7,0-10C333.3,70,336.7,70,340,70z"/>
	</g>
	<g id="Layer_156">
		<path d="M340,50c0,3.3,0,6.7,0,10c-3.3,0-6.7,0-10,0c0-3.3,0-6.7,0-10C333.3,50,336.7,50,340,50z"/>
	</g>
	<g id="Layer_155">
		<path d="M50,120c0-19.9,0-39.9,0-60c-6.8,0-13.2,0-20,0c0-3.4,0-6.7,0-10c3.3,0,6.7,0,10,0c3.3,0,6.6,0,10,0
			c-0.1-3.6,0.1-6.8-0.1-10c-3.6,0-6.8,0-9.9,0c0-6.7,0-13.3,0-20c6.7,0,13.3,0,20,0c0,33.1,0,66.2,0,99.2c0,0.1-0.1,0.3-0.2,0.4
			c-0.1,0.1-0.2,0.2-0.4,0.3C56.3,120,53.2,120,50,120z"/>
	</g>
	<g id="Layer_154">
		<path d="M30,50c-3.3,0-6.5,0-10,0c0-6.9,0-13.4,0-20c3.3,0,6.5,0,10,0c0,3.5,0,6.7,0,10C30,43.3,30,46.7,30,50z"/>
	</g>
	<g id="Layer_153">
		<path d="M50,130c-3.2,0-6.3,0-9.8,0c-0.1-1.6-0.1-3.2-0.2-4.8c0-1.6,0-3.3,0-5.2c3.4,0,6.7,0,10,0C50,123.3,50,126.7,50,130z"/>
	</g>
	<g id="Layer_152">
		<path d="M20,30c-3.3,0-6.5,0-10,0c0-3.5,0-6.7,0-10c3.3,0,6.7,0,10,0C20,23.3,20,26.7,20,30z"/>
	</g>
	<g id="Layer_151">
		<path d="M150,120c0-26.7,0-53.3,0-80c3.3,0,6.6,0,9.8,0c0.7,16.9,0.4,75.6-0.3,80C156.3,120,153.2,120,150,120z"/>
	</g>
	<g id="Layer_150">
		<path d="M140,30c-3.2,0-6.3,0-9.8,0c-0.1,1.6-0.1,3.2-0.2,4.8c0,1.6,0,3.3,0,5.2c-3.4,0-6.7,0-10,0c0-3.3,0-6.7,0-10s0-6.7,0-10
			c3.3,0,6.7,0,10,0c3.3,0,6.7,0,10,0C140,23.3,140,26.7,140,30z"/>
	</g>
	<g id="Layer_149">
		<path d="M100,110c3.2,0,6.3,0,9.8,0c0.4,6.5,0.1,13.1,0.2,20c-3.5,0-6.8,0-10,0C100,123.3,100,116.7,100,110z"/>
	</g>
	<g id="Layer_148">
		<path d="M90,90c0,3.3,0,6.7,0,10c-3.3,0-6.7,0-10,0c0-3.3,0-6.7,0-10C83.3,90,86.7,90,90,90z"/>
	</g>
	<g id="Layer_147">
		<path d="M90,80c3.2,0,6.3,0,9.8,0c0.1,1.6,0.1,3.2,0.2,4.8c0,1.6,0,3.3,0,5.2c-3.4,0-6.7,0-10,0C90,86.7,90,83.3,90,80z"/>
	</g>
	<g id="Layer_146">
		<path d="M150,130c-3.2,0-6.3,0-9.8,0c-0.1-1.6-0.1-3.2-0.2-4.8c0-1.6,0-3.3,0-5.2c3.4,0,6.7,0,10,0C150,123.3,150,126.7,150,130z"
			/>
	</g>
	<g id="Layer_145">
		<path d="M90,100c3.3,0,6.5,0,10,0c0,3.5,0,6.7,0,10c-3.3,0-6.5,0-10,0C90,106.5,90,103.3,90,100z"/>
	</g>
	<g id="Layer_144">
		<path d="M150,40c-3.3,0-6.5,0-10,0c0-3.5,0-6.7,0-10c3.3,0,6.7,0,10,0C150,33.3,150,36.7,150,40z"/>
	</g>
	<g id="Layer_143">
		<path d="M100,60c0,3.3,0,6.5,0,10c-3.5,0-6.7,0-10,0c0-3.3,0-6.7,0-10C93.3,60,96.7,60,100,60z"/>
	</g>
	<g id="Layer_142">
		<path d="M90,70c0,3.3,0,6.7,0,10c-3.3,0-6.7,0-10,0c0-3.3,0-6.7,0-10C83.3,70,86.7,70,90,70z"/>
	</g>
	<g id="Layer_141">
		<path d="M120,40c0,3.3,0,6.5,0,10c-3.5,0-6.7,0-10,0c0-3.3,0-6.7,0-10C113.3,40,116.7,40,120,40z"/>
	</g>
	<g id="Layer_140">
		<path d="M110,50c0,3.3,0,6.5,0,10c-3.5,0-6.7,0-10,0c0-3.3,0-6.7,0-10C103.3,50,106.7,50,110,50z"/>
	</g>
	<g id="Layer_139">
		<path d="M900,20c0,9.9,0,19.8,0,30c-3.5,0-6.7,0-10,0c0-10,0-20,0-30C893.3,20,896.7,20,900,20z"/>
	</g>
	<g id="Layer_138">
		<path d="M890,90c0,9.9,0,19.8,0,30c-3.5,0-6.7,0-10,0c0-3.3,0-6.7,0-10c0-6.7,0-13.3,0-20C883.3,90,886.7,90,890,90z"/>
	</g>
	<g id="Layer_137">
		<path d="M890,70c0,3.3,0,6.7,0,10c-3.3,0-6.7,0-10,0c0-3.3,0-6.7,0-10C883.3,70,886.7,70,890,70z"/>
	</g>
	<g id="Layer_136">
		<path d="M890,80c3.2,0,6.3,0,9.8,0c0.1,1.6,0.1,3.2,0.2,4.8c0,1.6,0,3.3,0,5.2c-3.4,0-6.7,0-10,0C890,86.7,890,83.3,890,80z"/>
	</g>
	<g id="Layer_135">
		<path d="M880,120c0,3.3,0,6.5,0,10c-3.5,0-6.7,0-10,0c0-3.3,0-6.7,0-10C873.3,120,876.7,120,880,120z"/>
	</g>
	<g id="Layer_134">
		<path d="M890,60c3.2,0,6.3,0,9.8,0c0.1,1.6,0.1,3.2,0.2,4.8c0,1.6,0,3.3,0,5.2c-3.4,0-6.7,0-10,0C890,66.7,890,63.3,890,60z"/>
	</g>
	<g id="Layer_133">
		<path d="M890,50c0,3.3,0,6.7,0,10c-3.3,0-6.7,0-10,0c0-3.3,0-6.7,0-10C883.3,50,886.7,50,890,50z"/>
	</g>
	<g id="Layer_132">
		<path class="st0" d="M80,70c0,3.3,0,6.7,0,10s0,6.7,0,10s0,6.7,0,10c0,6.6,0,13.2,0,19.9c3.5,0.3,6.8-0.2,10,0.3
			c0,3.5,0,6.6,0,9.8c-6.7,0-13.3,0-20,0c0-36.4,0-72.8,0-109.2c0-0.1-0.1-0.3-0.2-0.4c-0.1-0.1-0.2-0.2-0.4-0.3c-3.2,0-6.3,0-9.5,0
			c-6.7,0-13.3,0-20,0s-13.3,0-20,0c-3.3,0-6.7,0-10,0c0-3.3,0-6.7,0-10c40,0,80,0,120,0c0,3.3,0,6.7,0,10c-3.3,0-6.7,0-10,0
			c-6.7,0-13.3,0-20,0c-3.3,0-6.7,0-10,0c-3.3,0-6.5,0-10,0c0,10.2,0,20.1,0,30c0,3.3,0,6.7,0,10C80,63.3,80,66.7,80,70z"/>
	</g>
	<g id="Layer_131">
		<path class="st1" d="M130,20c0-3.3,0-6.7,0-10c3.3,0,6.7,0,10,0c0,3.3,0,6.7,0,10C136.7,20,133.3,20,130,20z"/>
	</g>
	<g id="Layer_130">
		<path class="st0" d="M630,20c0-3.3,0-6.7,0-10c40,0,80,0,120,0c0,3.3,0,6.7,0,10c-3.3,0-6.7,0-10,0c-6.7,0-13.3,0-20,0
			c-3.3,0-6.7,0-10,0c-3.3,0-6.5,0-10,0c0,10.2,0,20.1,0,30c0,3.3,0,6.7,0,10c0,3.3,0,6.7,0,10s0,6.7,0,10s0,6.7,0,10s0,6.7,0,10
			c0,6.6,0,13.2,0,19.9c3.5,0.3,6.8-0.2,10,0.3c0,3.5,0,6.6,0,9.8c-6.7,0-13.3,0-20,0c0-36.4,0-72.8,0-109.2c0-0.1-0.1-0.3-0.2-0.4
			c-0.1-0.1-0.2-0.2-0.4-0.3c-3.2,0-6.3,0-9.5,0c-6.7,0-13.3,0-20,0s-13.3,0-20,0C636.7,20,633.3,20,630,20z"/>
	</g>
	<g id="Layer_129">
		<path class="st1" d="M750,20c0-3.3,0-6.7,0-10c3.3,0,6.7,0,10,0c0,3.3,0,6.7,0,10C756.7,20,753.3,20,750,20z"/>
	</g>
	<g id="Layer_128">
		<path class="st0" d="M880,50c0,3.3,0,6.7,0,10c0,3.3,0,6.7,0,10s0,6.7,0,10s0,6.7,0,10c0,6.7,0,13.3,0,20c-3.3,0-6.5,0-10,0
			c0,3.5,0,6.7,0,10c-3.3,0-6.5,0-10,0c0,3.5,0,6.7,0,10c-16.7,0-33.3,0-50,0c0-6.7,0-13.3,0-20c3.3,0,6.7,0,10,0c0,3.3,0,6.5,0,10
			c6.9,0,13.4,0,20,0c3.3,0,6.5,0,9.9,0c0-3.4,0-6.5,0-9.9c3.3,0,6.6,0,10.1,0c0-3.6,0-6.8,0-10.1c3.3,0,6.6,0,9.8,0
			c0.7-16.9,0.4-75.6-0.3-80c-3.2,0-6.3,0-9.5,0c-3.3,0-6.7,0-10,0c0-3.3,0-6.7,0-10c13.3,0,26.7,0,40,0c0,3.3,0,6.7,0,10
			c-3.3,0-6.5,0-10,0C880,30.2,880,40.1,880,50z"/>
	</g>
	<g id="Layer_127">
		<path class="st2" d="M810,110c0,6.7,0,13.3,0,20c-3.3,0-6.7,0-10,0c0-6.7,0-13.3,0-20C803.3,110,806.7,110,810,110z"/>
	</g>
	<g id="Layer_126">
		<path class="st1" d="M860,130c0-3.3,0-6.5,0-10c3.5,0,6.7,0,10,0c0,3.3,0,6.7,0,10C866.7,130,863.3,130,860,130z"/>
	</g>
	<g id="Layer_125">
		<path class="st0" d="M240,50c0,3.3,0,6.7,0,10c-3.3,0-6.7,0-10,0c0-3.3,0-6.5,0-10.1c-3.5,0-6.7,0-10.1,0c0-3.4,0-6.5,0-9.9
			c-3.4,0-6.7,0-9.9,0c0-3.3,0-6.5,0-10.1c-3.5,0-6.7,0-10.1,0c0-3.4,0-6.5,0-9.9c-3.4,0-6.7,0-9.9,0c-3.3,0-6.5,0-10,0
			c0,10.2,0,20.1,0,30c0,3.3,0,6.7,0,10c0,3.3,0,6.7,0,10s0,6.7,0,10s0,6.7,0,10s0,6.7,0,10c0,6.6,0,13.2,0,19.9
			c3.5,0.3,6.8-0.2,10,0.3c0,3.5,0,6.6,0,9.8c-6.7,0-13.3,0-20,0c0-36.7,0-73.3,0-110c0-3.3,0-6.7,0-10c13.3,0,26.7,0,40,0
			c0,3.3,0,6.6,0,9.9c3.5,0.3,6.8-0.1,10.2,0.3c0,3.4,0,6.5,0,9.7c3.4,0.3,6.7-0.2,10,0.4c0,3.4,0,6.5,0,9.7
			c3.4,0.2,6.6-0.2,9.8,0.2C240,43.7,240,46.8,240,50z"/>
	</g>
	<g id="Layer_124">
		<path class="st1" d="M240,50c0-3.2,0-6.3,0-9.8c-3.2-0.4-6.4,0-9.8-0.2c0-3.2,0-6.3,0-9.7c-3.4-0.5-6.6,0-10-0.4
			c0-3.1,0-6.3,0-9.7c-3.4-0.5-6.6,0-10.2-0.3c0-3.3,0-6.6,0-9.9c6.7,0,13.3,0,20,0c0,3.3,0,6.5,0,10c3.5,0,6.7,0,10,0
			c0,3.3,0,6.5,0,10c3.5,0,6.7,0,10,0c0,6.7,0,13.3,0,20C246.7,50,243.3,50,240,50z"/>
	</g>
	<g id="Layer_123">
		<path class="st0" d="M330,50c0,3.3,0,6.7,0,10c0,3.3,0,6.7,0,10s0,6.7,0,10s0,6.7,0,10s0,6.7,0,10c0,6.6,0,13.2,0,19.9
			c3.5,0.3,6.8-0.2,10,0.3c0,3.5,0,6.6,0,9.8c-6.7,0-13.3,0-20,0c0-40,0-80,0-120c6.7,0,13.3,0,20,0c0,3.3,0,6.7,0,10
			c-3.3,0-6.5,0-10,0C330,30.2,330,40.1,330,50z"/>
	</g>
	<g id="Layer_122">
		<path class="st2" d="M320,10c0,40,0,80,0,120c-6.7,0-13.3,0-20,0c0-3.3,0-6.7,0-10c3.2,0,6.3,0,9.5,0c0.8-4.4,1-82.3,0.3-100
			c-3.3,0-6.5,0-9.8,0c0-3.3,0-6.7,0-10C306.7,10,313.3,10,320,10z"/>
	</g>
	<g id="Layer_121">
		<path class="st1" d="M340,20c0-3.3,0-6.7,0-10c3.3,0,6.7,0,10,0c0,3.3,0,6.7,0,10C346.7,20,343.3,20,340,20z"/>
	</g>
	<g id="Layer_120">
		<path class="st0" d="M420,10c10,0,20,0,30,0c0,3.3,0,6.7,0,10c-6.7,0-13.3,0-20,0c-3.3,0-6.7,0-10,0C420,16.7,420,13.3,420,10z"/>
	</g>
	<g id="Layer_119">
		<path class="st1" d="M450,20c0-3.3,0-6.7,0-10c3.3,0,6.7,0,10,0c0,3.3,0,6.7,0,10C456.7,20,453.3,20,450,20z"/>
	</g>
	<g id="Layer_118">
		<path class="st1" d="M420,10c0,3.3,0,6.7,0,10c-3.3,0-6.7,0-10,0c0-3.3,0-6.7,0-10C413.3,10,416.7,10,420,10z"/>
	</g>
	<g id="Layer_117">
		<path class="st2" d="M60,20c3.2,0,6.3,0,9.5,0c0.1,0.1,0.3,0.2,0.4,0.3c0.1,0.1,0.2,0.3,0.2,0.4c0,36.4,0,72.8,0,109.2
			c-6.7,0-13.3,0-20,0c0-3.3,0-6.7,0-10c3.2,0,6.3,0,9.5,0c0.1-0.1,0.3-0.2,0.4-0.3c0.1-0.1,0.2-0.3,0.2-0.4C60,86.2,60,53.1,60,20z
			"/>
	</g>
	<g id="Layer_116">
		<path class="st1" d="M90,130c0-3.2,0-6.3,0-9.8c-3.2-0.5-6.5,0-10-0.3c0-6.7,0-13.3,0-19.9c3.3,0,6.7,0,10,0c0,3.3,0,6.5,0,10
			c3.5,0,6.7,0,10,0c0,6.7,0,13.3,0,20C96.7,130,93.3,130,90,130z"/>
	</g>
	<g id="Layer_115">
		<path class="st2" d="M170,20c0,36.7,0,73.3,0,110c-6.7,0-13.3,0-20,0c0-3.3,0-6.7,0-10c3.2,0,6.3,0,9.5,0c0.8-4.4,1-63.1,0.3-80
			c-3.3,0-6.5,0-9.8,0c0-3.3,0-6.7,0-10c3.3,0,6.5,0,10,0c0-3.5,0-6.7,0-10C163.3,20,166.7,20,170,20z"/>
	</g>
	<g id="Layer_114">
		<path class="st1" d="M190,130c0-3.2,0-6.3,0-9.8c-3.2-0.5-6.5,0-10-0.3c0-6.7,0-13.3,0-19.9c3.3,0,6.7,0,10,0c0,3.3,0,6.5,0,10
			c3.5,0,6.7,0,10,0c0,6.7,0,13.3,0,20C196.7,130,193.3,130,190,130z"/>
	</g>
	<g id="Layer_113">
		<path class="st0" d="M580,50c0,3.3,0,6.7,0,10c0,3.3,0,6.7,0,10s0,6.7,0,10s0,6.7,0,10s0,6.7,0,10c0,6.6,0,13.2,0,19.9
			c3.5,0.3,6.8-0.2,10,0.3c0,3.5,0,6.6,0,9.8c-6.7,0-13.3,0-20,0c0-40,0-80,0-120c6.7,0,13.3,0,20,0c0,3.3,0,6.7,0,10
			c-3.3,0-6.5,0-10,0C580,30.2,580,40.1,580,50z"/>
	</g>
	<g id="Layer_112">
		<path class="st2" d="M570,10c0,40,0,80,0,120c-6.7,0-13.3,0-20,0c0-3.3,0-6.7,0-10c3.2,0,6.3,0,9.5,0c0.8-4.4,1-82.4,0.3-100
			c-3.3,0-6.5,0-9.8,0c0-3.3,0-6.7,0-10C556.7,10,563.3,10,570,10z"/>
	</g>
	<g id="Layer_111">
		<path class="st1" d="M590,20c0-3.3,0-6.7,0-10c3.3,0,6.7,0,10,0c0,3.3,0,6.7,0,10C596.7,20,593.3,20,590,20z"/>
	</g>
	<g id="Layer_110">
		<path class="st1" d="M340,130c0-3.2,0-6.3,0-9.8c-3.2-0.5-6.5,0-10-0.3c0-6.7,0-13.3,0-19.9c3.3,0,6.7,0,10,0c0,3.3,0,6.5,0,10
			c3.5,0,6.7,0,10,0c0,6.7,0,13.3,0,20C346.7,130,343.3,130,340,130z"/>
	</g>
	<g id="Layer_109">
		<path class="st2" d="M390,30c3.3,0,6.5,0,10,0c0-3.5,0-6.7,0-10c3.3,0,6.7,0,10,0c0,36.7,0,73.3,0,110c-6.7,0-13.3,0-20,0
			c0-3.3,0-6.7,0-10c3.2,0,6.3,0,9.5,0c0.8-4.4,1-63.1,0.3-80c-3.3,0-6.5,0-9.8,0C390,36.7,390,33.3,390,30z"/>
	</g>
	<g id="Layer_108">
		<path class="st0" d="M410,130c0-36.7,0-73.3,0-110c3.3,0,6.7,0,10,0c0,10,0,20,0,30c0,3.3,0,6.7,0,10c0,3.3,0,6.7,0,10s0,6.7,0,10
			s0,6.7,0,10s0,6.7,0,10c0,6.6,0,13.1,0,20c3.5,0,6.7,0,10,0c0,3.3,0,6.7,0,10C423.3,130,416.7,130,410,130z"/>
	</g>
	<g id="Layer_107">
		<path class="st1" d="M430,130c0-3.3,0-6.7,0-10c3.3,0,6.7,0,10,0c0,3.3,0,6.7,0,10C436.7,130,433.3,130,430,130z"/>
	</g>
	<g id="Layer_106">
		<path class="st1" d="M890,20c0-3.3,0-6.7,0-10c3.3,0,6.7,0,10,0c0,3.3,0,6.7,0,10C896.7,20,893.3,20,890,20z"/>
	</g>
	<g id="Layer_105">
		<path class="st1" d="M590,130c0-3.2,0-9.8,0-9.8l-10-0.3c0,0,0-13.3,0-19.9c3.3,0,6.7,0,10,0c0,3.3,0,6.5,0,10c3.5,0,6.7,0,10,0
			c0,6.7,0,13.3,0,20C596.7,130,593.3,130,590,130z"/>
	</g>
	<g id="Layer_104">
		<path class="st2" d="M680,20c3.2,0,6.3,0,9.5,0c0.1,0.1,0.3,0.2,0.4,0.3c0.1,0.1,0.2,0.3,0.2,0.4c0,36.4,0,72.8,0,109.2
			c-6.7,0-13.3,0-20,0c0-3.3,0-6.7,0-10c3.2,0,9.5,0,9.5,0h0.5l0-0.8C680,119.2,680,53.1,680,20z"/>
	</g>
	<g id="Layer_103">
		<path class="st1" d="M710,130c0-3.2,0-6.3,0-9.8c-3.2-0.5-6.5,0-10-0.3c0-6.7,0-13.3,0-19.9c3.3,0,6.7,0,10,0c0,3.3,0,6.5,0,10
			c3.5,0,6.7,0,10,0c0,6.7,0,13.3,0,20C716.7,130,713.3,130,710,130z"/>
	</g>
	<g id="Layer_102">
		<path d="M170,20c-3.3,0-6.7,0-10,0c0-3.3,0-6.5,0-10c3.5,0,6.7,0,10,0C170,13.3,170,16.7,170,20z"/>
	</g>
	<g id="Layer_101">
		<path d="M140,20c0-3.3,0-6.7,0-10c3.3,0,6.5,0,10,0c0,3.5,0,6.7,0,10C146.7,20,143.3,20,140,20z"/>
	</g>
	<g id="Layer_100">
		<path d="M160,20c0,3.3,0,6.5,0,10c-3.5,0-6.7,0-10,0c0-3.3,0-6.7,0-10C153.3,20,156.7,20,160,20z"/>
	</g>
	<g id="Layer_99">
		<path class="st1" d="M230,70c3.3,0,6.7,0,10,0c0,6.6,0,13.1,0,20c3.5,0,6.7,0,10,0c0,6.6,0,13.1,0,20c3.5,0,6.7,0,10,0
			c0,6.7,0,13.3,0,20c-3.3,0-6.7,0-10,0c0-3.3,0-6.5,0-10.1c-3.5,0-6.8,0-10.1,0c0-6.8,0-13.2,0-19.9c-3.4,0-6.6,0-9.9,0
			c0-6.8,0-13.2,0-19.9c-3.4,0-6.7,0-9.9,0c0-3.3,0-6.5,0-10C223.5,70,226.7,70,230,70z"/>
	</g>
	<g id="Layer_98">
		<path class="st0" d="M220,80c3.3,0,6.5,0,9.9,0c0,6.7,0,13.2,0,19.9c3.3,0,6.6,0,9.9,0c0,6.8,0,13.2,0,19.9c3.3,0,6.6,0,10.1,0
			c0,3.6,0,6.9,0,10.1c-6.7,0-13.3,0-20,0c0-6.6,0-13.1,0-20c-3.5,0-6.7,0-10,0c0-3.3,0-6.7,0-10s0-6.7,0-10S220,83.3,220,80z"/>
	</g>
	<g id="Layer_97">
		<path class="st2" d="M220,110c3.3,0,6.5,0,10,0c0,6.9,0,13.4,0,20c-3.3,0-6.7,0-10,0C220,123.3,220,116.7,220,110z"/>
	</g>
	<g id="Layer_96">
		<path class="st0" d="M470,110c0,3.3,0,6.5,0,10c3.5,0,6.7,0,10,0c0,3.3,0,6.7,0,10c-6.7,0-13.3,0-20,0c0-10,0-20,0-30
			c3.3,0,6.7,0,10,0C470,103.3,470,106.7,470,110z"/>
	</g>
	<g id="Layer_95">
		<path class="st1" d="M480,130c0-3.3,0-6.7,0-10c3.3,0,6.7,0,10,0c0,3.3,0,6.7,0,10C486.7,130,483.3,130,480,130z"/>
	</g>
	<g id="Layer_94">
		<path class="st0" d="M800,50c0-3.3,0-6.7,0-10c3.3,0,6.5,0,10,0c0-3.5,0-6.7,0-10c3.2,0,6.3,0,9.8,0c0.1-1.6,0.1-3.2,0.2-4.8
			c0-1.6,0-3.3,0-5.2c-3.4,0-6.7,0-10,0c0-3.3,0-6.7,0-10c6.7,0,13.3,0,20,0c0,3.3,0,6.7,0,10s0,6.7,0,10s0,6.7,0,10
			c-3.3,0-6.5,0-10,0c0,3.5,0,6.7,0,10c-3.3,0-6.6,0-10,0c0.2,6.9-0.2,13.5,0.2,20c3.5,0,6.7,0,9.8,0c0,3.3,0,6.5,0,10
			c3.5,0,6.7,0,10,0c0,3.3,0,6.5,0,10c3.5,0,6.7,0,10,0c3.3,0,6.7,0,10,0c0,3.3,0,6.7,0,10c-9.9,0-19.9,0-30,0c0-3.4,0-6.5,0-9.8
			c-3.3,0-6.4,0-9.9,0c-0.1-1.7-0.1-3.3-0.2-4.9c0-1.6,0-3.3,0-5.3c-3.4,0-6.7,0-10,0c0-3.3,0-6.7,0-10C800,63.3,800,56.7,800,50z"
			/>
	</g>
	<g id="Layer_93">
		<path class="st1" d="M830,20c0-3.3,0-6.7,0-10c3.3,0,6.7,0,10,0c0,3.3,0,6.7,0,10C836.7,20,833.3,20,830,20z"/>
	</g>
	<g id="Layer_92">
		<path d="M220,110c0,6.7,0,13.3,0,20c-6.7,0-13.3,0-20,0c0-6.7,0-13.3,0-20c3.3,0,6.5,0,10,0c0-3.5,0-6.7,0-10c3.3,0,6.7,0,10,0
			C220,103.3,220,106.7,220,110z"/>
	</g>
	<g id="Layer_91">
		<path d="M460,100c0,10,0,20,0,30c-6.7,0-13.3,0-20,0c0-3.3,0-6.7,0-10c3.3,0,6.6,0,10,0c0-10,0-19.6,0-29.2c0-0.1,0.1-0.3,0.2-0.4
			c0.1-0.1,0.2-0.2,0.4-0.3c3.2,0,6.3,0,9.5,0C460,93.3,460,96.7,460,100z"/>
	</g>
	<g id="Layer_90">
		<path d="M840,20c0-3.3,0-6.7,0-10c3.3,0,6.7,0,10,0c0,3.3,0,6.7,0,10C846.7,20,843.3,20,840,20z"/>
	</g>
	<g id="Layer_89">
		<path class="st2" d="M850,100c0-3.3,0-6.7,0-10c3.3,0,6.6,0,10,0c0-23.6,0-46.8,0-70c3.2,0,6.3,0,9.5,0c0.8,4.4,1,63.1,0.3,80
			c-3.3,0-6.5,0-9.8,0C856.7,100,853.3,100,850,100z"/>
	</g>
	<g id="Layer_88">
		<path class="st1" d="M840,120c-6.6,0-13.1,0-20,0c0-3.5,0-6.7,0-10c6.6,0,13.1,0,20,0C840,113.5,840,116.7,840,120z"/>
	</g>
	<g id="Layer_87">
		<path class="st0" d="M810,110c-3.3,0-6.7,0-10,0c0-3.3,0-6.7,0-10c3.3,0,6.5,0,10,0C810,103.5,810,106.7,810,110z"/>
	</g>
	<g id="Layer_86">
		<path class="st2" d="M720,20c6.7,0,13.3,0,20,0c0,3.3,0,6.7,0,10c-3.3,0-6.7,0-10,0s-6.7,0-10,0C720,26.7,720,23.3,720,20z"/>
	</g>
	<g id="Layer_85">
		<path class="st1" d="M730,30c3.3,0,6.7,0,10,0c0,3.3,0,6.7,0,10c-3.3,0-6.7,0-10,0C730,36.7,730,33.3,730,30z"/>
	</g>
	<g id="Layer_84">
		<path class="st2" d="M800,50c0,6.7,0,13.3,0,20c-3.3,0-6.7,0-10,0c0-6.7,0-13.3,0-20C793.3,50,796.7,50,800,50z"/>
	</g>
	<g id="Layer_83">
		<path class="st1" d="M700,90c0-3.3,0-6.7,0-10c3.3,0,6.7,0,10,0c0,3.3,0,6.7,0,10C706.7,90,703.3,90,700,90z"/>
	</g>
	<g id="Layer_82">
		<path class="st1" d="M700,70c0-3.3,0-6.7,0-10c3.3,0,6.7,0,10,0c0,3.3,0,6.7,0,10C706.7,70,703.3,70,700,70z"/>
	</g>
	<g id="Layer_81">
		<path class="st0" d="M720,50c0,3.3,0,6.7,0,10c-3.3,0-6.7,0-10,0c0-3.3,0-6.7,0-10C713.3,50,716.7,50,720,50z"/>
	</g>
	<g id="Layer_80">
		<path class="st0" d="M730,30c0,3.3,0,6.7,0,10s0,6.7,0,10c-3.3,0-6.7,0-10,0c0-6.7,0-13.3,0-20C723.3,30,726.7,30,730,30z"/>
	</g>
	<g id="Layer_79">
		<path class="st1" d="M490,80c0,6.7,0,13.3,0,20c-3.3,0-6.7,0-10,0c0-6.7,0-13.3,0-20C483.3,80,486.7,80,490,80z"/>
	</g>
	<g id="Layer_78">
		<path class="st1" d="M470,110c0-3.3,0-6.7,0-10c3.3,0,6.7,0,10,0c0,3.3,0,6.5,0,10C476.5,110,473.3,110,470,110z"/>
	</g>
	<g id="Layer_77">
		<path class="st0" d="M490,80c-3.3,0-6.7,0-10,0c0-9.9,0-19.8,0-30c-3.5,0-6.7,0-10,0c0-3.3,0-6.5,0-10c-3.5,0-6.7,0-10,0
			c0-3.3,0-6.5,0-10c-3.5,0-6.7,0-10,0c0-3.3,0-6.7,0-10c3.3,0,6.7,0,10,0s6.7,0,10,0c0,3.3,0,6.5,0,10c3.5,0,6.7,0,10,0
			c0,3.3,0,6.5,0,10c3.5,0,6.7,0,10,0c0,6.7,0,13.3,0,20S490,73.3,490,80z"/>
	</g>
	<g id="Layer_76">
		<path class="st1" d="M490,80c0-6.7,0-13.3,0-20c3.3,0,6.7,0,10,0c0,6.7,0,13.3,0,20C496.7,80,493.3,80,490,80z"/>
	</g>
	<g id="Layer_75">
		<path class="st1" d="M480,30c-3.3,0-6.5,0-10,0c0-3.5,0-6.7,0-10c3.3,0,6.7,0,10,0C480,23.3,480,26.7,480,30z"/>
	</g>
	<g id="Layer_74">
		<path class="st2" d="M640,20c6.7,0,13.3,0,20,0c0,6.7,0,13.3,0,20c-3.3,0-6.7,0-10,0c0-3.3,0-6.5,0-10c-3.5,0-6.7,0-10,0
			C640,26.7,640,23.3,640,20z"/>
	</g>
	<g id="Layer_73">
		<path class="st0" d="M650,40c3.3,0,6.7,0,10,0c0,3.3,0,6.7,0,10c-3.3,0-6.7,0-10,0C650,46.7,650,43.3,650,40z"/>
	</g>
	<g id="Layer_72">
		<path class="st1" d="M660,50c0-3.3,0-6.7,0-10c3.2,0,6.3,0,9.8,0c0.1,1.6,0.1,3.2,0.2,4.8c0,1.6,0,3.3,0,5.2
			C666.6,50,663.3,50,660,50z"/>
	</g>
	<g id="Layer_71">
		<path class="st1" d="M580,50c0-9.9,0-19.8,0-30c3.5,0,6.7,0,10,0c0,10,0,20,0,30C586.7,50,583.3,50,580,50z"/>
	</g>
	<g id="Layer_70">
		<path class="st1" d="M580,90c0-3.3,0-6.7,0-10c3.3,0,6.7,0,10,0c0,3.3,0,6.7,0,10C586.7,90,583.3,90,580,90z"/>
	</g>
	<g id="Layer_69">
		<path class="st1" d="M580,70c0-3.3,0-6.7,0-10c3.3,0,6.7,0,10,0c0,3.3,0,6.7,0,10C586.7,70,583.3,70,580,70z"/>
	</g>
	<g id="Layer_68">
		<path class="st2" d="M230,70c-3.3,0-6.5,0-10,0c0,3.5,0,6.7,0,10c-3.3,0-6.7,0-10,0c0-3.3,0-6.7,0-10s0-6.7,0-10
			c0-6.7,0-13.3,0-20c3.3,0,6.5,0,9.9,0c0,3.4,0,6.5,0,9.9c3.3,0,6.6,0,10.1,0c0,3.6,0,6.8,0,10.1C230,63.3,230,66.7,230,70z"/>
	</g>
	<g id="Layer_67">
		<path class="st1" d="M330,50c0-9.9,0-19.8,0-30c3.5,0,6.7,0,10,0c0,10,0,20,0,30C336.7,50,333.3,50,330,50z"/>
	</g>
	<g id="Layer_66">
		<path class="st1" d="M330,90c0-3.3,0-6.7,0-10c3.3,0,6.7,0,10,0c0,3.3,0,6.7,0,10C336.7,90,333.3,90,330,90z"/>
	</g>
	<g id="Layer_65">
		<path class="st1" d="M330,70c0-3.3,0-6.7,0-10c3.3,0,6.7,0,10,0c0,3.3,0,6.7,0,10C336.7,70,333.3,70,330,70z"/>
	</g>
	<g id="Layer_64">
		<path class="st2" d="M20,20c6.7,0,13.3,0,20,0c0,6.7,0,13.3,0,20c-3.3,0-6.7,0-10,0c0-3.3,0-6.5,0-10c-3.5,0-6.7,0-10,0
			C20,26.7,20,23.3,20,20z"/>
	</g>
	<g id="Layer_63">
		<path class="st0" d="M30,40c3.3,0,6.7,0,10,0c0,3.3,0,6.7,0,10c-3.3,0-6.7,0-10,0C30,46.7,30,43.3,30,40z"/>
	</g>
	<g id="Layer_62">
		<path class="st1" d="M40,50c0-3.3,0-6.7,0-10c3.2,0,6.3,0,9.9,0c0.1,3.2,0,6.4,0.1,10C46.6,50,43.3,50,40,50z"/>
	</g>
	<g id="Layer_61">
		<path class="st2" d="M100,20c6.7,0,13.3,0,20,0c0,3.3,0,6.7,0,10c-3.3,0-6.7,0-10,0s-6.7,0-10,0C100,26.7,100,23.3,100,20z"/>
	</g>
	<g id="Layer_60">
		<path class="st1" d="M110,30c3.3,0,6.7,0,10,0c0,3.3,0,6.7,0,10c-3.3,0-6.7,0-10,0C110,36.7,110,33.3,110,30z"/>
	</g>
	<g id="Layer_59">
		<path class="st0" d="M150,20c0,3.3,0,6.7,0,10c-3.3,0-6.7,0-10,0c0-3.3,0-6.7,0-10C143.3,20,146.7,20,150,20z"/>
	</g>
	<g id="Layer_58">
		<path class="st1" d="M80,90c0-3.3,0-6.7,0-10c3.3,0,6.7,0,10,0c0,3.3,0,6.7,0,10C86.7,90,83.3,90,80,90z"/>
	</g>
	<g id="Layer_57">
		<path class="st0" d="M100,50c0,3.3,0,6.7,0,10c-3.3,0-6.7,0-10,0c0-3.3,0-6.7,0-10C93.3,50,96.7,50,100,50z"/>
	</g>
	<g id="Layer_56">
		<path class="st1" d="M80,70c0-3.3,0-6.7,0-10c3.3,0,6.7,0,10,0c0,3.3,0,6.7,0,10C86.7,70,83.3,70,80,70z"/>
	</g>
	<g id="Layer_55">
		<path class="st0" d="M110,30c0,3.3,0,6.7,0,10s0,6.7,0,10c-3.3,0-6.7,0-10,0c0-6.7,0-13.3,0-20C103.3,30,106.7,30,110,30z"/>
	</g>
	<g id="Layer_54">
		<path class="st1" d="M880,50c0-9.9,0-19.8,0-30c3.5,0,6.7,0,10,0c0,10,0,20,0,30C886.7,50,883.3,50,880,50z"/>
	</g>
	<g id="Layer_53">
		<path class="st1" d="M880,90c0-3.3,0-6.7,0-10c3.3,0,6.7,0,10,0c0,3.3,0,6.7,0,10C886.7,90,883.3,90,880,90z"/>
	</g>
	<g id="Layer_52">
		<path class="st1" d="M870,120c0-3.3,0-6.5,0-10c3.5,0,6.7,0,10,0c0,3.3,0,6.7,0,10C876.7,120,873.3,120,870,120z"/>
	</g>
	<g id="Layer_51">
		<path class="st1" d="M880,70c0-3.3,0-6.7,0-10c3.3,0,6.7,0,10,0c0,3.3,0,6.7,0,10C886.7,70,883.3,70,880,70z"/>
	</g>
	<g id="Layer_50">
		<path d="M100,30c0,6.7,0,13.3,0,20c-3.3,0-6.7,0-10,0c0-10,0-20,0-30c3.3,0,6.7,0,10,0C100,23.3,100,26.7,100,30z"/>
	</g>
	<g id="Layer_49">
		<path class="st1" d="M90,20c0,10,0,20,0,30c-3.3,0-6.7,0-10,0c0-9.9,0-19.8,0-30C83.5,20,86.7,20,90,20z"/>
	</g>
	<g id="Layer_48">
		<path d="M80,50c3.3,0,6.7,0,10,0c0,3.3,0,6.7,0,10c-3.3,0-6.7,0-10,0C80,56.7,80,53.3,80,50z"/>
	</g>
	<g id="Layer_47">
		<path d="M720,30c0,6.7,0,13.3,0,20c-3.3,0-6.7,0-10,0c0-10,0-20,0-30c3.3,0,6.7,0,10,0C720,23.3,720,26.7,720,30z"/>
	</g>
	<g id="Layer_46">
		<path class="st1" d="M710,20c0,10,0,20,0,30c-3.3,0-6.7,0-10,0c0-9.9,0-19.8,0-30C703.5,20,706.7,20,710,20z"/>
	</g>
	<g id="Layer_45">
		<path d="M700,50c3.3,0,6.7,0,10,0c0,3.3,0,6.7,0,10c-3.3,0-6.7,0-10,0C700,56.7,700,53.3,700,50z"/>
	</g>
	<g id="Layer_44">
		<path d="M860,20c0,23.2,0,46.4,0,70c-3.4,0-6.7,0-10,0c-3.3,0-6.7,0-10,0c0-3.3,0-6.7,0-10c3.3,0,6.6,0,9.8,0
			c0.6-14.2,0.4-35.9-0.3-40c-3.2,0-6.3,0-9.5,0c0-3.3,0-6.7,0-10c3.3,0,6.5,0,10,0c0-3.5,0-6.7,0-10C853.3,20,856.7,20,860,20z"/>
	</g>
	<g id="Layer_43">
		<path d="M210,40c0,6.7,0,13.3,0,20c-10,0-20,0-30,0c0-3.3,0-6.7,0-10c3.3,0,6.5,0,10,0c0-10.2,0-20.1,0-30c3.3,0,6.5,0,9.9,0
			c0,3.4,0,6.5,0,9.9c3.3,0,6.6,0,10.1,0C210,33.5,210,36.7,210,40z"/>
	</g>
	<g id="Layer_42">
		<path class="st1" d="M180,60c10,0,20,0,30,0c0,3.3,0,6.7,0,10c-6.7,0-13.3,0-20,0c-3.3,0-6.7,0-10,0C180,66.7,180,63.3,180,60z"/>
	</g>
	<g id="Layer_41">
		<path class="st1" d="M190,20c0,9.9,0,19.8,0,30c-3.5,0-6.7,0-10,0c0-9.9,0-19.8,0-30C183.5,20,186.7,20,190,20z"/>
	</g>
	<g id="Layer_40">
		<path class="st1" d="M180,90c0-3.3,0-6.7,0-10c3.3,0,6.7,0,10,0c0,3.3,0,6.7,0,10C186.7,90,183.3,90,180,90z"/>
	</g>
	<g id="Layer_39">
		<path d="M180,90c3.3,0,6.7,0,10,0c0,3.3,0,6.7,0,10c-3.3,0-6.7,0-10,0C180,96.7,180,93.3,180,90z"/>
	</g>
	<g id="Layer_38">
		<path d="M190,80c-3.3,0-6.7,0-10,0c0-3.3,0-6.7,0-10c3.3,0,6.7,0,10,0C190,73.3,190,76.7,190,80z"/>
	</g>
	<g id="Layer_37">
		<path d="M450,20c0,3.3,0,6.7,0,10c-3.3,0-6.6,0-10,0c0,6.6,0,12.9,0,19.2c0,0.1-0.1,0.3-0.2,0.4c-0.1,0.1-0.2,0.2-0.4,0.3
			c-3.2,0-6.3,0-9.5,0c0-10,0-20,0-30C436.7,20,443.3,20,450,20z"/>
	</g>
	<g id="Layer_36">
		<path class="st1" d="M430,20c0,10,0,20,0,30c-3.3,0-6.7,0-10,0c0-10,0-20,0-30C423.3,20,426.7,20,430,20z"/>
	</g>
	<g id="Layer_35">
		<path d="M200,110c-3.3,0-6.5,0-10,0c0-3.5,0-6.7,0-10c3.3,0,6.7,0,10,0C200,103.3,200,106.7,200,110z"/>
	</g>
	<g id="Layer_34">
		<path class="st1" d="M430,120c-3.3,0-6.5,0-10,0c0-6.9,0-13.4,0-20c3.3,0,6.7,0,10,0C430,106.7,430,113.3,430,120z"/>
	</g>
	<g id="Layer_33">
		<path class="st1" d="M420,90c0-3.3,0-6.7,0-10c3.3,0,6.7,0,10,0c0,3.3,0,6.7,0,10C426.7,90,423.3,90,420,90z"/>
	</g>
	<g id="Layer_32">
		<path d="M420,90c3.3,0,6.7,0,10,0c0,3.3,0,6.7,0,10c-3.3,0-6.7,0-10,0C420,96.7,420,93.3,420,90z"/>
	</g>
	<g id="Layer_31">
		<path class="st1" d="M420,70c0-3.3,0-6.7,0-10c3.3,0,6.7,0,10,0c0,3.3,0,6.7,0,10C426.7,70,423.3,70,420,70z"/>
	</g>
	<g id="Layer_30">
		<path d="M420,70c3.3,0,6.7,0,10,0c0,3.3,0,6.7,0,10c-3.3,0-6.7,0-10,0C420,76.7,420,73.3,420,70z"/>
	</g>
	<g id="Layer_29">
		<path d="M430,60c-3.3,0-6.7,0-10,0c0-3.3,0-6.7,0-10c3.3,0,6.7,0,10,0C430,53.3,430,56.7,430,60z"/>
	</g>
	<g id="Layer_28">
		<path d="M430,120c0-6.7,0-13.3,0-20c3.3,0,6.5,0,10,0c0,6.9,0,13.4,0,20C436.7,120,433.3,120,430,120z"/>
	</g>
	<g id="Layer_27">
		<path d="M190,90c0-3.3,0-6.7,0-10c6.7,0,13.3,0,20,0c3.3,0,6.7,0,10,0c0,3.3,0,6.7,0,10c-3.3,0-6.5,0-10,0c0,3.5,0,6.7,0,10
			c-3.3,0-6.7,0-10,0c0-3.3,0-6.5,0-10C196.5,90,193.3,90,190,90z"/>
	</g>
	<g id="Layer_26">
		<path class="st2" d="M210,100c0-3.3,0-6.5,0-10c3.5,0,6.7,0,10,0c0,3.3,0,6.7,0,10C216.7,100,213.3,100,210,100z"/>
	</g>
	<g id="Layer_25">
		<path class="st2" d="M460,100c0-3.3,0-6.7,0-10c3.3,0,6.7,0,10,0c0,3.3,0,6.7,0,10C466.7,100,463.3,100,460,100z"/>
	</g>
	<g id="Layer_24">
		<path class="st1" d="M820,70c-3.2,0-6.3,0-9.8,0c-0.4-6.5-0.1-13.1-0.2-20c3.5,0,6.8,0,10,0C820,56.7,820,63.3,820,70z"/>
	</g>
	<g id="Layer_23">
		<path class="st1" d="M840,80c0,3.3,0,6.7,0,10c-3.3,0-6.5,0-10,0c0-3.5,0-6.7,0-10C833.3,80,836.7,80,840,80z"/>
	</g>
	<g id="Layer_22">
		<path d="M830,20c3.3,0,6.7,0,10,0c0,3.3,0,6.7,0,10c-3.3,0-6.7,0-10,0C830,26.7,830,23.3,830,20z"/>
	</g>
	<g id="Layer_21">
		<path class="st1" d="M830,30c3.3,0,6.7,0,10,0c0,3.3,0,6.7,0,10c-3.3,0-6.7,0-10,0C830,36.7,830,33.3,830,30z"/>
	</g>
	<g id="Layer_20">
		<path class="st1" d="M830,80c-3.3,0-6.5,0-10,0c0-3.5,0-6.7,0-10c3.3,0,6.7,0,10,0C830,73.3,830,76.7,830,80z"/>
	</g>
	<g id="Layer_19">
		<path class="st1" d="M820,50c0-3.3,0-6.5,0-10c3.5,0,6.7,0,10,0c0,3.3,0,6.7,0,10C826.7,50,823.3,50,820,50z"/>
	</g>
	<g id="Layer_18">
		<path class="st0" d="M200,100c3.3,0,6.7,0,10,0c0,3.3,0,6.5,0,10c-3.5,0-6.7,0-10,0C200,106.7,200,103.3,200,100z"/>
	</g>
	<g id="Layer_17">
	</g>
	<g id="Layer_16">
		<path class="st0" d="M840,30c0-3.3,0-6.7,0-10c3.3,0,6.7,0,10,0c0,3.3,0,6.5,0,10C846.5,30,843.3,30,840,30z"/>
	</g>
	<g id="Layer_15">
		<path class="st0" d="M470,100c0-3.3,0-6.7,0-10s0-6.7,0-10c3.3,0,6.7,0,10,0c0,6.7,0,13.3,0,20C476.7,100,473.3,100,470,100z"/>
	</g>
	<g id="Layer_14">
		<path class="st2" d="M480,80c-3.3,0-6.7,0-10,0c0-10,0-20,0-30c3.3,0,6.5,0,10,0C480,60.2,480,70.1,480,80z"/>
	</g>
	<g id="Layer_13">
		<path d="M460,50c-3.3,0-6.5,0-10,0c0-6.9,0-13.4,0-20c3.3,0,6.5,0,10,0c0,3.5,0,6.7,0,10C460,43.3,460,46.7,460,50z"/>
	</g>
	<g id="Layer_12">
		<path class="st2" d="M460,50c0-3.3,0-6.7,0-10c3.3,0,6.5,0,10,0c0,3.5,0,6.7,0,10C466.7,50,463.3,50,460,50z"/>
	</g>
	<g id="Layer_11">
		<path class="st0" d="M210,80c-6.7,0-13.3,0-20,0c0-3.3,0-6.7,0-10c6.7,0,13.3,0,20,0C210,73.3,210,76.7,210,80z"/>
	</g>
	<g id="Layer_10">
	</g>
	<g id="Layer_9">
		<path class="st0" d="M190,90c3.3,0,6.5,0,10,0c0,3.5,0,6.7,0,10c-3.3,0-6.7,0-10,0C190,96.7,190,93.3,190,90z"/>
	</g>
	<g id="Layer_8">
		<path d="M430,80c3.2,0,6.3,0,9.8,0c0.1,1.6,0.1,3.2,0.2,4.8c0,1.6,0,3.3,0,5.2c-3.4,0-6.7,0-10,0C430,86.7,430,83.3,430,80z"/>
	</g>
	<g id="Layer_7">
		<path d="M430,60c3.2,0,6.3,0,9.8,0c0.1,1.6,0.1,3.2,0.2,4.8c0,1.6,0,3.3,0,5.2c-3.4,0-6.7,0-10,0C430,66.7,430,63.3,430,60z"/>
	</g>
	<g id="Layer_6">
		<path d="M460,50c3.3,0,6.7,0,10,0c0,10,0,20,0,30c0,3.3,0,6.7,0,10c-3.3,0-6.7,0-10,0C460,76.7,460,63.3,460,50z"/>
	</g>
	<g id="Layer_5">
		<path d="M830,50c0,6.7,0,13.3,0,20c-3.3,0-6.7,0-10,0c0-6.7,0-13.3,0-20C823.3,50,826.7,50,830,50z"/>
	</g>
	<g id="Layer_4">
		<path d="M830,70c3.3,0,6.5,0,10,0c0,3.5,0,6.7,0,10c-3.3,0-6.7,0-10,0C830,76.7,830,73.3,830,70z"/>
	</g>
	<g id="Layer_3">
		<path d="M840,40c0,3.3,0,6.5,0,10c-3.5,0-6.7,0-10,0c0-3.3,0-6.7,0-10C833.3,40,836.7,40,840,40z"/>
	</g>
</g>
</svg>
