<?xml version="1.0" encoding="utf-8"?>
<!-- Generator: Adobe Illustrator 19.0.0, SVG Export Plug-In . SVG Version: 6.00 Build 0)  -->
<svg version="1.1" id="Layer_1" xmlns="http://www.w3.org/2000/svg" xmlns:xlink="http://www.w3.org/1999/xlink" x="0px" y="0px"
	 viewBox="-352 287.3 136.5 21" style="enable-background:new -352 287.3 136.5 21;" xml:space="preserve">
<style type="text/css">
	.st0{fill:#FEFEFE;}
	.st1{fill:#FE5555;}
	.st2{fill:#FFFFFF;}
</style>
<g id="Layer_2">
	<g id="Layer_255">
	</g>
	<g id="Layer_254">
	</g>
	<g id="Layer_253">
	</g>
	<g id="Layer_252">
	</g>
	<g id="Layer_251">
	</g>
	<g id="Layer_250">
	</g>
	<g id="Layer_249">
	</g>
	<g id="Layer_248">
	</g>
	<g id="Layer_247">
		<path d="M-702.5,574.6c6.5,0,13,0,19.5,0c0,0.5,0,1,0,1.5c-0.5,0-1,0-1.5,0c-6,0-12,0-18,0C-702.5,575.6-702.5,575.1-702.5,574.6z
			"/>
	</g>
	<g id="Layer_246">
		<path d="M-609.5,576.1c0-0.5,0-1,0-1.5c6.5,0,13,0,19.5,0c0,0.5,0,1,0,1.5c-0.5,0-1,0-1.5,0C-597.5,576.1-603.5,576.1-609.5,576.1
			z"/>
	</g>
	<g id="Layer_245">
		<path d="M-573.5,594.1c0,0.5,0,1,0,1.5c-3.5,0-7,0-10.5,0c0-0.5,0-1,0-1.5c0.5,0,1,0,1.5,0c2.5,0,5,0,7.5,0
			C-574.5,594.1-574,594.1-573.5,594.1z"/>
	</g>
	<g id="Layer_244">
		<path d="M-669.5,574.6c0,0.5,0,1,0,1.5c-1,0-2,0-3,0c-2,0-4,0-6,0c0-0.5,0-1,0-1.5C-675.5,574.6-672.5,574.6-669.5,574.6z"/>
	</g>
	<g id="Layer_243">
		<path d="M-651.5,574.6c0,0.5,0,1,0,1.5c-0.5,0-1,0-1.5,0c-1,0-2,0-3,0s-2,0-3,0c0-0.5,0-1,0-1.5
			C-656.5,574.6-654,574.6-651.5,574.6z"/>
	</g>
	<g id="Layer_242">
		<path d="M-642.5,576.1c0-0.5,0-1,0-1.5c2.5,0,5,0,7.5,0c0,0.5,0,1,0,1.5c-0.5,0-1,0-1.5,0c-1.5,0-3,0-4.5,0
			C-641.5,576.1-642,576.1-642.5,576.1z"/>
	</g>
	<g id="Layer_241">
		<path d="M-689,594.1c0,0.5,0,1,0,1.5c-2.5,0-5,0-7.5,0c0-0.5,0-1,0-1.5c1,0,2,0,3,0s2,0,3,0C-690,594.1-689.5,594.1-689,594.1z"/>
	</g>
	<g id="Layer_240">
		<path d="M-681.5,595.6c0-0.5,0-1,0-1.5c1,0,2,0,3,0s2,0,3,0c0.5,0,1,0,1.5,0c0,0.5,0,1,0,1.5C-676.5,595.6-679,595.6-681.5,595.6z
			"/>
	</g>
	<g id="Layer_239">
		<path d="M-614,574.6c0,0.5,0,1,0,1.5c-0.5,0-1,0-1.5,0c-1,0-2,0-3,0s-2,0-3,0c0-0.5,0-1,0-1.5C-619,574.6-616.5,574.6-614,574.6z"
			/>
	</g>
	<g id="Layer_238">
		<path d="M-651.5,594.1c0,0.5,0,1,0,1.5c-2.5,0-5,0-7.5,0c0-0.5,0-1,0-1.5c1,0,2,0,3,0s2,0,3,0C-652.5,594.1-652,594.1-651.5,594.1
			z"/>
	</g>
	<g id="Layer_237">
		<path d="M-645.5,595.6c0-0.5,0-1,0-1.5c1,0,2,0,3,0s2,0,3,0c0.5,0,1,0,1.5,0c0,0.5,0,1,0,1.5C-640.5,595.6-643,595.6-645.5,595.6z
			"/>
	</g>
	<g id="Layer_236">
		<path d="M-576.5,574.6c2.5,0,5,0,7.5,0c0,0.5,0,1,0,1.5c-0.5,0-1,0-1.5,0c-2,0-4,0-6,0C-576.5,575.6-576.5,575.1-576.5,574.6z"/>
	</g>
	<g id="Layer_235">
		<path d="M-614,594.1c0,0.5,0,1,0,1.5c-2.5,0-5,0-7.5,0c0-0.5,0-1,0-1.5c1,0,2,0,3,0s2,0,3,0C-615,594.1-614.5,594.1-614,594.1z"/>
	</g>
	<g id="Layer_234">
		<path d="M-603.5,595.6c0-0.5,0-1,0-1.5c1,0,2,0,3,0s2,0,3,0c0.5,0,1,0,1.5,0c0,0.5,0,1,0,1.5C-598.5,595.6-601,595.6-603.5,595.6z
			"/>
	</g>
	<g id="Layer_233">
	</g>
	<g id="Layer_232">
		<path d="M-665,594.1c0,0.5,0,1,0,1.5c-2,0-4,0-6,0c0-0.5,0-1,0-1.5c0.5,0,1,0,1.5,0c1,0,2,0,3,0C-666,594.1-665.5,594.1-665,594.1
			z"/>
	</g>
	<g id="Layer_231">
		<path d="M-630.5,594.1c0,0.5,0,1,0,1.5c-1.5,0-3,0-4.5,0c0-0.5,0-1,0-1.5c1,0,2,0,3,0C-631.5,594.1-631,594.1-630.5,594.1z"/>
	</g>
	<g id="Layer_230">
		<path d="M-582.5,576.1c0-0.5,0-1,0-1.5c1.5,0,3,0,4.5,0c0,0.5,0,1,0,1.5c-0.5,0-1,0-1.5,0C-580.5,576.1-581.5,576.1-582.5,576.1z"
			/>
	</g>
	<g id="Layer_229">
	</g>
	<g id="Layer_228">
	</g>
	<g id="Layer_227">
	</g>
	<g id="Layer_226">
		<path d="M-704,576.1c0.5,0,1,0,1.5,0c0,0.5,0,1,0,1.5c-0.5,0-1,0-1.5,0C-704,577.1-704,576.6-704,576.1z"/>
	</g>
	<g id="Layer_225">
	</g>
	<g id="Layer_224">
	</g>
	<g id="Layer_223">
		<path d="M-569,576.1c0.5,0,1,0,1.5,0c0,0.5,0,1,0,1.5c-0.5,0-1,0-1.5,0C-569,577.1-569,576.6-569,576.1z"/>
	</g>
	<g id="Layer_222">
		<path d="M-584,589.6c0-1,0-2,0-3c0.5,0,1,0,1.5,0c0,0.3,0,0.5,0,0.8c0,0.2,0,0.5,0,0.7c0.5,0,1,0,1.5,0c0,0.5,0,1,0,1.5
			c1.5,0,3,0,4.5,0c0.5,0,1,0,1.5,0c0,0.5,0,1,0,1.5c-0.5,0-1,0-1.5,0c0,0.5,0,1,0,1.5c-0.5,0-1,0-1.5,0c0-0.5,0-1,0-1.5
			c-1,0-2,0-3,0c-0.5,0-1,0-1.5,0c0-0.5,0-1,0-1.5C-583,589.6-583.5,589.6-584,589.6z"/>
	</g>
	<g id="Layer_221">
		<path d="M-584,594.1c-0.5,0-0.9,0-1.4,0c0,0,0,0-0.1-0.1c0,0,0,0,0-0.1c0-1.4,0-2.9,0-4.4c0.5,0,1,0,1.5,0c0,0.5,0,1,0,1.5
			C-584,592.1-584,593.1-584,594.1z"/>
	</g>
	<g id="Layer_220">
		<path d="M-590,577.6c0,0.5,0,1,0,1.5c-0.5,0-1,0-1.5,0c0,0.5,0,1,0,1.5c-0.5,0-1,0-1.5,0c0-0.5,0-1,0-1.5s0-1,0-1.5
			c0.5,0,1,0,1.5,0S-590.5,577.6-590,577.6z"/>
	</g>
	<g id="Layer_219">
		<path d="M-585.5,585.1c-0.5,0-0.9,0-1.5,0c-0.1-1,0-2,0-3c0.5,0,1,0,1.5,0C-585.5,583.1-585.5,584.1-585.5,585.1z"/>
	</g>
	<g id="Layer_218">
		<path d="M-596,591.1c0.5,0,0.9,0,1.5,0c0.1,1,0,2,0,3c-0.5,0-1,0-1.5,0C-596,593.1-596,592.1-596,591.1z"/>
	</g>
	<g id="Layer_217">
		<path d="M-597.5,586.6c0.5,0,0.9,0,1.5,0c0,0.2,0,0.5,0,0.7s0,0.5,0,0.8c-0.5,0-1,0-1.5,0C-597.5,587.6-597.5,587.1-597.5,586.6z"
			/>
	</g>
	<g id="Layer_216">
		<path d="M-597.5,589.6c0.5,0,1,0,1.5,0c0,0.5,0,1,0,1.5c-0.5,0-1,0-1.5,0C-597.5,590.6-597.5,590.1-597.5,589.6z"/>
	</g>
	<g id="Layer_215">
		<path d="M-597.5,588.1c0,0.5,0,1,0,1.5c-0.5,0-1,0-1.5,0c0-0.5,0-1,0-1.5C-598.5,588.1-598,588.1-597.5,588.1z"/>
	</g>
	<g id="Layer_214">
		<path d="M-582.5,579.1c0-0.5,0-1,0-1.5c0.5,0,1,0,1.5,0c0,0.3,0,0.5,0,0.8c0,0.2,0,0.5,0,0.7C-581.6,579.1-582,579.1-582.5,579.1z
			"/>
	</g>
	<g id="Layer_213">
		<path d="M-584,580.6c0-0.5,0-1,0-1.5c0.5,0,1,0,1.5,0c0,0.5,0,1,0,1.5C-583,580.6-583.5,580.6-584,580.6z"/>
	</g>
	<g id="Layer_212">
		<path d="M-590,576.1c0.5,0,0.9,0,1.5,0c0,0.2,0,0.5,0,0.7s0,0.5,0,0.8c-0.5,0-1,0-1.5,0C-590,577.1-590,576.6-590,576.1z"/>
	</g>
	<g id="Layer_211">
		<path d="M-582.5,577.6c-0.5,0-0.9,0-1.5,0c0-0.2,0-0.5,0-0.7s0-0.5,0-0.8c0.5,0,1,0,1.5,0C-582.5,576.6-582.5,577.1-582.5,577.6z"
			/>
	</g>
	<g id="Layer_210">
		<path d="M-596,583.6c0,0.5,0,1,0,1.5c-0.5,0-1,0-1.5,0c0-0.5,0-1,0-1.5C-597,583.6-596.5,583.6-596,583.6z"/>
	</g>
	<g id="Layer_209">
		<path d="M-597.5,585.1c0,0.5,0,1,0,1.5c-0.5,0-1,0-1.5,0c0-0.5,0-1,0-1.5C-598.5,585.1-598,585.1-597.5,585.1z"/>
	</g>
	<g id="Layer_208">
		<path d="M-584,586.6c-0.5,0-1,0-1.5,0c0-0.5,0-1,0-1.5c0.5,0,1,0,1.5,0C-584,585.6-584,586.1-584,586.6z"/>
	</g>
	<g id="Layer_207">
		<path d="M-593,580.6c0,0.5,0,1,0,1.5c-0.5,0-1,0-1.5,0c0-0.5,0-1,0-1.5C-594,580.6-593.5,580.6-593,580.6z"/>
	</g>
	<g id="Layer_206">
		<path d="M-585.5,582.1c0-0.5,0-1,0-1.5c0.5,0,1,0,1.5,0c0,0.5,0,1,0,1.5C-584.5,582.1-585,582.1-585.5,582.1z"/>
	</g>
	<g id="Layer_205">
		<path d="M-594.5,582.1c0,0.5,0,1,0,1.5c-0.5,0-1,0-1.5,0c0-0.5,0-1,0-1.5C-595.5,582.1-595,582.1-594.5,582.1z"/>
	</g>
	<g id="Layer_204">
		<path d="M-621.5,592.6c0-5,0-10,0-15c0.5,0,1,0,1.5,0c0.1,2.6,0.1,14.3-0.1,15C-620.6,592.6-621,592.6-621.5,592.6z"/>
	</g>
	<g id="Layer_203">
		<path d="M-630.5,589.6c0,1,0,2,0,3c-0.5,0-1,0-1.5,0s-1,0-1.5,0c0-0.5,0-1,0-1.5c0.5,0,1,0,1.5,0c0-0.5,0-1,0-1.5
			C-631.5,589.6-631,589.6-630.5,589.6z"/>
	</g>
	<g id="Layer_202">
		<path d="M-630.5,580.6c0.5,0,1,0,1.5,0c0,1,0,2,0,3c-0.5,0-1,0-1.5,0C-630.5,582.6-630.5,581.6-630.5,580.6z"/>
	</g>
	<g id="Layer_201">
		<path d="M-629,583.6c0.5,0,0.9,0,1.5,0c0.1,1,0,2,0,3c-0.5,0-1,0-1.5,0C-629,585.6-629,584.6-629,583.6z"/>
	</g>
	<g id="Layer_200">
		<path d="M-635,576.1c1,0,2,0,3,0c0,0.5,0,1,0,1.5c-0.5,0-1,0-1.5,0s-1,0-1.5,0C-635,577.1-635,576.6-635,576.1z"/>
	</g>
	<g id="Layer_199">
		<path d="M-632,577.6c0.5,0,1,0,1.5,0c0,1,0,2,0,3c-0.5,0-1,0-1.5,0c0-0.5,0-1,0-1.5S-632,578.1-632,577.6z"/>
	</g>
	<g id="Layer_198">
		<path d="M-629,586.6c0,1,0,2,0,3c-0.5,0-1,0-1.5,0c0-1,0-2,0-3C-630,586.6-629.5,586.6-629,586.6z"/>
	</g>
	<g id="Layer_197">
		<path d="M-621.5,594.1c-0.5,0-0.9,0-1.5,0c0-0.2,0-0.5,0-0.7s0-0.5,0-0.8c0.5,0,1,0,1.5,0C-621.5,593.1-621.5,593.6-621.5,594.1z"
			/>
	</g>
	<g id="Layer_196">
		<path d="M-630.5,592.6c0.5,0,0.9,0,1.5,0c0,0.2,0,0.5,0,0.7s0,0.5,0,0.8c-0.5,0-1,0-1.5,0C-630.5,593.6-630.5,593.1-630.5,592.6z"
			/>
	</g>
	<g id="Layer_195">
		<path d="M-621.5,577.6c-0.5,0-0.9,0-1.5,0c0-0.2,0-0.5,0-0.7s0-0.5,0-0.8c0.5,0,1,0,1.5,0C-621.5,576.6-621.5,577.1-621.5,577.6z"
			/>
	</g>
	<g id="Layer_194">
		<path d="M-603.5,592.6c0-3,0-6,0-9c-1,0-2,0-3,0c0-0.5,0-1,0-1.5c0.5,0,1,0,1.5,0s1.5,0,1.5,0v-0.8v-0.7c0,0-1,0-1.5,0
			c0-1,0-2,0-3c1,0,2,0,3,0c0,5,0,14.9,0,14.9v0.1h-0.1C-602.1,592.6-603,592.6-603.5,592.6z"/>
	</g>
	<g id="Layer_193">
		<path d="M-614,577.6c0,1.5,0,3,0,4.5c-0.5,0-1,0-1.5,0c0-1.5,0-3,0-4.5C-615,577.6-614.5,577.6-614,577.6z"/>
	</g>
	<g id="Layer_192">
		<path d="M-606.5,582.1c-0.5,0-1,0-1.5,0c0-1,0-2,0-3c0.5,0,1,0,1.5,0c0,0.5,0,1,0,1.5S-606.5,581.6-606.5,582.1z"/>
	</g>
	<g id="Layer_191">
		<path d="M-614,591.1c0.5,0,1.5,0,1.5,0v3c0,0-1,0-1.5,0C-614,593.1-614,592.1-614,591.1z"/>
	</g>
	<g id="Layer_190">
		<path d="M-615.5,586.6c0.5,0,0.9,0,1.5,0c0,0.2,0,0.5,0,0.7s0,0.5,0,0.8c-0.5,0-1,0-1.5,0C-615.5,587.6-615.5,587.1-615.5,586.6z"
			/>
	</g>
	<g id="Layer_189">
		<path d="M-603.5,594.1c-0.5,0-1.5,0-1.5,0s0-0.5,0-0.7s0-0.8,0-0.8s1,0,1.5,0C-603.5,593.1-603.5,593.6-603.5,594.1z"/>
	</g>
	<g id="Layer_188">
		<path d="M-615.5,589.6c0.5,0,1,0,1.5,0c0,0.5,0,1,0,1.5c-0.5,0-1,0-1.5,0C-615.5,590.6-615.5,590.1-615.5,589.6z"/>
	</g>
	<g id="Layer_187">
		<path d="M-615.5,588.1c0,0.5,0,1,0,1.5c-0.5,0-1,0-1.5,0c0-0.5,0-1,0-1.5C-616.5,588.1-616,588.1-615.5,588.1z"/>
	</g>
	<g id="Layer_186">
		<path d="M-608,579.1c-0.5,0-1,0-1.5,0c0-0.5,0-1,0-1.5c0.5,0,1,0,1.5,0C-608,578.1-608,578.6-608,579.1z"/>
	</g>
	<g id="Layer_185">
		<path d="M-614,576.1c0.5,0,0.9,0,1.5,0c0,0.2,0,0.5,0,0.7s0,0.5,0,0.8c-0.5,0-1,0-1.5,0C-614,577.1-614,576.6-614,576.1z"/>
	</g>
	<g id="Layer_184">
		<path d="M-609.5,577.6c-0.5,0-0.9,0-1.5,0c0-0.2,0-0.5,0-0.7s0-0.5,0-0.8c0.5,0,1,0,1.5,0C-609.5,576.6-609.5,577.1-609.5,577.6z"
			/>
	</g>
	<g id="Layer_183">
		<path d="M-615.5,583.6c0.5,0,0.9,0,1.5,0c0,0.2,0,0.5,0,0.7s0,0.5,0,0.8c-0.5,0-1,0-1.5,0C-615.5,584.6-615.5,584.1-615.5,583.6z"
			/>
	</g>
	<g id="Layer_182">
		<path d="M-615.5,585.1c0,0.5,0,1,0,1.5c-0.5,0-1,0-1.5,0c0-0.5,0-1,0-1.5C-616.5,585.1-616,585.1-615.5,585.1z"/>
	</g>
	<g id="Layer_181">
		<path d="M-615.5,582.1c0,0.5,0,1,0,1.5c-0.5,0-1,0-1.5,0c0-0.5,0-1,0-1.5C-616.5,582.1-616,582.1-615.5,582.1z"/>
	</g>
	<g id="Layer_180">
		<path d="M-659,592.6c0-5,0-10,0-15c0.5,0,1,0,1.5,0c0.1,2.6,0.1,14.3-0.1,15C-658.1,592.6-658.5,592.6-659,592.6z"/>
	</g>
	<g id="Layer_179">
		<path d="M-666.5,588.1c0.5,0,1,0,1.5,0c0,1,0,2,0,3c-0.5,0-1,0-1.5,0C-666.5,590.1-666.5,589.1-666.5,588.1z"/>
	</g>
	<g id="Layer_178">
		<path d="M-668,585.1c0.5,0,1,0,1.5,0c0,1,0,2,0,3c-0.5,0-1,0-1.5,0C-668,587.1-668,586.1-668,585.1z"/>
	</g>
	<g id="Layer_177">
		<path d="M-666.5,579.1c0.5,0,0.9,0,1.5,0c0.1,1,0,2,0,3c-0.5,0-1,0-1.5,0C-666.5,581.1-666.5,580.1-666.5,579.1z"/>
	</g>
	<g id="Layer_176">
		<path d="M-665,591.1c0.5,0,0.9,0,1.5,0c0.1,1,0,2,0,3c-0.5,0-1,0-1.5,0C-665,593.1-665,592.1-665,591.1z"/>
	</g>
	<g id="Layer_175">
		<path d="M-659,594.1c-0.5,0-0.9,0-1.5,0c0-0.2,0-0.5,0-0.7s0-0.5,0-0.8c0.5,0,1,0,1.5,0C-659,593.1-659,593.6-659,594.1z"/>
	</g>
	<g id="Layer_174">
		<path d="M-659,577.6c-0.5,0-0.9,0-1.5,0c0-0.2,0-0.5,0-0.7s0-0.5,0-0.8c0.5,0,1,0,1.5,0C-659,576.6-659,577.1-659,577.6z"/>
	</g>
	<g id="Layer_173">
		<path d="M-669.5,576.1c0.5,0,1,0,1.5,0c0,0.5,0,1,0,1.5c-0.5,0-1,0-1.5,0C-669.5,577.1-669.5,576.6-669.5,576.1z"/>
	</g>
	<g id="Layer_172">
		<path d="M-668,577.6c0.5,0,1,0,1.5,0c0,0.5,0,1,0,1.5c-0.5,0-1,0-1.5,0C-668,578.6-668,578.1-668,577.6z"/>
	</g>
	<g id="Layer_171">
		<path d="M-668,583.6c0,0.5,0,1,0,1.5c-0.5,0-1,0-1.5,0c0-0.5,0-1,0-1.5C-669,583.6-668.5,583.6-668,583.6z"/>
	</g>
	<g id="Layer_170">
		<path d="M-666.5,582.1c0,0.5,0,1,0,1.5c-0.5,0-1,0-1.5,0c0-0.5,0-1,0-1.5C-667.5,582.1-667,582.1-666.5,582.1z"/>
	</g>
	<g id="Layer_169">
		<path d="M-645.5,592.6c0-4,0-8,0-12c0.5,0,1,0,1.5,0c0.1,2.5,0.1,11.3-0.1,12C-644.6,592.6-645,592.6-645.5,592.6z"/>
	</g>
	<g id="Layer_168">
		<path d="M-651.5,577.6c0,1.5,0,3,0,4.5c-0.5,0-1,0-1.5,0c0-1.5,0-3,0-4.5C-652.5,577.6-652,577.6-651.5,577.6z"/>
	</g>
	<g id="Layer_167">
		<path d="M-651.5,591.1c0.5,0,0.9,0,1.5,0c0.1,1,0,2,0,3c-0.5,0-1,0-1.5,0C-651.5,593.1-651.5,592.1-651.5,591.1z"/>
	</g>
	<g id="Layer_166">
		<path d="M-653,586.6c0.5,0,0.9,0,1.5,0c0,0.2,0,0.5,0,0.7s0,0.5,0,0.8c-0.5,0-1,0-1.5,0C-653,587.6-653,587.1-653,586.6z"/>
	</g>
	<g id="Layer_165">
		<path d="M-645.5,594.1c-0.5,0-0.9,0-1.5,0c0-0.2,0-0.5,0-0.7s0-0.5,0-0.8c0.5,0,1,0,1.5,0C-645.5,593.1-645.5,593.6-645.5,594.1z"
			/>
	</g>
	<g id="Layer_164">
		<path d="M-653,589.6c0.5,0,1,0,1.5,0c0,0.5,0,1,0,1.5c-0.5,0-1,0-1.5,0C-653,590.6-653,590.1-653,589.6z"/>
	</g>
	<g id="Layer_163">
		<path d="M-653,588.1c0,0.5,0,1,0,1.5c-0.5,0-1,0-1.5,0c0-0.5,0-1,0-1.5C-654,588.1-653.5,588.1-653,588.1z"/>
	</g>
	<g id="Layer_162">
		<path d="M-645.5,580.6c-0.5,0-0.9,0-1.5,0c0-0.2,0-0.5,0-0.7s0-0.5,0-0.8c0.5,0,1,0,1.5,0C-645.5,579.6-645.5,580.1-645.5,580.6z"
			/>
	</g>
	<g id="Layer_161">
		<path d="M-644,577.6c0-0.5,0-1,0-1.5c0.5,0,1,0,1.5,0c0,0.5,0,1,0,1.5C-643,577.6-643.5,577.6-644,577.6z"/>
	</g>
	<g id="Layer_160">
		<path d="M-651.5,576.1c0.5,0,0.9,0,1.5,0c0,0.2,0,0.5,0,0.7s0,0.5,0,0.8c-0.5,0-1,0-1.5,0C-651.5,577.1-651.5,576.6-651.5,576.1z"
			/>
	</g>
	<g id="Layer_159">
		<path d="M-645.5,579.1c0-0.5,0-1,0-1.5c0.5,0,1,0,1.5,0c0,0.5,0,1,0,1.5C-644.5,579.1-645,579.1-645.5,579.1z"/>
	</g>
	<g id="Layer_158">
		<path d="M-653,583.6c0.5,0,0.9,0,1.5,0c0,0.2,0,0.5,0,0.7s0,0.5,0,0.8c-0.5,0-1,0-1.5,0C-653,584.6-653,584.1-653,583.6z"/>
	</g>
	<g id="Layer_157">
		<path d="M-653,585.1c0,0.5,0,1,0,1.5c-0.5,0-1,0-1.5,0c0-0.5,0-1,0-1.5C-654,585.1-653.5,585.1-653,585.1z"/>
	</g>
	<g id="Layer_156">
		<path d="M-653,582.1c0,0.5,0,1,0,1.5c-0.5,0-1,0-1.5,0c0-0.5,0-1,0-1.5C-654,582.1-653.5,582.1-653,582.1z"/>
	</g>
	<g id="Layer_155">
		<path d="M-696.5,592.6c0-3,0-6,0-9c-1,0-2,0-3,0c0-0.5,0-1,0-1.5c0.5,0,1,0,1.5,0s1,0,1.5,0c0-0.5,0-1,0-1.5c-0.6,0-1,0-1.5,0
			c0-1,0-2,0-3c1,0,2,0,3,0c0,5,0,9.9,0,14.9c0,0,0,0,0,0.1c0,0,0,0-0.1,0.1C-695.6,592.6-696,592.6-696.5,592.6z"/>
	</g>
	<g id="Layer_154">
		<path d="M-699.5,582.1c-0.5,0-1,0-1.5,0c0-1,0-2,0-3c0.5,0,1,0,1.5,0c0,0.5,0,1,0,1.5S-699.5,581.6-699.5,582.1z"/>
	</g>
	<g id="Layer_153">
		<path d="M-696.5,594.1c-0.5,0-0.9,0-1.5,0c0-0.2,0-0.5,0-0.7s0-0.5,0-0.8c0.5,0,1,0,1.5,0C-696.5,593.1-696.5,593.6-696.5,594.1z"
			/>
	</g>
	<g id="Layer_152">
		<path d="M-701,579.1c-0.5,0-1,0-1.5,0c0-0.5,0-1,0-1.5c0.5,0,1,0,1.5,0C-701,578.1-701,578.6-701,579.1z"/>
	</g>
	<g id="Layer_151">
		<path d="M-681.5,592.6c0-4,0-8,0-12c0.5,0,1,0,1.5,0c0.1,2.5,0.1,11.3-0.1,12C-680.6,592.6-681,592.6-681.5,592.6z"/>
	</g>
	<g id="Layer_150">
		<path d="M-683,579.1c-0.5,0-0.9,0-1.5,0c0,0.2,0,0.5,0,0.7s0,0.5,0,0.8c-0.5,0-1,0-1.5,0c0-0.5,0-1,0-1.5s0-1,0-1.5
			c0.5,0,1,0,1.5,0s1,0,1.5,0C-683,578.1-683,578.6-683,579.1z"/>
	</g>
	<g id="Layer_149">
		<path d="M-689,591.1c0.5,0,0.9,0,1.5,0c0.1,1,0,2,0,3c-0.5,0-1,0-1.5,0C-689,593.1-689,592.1-689,591.1z"/>
	</g>
	<g id="Layer_148">
		<path d="M-690.5,588.1c0,0.5,0,1,0,1.5c-0.5,0-1,0-1.5,0c0-0.5,0-1,0-1.5C-691.5,588.1-691,588.1-690.5,588.1z"/>
	</g>
	<g id="Layer_147">
		<path d="M-690.5,586.6c0.5,0,0.9,0,1.5,0c0,0.2,0,0.5,0,0.7s0,0.5,0,0.8c-0.5,0-1,0-1.5,0C-690.5,587.6-690.5,587.1-690.5,586.6z"
			/>
	</g>
	<g id="Layer_146">
		<path d="M-681.5,594.1c-0.5,0-0.9,0-1.5,0c0-0.2,0-0.5,0-0.7s0-0.5,0-0.8c0.5,0,1,0,1.5,0C-681.5,593.1-681.5,593.6-681.5,594.1z"
			/>
	</g>
	<g id="Layer_145">
		<path d="M-690.5,589.6c0.5,0,1,0,1.5,0c0,0.5,0,1,0,1.5c-0.5,0-1,0-1.5,0C-690.5,590.6-690.5,590.1-690.5,589.6z"/>
	</g>
	<g id="Layer_144">
		<path d="M-681.5,580.6c-0.5,0-1,0-1.5,0c0-0.5,0-1,0-1.5c0.5,0,1,0,1.5,0C-681.5,579.6-681.5,580.1-681.5,580.6z"/>
	</g>
	<g id="Layer_143">
		<path d="M-689,583.6c0,0.5,0,1,0,1.5c-0.5,0-1,0-1.5,0c0-0.5,0-1,0-1.5C-690,583.6-689.5,583.6-689,583.6z"/>
	</g>
	<g id="Layer_142">
		<path d="M-690.5,585.1c0,0.5,0,1,0,1.5c-0.5,0-1,0-1.5,0c0-0.5,0-1,0-1.5C-691.5,585.1-691,585.1-690.5,585.1z"/>
	</g>
	<g id="Layer_141">
		<path d="M-686,580.6c0,0.5,0,1,0,1.5c-0.5,0-1,0-1.5,0c0-0.5,0-1,0-1.5C-687,580.6-686.5,580.6-686,580.6z"/>
	</g>
	<g id="Layer_140">
		<path d="M-687.5,582.1c0,0.5,0,1,0,1.5c-0.5,0-1,0-1.5,0c0-0.5,0-1,0-1.5C-688.5,582.1-688,582.1-687.5,582.1z"/>
	</g>
	<g id="Layer_139">
		<path d="M-569,577.6c0,1.5,0,3,0,4.5c-0.5,0-1,0-1.5,0c0-1.5,0-3,0-4.5C-570,577.6-569.5,577.6-569,577.6z"/>
	</g>
	<g id="Layer_138">
		<path d="M-570.5,588.1c0,1.5,0,3,0,4.5c-0.5,0-1,0-1.5,0c0-0.5,0-1,0-1.5c0-1,0-2,0-3C-571.5,588.1-571,588.1-570.5,588.1z"/>
	</g>
	<g id="Layer_137">
		<path d="M-570.5,585.1c0,0.5,0,1,0,1.5c-0.5,0-1,0-1.5,0c0-0.5,0-1,0-1.5C-571.5,585.1-571,585.1-570.5,585.1z"/>
	</g>
	<g id="Layer_136">
		<path d="M-570.5,586.6c0.5,0,0.9,0,1.5,0c0,0.2,0,0.5,0,0.7s0,0.5,0,0.8c-0.5,0-1,0-1.5,0C-570.5,587.6-570.5,587.1-570.5,586.6z"
			/>
	</g>
	<g id="Layer_135">
		<path d="M-572,592.6c0,0.5,0,1,0,1.5c-0.5,0-1,0-1.5,0c0-0.5,0-1,0-1.5C-573,592.6-572.5,592.6-572,592.6z"/>
	</g>
	<g id="Layer_134">
		<path d="M-570.5,583.6c0.5,0,0.9,0,1.5,0c0,0.2,0,0.5,0,0.7s0,0.5,0,0.8c-0.5,0-1,0-1.5,0C-570.5,584.6-570.5,584.1-570.5,583.6z"
			/>
	</g>
	<g id="Layer_133">
		<path d="M-570.5,582.1c0,0.5,0,1,0,1.5c-0.5,0-1,0-1.5,0c0-0.5,0-1,0-1.5C-571.5,582.1-571,582.1-570.5,582.1z"/>
	</g>
	<g id="Layer_132">
		<path class="st0" d="M-692,585.1c0,0.5,0,1,0,1.5s0,1,0,1.5s0,1,0,1.5c0,1,0,2,0,3c0.5,0.1,1,0,1.5,0c0,0.5,0,1,0,1.5
			c-1,0-2,0-3,0c0-5.5,0-10.9,0-16.4c0,0,0,0,0-0.1c0,0,0,0-0.1-0.1c-0.5,0.1-0.9,0.1-1.4,0.1c-1,0-2,0-3,0s-2,0-3,0
			c-0.5,0-1,0-1.5,0c0-0.5,0-1,0-1.5c6,0,12,0,18,0c0,0.5,0,1,0,1.5c-0.5,0-1,0-1.5,0c-1,0-2,0-3,0c-0.5,0-1,0-1.5,0s-1,0-1.5,0
			c0,1.5,0,3,0,4.5c0,0.5,0,1,0,1.5S-692,584.6-692,585.1z"/>
	</g>
	<g id="Layer_131">
		<path class="st1" d="M-684.5,577.6c0-0.5,0-1,0-1.5c0.5,0,1,0,1.5,0c0,0.5,0,1,0,1.5C-683.5,577.6-684,577.6-684.5,577.6z"/>
	</g>
	<g id="Layer_130">
		<path class="st0" d="M-608,577.5c-0.5,0.1-1,0.1-1.5,0.1c0-0.5,0-1,0-1.5c6,0,12,0,18,0c0,0.5,0,1,0,1.5c-0.5,0-1,0-1.5,0
			c-1,0-2,0-3,0c-0.5,0-1,0-1.5,0s-1,0-1.5,0c0,1.5,0,3,0,4.5c0,0.5,0,1,0,1.5s0,1,0,1.5s0,1,0,1.5s0,1,0,1.5s0,1,0,1.5c0,1,0,2,0,3
			c0.5,0.1,1,0,1.5,0c0,0.5,0,1,0,1.5c-1,0-2,0-3,0c0-5.5,0-10.9,0-16.4c0,0,0,0,0-0.1c0,0,0,0-0.1-0.1c-0.5,0-0.9,0-1.4,0
			c-1,0-2,0-3,0"/>
	</g>
	<g id="Layer_129">
		<path class="st1" d="M-591.5,577.6c0-0.5,0-1,0-1.5c0.5,0,1,0,1.5,0c0,0.5,0,1,0,1.5C-590.5,577.6-591,577.6-591.5,577.6z"/>
	</g>
	<g id="Layer_128">
		<path class="st0" d="M-572,582.1c0,0.5,0,1,0,1.5s0,1,0,1.5s0,1,0,1.5s0,1,0,1.5c0,1,0,2,0,3c-0.5,0-1,0-1.5,0c0,0.5,0,1,0,1.5
			c-0.5,0-1,0-1.5,0c0,0.5,0,1,0,1.5c-2.5,0-5,0-7.5,0c0-1,0-2,0-3c0.5,0,1,0,1.5,0c0,0.5,0,1,0,1.5c1,0,2,0,3,0c0.5,0,1,0,1.5,0
			c0-0.5,0-1,0-1.5c0.5,0,1,0,1.5,0c0-0.5,0-1,0-1.5c0.5,0,1,0,1.5,0c0.1-2.5,0.1-11.3-0.1-12c-0.5,0-0.9,0-1.4,0s-1,0-1.5,0
			c0-0.5,0-1,0-1.5c2,0,4,0,6,0c0,0.5,0,1,0,1.5c-0.5,0-1,0-1.5,0C-572,579.1-572,580.6-572,582.1z"/>
	</g>
	<g id="Layer_127">
		<path class="st2" d="M-582.5,591.1c0,1,0,2,0,3c-0.5,0-1,0-1.5,0c0-1,0-2,0-3C-583.5,591.1-583,591.1-582.5,591.1z"/>
	</g>
	<g id="Layer_126">
		<path class="st1" d="M-575,594.1c0-0.5,0-1,0-1.5c0.5,0,1,0,1.5,0c0,0.5,0,1,0,1.5C-574,594.1-574.5,594.1-575,594.1z"/>
	</g>
	<g id="Layer_125">
		<path class="st0" d="M-668,582.1c0,0.5,0,1,0,1.5c-0.5,0-1,0-1.5,0c0-0.5,0-1,0-1.5c-0.5,0-1,0-1.5,0c0-0.5,0-1,0-1.5
			c-0.5,0-1,0-1.5,0c0-0.5,0-1,0-1.5c-0.5,0-1,0-1.5,0c0-0.5,0-1,0-1.5c-0.5,0-1,0-1.5,0s-1,0-1.5,0c0,1.5,0,3,0,4.5
			c0,0.5,0,1,0,1.5s0,1,0,1.5s0,1,0,1.5s0,1,0,1.5s0,1,0,1.5c0,1,0,2,0,3c0.5,0.1,1,0,1.5,0c0,0.5,0,1,0,1.5c-1,0-2,0-3,0
			c0-5.5,0-11,0-16.5c0-0.5,0-1,0-1.5c2,0,4,0,6,0c0,0.5,0,1,0,1.5c0.5,0,1,0,1.5,0c0,0.5,0,1,0,1.4c0.5,0.1,1,0,1.5,0.1
			c0,0.5,0,1,0,1.5c0.5,0,1,0,1.5,0C-668,581.2-668,581.6-668,582.1z"/>
	</g>
	<g id="Layer_124">
		<path class="st1" d="M-668,582.1c0-0.5,0-0.9,0-1.5c-0.5-0.1-1,0-1.5,0c0-0.5,0-0.9,0-1.5c-0.5-0.1-1,0-1.5-0.1c0-0.4,0-0.9,0-1.4
			c-0.5,0-1,0-1.5,0c0-0.5,0-1,0-1.5c1,0,2,0,3,0c0,0.5,0,1,0,1.5c0.5,0,1,0,1.5,0c0,0.5,0,1,0,1.5c0.5,0,1,0,1.5,0c0,1,0,2,0,3
			C-667,582.1-667.5,582.1-668,582.1z"/>
	</g>
	<g id="Layer_123">
		<path class="st0" d="M-654.5,582.1c0,0.5,0,1,0,1.5s0,1,0,1.5s0,1,0,1.5s0,1,0,1.5s0,1,0,1.5c0,1,0,2,0,3c0.5,0.1,1,0,1.5,0
			c0,0.5,0,1,0,1.5c-1,0-2,0-3,0c0-6,0-12,0-18c1,0,2,0,3,0c0,0.5,0,1,0,1.5c-0.5,0-1,0-1.5,0C-654.5,579.1-654.5,580.6-654.5,582.1
			z"/>
	</g>
	<g id="Layer_122">
		<path class="st2" d="M-656,576.1c0,6,0,12,0,18c-1,0-2,0-3,0c0-0.5,0-1,0-1.5c0.5,0,0.9,0,1.4,0c0.1-0.7,0.2-12.4,0.1-15
			c-0.5,0-1,0-1.5,0c0-0.5,0-1,0-1.5C-658,576.1-657,576.1-656,576.1z"/>
	</g>
	<g id="Layer_121">
		<path class="st1" d="M-653,577.6c0-0.5,0-1,0-1.5c0.5,0,1,0,1.5,0c0,0.5,0,1,0,1.5C-652,577.6-652.5,577.6-653,577.6z"/>
	</g>
	<g id="Layer_120">
		<path class="st0" d="M-641,576.1c1.5,0,3,0,4.5,0c0,0.5,0,1,0,1.5c-1,0-2,0-3,0c-0.5,0-1,0-1.5,0C-641,577.1-641,576.6-641,576.1z
			"/>
	</g>
	<g id="Layer_119">
		<path class="st1" d="M-636.5,577.6c0-0.5,0-1,0-1.5c0.5,0,1,0,1.5,0c0,0.5,0,1,0,1.5C-635.5,577.6-636,577.6-636.5,577.6z"/>
	</g>
	<g id="Layer_118">
		<path class="st1" d="M-641,576.1c0,0.5,0,1,0,1.5c-0.5,0-1,0-1.5,0c0-0.5,0-1,0-1.5C-642,576.1-641.5,576.1-641,576.1z"/>
	</g>
	<g id="Layer_117">
		<path class="st2" d="M-695,577.6c0.5,0,0.9,0,1.4,0c0,0,0,0,0.1,0.1c0,0,0,0,0,0.1c0,5.5,0,10.9,0,16.4c-1,0-2,0-3,0
			c0-0.5,0-1,0-1.5c0.5,0,0.9,0,1.4,0c0,0,0,0,0.1-0.1c0,0,0,0,0-0.1C-695,587.5-695,582.6-695,577.6z"/>
	</g>
	<g id="Layer_116">
		<path class="st1" d="M-690.5,594.1c0-0.5,0-0.9,0-1.5c-0.5-0.1-1,0-1.5,0c0-1,0-2,0-3c0.5,0,1,0,1.5,0c0,0.5,0,1,0,1.5
			c0.5,0,1,0,1.5,0c0,1,0,2,0,3C-689.5,594.1-690,594.1-690.5,594.1z"/>
	</g>
	<g id="Layer_115">
		<path class="st2" d="M-678.5,577.6c0,5.5,0,11,0,16.5c-1,0-2,0-3,0c0-0.5,0-1,0-1.5c0.5,0,0.9,0,1.4,0c0.1-0.7,0.2-9.5,0.1-12
			c-0.5,0-1,0-1.5,0c0-0.5,0-1,0-1.5c0.5,0,1,0,1.5,0c0-0.5,0-1,0-1.5C-679.5,577.6-679,577.6-678.5,577.6z"/>
	</g>
	<g id="Layer_114">
		<path class="st1" d="M-675.5,594.1c0-0.5,0-0.9,0-1.5c-0.5-0.1-1,0-1.5,0c0-1,0-2,0-3c0.5,0,1,0,1.5,0c0,0.5,0,1,0,1.5
			c0.5,0,1,0,1.5,0c0,1,0,2,0,3C-674.5,594.1-675,594.1-675.5,594.1z"/>
	</g>
	<g id="Layer_113">
		<path class="st0" d="M-617,582.1c0,0.5,0,1,0,1.5s0,1,0,1.5s0,1,0,1.5s0,1,0,1.5s0,1,0,1.5c0,1,0,2,0,3c0.5,0.1,1,0,1.5,0
			c0,0.5,0,1,0,1.5c-1,0-2,0-3,0c0-6,0-12,0-18c1,0,2,0,3,0c0,0.5,0,1,0,1.5c-0.5,0-1,0-1.5,0C-617,579.1-617,580.6-617,582.1z"/>
	</g>
	<g id="Layer_112">
		<path class="st2" d="M-618.5,576.1c0,6,0,12,0,18c-1,0-2,0-3,0c0-0.5,0-1,0-1.5c0.5,0,0.9,0,1.4,0c0.1-0.7,0.2-12.4,0.1-15
			c-0.5,0-1,0-1.5,0c0-0.5,0-1,0-1.5C-620.5,576.1-619.5,576.1-618.5,576.1z"/>
	</g>
	<g id="Layer_111">
		<path class="st1" d="M-615.5,577.6c0-0.5,0-1,0-1.5c0.5,0,1,0,1.5,0c0,0.5,0,1,0,1.5C-614.5,577.6-615,577.6-615.5,577.6z"/>
	</g>
	<g id="Layer_110">
		<path class="st1" d="M-653,594.1c0-0.5,0-0.9,0-1.5c-0.5-0.1-1,0-1.5,0c0-1,0-2,0-3c0.5,0,1,0,1.5,0c0,0.5,0,1,0,1.5
			c0.5,0,1,0,1.5,0c0,1,0,2,0,3C-652,594.1-652.5,594.1-653,594.1z"/>
	</g>
	<g id="Layer_109">
		<path class="st2" d="M-645.5,579.1c0.5,0,1,0,1.5,0c0-0.5,0-1,0-1.5c0.5,0,1,0,1.5,0c0,5.5,0,11,0,16.5c-1,0-2,0-3,0
			c0-0.5,0-1,0-1.5c0.5,0,0.9,0,1.4,0c0.1-0.7,0.2-9.5,0.1-12c-0.5,0-1,0-1.5,0C-645.5,580.1-645.5,579.6-645.5,579.1z"/>
	</g>
	<g id="Layer_108">
		<path class="st0" d="M-642.5,594.1c0-5.5,0-11,0-16.5c0.5,0,1,0,1.5,0c0,1.5,0,3,0,4.5c0,0.5,0,1,0,1.5s0,1,0,1.5s0,1,0,1.5
			s0,1,0,1.5s0,1,0,1.5c0,1,0,2,0,3c0.5,0,1,0,1.5,0c0,0.5,0,1,0,1.5C-640.5,594.1-641.5,594.1-642.5,594.1z"/>
	</g>
	<g id="Layer_107">
		<path class="st1" d="M-639.5,594.1c0-0.5,0-1,0-1.5c0.5,0,1,0,1.5,0c0,0.5,0,1,0,1.5C-638.5,594.1-639,594.1-639.5,594.1z"/>
	</g>
	<g id="Layer_106">
		<path class="st1" d="M-570.5,577.6c0-0.5,0-1,0-1.5c0.5,0,1,0,1.5,0c0,0.5,0,1,0,1.5C-569.5,577.6-570,577.6-570.5,577.6z"/>
	</g>
	<g id="Layer_105">
		<path class="st1" d="M-615.5,594.1c0-0.5,0-1.5,0-1.5h-1.5c0,0,0-2,0-3c0.5,0,1,0,1.5,0c0,0.5,0,1,0,1.5c0.5,0,1,0,1.5,0
			c0,1,0,2,0,3C-614.5,594.1-615,594.1-615.5,594.1z"/>
	</g>
	<g id="Layer_104">
		<path class="st2" d="M-602,577.6c0.5,0,0.9,0,1.4,0c0,0,0,0,0.1,0.1c0,0,0,0,0,0.1c0,5.5,0,10.9,0,16.4c-1,0-2,0-3,0
			c0-0.5,0-1,0-1.5c0.5,0,1.4,0,1.4,0h0.1v-0.1C-602,592.5-602,582.6-602,577.6z"/>
	</g>
	<g id="Layer_103">
		<path class="st1" d="M-597.5,594.1c0-0.5,0-0.9,0-1.5c-0.5-0.1-1,0-1.5,0c0-1,0-2,0-3c0.5,0,1,0,1.5,0c0,0.5,0,1,0,1.5
			c0.5,0,1,0,1.5,0c0,1,0,2,0,3C-596.5,594.1-597,594.1-597.5,594.1z"/>
	</g>
	<g id="Layer_102">
		<path d="M-678.5,577.6c-0.5,0-1,0-1.5,0c0-0.5,0-1,0-1.5c0.5,0,1,0,1.5,0C-678.5,576.6-678.5,577.1-678.5,577.6z"/>
	</g>
	<g id="Layer_101">
		<path d="M-683,577.6c0-0.5,0-1,0-1.5c0.5,0,1,0,1.5,0c0,0.5,0,1,0,1.5C-682,577.6-682.5,577.6-683,577.6z"/>
	</g>
	<g id="Layer_100">
		<path d="M-680,577.6c0,0.5,0,1,0,1.5c-0.5,0-1,0-1.5,0c0-0.5,0-1,0-1.5C-681,577.6-680.5,577.6-680,577.6z"/>
	</g>
	<g id="Layer_99">
		<path class="st1" d="M-669.5,585.1c0.5,0,1,0,1.5,0c0,1,0,2,0,3c0.5,0,1,0,1.5,0c0,1,0,2,0,3c0.5,0,1,0,1.5,0c0,1,0,2,0,3
			c-0.5,0-1,0-1.5,0c0-0.5,0-1,0-1.5c-0.5,0-1,0-1.5,0c0-1,0-2,0-3c-0.5,0-1,0-1.5,0c0-1,0-2,0-3c-0.5,0-1,0-1.5,0c0-0.5,0-1,0-1.5
			C-670.5,585.1-670,585.1-669.5,585.1z"/>
	</g>
	<g id="Layer_98">
		<path class="st0" d="M-671,586.6c0.5,0,1,0,1.5,0c0,1,0,2,0,3c0.5,0,1,0,1.5,0c0,1,0,2,0,3c0.5,0,1,0,1.5,0c0,0.5,0,1,0,1.5
			c-1,0-2,0-3,0c0-1,0-2,0-3c-0.5,0-1,0-1.5,0c0-0.5,0-1,0-1.5s0-1,0-1.5S-671,587.1-671,586.6z"/>
	</g>
	<g id="Layer_97">
		<path class="st2" d="M-671,591.1c0.5,0,1,0,1.5,0c0,1,0,2,0,3c-0.5,0-1,0-1.5,0C-671,593.1-671,592.1-671,591.1z"/>
	</g>
	<g id="Layer_96">
		<path class="st0" d="M-633.5,591.1c0,0.5,0,1,0,1.5c0.5,0,1,0,1.5,0c0,0.5,0,1,0,1.5c-1,0-2,0-3,0c0-1.5,0-3,0-4.5
			c0.5,0,1,0,1.5,0C-633.5,590.1-633.5,590.6-633.5,591.1z"/>
	</g>
	<g id="Layer_95">
		<path class="st1" d="M-632,594.1c0-0.5,0-1,0-1.5c0.5,0,1,0,1.5,0c0,0.5,0,1,0,1.5C-631,594.1-631.5,594.1-632,594.1z"/>
	</g>
	<g id="Layer_94">
		<path class="st0" d="M-584,582.1c0-0.5,0-1,0-1.5c0.5,0,1,0,1.5,0c0-0.5,0-1,0-1.5c0.5,0,0.9,0,1.5,0c0-0.2,0-0.5,0-0.7
			s0-0.5,0-0.8c-0.5,0-1,0-1.5,0c0-0.5,0-1,0-1.5c1,0,2,0,3,0c0,0.5,0,1,0,1.5s0,1,0,1.5s0,1,0,1.5c-0.5,0-1,0-1.5,0
			c0,0.5,0,1,0,1.5c-0.5,0-1,0-1.5,0c0,1,0,2,0,3c0.5,0,1,0,1.5,0c0,0.5,0,1,0,1.5c0.5,0,1,0,1.5,0c0,0.5,0,1,0,1.5c0.5,0,1,0,1.5,0
			s1,0,1.5,0c0,0.5,0,1,0,1.5c-1.5,0-3,0-4.5,0c0-0.5,0-1,0-1.5c-0.5,0-1,0-1.5,0c0-0.3,0-0.5,0-0.7s0-0.5,0-0.8c-0.5,0-1,0-1.5,0
			c0-0.5,0-1,0-1.5C-584,584.1-584,583.1-584,582.1z"/>
	</g>
	<g id="Layer_93">
		<path class="st1" d="M-579.5,577.6c0-0.5,0-1,0-1.5c0.5,0,1,0,1.5,0c0,0.5,0,1,0,1.5C-578.5,577.6-579,577.6-579.5,577.6z"/>
	</g>
	<g id="Layer_92">
		<path d="M-671,591.1c0,1,0,2,0,3c-1,0-2,0-3,0c0-1,0-2,0-3c0.5,0,1,0,1.5,0c0-0.5,0-1,0-1.5c0.5,0,1,0,1.5,0
			C-671,590.1-671,590.6-671,591.1z"/>
	</g>
	<g id="Layer_91">
		<path d="M-635,589.6c0,1.5,0,3,0,4.5c-1,0-2,0-3,0c0-0.5,0-1,0-1.5c0.5,0,1,0,1.5,0c0-1.5,0-2.9,0-4.4c0,0,0,0,0-0.1
			c0,0,0,0,0.1-0.1c0.5,0,0.9,0,1.4,0C-635,588.6-635,589.1-635,589.6z"/>
	</g>
	<g id="Layer_90">
		<path d="M-578,577.6c0-0.5,0-1,0-1.5c0.5,0,1,0,1.5,0c0,0.5,0,1,0,1.5C-577,577.6-577.5,577.6-578,577.6z"/>
	</g>
	<g id="Layer_89">
		<path class="st2" d="M-576.5,589.6c0-0.5,0-1,0-1.5c0.5,0,1,0,1.5,0c0-3.5,0-7,0-10.5c0.5,0,0.9,0,1.4,0c0.1,0.7,0.2,9.5,0.1,12
			c-0.5,0-1,0-1.5,0S-576,589.6-576.5,589.6z"/>
	</g>
	<g id="Layer_88">
		<path class="st1" d="M-578,592.6c-1,0-2,0-3,0c0-0.5,0-1,0-1.5c1,0,2,0,3,0C-578,591.6-578,592.1-578,592.6z"/>
	</g>
	<g id="Layer_87">
		<path class="st0" d="M-582.5,591.1c-0.5,0-1,0-1.5,0c0-0.5,0-1,0-1.5c0.5,0,1,0,1.5,0C-582.5,590.1-582.5,590.6-582.5,591.1z"/>
	</g>
	<g id="Layer_86">
		<path class="st2" d="M-596,577.6c1,0,2,0,3,0c0,0.5,0,1,0,1.5c-0.5,0-1,0-1.5,0s-1,0-1.5,0C-596,578.6-596,578.1-596,577.6z"/>
	</g>
	<g id="Layer_85">
		<path class="st1" d="M-594.5,579.1c0.5,0,1,0,1.5,0c0,0.5,0,1,0,1.5c-0.5,0-1,0-1.5,0C-594.5,580.1-594.5,579.6-594.5,579.1z"/>
	</g>
	<g id="Layer_84">
		<path class="st2" d="M-584,582.1c0,1,0,2,0,3c-0.5,0-1,0-1.5,0c0-1,0-2,0-3C-585,582.1-584.5,582.1-584,582.1z"/>
	</g>
	<g id="Layer_83">
		<path class="st1" d="M-599,588.1c0-0.5,0-1,0-1.5c0.5,0,1,0,1.5,0c0,0.5,0,1,0,1.5C-598,588.1-598.5,588.1-599,588.1z"/>
	</g>
	<g id="Layer_82">
		<path class="st1" d="M-599,585.1c0-0.5,0-1,0-1.5c0.5,0,1,0,1.5,0c0,0.5,0,1,0,1.5C-598,585.1-598.5,585.1-599,585.1z"/>
	</g>
	<g id="Layer_80">
		<path class="st0" d="M-594.5,579.1c0,0.5,0,1,0,1.5s0,1,0,1.5c-0.5,0-1,0-1.5,0c0-1,0-2,0-3C-595.5,579.1-595,579.1-594.5,579.1z"
			/>
	</g>
	<g id="Layer_79">
		<path class="st1" d="M-630.5,586.6c0,1,0,2,0,3c-0.5,0-1,0-1.5,0c0-1,0-2,0-3C-631.5,586.6-631,586.6-630.5,586.6z"/>
	</g>
	<g id="Layer_78">
		<path class="st1" d="M-633.5,591.1c0-0.5,0-1,0-1.5c0.5,0,1,0,1.5,0c0,0.5,0,1,0,1.5C-632.5,591.1-633,591.1-633.5,591.1z"/>
	</g>
	<g id="Layer_77">
		<path class="st0" d="M-630.5,586.6c-0.5,0-1,0-1.5,0c0-1.5,0-3,0-4.5c-0.5,0-1,0-1.5,0c0-0.5,0-1,0-1.5c-0.5,0-1,0-1.5,0
			c0-0.5,0-1,0-1.5c-0.5,0-1,0-1.5,0c0-0.5,0-1,0-1.5c0.5,0,1,0,1.5,0s1,0,1.5,0c0,0.5,0,1,0,1.5c0.5,0,1,0,1.5,0c0,0.5,0,1,0,1.5
			c0.5,0,1,0,1.5,0c0,1,0,2,0,3S-630.5,585.6-630.5,586.6z"/>
	</g>
	<g id="Layer_76">
		<path class="st1" d="M-630.5,586.6c0-1,0-2,0-3c0.5,0,1,0,1.5,0c0,1,0,2,0,3C-629.5,586.6-630,586.6-630.5,586.6z"/>
	</g>
	<g id="Layer_75">
		<path class="st1" d="M-632,579.1c-0.5,0-1,0-1.5,0c0-0.5,0-1,0-1.5c0.5,0,1,0,1.5,0C-632,578.1-632,578.6-632,579.1z"/>
	</g>
	<g id="Layer_74">
		<path class="st2" d="M-608,577.6c1,0,2,0,3,0c0,1,0,2,0,3c-0.5,0-1,0-1.5,0c0-0.5,0-1,0-1.5c-0.5,0-1,0-1.5,0
			C-608,578.6-608,578.1-608,577.6z"/>
	</g>
	<g id="Layer_73">
		<path class="st0" d="M-606.5,580.6c0.5,0,1,0,1.5,0c0,0.5,0,1,0,1.5c-0.5,0-1,0-1.5,0C-606.5,581.6-606.5,581.1-606.5,580.6z"/>
	</g>
	<g id="Layer_72">
		<path class="st1" d="M-605,582.1c0-0.5,0-1,0-1.5c0.5,0,0.9,0,1.5,0c0,0.2,0,0.5,0,0.7s0,0.5,0,0.8
			C-604,582.1-604.5,582.1-605,582.1z"/>
	</g>
	<g id="Layer_71">
		<path class="st1" d="M-617,582.1c0-1.5,0-3,0-4.5c0.5,0,1,0,1.5,0c0,1.5,0,3,0,4.5C-616,582.1-616.5,582.1-617,582.1z"/>
	</g>
	<g id="Layer_70">
		<path class="st1" d="M-617,588.1c0-0.5,0-1,0-1.5c0.5,0,1,0,1.5,0c0,0.5,0,1,0,1.5C-616,588.1-616.5,588.1-617,588.1z"/>
	</g>
	<g id="Layer_69">
		<path class="st1" d="M-617,585.1c0-0.5,0-1,0-1.5c0.5,0,1,0,1.5,0c0,0.5,0,1,0,1.5C-616,585.1-616.5,585.1-617,585.1z"/>
	</g>
	<g id="Layer_68">
		<path class="st2" d="M-669.5,585.1c-0.5,0-1,0-1.5,0c0,0.5,0,1,0,1.5c-0.5,0-1,0-1.5,0c0-0.5,0-1,0-1.5s0-1,0-1.5c0-1,0-2,0-3
			c0.5,0,1,0,1.5,0c0,0.5,0,1,0,1.5c0.5,0,1,0,1.5,0c0,0.5,0,1,0,1.5S-669.5,584.6-669.5,585.1z"/>
	</g>
	<g id="Layer_67">
		<path class="st1" d="M-654.5,582.1c0-1.5,0-3,0-4.5c0.5,0,1,0,1.5,0c0,1.5,0,3,0,4.5C-653.5,582.1-654,582.1-654.5,582.1z"/>
	</g>
	<g id="Layer_66">
		<path class="st1" d="M-654.5,588.1c0-0.5,0-1,0-1.5c0.5,0,1,0,1.5,0c0,0.5,0,1,0,1.5C-653.5,588.1-654,588.1-654.5,588.1z"/>
	</g>
	<g id="Layer_65">
		<path class="st1" d="M-654.5,585.1c0-0.5,0-1,0-1.5c0.5,0,1,0,1.5,0c0,0.5,0,1,0,1.5C-653.5,585.1-654,585.1-654.5,585.1z"/>
	</g>
	<g id="Layer_64">
		<path class="st2" d="M-701,577.6c1,0,2,0,3,0c0,1,0,2,0,3c-0.5,0-1,0-1.5,0c0-0.5,0-1,0-1.5c-0.5,0-1,0-1.5,0
			C-701,578.6-701,578.1-701,577.6z"/>
	</g>
	<g id="Layer_63">
		<path class="st0" d="M-699.5,580.6c0.5,0,1,0,1.5,0c0,0.5,0,1,0,1.5c-0.5,0-1,0-1.5,0C-699.5,581.6-699.5,581.1-699.5,580.6z"/>
	</g>
	<g id="Layer_62">
		<path class="st1" d="M-698,582.1c0-0.5,0-1,0-1.5c0.5,0,0.9,0,1.5,0c0,0.5,0,1,0,1.5C-697,582.1-697.5,582.1-698,582.1z"/>
	</g>
	<g id="Layer_61">
		<path class="st2" d="M-689,577.6c1,0,2,0,3,0c0,0.5,0,1,0,1.5c-0.5,0-1,0-1.5,0s-1,0-1.5,0C-689,578.6-689,578.1-689,577.6z"/>
	</g>
	<g id="Layer_60">
		<path class="st1" d="M-687.5,579.1c0.5,0,1,0,1.5,0c0,0.5,0,1,0,1.5c-0.5,0-1,0-1.5,0C-687.5,580.1-687.5,579.6-687.5,579.1z"/>
	</g>
	<g id="Layer_58">
		<path class="st1" d="M-692,588.1c0-0.5,0-1,0-1.5c0.5,0,1,0,1.5,0c0,0.5,0,1,0,1.5C-691,588.1-691.5,588.1-692,588.1z"/>
	</g>
	<g id="Layer_56">
		<path class="st1" d="M-692,585.1c0-0.5,0-1,0-1.5c0.5,0,1,0,1.5,0c0,0.5,0,1,0,1.5C-691,585.1-691.5,585.1-692,585.1z"/>
	</g>
	<g id="Layer_55">
		<path class="st0" d="M-687.5,579.1c0,0.5,0,1,0,1.5s0,1,0,1.5c-0.5,0-1,0-1.5,0c0-1,0-2,0-3C-688.5,579.1-688,579.1-687.5,579.1z"
			/>
	</g>
	<g id="Layer_54">
		<path class="st1" d="M-572,582.1c0-1.5,0-3,0-4.5c0.5,0,1,0,1.5,0c0,1.5,0,3,0,4.5C-571,582.1-571.5,582.1-572,582.1z"/>
	</g>
	<g id="Layer_53">
		<path class="st1" d="M-572,588.1c0-0.5,0-1,0-1.5c0.5,0,1,0,1.5,0c0,0.5,0,1,0,1.5C-571,588.1-571.5,588.1-572,588.1z"/>
	</g>
	<g id="Layer_52">
		<path class="st1" d="M-573.5,592.6c0-0.5,0-1,0-1.5c0.5,0,1,0,1.5,0c0,0.5,0,1,0,1.5C-572.5,592.6-573,592.6-573.5,592.6z"/>
	</g>
	<g id="Layer_51">
		<path class="st1" d="M-572,585.1c0-0.5,0-1,0-1.5c0.5,0,1,0,1.5,0c0,0.5,0,1,0,1.5C-571,585.1-571.5,585.1-572,585.1z"/>
	</g>
	<g id="Layer_50">
		<path d="M-689,579.1c0,1,0,2,0,3c-0.5,0-1,0-1.5,0c0-1.5,0-3,0-4.5c0.5,0,1,0,1.5,0C-689,578.1-689,578.6-689,579.1z"/>
	</g>
	<g id="Layer_49">
		<path class="st1" d="M-690.5,577.6c0,1.5,0,3,0,4.5c-0.5,0-1,0-1.5,0c0-1.5,0-3,0-4.5C-691.5,577.6-691,577.6-690.5,577.6z"/>
	</g>
	<g id="Layer_48">
		<path d="M-692,582.1c0.5,0,1,0,1.5,0c0,0.5,0,1,0,1.5c-0.5,0-1,0-1.5,0C-692,583.1-692,582.6-692,582.1z"/>
	</g>
	<g id="Layer_47">
		<path d="M-596,579.1c0,1,0,2,0,3c-0.5,0-1,0-1.5,0c0-1.5,0-3,0-4.5c0.5,0,1,0,1.5,0C-596,578.1-596,578.6-596,579.1z"/>
	</g>
	<g id="Layer_46">
		<path class="st1" d="M-597.5,577.6c0,1.5,0,3,0,4.5c-0.5,0-1,0-1.5,0c0-1.5,0-3,0-4.5C-598.5,577.6-598,577.6-597.5,577.6z"/>
	</g>
	<g id="Layer_45">
		<path d="M-599,582.1c0.5,0,1,0,1.5,0c0,0.5,0,1,0,1.5c-0.5,0-1,0-1.5,0C-599,583.1-599,582.6-599,582.1z"/>
	</g>
	<g id="Layer_44">
		<path d="M-575,577.6c0,3.5,0,7,0,10.5c-0.5,0-1,0-1.5,0s-1,0-1.5,0c0-0.5,0-1,0-1.5c0.5,0,1,0,1.5,0c0.1-2.1,0.1-5.4-0.1-6
			c-0.5,0-0.9,0-1.4,0c0-0.5,0-1,0-1.5c0.5,0,1,0,1.5,0c0-0.5,0-1,0-1.5C-576,577.6-575.5,577.6-575,577.6z"/>
	</g>
	<g id="Layer_43">
		<path d="M-672.5,580.6c0,1,0,2,0,3c-1.5,0-3,0-4.5,0c0-0.5,0-1,0-1.5c0.5,0,1,0,1.5,0c0-1.5,0-3,0-4.5c0.5,0,1,0,1.5,0
			c0,0.5,0,1,0,1.5c0.5,0,1,0,1.5,0C-672.5,579.6-672.5,580.1-672.5,580.6z"/>
	</g>
	<g id="Layer_42">
		<path class="st1" d="M-677,583.6c1.5,0,3,0,4.5,0c0,0.5,0,1,0,1.5c-1,0-2,0-3,0c-0.5,0-1,0-1.5,0C-677,584.6-677,584.1-677,583.6z
			"/>
	</g>
	<g id="Layer_41">
		<path class="st1" d="M-675.5,577.6c0,1.5,0,3,0,4.5c-0.5,0-1,0-1.5,0c0-1.5,0-3,0-4.5C-676.5,577.6-676,577.6-675.5,577.6z"/>
	</g>
	<g id="Layer_40">
		<path class="st1" d="M-677,588.1c0-0.5,0-1,0-1.5c0.5,0,1,0,1.5,0c0,0.5,0,1,0,1.5C-676,588.1-676.5,588.1-677,588.1z"/>
	</g>
	<g id="Layer_39">
		<path d="M-677,588.1c0.5,0,1,0,1.5,0c0,0.5,0,1,0,1.5c-0.5,0-1,0-1.5,0C-677,589.1-677,588.6-677,588.1z"/>
	</g>
	<g id="Layer_38">
		<path d="M-675.5,586.6c-0.5,0-1,0-1.5,0c0-0.5,0-1,0-1.5c0.5,0,1,0,1.5,0C-675.5,585.6-675.5,586.1-675.5,586.6z"/>
	</g>
	<g id="Layer_37">
		<path d="M-636.5,577.6c0,0.5,0,1,0,1.5c-0.5,0-1,0-1.5,0c0,1,0,1.9,0,2.9c0,0,0,0,0,0.1c0,0,0,0-0.1,0.1c-0.5,0-0.9,0-1.4,0
			c0-1.5,0-3,0-4.5C-638.5,577.6-637.5,577.6-636.5,577.6z"/>
	</g>
	<g id="Layer_36">
		<path class="st1" d="M-639.5,577.6c0,1.5,0,3,0,4.5c-0.5,0-1,0-1.5,0c0-1.5,0-3,0-4.5C-640.5,577.6-640,577.6-639.5,577.6z"/>
	</g>
	<g id="Layer_35">
		<path d="M-674,591.1c-0.5,0-1,0-1.5,0c0-0.5,0-1,0-1.5c0.5,0,1,0,1.5,0C-674,590.1-674,590.6-674,591.1z"/>
	</g>
	<g id="Layer_34">
		<path class="st1" d="M-639.5,592.6c-0.5,0-1,0-1.5,0c0-1,0-2,0-3c0.5,0,1,0,1.5,0C-639.5,590.6-639.5,591.6-639.5,592.6z"/>
	</g>
	<g id="Layer_33">
		<path class="st1" d="M-641,588.1c0-0.5,0-1,0-1.5c0.5,0,1,0,1.5,0c0,0.5,0,1,0,1.5C-640,588.1-640.5,588.1-641,588.1z"/>
	</g>
	<g id="Layer_32">
		<path d="M-641,588.1c0.5,0,1,0,1.5,0c0,0.5,0,1,0,1.5c-0.5,0-1,0-1.5,0C-641,589.1-641,588.6-641,588.1z"/>
	</g>
	<g id="Layer_31">
		<path class="st1" d="M-641,585.1c0-0.5,0-1,0-1.5c0.5,0,1,0,1.5,0c0,0.5,0,1,0,1.5C-640,585.1-640.5,585.1-641,585.1z"/>
	</g>
	<g id="Layer_30">
		<path d="M-641,585.1c0.5,0,1,0,1.5,0c0,0.5,0,1,0,1.5c-0.5,0-1,0-1.5,0C-641,586.1-641,585.6-641,585.1z"/>
	</g>
	<g id="Layer_29">
		<path d="M-639.5,583.6c-0.5,0-1,0-1.5,0c0-0.5,0-1,0-1.5c0.5,0,1,0,1.5,0C-639.5,582.6-639.5,583.1-639.5,583.6z"/>
	</g>
	<g id="Layer_28">
		<path d="M-639.5,592.6c0-1,0-2,0-3c0.5,0,1,0,1.5,0c0,1,0,2,0,3C-638.5,592.6-639,592.6-639.5,592.6z"/>
	</g>
	<g id="Layer_27">
		<path d="M-675.5,588.1c0-0.5,0-1,0-1.5c1,0,2,0,3,0c0.5,0,1,0,1.5,0c0,0.5,0,1,0,1.5c-0.5,0-1,0-1.5,0c0,0.5,0,1,0,1.5
			c-0.5,0-1,0-1.5,0c0-0.5,0-1,0-1.5C-674.5,588.1-675,588.1-675.5,588.1z"/>
	</g>
	<g id="Layer_26">
		<path class="st2" d="M-672.5,589.6c0-0.5,0-1,0-1.5c0.5,0,1,0,1.5,0c0,0.5,0,1,0,1.5C-671.5,589.6-672,589.6-672.5,589.6z"/>
	</g>
	<g id="Layer_25">
		<path class="st2" d="M-635,589.6c0-0.5,0-1,0-1.5c0.5,0,1,0,1.5,0c0,0.5,0,1,0,1.5C-634,589.6-634.5,589.6-635,589.6z"/>
	</g>
	<g id="Layer_24">
		<path class="st1" d="M-581,585.1c-0.5,0-0.9,0-1.5,0c-0.1-1,0-2,0-3c0.5,0,1,0,1.5,0C-581,583.1-581,584.1-581,585.1z"/>
	</g>
	<g id="Layer_23">
		<path class="st1" d="M-578,586.6c0,0.5,0,1,0,1.5c-0.5,0-1,0-1.5,0c0-0.5,0-1,0-1.5C-579,586.6-578.5,586.6-578,586.6z"/>
	</g>
	<g id="Layer_22">
		<path d="M-579.5,577.6c0.5,0,1,0,1.5,0c0,0.5,0,1,0,1.5c-0.5,0-1,0-1.5,0C-579.5,578.6-579.5,578.1-579.5,577.6z"/>
	</g>
	<g id="Layer_21">
		<path class="st1" d="M-579.5,579.1c0.5,0,1,0,1.5,0c0,0.5,0,1,0,1.5c-0.5,0-1,0-1.5,0C-579.5,580.1-579.5,579.6-579.5,579.1z"/>
	</g>
	<g id="Layer_20">
		<path class="st1" d="M-579.5,586.6c-0.5,0-1,0-1.5,0c0-0.5,0-1,0-1.5c0.5,0,1,0,1.5,0C-579.5,585.6-579.5,586.1-579.5,586.6z"/>
	</g>
	<g id="Layer_19">
		<path class="st1" d="M-581,582.1c0-0.5,0-1,0-1.5c0.5,0,1,0,1.5,0c0,0.5,0,1,0,1.5C-580,582.1-580.5,582.1-581,582.1z"/>
	</g>
	<g id="Layer_17">
	</g>
	<g id="Layer_15">
		<path class="st0" d="M-633.5,589.6c0-0.5,0-1,0-1.5s0-1,0-1.5c0.5,0,1,0,1.5,0c0,1,0,2,0,3C-632.5,589.6-633,589.6-633.5,589.6z"
			/>
	</g>
	<g id="Layer_14">
		<path class="st2" d="M-632,586.6c-0.5,0-1,0-1.5,0c0-1.5,0-3,0-4.5c0.5,0,1,0,1.5,0C-632,583.6-632,585.1-632,586.6z"/>
	</g>
	<g id="Layer_13">
		<path d="M-635,582.1c-0.5,0-1,0-1.5,0c0-1,0-2,0-3c0.5,0,1,0,1.5,0c0,0.5,0,1,0,1.5S-635,581.6-635,582.1z"/>
	</g>
	<g id="Layer_12">
		<path class="st2" d="M-635,582.1c0-0.5,0-1,0-1.5c0.5,0,1,0,1.5,0c0,0.5,0,1,0,1.5C-634,582.1-634.5,582.1-635,582.1z"/>
	</g>
	<g id="Layer_11">
		<path class="st0" d="M-672.5,586.6c-1,0-2,0-3,0c0-0.5,0-1,0-1.5c1,0,2,0,3,0C-672.5,585.6-672.5,586.1-672.5,586.6z"/>
	</g>
	<g id="Layer_10">
	</g>
	<g id="Layer_8">
		<path d="M-639.5,586.6c0.5,0,0.9,0,1.5,0c0,0.2,0,0.5,0,0.7s0,0.5,0,0.8c-0.5,0-1,0-1.5,0C-639.5,587.6-639.5,587.1-639.5,586.6z"
			/>
	</g>
	<g id="Layer_7">
		<path d="M-639.5,583.6c0.5,0,0.9,0,1.5,0c0,0.2,0,0.5,0,0.7s0,0.5,0,0.8c-0.5,0-1,0-1.5,0C-639.5,584.6-639.5,584.1-639.5,583.6z"
			/>
	</g>
	<g id="Layer_6">
		<path d="M-635,582.1c0.5,0,1,0,1.5,0c0,1.5,0,3,0,4.5c0,0.5,0,1,0,1.5c-0.5,0-1,0-1.5,0C-635,586.1-635,584.1-635,582.1z"/>
	</g>
	<g id="Layer_5">
		<path d="M-579.5,582.1c0,1,0,2,0,3c-0.5,0-1,0-1.5,0c0-1,0-2,0-3C-580.5,582.1-580,582.1-579.5,582.1z"/>
	</g>
	<g id="Layer_4">
		<path d="M-579.5,585.1c0.5,0,1,0,1.5,0c0,0.5,0,1,0,1.5c-0.5,0-1,0-1.5,0C-579.5,586.1-579.5,585.6-579.5,585.1z"/>
	</g>
	<g id="Layer_3">
		<path d="M-578,580.6c0,0.5,0,1,0,1.5c-0.5,0-1,0-1.5,0c0-0.5,0-1,0-1.5C-579,580.6-578.5,580.6-578,580.6z"/>
	</g>
</g>
</svg>
